M48
; DRILL file {KiCad 7.0.6-7.0.6~ubuntu20.04.1} date So 29 Okt 2023 13:01:42 CET
; FORMAT={-:-/ absolute / inch / decimal}
; #@! TF.CreationDate,2023-10-29T13:01:42+01:00
; #@! TF.GenerationSoftware,Kicad,Pcbnew,7.0.6-7.0.6~ubuntu20.04.1
; #@! TF.FileFunction,Plated,1,4,PTH
FMAT,2
INCH
; #@! TA.AperFunction,Plated,PTH,ViaDrill
T1C0.0118
; #@! TA.AperFunction,Plated,PTH,ViaDrill
T2C0.0157
; #@! TA.AperFunction,Plated,PTH,ComponentDrill
T3C0.0354
; #@! TA.AperFunction,Plated,PTH,ComponentDrill
T4C0.0394
%
G90
G05
T1
X2.1924Y-2.0784
X2.1973Y-1.7096
X2.2324Y-2.0784
X2.2628Y-1.7461
X2.2776Y-2.0778
X2.2785Y-2.0522
X2.2864Y-1.4833
X2.3691Y-1.7776
X2.3691Y-1.9429
X2.3701Y-1.9813
X2.3715Y-1.91
X2.3789Y-2.2274
X2.4301Y-1.6654
X2.4478Y-2.3514
X2.4705Y-1.5512
X2.4724Y-1.8634
X2.4728Y-1.7638
X2.4743Y-1.8069
X2.4781Y-1.9716
X2.4823Y-2.3543
X2.5295Y-2.0266
X2.5624Y-2.0234
X2.6093Y-1.773
X2.6102Y-1.6919
X2.6102Y-1.814
X2.6112Y-1.873
X2.6622Y-1.7165
X2.6624Y-1.8022
X2.6634Y-1.936
X2.6693Y-2.0148
X2.7293Y-1.6841
X2.7313Y-1.7224
X2.7382Y-1.8504
X2.7441Y-1.9882
X2.7618Y-1.5709
X2.771Y-1.6789
X2.7766Y-1.493
X2.7835Y-1.9903
X2.8224Y-1.5834
X2.8228Y-1.9596
X2.8273Y-1.8234
X2.9274Y-1.6184
X2.935Y-1.7264
X2.9824Y-1.4184
X2.9824Y-1.4684
X2.9874Y-1.5234
X3.0098Y-1.3661
X3.1574Y-1.3734
X3.1959Y-1.5581
X3.2047Y-1.372
X3.2974Y-2.3984
X3.3274Y-2.3984
X3.3774Y-2.3559
X3.3839Y-2.2057
X3.4324Y-2.2534
X3.4824Y-2.2284
X3.4824Y-2.2684
X3.6224Y-2.2534
X3.6526Y-2.1417
X4.1949Y-2.4961
X4.2224Y-2.2559
X4.2382Y-2.5669
X4.2697Y-2.3091
X4.2854Y-2.4291
X4.2933Y-1.6043
X4.3248Y-1.6161
X4.3287Y-1.9685
X4.376Y-1.7913
X4.4232Y-2.2872
X4.4311Y-2.3268
X4.4311Y-2.374
X4.439Y-1.8189
X4.4547Y-1.6457
X4.4941Y-2.0827
X4.5315Y-1.4882
X4.5492Y-2.5433
X4.5591Y-1.6772
X4.6004Y-2.1811
X4.6024Y-1.687
X4.6122Y-2.2126
X4.6201Y-2.4173
X4.6398Y-1.8268
X4.6555Y-2.2146
X4.7474Y-2.2927
X4.7697Y-2.3209
X4.7717Y-1.5256
X4.7795Y-1.4606
X4.7933Y-1.5039
X4.8287Y-2.4213
X4.8327Y-2.3858
X4.8839Y-1.3898
X4.939Y-2.5709
X4.9727Y-1.4656
X4.9882Y-2.3839
X5.0177Y-2.4843
X5.128Y-1.4685
X5.3209Y-1.5039
X5.3209Y-2.3248
X5.3308Y-1.5338
X5.3465Y-2.3681
X5.3937Y-1.2146
X5.3986Y-2.2539
X5.4016Y-1.5787
X5.4134Y-1.6083
X5.435Y-2.4055
X5.5138Y-1.2677
X5.5217Y-2.126
X5.6004Y-1.3051
X5.6161Y-1.813
X5.6201Y-2.0906
X5.6299Y-1.9449
X5.7205Y-1.7795
X5.7618Y-1.9016
X5.7657Y-2.1024
X5.7677Y-1.2677
X5.8209Y-2.3583
X5.8504Y-1.3209
X5.8563Y-2.565
X5.8917Y-2.6024
X5.8917Y-2.6339
X5.8957Y-2.6614
X5.9134Y-2.1732
X6.0098Y-2.5866
X6.0177Y-1.2638
X6.0453Y-2.0433
X6.0453Y-2.0748
X6.0925Y-2.2126
X6.0965Y-2.2598
X6.1004Y-2.5787
X6.187Y-2.5827
X6.2539Y-2.5512
X6.313Y-2.4252
X6.3661Y-2.5827
X6.439Y-2.0236
X6.4429Y-2.1181
X6.4508Y-1.7244
X6.4626Y-1.8268
X6.4626Y-2.2165
X6.4665Y-1.9173
X6.498Y-1.622
X6.5354Y-1.5256
X6.5807Y-1.4213
X6.6161Y-2.6673
X6.8504Y-2.5906
T2
X2.2824Y-1.5484
X2.4674Y-1.4834
T4
X3.0224Y-1.9984
X3.0224Y-2.0984
X3.0224Y-2.1984
X3.0224Y-2.2984
X3.1224Y-1.9984
X3.1224Y-2.0984
X3.1224Y-2.1984
X3.1224Y-2.2984
X3.5274Y-1.3732
X3.5274Y-1.4732
X3.5274Y-1.5732
X3.5274Y-1.6732
X3.5274Y-1.7732
X3.5274Y-1.8732
X3.5274Y-1.9732
X3.8646Y-2.3661
X3.8646Y-2.4661
X3.8671Y-2.1234
X3.8671Y-2.2234
X3.8691Y-1.3772
X3.8691Y-1.4772
X3.8691Y-1.5772
X3.8691Y-1.6772
X3.8691Y-1.7772
X3.8691Y-1.8772
X3.8691Y-1.9772
X3.9646Y-2.3661
X3.9646Y-2.4661
X3.9671Y-2.1234
X3.9671Y-2.2234
X4.0671Y-2.1234
X4.0671Y-2.2234
X6.7012Y-1.4724
X6.7012Y-1.5724
X6.7012Y-1.6724
X6.7012Y-1.7724
X6.7012Y-1.8724
X6.7012Y-1.9724
X6.7012Y-2.0724
X6.7012Y-2.1724
X6.7012Y-2.2724
X6.7012Y-2.3724
X6.8012Y-1.4724
X6.8012Y-1.5724
X6.8012Y-1.6724
X6.8012Y-1.7724
X6.8012Y-1.8724
X6.8012Y-1.9724
X6.8012Y-2.0724
X6.8012Y-2.1724
X6.8012Y-2.2724
X6.8012Y-2.3724
T3
G00X2.1205Y-1.659
M15
G01X2.0575Y-1.659
M16
G05
G00X2.1205Y-2.1078
M15
G01X2.0575Y-2.1078
M16
G05
T0
M30
