%TF.GenerationSoftware,KiCad,Pcbnew,7.0.6-7.0.6~ubuntu20.04.1*%
%TF.CreationDate,2023-10-29T13:00:39+01:00*%
%TF.ProjectId,amurNutzlast,616d7572-4e75-4747-9a6c-6173742e6b69,rev?*%
%TF.SameCoordinates,Original*%
%TF.FileFunction,Copper,L2,Inr*%
%TF.FilePolarity,Positive*%
%FSLAX46Y46*%
G04 Gerber Fmt 4.6, Leading zero omitted, Abs format (unit mm)*
G04 Created by KiCad (PCBNEW 7.0.6-7.0.6~ubuntu20.04.1) date 2023-10-29 13:00:39*
%MOMM*%
%LPD*%
G01*
G04 APERTURE LIST*
%TA.AperFunction,ComponentPad*%
%ADD10R,1.700000X1.700000*%
%TD*%
%TA.AperFunction,ComponentPad*%
%ADD11O,1.700000X1.700000*%
%TD*%
%TA.AperFunction,ComponentPad*%
%ADD12O,3.500000X1.900000*%
%TD*%
%TA.AperFunction,ViaPad*%
%ADD13C,0.600000*%
%TD*%
%TA.AperFunction,ViaPad*%
%ADD14C,0.800000*%
%TD*%
G04 APERTURE END LIST*
D10*
%TO.N,/fpga/FTDI_DCD*%
%TO.C,J7*%
X98275000Y-34980000D03*
D11*
%TO.N,/fpga/FTDI_DSR*%
X98275000Y-37520000D03*
%TO.N,/fpga/FTDI_DTR*%
X98275000Y-40060000D03*
%TO.N,/fpga/FTDI_CTS*%
X98275000Y-42600000D03*
%TO.N,/fpga/FTDI_RTS*%
X98275000Y-45140000D03*
%TO.N,/fpga/FTDI_TX*%
X98275000Y-47680000D03*
%TO.N,/fpga/FTDI_RX*%
X98275000Y-50220000D03*
%TD*%
D10*
%TO.N,/ftdi/DCD*%
%TO.C,J5*%
X89595000Y-34879000D03*
D11*
%TO.N,/ftdi/DSR*%
X89595000Y-37419000D03*
%TO.N,/ftdi/DTR*%
X89595000Y-39959000D03*
%TO.N,/ftdi/CTS*%
X89595000Y-42499000D03*
%TO.N,/ftdi/RTS*%
X89595000Y-45039000D03*
%TO.N,/ftdi/TX*%
X89595000Y-47579000D03*
%TO.N,/ftdi/RX*%
X89595000Y-50119000D03*
%TD*%
D10*
%TO.N,/MISO*%
%TO.C,J1*%
X98225000Y-56475000D03*
D11*
%TO.N,/ICE_CDONE*%
X98225000Y-53935000D03*
%TO.N,/SS*%
X100765000Y-56475000D03*
%TO.N,/ICE_CREST*%
X100765000Y-53935000D03*
%TO.N,/MOSI*%
X103305000Y-56475000D03*
%TO.N,/SCL*%
X103305000Y-53935000D03*
%TD*%
D10*
%TO.N,GND1*%
%TO.C,J4*%
X76768000Y-50759000D03*
D11*
%TO.N,+3.3VP*%
X79308000Y-50759000D03*
%TO.N,/ftdi/ICE_CREST*%
X76768000Y-53299000D03*
%TO.N,/ftdi/ICE_CLK*%
X79308000Y-53299000D03*
%TO.N,/ftdi/ICE_CDONE*%
X76768000Y-55839000D03*
%TO.N,/ftdi/ICE_MOSI*%
X79308000Y-55839000D03*
%TO.N,/ftdi/ICE_SS*%
X76768000Y-58379000D03*
%TO.N,/ftdi/ICE_MISO*%
X79308000Y-58379000D03*
%TD*%
D10*
%TO.N,/fpga/PIO1*%
%TO.C,J8*%
X172750000Y-60260000D03*
D11*
%TO.N,/fpga/PIO2*%
X170210000Y-60260000D03*
%TO.N,/fpga/PIO3*%
X172750000Y-57720000D03*
%TO.N,/fpga/PIO4*%
X170210000Y-57720000D03*
%TO.N,/fpga/PIO5*%
X172750000Y-55180000D03*
%TO.N,/fpga/PIO6*%
X170210000Y-55180000D03*
%TO.N,/fpga/PIO7*%
X172750000Y-52640000D03*
%TO.N,/fpga/PIO8*%
X170210000Y-52640000D03*
%TO.N,/fpga/PIO9*%
X172750000Y-50100000D03*
%TO.N,/fpga/PIO10*%
X170210000Y-50100000D03*
%TO.N,/fpga/PIO11*%
X172750000Y-47560000D03*
%TO.N,/fpga/PIO12*%
X170210000Y-47560000D03*
%TO.N,/fpga/PIO13*%
X172750000Y-45020000D03*
%TO.N,/fpga/PIO14*%
X170210000Y-45020000D03*
%TO.N,/fpga/PIO15*%
X172750000Y-42480000D03*
%TO.N,/fpga/PIO16*%
X170210000Y-42480000D03*
%TO.N,/fpga/PIO17*%
X172750000Y-39940000D03*
%TO.N,/fpga/PIO18*%
X170210000Y-39940000D03*
%TO.N,/fpga/PIO19*%
X172750000Y-37400000D03*
%TO.N,/fpga/PIO20*%
X170210000Y-37400000D03*
%TD*%
D12*
%TO.N,GND1*%
%TO.C,J6*%
X53061000Y-53538000D03*
X53061000Y-42138000D03*
%TD*%
D10*
%TO.N,VBUS*%
%TO.C,J2*%
X98160000Y-60100000D03*
D11*
%TO.N,+5V*%
X100700000Y-60100000D03*
%TO.N,GND1*%
X98160000Y-62640000D03*
%TO.N,GND*%
X100700000Y-62640000D03*
%TD*%
D13*
%TO.N,+1V2*%
X150200000Y-55200000D03*
X161700000Y-65600000D03*
%TO.N,GND1*%
X60236500Y-48513500D03*
%TO.N,+3.3V*%
X168050000Y-67750000D03*
%TO.N,GND*%
X174000000Y-65800000D03*
X121150000Y-58950000D03*
X126700000Y-60550000D03*
X135150000Y-59050000D03*
X130250000Y-37300000D03*
X126307436Y-37227301D03*
X121200000Y-38750000D03*
X121750000Y-38200000D03*
X121400000Y-37100000D03*
%TO.N,+3.3V*%
X115100000Y-37800000D03*
%TO.N,GND*%
X115800000Y-42600000D03*
X109050000Y-40750000D03*
X113150000Y-41800000D03*
X108450000Y-58650000D03*
X148750000Y-65150000D03*
X137000000Y-30850000D03*
X142250000Y-33150000D03*
X148600000Y-33550000D03*
X145300000Y-45200000D03*
X137200000Y-40100000D03*
X135402825Y-38958475D03*
X154750000Y-56200000D03*
X154950000Y-65500000D03*
X154850000Y-57400000D03*
X160350000Y-61600000D03*
X147850000Y-59900000D03*
X146350000Y-48300000D03*
%TO.N,+3.3V*%
X146450000Y-53400000D03*
%TO.N,GND*%
X142750000Y-53100000D03*
X138050000Y-61100000D03*
X125450000Y-65300000D03*
X117150000Y-56200000D03*
X117350000Y-61400000D03*
X114150000Y-52900000D03*
X106550000Y-63400000D03*
%TO.N,+3.3V*%
X135800000Y-60150000D03*
X153550000Y-52700000D03*
X112350000Y-58095000D03*
X135150000Y-38200000D03*
X117850000Y-46400000D03*
X116850000Y-55400000D03*
X140250000Y-54000000D03*
X137500000Y-40850000D03*
X127450000Y-63100000D03*
X120583884Y-58233884D03*
X109850000Y-41050000D03*
X124050000Y-35300000D03*
X153550000Y-51900000D03*
%TO.N,Net-(U1E-VCCPLL)*%
X112750000Y-46200000D03*
%TO.N,GNDD*%
X111150000Y-45500000D03*
%TO.N,+1V2*%
X109950000Y-50000000D03*
X118250000Y-56250000D03*
X142650000Y-46050000D03*
X116900000Y-42850000D03*
X137125500Y-57250000D03*
%TO.N,Net-(D1-K)*%
X143000000Y-49400000D03*
%TO.N,Net-(D6-A)*%
X62175000Y-59725000D03*
%TO.N,+3.3VP*%
X67620088Y-43599500D03*
X88452000Y-56601000D03*
X70383735Y-42643614D03*
X88452000Y-57617000D03*
X71812279Y-46314714D03*
X70700000Y-50552500D03*
X65084000Y-51394000D03*
X87182000Y-57236000D03*
X62798000Y-47330000D03*
X62808349Y-44799990D03*
X80197000Y-34884000D03*
X92008000Y-57236000D03*
%TO.N,+1V8*%
X71688000Y-40218000D03*
D14*
%TO.N,Net-(U4-OSCI)*%
X62671000Y-37678000D03*
%TO.N,Net-(U4-OSCO)*%
X57972000Y-39329000D03*
D13*
%TO.N,VBUS*%
X55686000Y-52791000D03*
X83753000Y-60919000D03*
X56702000Y-52791000D03*
X84515000Y-60919000D03*
%TO.N,Net-(D2-K)*%
X140050000Y-32200000D03*
%TO.N,Net-(D3-K)*%
X146500000Y-32200000D03*
%TO.N,Net-(D4-K)*%
X152850000Y-32100000D03*
%TO.N,/ICE_CREST*%
X122650000Y-61500000D03*
%TO.N,/ICE_CDONE*%
X122750000Y-60600000D03*
%TO.N,/SCL*%
X115550000Y-64600000D03*
X112550000Y-60300000D03*
%TO.N,/SS*%
X107650000Y-65200000D03*
X107250000Y-57300000D03*
%TO.N,/fpga/PIO3*%
X164150000Y-56300000D03*
%TO.N,/fpga/PIO5*%
X163650000Y-53800000D03*
%TO.N,/fpga/PIO7*%
X163550000Y-51400000D03*
%TO.N,/fpga/PIO9*%
X164250000Y-48700000D03*
%TO.N,/fpga/PIO11*%
X164150000Y-46400000D03*
%TO.N,/fpga/PIO13*%
X163850000Y-43800000D03*
%TO.N,/fpga/PIO15*%
X165050000Y-41200000D03*
%TO.N,/fpga/PIO17*%
X166000000Y-38750000D03*
%TO.N,/fpga/PIO19*%
X167150000Y-36100000D03*
%TO.N,Net-(U2-PWRGD1)*%
X157150000Y-65600000D03*
%TO.N,Net-(U2-PWRGD2)*%
X152650000Y-65700000D03*
%TO.N,Net-(U6-IO2)*%
X108850000Y-61700000D03*
%TO.N,Net-(U6-IO3)*%
X112550000Y-59100000D03*
%TO.N,Net-(U5-DO)*%
X74355000Y-41107000D03*
%TO.N,Net-(U4-EEDATA)*%
X75879000Y-38694000D03*
%TO.N,Net-(U4-EECLK)*%
X75752000Y-37297000D03*
%TO.N,/ftdi/CS_FTDI*%
X75752000Y-36027000D03*
%TO.N,Net-(U4-REF)*%
X62846002Y-45895123D03*
%TO.N,Net-(U4-~{RESET})*%
X62942936Y-50078325D03*
%TO.N,GND1*%
X67800000Y-51175000D03*
X69375000Y-43750000D03*
X81175000Y-39575000D03*
X57875000Y-52125000D03*
X61725000Y-42300000D03*
X60200000Y-50325000D03*
X67650000Y-49175000D03*
X60175000Y-45150000D03*
X60175000Y-49350000D03*
X69550000Y-47000000D03*
X66300000Y-46075000D03*
X70150000Y-39900000D03*
X81400000Y-34850000D03*
X76450000Y-34700000D03*
X69700000Y-50500000D03*
X55811000Y-43425000D03*
X67625000Y-45775000D03*
X66325000Y-47575000D03*
X60425000Y-56575000D03*
X92775000Y-54400000D03*
X64250000Y-51475000D03*
X70525000Y-37921500D03*
X57475000Y-44350000D03*
X85950000Y-56025000D03*
X57850000Y-52775000D03*
X58075000Y-37675000D03*
X66300000Y-42975000D03*
X74550000Y-43850000D03*
X62750000Y-39400000D03*
X63050000Y-59800000D03*
X71700000Y-49775000D03*
X85785502Y-59840000D03*
X69325000Y-42775000D03*
X66275000Y-45033500D03*
%TO.N,+5V*%
X149650000Y-66900000D03*
X149650000Y-66100000D03*
X158850000Y-64800000D03*
X149750000Y-67600000D03*
%TD*%
%TA.AperFunction,Conductor*%
%TO.N,GND1*%
G36*
X93993039Y-30020185D02*
G01*
X94038794Y-30072989D01*
X94050000Y-30124500D01*
X94050000Y-68999500D01*
X53001624Y-68999500D01*
X52998378Y-68999415D01*
X52866617Y-68992509D01*
X52682985Y-68982196D01*
X52676758Y-68981530D01*
X52524369Y-68957394D01*
X52361835Y-68929778D01*
X52356171Y-68928541D01*
X52203297Y-68887579D01*
X52048273Y-68842916D01*
X52043217Y-68841221D01*
X51893829Y-68783877D01*
X51745997Y-68722643D01*
X51741575Y-68720604D01*
X51598078Y-68647488D01*
X51458531Y-68570364D01*
X51454767Y-68568106D01*
X51401875Y-68533758D01*
X51319127Y-68480019D01*
X51189243Y-68387862D01*
X51186102Y-68385480D01*
X51061260Y-68284385D01*
X51058964Y-68282431D01*
X50941277Y-68177260D01*
X50938750Y-68174870D01*
X50825128Y-68061248D01*
X50822738Y-68058721D01*
X50717567Y-67941034D01*
X50715613Y-67938738D01*
X50676848Y-67890867D01*
X50614510Y-67813886D01*
X50612136Y-67810755D01*
X50519980Y-67680872D01*
X50487406Y-67630715D01*
X50431882Y-67545215D01*
X50429641Y-67541480D01*
X50394241Y-67477428D01*
X50352511Y-67401921D01*
X50312899Y-67324180D01*
X50279388Y-67258412D01*
X50277355Y-67254000D01*
X50216122Y-67106170D01*
X50158769Y-66956759D01*
X50157082Y-66951724D01*
X50112420Y-66796702D01*
X50071457Y-66643825D01*
X50070224Y-66638185D01*
X50051752Y-66529463D01*
X50050000Y-66508693D01*
X50050000Y-60918999D01*
X83247353Y-60918999D01*
X83267834Y-61061456D01*
X83327622Y-61192371D01*
X83327623Y-61192373D01*
X83421872Y-61301143D01*
X83542947Y-61378953D01*
X83542950Y-61378954D01*
X83542949Y-61378954D01*
X83681036Y-61419499D01*
X83681038Y-61419500D01*
X83681039Y-61419500D01*
X83824962Y-61419500D01*
X83824962Y-61419499D01*
X83963053Y-61378953D01*
X84066960Y-61312175D01*
X84134000Y-61292491D01*
X84201039Y-61312176D01*
X84201040Y-61312176D01*
X84304947Y-61378953D01*
X84304948Y-61378953D01*
X84304949Y-61378954D01*
X84443036Y-61419499D01*
X84443038Y-61419500D01*
X84443039Y-61419500D01*
X84586962Y-61419500D01*
X84586962Y-61419499D01*
X84725053Y-61378953D01*
X84846128Y-61301143D01*
X84940377Y-61192373D01*
X85000165Y-61061457D01*
X85020647Y-60919000D01*
X85000165Y-60776543D01*
X84940377Y-60645627D01*
X84846128Y-60536857D01*
X84725053Y-60459047D01*
X84725051Y-60459046D01*
X84725049Y-60459045D01*
X84725050Y-60459045D01*
X84586963Y-60418500D01*
X84586961Y-60418500D01*
X84443039Y-60418500D01*
X84443036Y-60418500D01*
X84304949Y-60459045D01*
X84201039Y-60525824D01*
X84133999Y-60545508D01*
X84066961Y-60525824D01*
X83963050Y-60459045D01*
X83824963Y-60418500D01*
X83824961Y-60418500D01*
X83681039Y-60418500D01*
X83681036Y-60418500D01*
X83542949Y-60459045D01*
X83421873Y-60536856D01*
X83327623Y-60645626D01*
X83327622Y-60645628D01*
X83267834Y-60776543D01*
X83247353Y-60918999D01*
X50050000Y-60918999D01*
X50050000Y-59725000D01*
X61669353Y-59725000D01*
X61689834Y-59867456D01*
X61749622Y-59998371D01*
X61749623Y-59998373D01*
X61843872Y-60107143D01*
X61964947Y-60184953D01*
X61964950Y-60184954D01*
X61964949Y-60184954D01*
X62103036Y-60225499D01*
X62103038Y-60225500D01*
X62103039Y-60225500D01*
X62246962Y-60225500D01*
X62246962Y-60225499D01*
X62385053Y-60184953D01*
X62506128Y-60107143D01*
X62600377Y-59998373D01*
X62660165Y-59867457D01*
X62680647Y-59725000D01*
X62660165Y-59582543D01*
X62600377Y-59451627D01*
X62506128Y-59342857D01*
X62385053Y-59265047D01*
X62385051Y-59265046D01*
X62385049Y-59265045D01*
X62385050Y-59265045D01*
X62246963Y-59224500D01*
X62246961Y-59224500D01*
X62103039Y-59224500D01*
X62103036Y-59224500D01*
X61964949Y-59265045D01*
X61843873Y-59342856D01*
X61749623Y-59451626D01*
X61749622Y-59451628D01*
X61689834Y-59582543D01*
X61669353Y-59725000D01*
X50050000Y-59725000D01*
X50050000Y-58378999D01*
X75712417Y-58378999D01*
X75732699Y-58584932D01*
X75732700Y-58584934D01*
X75792768Y-58782954D01*
X75890315Y-58965450D01*
X75890317Y-58965452D01*
X76021589Y-59125410D01*
X76118209Y-59204702D01*
X76181550Y-59256685D01*
X76364046Y-59354232D01*
X76562066Y-59414300D01*
X76562065Y-59414300D01*
X76580529Y-59416118D01*
X76768000Y-59434583D01*
X76973934Y-59414300D01*
X77171954Y-59354232D01*
X77354450Y-59256685D01*
X77514410Y-59125410D01*
X77645685Y-58965450D01*
X77743232Y-58782954D01*
X77803300Y-58584934D01*
X77823583Y-58379000D01*
X77823583Y-58378999D01*
X78252417Y-58378999D01*
X78272699Y-58584932D01*
X78272700Y-58584934D01*
X78332768Y-58782954D01*
X78430315Y-58965450D01*
X78430317Y-58965452D01*
X78561589Y-59125410D01*
X78658209Y-59204702D01*
X78721550Y-59256685D01*
X78904046Y-59354232D01*
X79102066Y-59414300D01*
X79102065Y-59414300D01*
X79120529Y-59416118D01*
X79308000Y-59434583D01*
X79513934Y-59414300D01*
X79711954Y-59354232D01*
X79894450Y-59256685D01*
X80054410Y-59125410D01*
X80185685Y-58965450D01*
X80283232Y-58782954D01*
X80343300Y-58584934D01*
X80363583Y-58379000D01*
X80343300Y-58173066D01*
X80283232Y-57975046D01*
X80185685Y-57792550D01*
X80106411Y-57695954D01*
X80054410Y-57632589D01*
X79936677Y-57535969D01*
X79894450Y-57501315D01*
X79711954Y-57403768D01*
X79513934Y-57343700D01*
X79513932Y-57343699D01*
X79513934Y-57343699D01*
X79308000Y-57323417D01*
X79102067Y-57343699D01*
X78904043Y-57403769D01*
X78793898Y-57462643D01*
X78721550Y-57501315D01*
X78721548Y-57501316D01*
X78721547Y-57501317D01*
X78561589Y-57632589D01*
X78430317Y-57792547D01*
X78332769Y-57975043D01*
X78272699Y-58173067D01*
X78252417Y-58378999D01*
X77823583Y-58378999D01*
X77803300Y-58173066D01*
X77743232Y-57975046D01*
X77645685Y-57792550D01*
X77566411Y-57695954D01*
X77514410Y-57632589D01*
X77396677Y-57535969D01*
X77354450Y-57501315D01*
X77171954Y-57403768D01*
X76973934Y-57343700D01*
X76973932Y-57343699D01*
X76973934Y-57343699D01*
X76768000Y-57323417D01*
X76562067Y-57343699D01*
X76364043Y-57403769D01*
X76253898Y-57462643D01*
X76181550Y-57501315D01*
X76181548Y-57501316D01*
X76181547Y-57501317D01*
X76021589Y-57632589D01*
X75890317Y-57792547D01*
X75792769Y-57975043D01*
X75732699Y-58173067D01*
X75712417Y-58378999D01*
X50050000Y-58378999D01*
X50050000Y-57235999D01*
X86676353Y-57235999D01*
X86696834Y-57378456D01*
X86740716Y-57474543D01*
X86756623Y-57509373D01*
X86850872Y-57618143D01*
X86971947Y-57695953D01*
X86971950Y-57695954D01*
X86971949Y-57695954D01*
X87110036Y-57736499D01*
X87110038Y-57736500D01*
X87110039Y-57736500D01*
X87253962Y-57736500D01*
X87253962Y-57736499D01*
X87392053Y-57695953D01*
X87513128Y-57618143D01*
X87514118Y-57617000D01*
X87946353Y-57617000D01*
X87966834Y-57759456D01*
X87981948Y-57792550D01*
X88026623Y-57890373D01*
X88120872Y-57999143D01*
X88241947Y-58076953D01*
X88241950Y-58076954D01*
X88241949Y-58076954D01*
X88380036Y-58117499D01*
X88380038Y-58117500D01*
X88380039Y-58117500D01*
X88523962Y-58117500D01*
X88523962Y-58117499D01*
X88662053Y-58076953D01*
X88783128Y-57999143D01*
X88877377Y-57890373D01*
X88937165Y-57759457D01*
X88957647Y-57617000D01*
X88937165Y-57474543D01*
X88877377Y-57343627D01*
X88784118Y-57235999D01*
X91502353Y-57235999D01*
X91522834Y-57378456D01*
X91566716Y-57474543D01*
X91582623Y-57509373D01*
X91676872Y-57618143D01*
X91797947Y-57695953D01*
X91797950Y-57695954D01*
X91797949Y-57695954D01*
X91936036Y-57736499D01*
X91936038Y-57736500D01*
X91936039Y-57736500D01*
X92079962Y-57736500D01*
X92079962Y-57736499D01*
X92218053Y-57695953D01*
X92339128Y-57618143D01*
X92433377Y-57509373D01*
X92493165Y-57378457D01*
X92513647Y-57236000D01*
X92493165Y-57093543D01*
X92433377Y-56962627D01*
X92339128Y-56853857D01*
X92218053Y-56776047D01*
X92218051Y-56776046D01*
X92218049Y-56776045D01*
X92218050Y-56776045D01*
X92079963Y-56735500D01*
X92079961Y-56735500D01*
X91936039Y-56735500D01*
X91936036Y-56735500D01*
X91797949Y-56776045D01*
X91676873Y-56853856D01*
X91582623Y-56962626D01*
X91582622Y-56962628D01*
X91522834Y-57093543D01*
X91502353Y-57235999D01*
X88784118Y-57235999D01*
X88783128Y-57234857D01*
X88749608Y-57213315D01*
X88703854Y-57160512D01*
X88693910Y-57091353D01*
X88722935Y-57027798D01*
X88749609Y-57004684D01*
X88783128Y-56983143D01*
X88877377Y-56874373D01*
X88937165Y-56743457D01*
X88957647Y-56601000D01*
X88937165Y-56458543D01*
X88877377Y-56327627D01*
X88783128Y-56218857D01*
X88662053Y-56141047D01*
X88662051Y-56141046D01*
X88662049Y-56141045D01*
X88662050Y-56141045D01*
X88523963Y-56100500D01*
X88523961Y-56100500D01*
X88380039Y-56100500D01*
X88380036Y-56100500D01*
X88241949Y-56141045D01*
X88120873Y-56218856D01*
X88026623Y-56327626D01*
X88026622Y-56327628D01*
X87966834Y-56458543D01*
X87946353Y-56601000D01*
X87966834Y-56743456D01*
X88026590Y-56874300D01*
X88026623Y-56874373D01*
X88120872Y-56983143D01*
X88120874Y-56983144D01*
X88154391Y-57004685D01*
X88200146Y-57057489D01*
X88210089Y-57126648D01*
X88181063Y-57190203D01*
X88154391Y-57213315D01*
X88120874Y-57234855D01*
X88120872Y-57234856D01*
X88120872Y-57234857D01*
X88119882Y-57236000D01*
X88026623Y-57343626D01*
X88026622Y-57343628D01*
X87966834Y-57474543D01*
X87946353Y-57617000D01*
X87514118Y-57617000D01*
X87607377Y-57509373D01*
X87667165Y-57378457D01*
X87687647Y-57236000D01*
X87667165Y-57093543D01*
X87607377Y-56962627D01*
X87513128Y-56853857D01*
X87392053Y-56776047D01*
X87392051Y-56776046D01*
X87392049Y-56776045D01*
X87392050Y-56776045D01*
X87253963Y-56735500D01*
X87253961Y-56735500D01*
X87110039Y-56735500D01*
X87110036Y-56735500D01*
X86971949Y-56776045D01*
X86850873Y-56853856D01*
X86756623Y-56962626D01*
X86756622Y-56962628D01*
X86696834Y-57093543D01*
X86676353Y-57235999D01*
X50050000Y-57235999D01*
X50050000Y-55838999D01*
X75712417Y-55838999D01*
X75732699Y-56044932D01*
X75761855Y-56141045D01*
X75792768Y-56242954D01*
X75890315Y-56425450D01*
X75890317Y-56425452D01*
X76021589Y-56585410D01*
X76118209Y-56664702D01*
X76181550Y-56716685D01*
X76364046Y-56814232D01*
X76562066Y-56874300D01*
X76562065Y-56874300D01*
X76580529Y-56876118D01*
X76768000Y-56894583D01*
X76973934Y-56874300D01*
X77171954Y-56814232D01*
X77354450Y-56716685D01*
X77514410Y-56585410D01*
X77645685Y-56425450D01*
X77743232Y-56242954D01*
X77803300Y-56044934D01*
X77823583Y-55839000D01*
X77823583Y-55838999D01*
X78252417Y-55838999D01*
X78272699Y-56044932D01*
X78301855Y-56141045D01*
X78332768Y-56242954D01*
X78430315Y-56425450D01*
X78430317Y-56425452D01*
X78561589Y-56585410D01*
X78658209Y-56664702D01*
X78721550Y-56716685D01*
X78904046Y-56814232D01*
X79102066Y-56874300D01*
X79102065Y-56874300D01*
X79120529Y-56876118D01*
X79308000Y-56894583D01*
X79513934Y-56874300D01*
X79711954Y-56814232D01*
X79894450Y-56716685D01*
X80054410Y-56585410D01*
X80185685Y-56425450D01*
X80283232Y-56242954D01*
X80343300Y-56044934D01*
X80363583Y-55839000D01*
X80343300Y-55633066D01*
X80283232Y-55435046D01*
X80185685Y-55252550D01*
X80133702Y-55189209D01*
X80054410Y-55092589D01*
X79926966Y-54988000D01*
X79894450Y-54961315D01*
X79711954Y-54863768D01*
X79513934Y-54803700D01*
X79513932Y-54803699D01*
X79513934Y-54803699D01*
X79308000Y-54783417D01*
X79102067Y-54803699D01*
X78904043Y-54863769D01*
X78809819Y-54914134D01*
X78721550Y-54961315D01*
X78721548Y-54961316D01*
X78721547Y-54961317D01*
X78561589Y-55092589D01*
X78430317Y-55252547D01*
X78332769Y-55435043D01*
X78272699Y-55633067D01*
X78252417Y-55838999D01*
X77823583Y-55838999D01*
X77803300Y-55633066D01*
X77743232Y-55435046D01*
X77645685Y-55252550D01*
X77593702Y-55189209D01*
X77514410Y-55092589D01*
X77386966Y-54988000D01*
X77354450Y-54961315D01*
X77171954Y-54863768D01*
X76973934Y-54803700D01*
X76973932Y-54803699D01*
X76973934Y-54803699D01*
X76786463Y-54785235D01*
X76768000Y-54783417D01*
X76767999Y-54783417D01*
X76562067Y-54803699D01*
X76364043Y-54863769D01*
X76269819Y-54914134D01*
X76181550Y-54961315D01*
X76181548Y-54961316D01*
X76181547Y-54961317D01*
X76021589Y-55092589D01*
X75890317Y-55252547D01*
X75792769Y-55435043D01*
X75732699Y-55633067D01*
X75712417Y-55838999D01*
X50050000Y-55838999D01*
X50050000Y-53788000D01*
X50832669Y-53788000D01*
X50850553Y-53895176D01*
X50928576Y-54122449D01*
X50928578Y-54122455D01*
X51042947Y-54333790D01*
X51190544Y-54523422D01*
X51367338Y-54686173D01*
X51367342Y-54686176D01*
X51568509Y-54817606D01*
X51788571Y-54914134D01*
X52021523Y-54973125D01*
X52201035Y-54988000D01*
X52811000Y-54988000D01*
X52811000Y-53988000D01*
X53311000Y-53988000D01*
X53311000Y-54988000D01*
X53920965Y-54988000D01*
X54100476Y-54973125D01*
X54333428Y-54914134D01*
X54553490Y-54817606D01*
X54754657Y-54686176D01*
X54754661Y-54686173D01*
X54931455Y-54523422D01*
X55079052Y-54333790D01*
X55193421Y-54122455D01*
X55193423Y-54122449D01*
X55271446Y-53895176D01*
X55289331Y-53788000D01*
X54236278Y-53788000D01*
X54284625Y-53704260D01*
X54314810Y-53572008D01*
X54304673Y-53436735D01*
X54255113Y-53310459D01*
X54237203Y-53288000D01*
X55289329Y-53288000D01*
X55305184Y-53269280D01*
X55363532Y-53230845D01*
X55433398Y-53230056D01*
X55466846Y-53245104D01*
X55475947Y-53250953D01*
X55475949Y-53250953D01*
X55475950Y-53250954D01*
X55614036Y-53291499D01*
X55614038Y-53291500D01*
X55614039Y-53291500D01*
X55757962Y-53291500D01*
X55757962Y-53291499D01*
X55865121Y-53260035D01*
X55896050Y-53250954D01*
X55896050Y-53250953D01*
X55896053Y-53250953D01*
X56017128Y-53173143D01*
X56100286Y-53077172D01*
X56159065Y-53039397D01*
X56228934Y-53039397D01*
X56287711Y-53077170D01*
X56287713Y-53077171D01*
X56287713Y-53077172D01*
X56370870Y-53173141D01*
X56370872Y-53173143D01*
X56491947Y-53250953D01*
X56491950Y-53250954D01*
X56491949Y-53250954D01*
X56630036Y-53291499D01*
X56630038Y-53291500D01*
X56630039Y-53291500D01*
X56773962Y-53291500D01*
X56773962Y-53291499D01*
X56881121Y-53260035D01*
X56912050Y-53250954D01*
X56912050Y-53250953D01*
X56912053Y-53250953D01*
X57033128Y-53173143D01*
X57127377Y-53064373D01*
X57187165Y-52933457D01*
X57207647Y-52791000D01*
X57187165Y-52648543D01*
X57127377Y-52517627D01*
X57033128Y-52408857D01*
X56912053Y-52331047D01*
X56912051Y-52331046D01*
X56912049Y-52331045D01*
X56912050Y-52331045D01*
X56773963Y-52290500D01*
X56773961Y-52290500D01*
X56630039Y-52290500D01*
X56630036Y-52290500D01*
X56491949Y-52331045D01*
X56370873Y-52408856D01*
X56370872Y-52408856D01*
X56370872Y-52408857D01*
X56345805Y-52437785D01*
X56287713Y-52504828D01*
X56228935Y-52542602D01*
X56159065Y-52542602D01*
X56100287Y-52504828D01*
X56082455Y-52484249D01*
X56017128Y-52408857D01*
X55896053Y-52331047D01*
X55896051Y-52331046D01*
X55896049Y-52331045D01*
X55896050Y-52331045D01*
X55757963Y-52290500D01*
X55757961Y-52290500D01*
X55614039Y-52290500D01*
X55614036Y-52290500D01*
X55475949Y-52331045D01*
X55354873Y-52408856D01*
X55260623Y-52517626D01*
X55213831Y-52620085D01*
X55168075Y-52672888D01*
X55101036Y-52692572D01*
X55033996Y-52672887D01*
X55003183Y-52644734D01*
X54931455Y-52552577D01*
X54754661Y-52389826D01*
X54754657Y-52389823D01*
X54553490Y-52258393D01*
X54333428Y-52161865D01*
X54100476Y-52102874D01*
X53920965Y-52088000D01*
X53311000Y-52088000D01*
X53311000Y-53088000D01*
X52811000Y-53088000D01*
X52811000Y-52088000D01*
X52201035Y-52088000D01*
X52021523Y-52102874D01*
X51788571Y-52161865D01*
X51568509Y-52258393D01*
X51367342Y-52389823D01*
X51367338Y-52389826D01*
X51190544Y-52552577D01*
X51042947Y-52742209D01*
X50928578Y-52953544D01*
X50928576Y-52953550D01*
X50850553Y-53180823D01*
X50832669Y-53287999D01*
X50832670Y-53288000D01*
X51885722Y-53288000D01*
X51837375Y-53371740D01*
X51807190Y-53503992D01*
X51817327Y-53639265D01*
X51866887Y-53765541D01*
X51884797Y-53788000D01*
X50832669Y-53788000D01*
X50050000Y-53788000D01*
X50050000Y-51393999D01*
X64578353Y-51393999D01*
X64598834Y-51536456D01*
X64658622Y-51667371D01*
X64658623Y-51667373D01*
X64752872Y-51776143D01*
X64873947Y-51853953D01*
X64873950Y-51853954D01*
X64873949Y-51853954D01*
X65012036Y-51894499D01*
X65012038Y-51894500D01*
X65012039Y-51894500D01*
X65155962Y-51894500D01*
X65155962Y-51894499D01*
X65294053Y-51853953D01*
X65415128Y-51776143D01*
X65509377Y-51667373D01*
X65514185Y-51656844D01*
X75418000Y-51656844D01*
X75424401Y-51716372D01*
X75424403Y-51716379D01*
X75474645Y-51851086D01*
X75474649Y-51851093D01*
X75560809Y-51966187D01*
X75560812Y-51966190D01*
X75675906Y-52052350D01*
X75675913Y-52052354D01*
X75810620Y-52102596D01*
X75810627Y-52102598D01*
X75870155Y-52108999D01*
X75870172Y-52109000D01*
X76270813Y-52109000D01*
X76337852Y-52128685D01*
X76383607Y-52181489D01*
X76393551Y-52250647D01*
X76364526Y-52314203D01*
X76329267Y-52342357D01*
X76181550Y-52421315D01*
X76181548Y-52421316D01*
X76181547Y-52421317D01*
X76021589Y-52552589D01*
X75890317Y-52712547D01*
X75792769Y-52895043D01*
X75732699Y-53093067D01*
X75712417Y-53299000D01*
X75732699Y-53504932D01*
X75732700Y-53504934D01*
X75792768Y-53702954D01*
X75890315Y-53885450D01*
X75890317Y-53885452D01*
X76021589Y-54045410D01*
X76115463Y-54122449D01*
X76181550Y-54176685D01*
X76364046Y-54274232D01*
X76562066Y-54334300D01*
X76562065Y-54334300D01*
X76582348Y-54336297D01*
X76768000Y-54354583D01*
X76973934Y-54334300D01*
X77171954Y-54274232D01*
X77354450Y-54176685D01*
X77514410Y-54045410D01*
X77645685Y-53885450D01*
X77743232Y-53702954D01*
X77803300Y-53504934D01*
X77823583Y-53299000D01*
X78252417Y-53299000D01*
X78272699Y-53504932D01*
X78272700Y-53504934D01*
X78332768Y-53702954D01*
X78430315Y-53885450D01*
X78430317Y-53885452D01*
X78561589Y-54045410D01*
X78655463Y-54122449D01*
X78721550Y-54176685D01*
X78904046Y-54274232D01*
X79102066Y-54334300D01*
X79102065Y-54334300D01*
X79120529Y-54336118D01*
X79308000Y-54354583D01*
X79513934Y-54334300D01*
X79711954Y-54274232D01*
X79894450Y-54176685D01*
X80054410Y-54045410D01*
X80185685Y-53885450D01*
X80283232Y-53702954D01*
X80343300Y-53504934D01*
X80363583Y-53299000D01*
X80343300Y-53093066D01*
X80283232Y-52895046D01*
X80185685Y-52712550D01*
X80130030Y-52644734D01*
X80054410Y-52552589D01*
X79894452Y-52421317D01*
X79894453Y-52421317D01*
X79894450Y-52421315D01*
X79711954Y-52323768D01*
X79513934Y-52263700D01*
X79513932Y-52263699D01*
X79513934Y-52263699D01*
X79308000Y-52243417D01*
X79102067Y-52263699D01*
X78904043Y-52323769D01*
X78793898Y-52382643D01*
X78721550Y-52421315D01*
X78721548Y-52421316D01*
X78721547Y-52421317D01*
X78561589Y-52552589D01*
X78430317Y-52712547D01*
X78332769Y-52895043D01*
X78272699Y-53093067D01*
X78252417Y-53299000D01*
X77823583Y-53299000D01*
X77803300Y-53093066D01*
X77743232Y-52895046D01*
X77645685Y-52712550D01*
X77590030Y-52644734D01*
X77514410Y-52552589D01*
X77354452Y-52421317D01*
X77354453Y-52421317D01*
X77354450Y-52421315D01*
X77206732Y-52342357D01*
X77156889Y-52293395D01*
X77141429Y-52225257D01*
X77165261Y-52159578D01*
X77220819Y-52117209D01*
X77265187Y-52109000D01*
X77665828Y-52109000D01*
X77665844Y-52108999D01*
X77725372Y-52102598D01*
X77725379Y-52102596D01*
X77860086Y-52052354D01*
X77860093Y-52052350D01*
X77975187Y-51966190D01*
X77975190Y-51966187D01*
X78061350Y-51851093D01*
X78061354Y-51851086D01*
X78111596Y-51716379D01*
X78111598Y-51716372D01*
X78117999Y-51656844D01*
X78118000Y-51656827D01*
X78118000Y-51256186D01*
X78137685Y-51189147D01*
X78190489Y-51143392D01*
X78259647Y-51133448D01*
X78323203Y-51162473D01*
X78351356Y-51197729D01*
X78430315Y-51345450D01*
X78430317Y-51345452D01*
X78561589Y-51505410D01*
X78658209Y-51584702D01*
X78721550Y-51636685D01*
X78904046Y-51734232D01*
X79102066Y-51794300D01*
X79102065Y-51794300D01*
X79120529Y-51796118D01*
X79308000Y-51814583D01*
X79513934Y-51794300D01*
X79711954Y-51734232D01*
X79894450Y-51636685D01*
X80054410Y-51505410D01*
X80185685Y-51345450D01*
X80283232Y-51162954D01*
X80343300Y-50964934D01*
X80363583Y-50759000D01*
X80343300Y-50553066D01*
X80283232Y-50355046D01*
X80185685Y-50172550D01*
X80141738Y-50119000D01*
X88539417Y-50119000D01*
X88559699Y-50324932D01*
X88573404Y-50370111D01*
X88619768Y-50522954D01*
X88717315Y-50705450D01*
X88723157Y-50712568D01*
X88848589Y-50865410D01*
X88932222Y-50934045D01*
X89008550Y-50996685D01*
X89191046Y-51094232D01*
X89389066Y-51154300D01*
X89389065Y-51154300D01*
X89407529Y-51156118D01*
X89595000Y-51174583D01*
X89800934Y-51154300D01*
X89998954Y-51094232D01*
X90181450Y-50996685D01*
X90341410Y-50865410D01*
X90472685Y-50705450D01*
X90570232Y-50522954D01*
X90630300Y-50324934D01*
X90650583Y-50119000D01*
X90630300Y-49913066D01*
X90570232Y-49715046D01*
X90472685Y-49532550D01*
X90371291Y-49409000D01*
X90341410Y-49372589D01*
X90181452Y-49241317D01*
X90181453Y-49241317D01*
X90181450Y-49241315D01*
X89998954Y-49143768D01*
X89800934Y-49083700D01*
X89800932Y-49083699D01*
X89800934Y-49083699D01*
X89613463Y-49065235D01*
X89595000Y-49063417D01*
X89594999Y-49063417D01*
X89389067Y-49083699D01*
X89191043Y-49143769D01*
X89080898Y-49202643D01*
X89008550Y-49241315D01*
X89008548Y-49241316D01*
X89008547Y-49241317D01*
X88848589Y-49372589D01*
X88717317Y-49532547D01*
X88619769Y-49715043D01*
X88559699Y-49913067D01*
X88539417Y-50119000D01*
X80141738Y-50119000D01*
X80086753Y-50052000D01*
X80054410Y-50012589D01*
X79894452Y-49881317D01*
X79894453Y-49881317D01*
X79894450Y-49881315D01*
X79711954Y-49783768D01*
X79513934Y-49723700D01*
X79513932Y-49723699D01*
X79513934Y-49723699D01*
X79308000Y-49703417D01*
X79102067Y-49723699D01*
X78904043Y-49783769D01*
X78793898Y-49842643D01*
X78721550Y-49881315D01*
X78721548Y-49881316D01*
X78721547Y-49881317D01*
X78561589Y-50012589D01*
X78430317Y-50172547D01*
X78430315Y-50172550D01*
X78358887Y-50306181D01*
X78351358Y-50320267D01*
X78302395Y-50370111D01*
X78234257Y-50385571D01*
X78168578Y-50361739D01*
X78126209Y-50306181D01*
X78118000Y-50261813D01*
X78118000Y-49861172D01*
X78117999Y-49861155D01*
X78111598Y-49801627D01*
X78111596Y-49801620D01*
X78061354Y-49666913D01*
X78061350Y-49666906D01*
X77975190Y-49551812D01*
X77975187Y-49551809D01*
X77860093Y-49465649D01*
X77860086Y-49465645D01*
X77725379Y-49415403D01*
X77725372Y-49415401D01*
X77665844Y-49409000D01*
X77018000Y-49409000D01*
X77018000Y-50323498D01*
X76910315Y-50274320D01*
X76803763Y-50259000D01*
X76732237Y-50259000D01*
X76625685Y-50274320D01*
X76518000Y-50323498D01*
X76518000Y-49409000D01*
X75870155Y-49409000D01*
X75810627Y-49415401D01*
X75810620Y-49415403D01*
X75675913Y-49465645D01*
X75675906Y-49465649D01*
X75560812Y-49551809D01*
X75560809Y-49551812D01*
X75474649Y-49666906D01*
X75474645Y-49666913D01*
X75424403Y-49801620D01*
X75424401Y-49801627D01*
X75418000Y-49861155D01*
X75418000Y-50509000D01*
X76334314Y-50509000D01*
X76308507Y-50549156D01*
X76268000Y-50687111D01*
X76268000Y-50830889D01*
X76308507Y-50968844D01*
X76334314Y-51009000D01*
X75418000Y-51009000D01*
X75418000Y-51656844D01*
X65514185Y-51656844D01*
X65569165Y-51536457D01*
X65589647Y-51394000D01*
X65569165Y-51251543D01*
X65509377Y-51120627D01*
X65415128Y-51011857D01*
X65294053Y-50934047D01*
X65294051Y-50934046D01*
X65294049Y-50934045D01*
X65294050Y-50934045D01*
X65155963Y-50893500D01*
X65155961Y-50893500D01*
X65012039Y-50893500D01*
X65012036Y-50893500D01*
X64873949Y-50934045D01*
X64752873Y-51011856D01*
X64658623Y-51120626D01*
X64658622Y-51120628D01*
X64598834Y-51251543D01*
X64578353Y-51393999D01*
X50050000Y-51393999D01*
X50050000Y-50096833D01*
X52406624Y-50096833D01*
X52416944Y-50260860D01*
X52467732Y-50417171D01*
X52467734Y-50417175D01*
X52555798Y-50555940D01*
X52675603Y-50668445D01*
X52675611Y-50668451D01*
X52755860Y-50712568D01*
X52819632Y-50747627D01*
X52978823Y-50788500D01*
X52978827Y-50788500D01*
X53101923Y-50788500D01*
X53101925Y-50788500D01*
X53101930Y-50788499D01*
X53101934Y-50788499D01*
X53115174Y-50786826D01*
X53224058Y-50773071D01*
X53376871Y-50712568D01*
X53376878Y-50712563D01*
X53509835Y-50615965D01*
X53509835Y-50615963D01*
X53509837Y-50615963D01*
X53614600Y-50489326D01*
X53684579Y-50340613D01*
X53715376Y-50179170D01*
X53709031Y-50078325D01*
X62437289Y-50078325D01*
X62457770Y-50220781D01*
X62517558Y-50351696D01*
X62517559Y-50351698D01*
X62611808Y-50460468D01*
X62732883Y-50538278D01*
X62732886Y-50538279D01*
X62732885Y-50538279D01*
X62870972Y-50578824D01*
X62870974Y-50578825D01*
X62870975Y-50578825D01*
X63014898Y-50578825D01*
X63014898Y-50578824D01*
X63104552Y-50552500D01*
X70194353Y-50552500D01*
X70194435Y-50553067D01*
X70214834Y-50694956D01*
X70257555Y-50788500D01*
X70274623Y-50825873D01*
X70368872Y-50934643D01*
X70489947Y-51012453D01*
X70489950Y-51012454D01*
X70489949Y-51012454D01*
X70628036Y-51052999D01*
X70628038Y-51053000D01*
X70628039Y-51053000D01*
X70771962Y-51053000D01*
X70771962Y-51052999D01*
X70910053Y-51012453D01*
X71031128Y-50934643D01*
X71125377Y-50825873D01*
X71185165Y-50694957D01*
X71205647Y-50552500D01*
X71185165Y-50410043D01*
X71125377Y-50279127D01*
X71031128Y-50170357D01*
X70910053Y-50092547D01*
X70910051Y-50092546D01*
X70910049Y-50092545D01*
X70910050Y-50092545D01*
X70771963Y-50052000D01*
X70771961Y-50052000D01*
X70628039Y-50052000D01*
X70628036Y-50052000D01*
X70489949Y-50092545D01*
X70368873Y-50170356D01*
X70274623Y-50279126D01*
X70274622Y-50279128D01*
X70214834Y-50410043D01*
X70194834Y-50549156D01*
X70194353Y-50552500D01*
X63104552Y-50552500D01*
X63152989Y-50538278D01*
X63274064Y-50460468D01*
X63368313Y-50351698D01*
X63428101Y-50220782D01*
X63448583Y-50078325D01*
X63428101Y-49935868D01*
X63368313Y-49804952D01*
X63274064Y-49696182D01*
X63152989Y-49618372D01*
X63152987Y-49618371D01*
X63152985Y-49618370D01*
X63152986Y-49618370D01*
X63014899Y-49577825D01*
X63014897Y-49577825D01*
X62870975Y-49577825D01*
X62870972Y-49577825D01*
X62732885Y-49618370D01*
X62611809Y-49696181D01*
X62517559Y-49804951D01*
X62517558Y-49804953D01*
X62457770Y-49935868D01*
X62437289Y-50078325D01*
X53709031Y-50078325D01*
X53705056Y-50015140D01*
X53654268Y-49858829D01*
X53566202Y-49720060D01*
X53560863Y-49715046D01*
X53446396Y-49607554D01*
X53446388Y-49607548D01*
X53302371Y-49528374D01*
X53302361Y-49528371D01*
X53143180Y-49487500D01*
X53143177Y-49487500D01*
X53020075Y-49487500D01*
X53020065Y-49487500D01*
X52897942Y-49502929D01*
X52897939Y-49502929D01*
X52745130Y-49563431D01*
X52745121Y-49563436D01*
X52612164Y-49660034D01*
X52612162Y-49660037D01*
X52507400Y-49786673D01*
X52437420Y-49935387D01*
X52422207Y-50015139D01*
X52406624Y-50096830D01*
X52406624Y-50096832D01*
X52406624Y-50096833D01*
X50050000Y-50096833D01*
X50050000Y-47330000D01*
X62292353Y-47330000D01*
X62312834Y-47472456D01*
X62361492Y-47579000D01*
X62372623Y-47603373D01*
X62466872Y-47712143D01*
X62587947Y-47789953D01*
X62587950Y-47789954D01*
X62587949Y-47789954D01*
X62726036Y-47830499D01*
X62726038Y-47830500D01*
X62726039Y-47830500D01*
X62869962Y-47830500D01*
X62869962Y-47830499D01*
X63008053Y-47789953D01*
X63129128Y-47712143D01*
X63223377Y-47603373D01*
X63234508Y-47579000D01*
X88539417Y-47579000D01*
X88559699Y-47784932D01*
X88573522Y-47830499D01*
X88619768Y-47982954D01*
X88717315Y-48165450D01*
X88717317Y-48165452D01*
X88848589Y-48325410D01*
X88945209Y-48404702D01*
X89008550Y-48456685D01*
X89191046Y-48554232D01*
X89389066Y-48614300D01*
X89389065Y-48614300D01*
X89409347Y-48616297D01*
X89595000Y-48634583D01*
X89800934Y-48614300D01*
X89998954Y-48554232D01*
X90181450Y-48456685D01*
X90341410Y-48325410D01*
X90472685Y-48165450D01*
X90570232Y-47982954D01*
X90630300Y-47784934D01*
X90650583Y-47579000D01*
X90630300Y-47373066D01*
X90570232Y-47175046D01*
X90472685Y-46992550D01*
X90372150Y-46870047D01*
X90341410Y-46832589D01*
X90181452Y-46701317D01*
X90181453Y-46701317D01*
X90181450Y-46701315D01*
X89998954Y-46603768D01*
X89800934Y-46543700D01*
X89800932Y-46543699D01*
X89800934Y-46543699D01*
X89595000Y-46523417D01*
X89389067Y-46543699D01*
X89191043Y-46603769D01*
X89080898Y-46662643D01*
X89008550Y-46701315D01*
X89008548Y-46701316D01*
X89008547Y-46701317D01*
X88848589Y-46832589D01*
X88717317Y-46992547D01*
X88619769Y-47175043D01*
X88559699Y-47373067D01*
X88539417Y-47579000D01*
X63234508Y-47579000D01*
X63283165Y-47472457D01*
X63303647Y-47330000D01*
X63283165Y-47187543D01*
X63223377Y-47056627D01*
X63129128Y-46947857D01*
X63008053Y-46870047D01*
X63008051Y-46870046D01*
X63008049Y-46870045D01*
X63008050Y-46870045D01*
X62869963Y-46829500D01*
X62869961Y-46829500D01*
X62726039Y-46829500D01*
X62726036Y-46829500D01*
X62587949Y-46870045D01*
X62466873Y-46947856D01*
X62372623Y-47056626D01*
X62372622Y-47056628D01*
X62312834Y-47187543D01*
X62292353Y-47330000D01*
X50050000Y-47330000D01*
X50050000Y-45496833D01*
X52406624Y-45496833D01*
X52416944Y-45660860D01*
X52467732Y-45817171D01*
X52467734Y-45817175D01*
X52555798Y-45955940D01*
X52675603Y-46068445D01*
X52675611Y-46068451D01*
X52755860Y-46112568D01*
X52819632Y-46147627D01*
X52978823Y-46188500D01*
X52978827Y-46188500D01*
X53101923Y-46188500D01*
X53101925Y-46188500D01*
X53101930Y-46188499D01*
X53101934Y-46188499D01*
X53115174Y-46186826D01*
X53224058Y-46173071D01*
X53376871Y-46112568D01*
X53376878Y-46112563D01*
X53509835Y-46015965D01*
X53509835Y-46015963D01*
X53509837Y-46015963D01*
X53614600Y-45889326D01*
X53684579Y-45740613D01*
X53715376Y-45579170D01*
X53705056Y-45415140D01*
X53654268Y-45258829D01*
X53566202Y-45120060D01*
X53479881Y-45038999D01*
X53446396Y-45007554D01*
X53446388Y-45007548D01*
X53302371Y-44928374D01*
X53302361Y-44928371D01*
X53143180Y-44887500D01*
X53143177Y-44887500D01*
X53020075Y-44887500D01*
X53020065Y-44887500D01*
X52897942Y-44902929D01*
X52897939Y-44902929D01*
X52745130Y-44963431D01*
X52745121Y-44963436D01*
X52612164Y-45060034D01*
X52612162Y-45060037D01*
X52507400Y-45186673D01*
X52437420Y-45335387D01*
X52429425Y-45377302D01*
X52406624Y-45496830D01*
X52406624Y-45496832D01*
X52406624Y-45496833D01*
X50050000Y-45496833D01*
X50050000Y-44799989D01*
X62302702Y-44799989D01*
X62323183Y-44942446D01*
X62367278Y-45038999D01*
X62382972Y-45073363D01*
X62477221Y-45182133D01*
X62591134Y-45255340D01*
X62636888Y-45308143D01*
X62646832Y-45377302D01*
X62617807Y-45440857D01*
X62591134Y-45463970D01*
X62514876Y-45512978D01*
X62420625Y-45621749D01*
X62420624Y-45621751D01*
X62360836Y-45752666D01*
X62340355Y-45895123D01*
X62360836Y-46037579D01*
X62395081Y-46112563D01*
X62420625Y-46168496D01*
X62514874Y-46277266D01*
X62635949Y-46355076D01*
X62635952Y-46355077D01*
X62635951Y-46355077D01*
X62774038Y-46395622D01*
X62774040Y-46395623D01*
X62774041Y-46395623D01*
X62917964Y-46395623D01*
X62917964Y-46395622D01*
X63056055Y-46355076D01*
X63118860Y-46314714D01*
X71306632Y-46314714D01*
X71327113Y-46457170D01*
X71357368Y-46523417D01*
X71386902Y-46588087D01*
X71481151Y-46696857D01*
X71602226Y-46774667D01*
X71602229Y-46774668D01*
X71602228Y-46774668D01*
X71740315Y-46815213D01*
X71740317Y-46815214D01*
X71740318Y-46815214D01*
X71884241Y-46815214D01*
X71884241Y-46815213D01*
X72022332Y-46774667D01*
X72143407Y-46696857D01*
X72237656Y-46588087D01*
X72297444Y-46457171D01*
X72317926Y-46314714D01*
X72297444Y-46172257D01*
X72237656Y-46041341D01*
X72143407Y-45932571D01*
X72022332Y-45854761D01*
X72022330Y-45854760D01*
X72022328Y-45854759D01*
X72022329Y-45854759D01*
X71884242Y-45814214D01*
X71884240Y-45814214D01*
X71740318Y-45814214D01*
X71740315Y-45814214D01*
X71602228Y-45854759D01*
X71481152Y-45932570D01*
X71386902Y-46041340D01*
X71386901Y-46041342D01*
X71327113Y-46172257D01*
X71306632Y-46314714D01*
X63118860Y-46314714D01*
X63177130Y-46277266D01*
X63271379Y-46168496D01*
X63331167Y-46037580D01*
X63351649Y-45895123D01*
X63331167Y-45752666D01*
X63271379Y-45621750D01*
X63177130Y-45512980D01*
X63063216Y-45439772D01*
X63017462Y-45386969D01*
X63007518Y-45317810D01*
X63036543Y-45254254D01*
X63063215Y-45231143D01*
X63139477Y-45182133D01*
X63233726Y-45073363D01*
X63249420Y-45038999D01*
X88539417Y-45038999D01*
X88559699Y-45244932D01*
X88578874Y-45308143D01*
X88619768Y-45442954D01*
X88717315Y-45625450D01*
X88717317Y-45625452D01*
X88848589Y-45785410D01*
X88933095Y-45854761D01*
X89008550Y-45916685D01*
X89191046Y-46014232D01*
X89389066Y-46074300D01*
X89389065Y-46074300D01*
X89409348Y-46076297D01*
X89595000Y-46094583D01*
X89800934Y-46074300D01*
X89998954Y-46014232D01*
X90181450Y-45916685D01*
X90341410Y-45785410D01*
X90472685Y-45625450D01*
X90570232Y-45442954D01*
X90630300Y-45244934D01*
X90650583Y-45039000D01*
X90630300Y-44833066D01*
X90570232Y-44635046D01*
X90472685Y-44452550D01*
X90347073Y-44299490D01*
X90341410Y-44292589D01*
X90181452Y-44161317D01*
X90181453Y-44161317D01*
X90181450Y-44161315D01*
X89998954Y-44063768D01*
X89800934Y-44003700D01*
X89800932Y-44003699D01*
X89800934Y-44003699D01*
X89595000Y-43983417D01*
X89389067Y-44003699D01*
X89191043Y-44063769D01*
X89123263Y-44099999D01*
X89008550Y-44161315D01*
X89008548Y-44161316D01*
X89008547Y-44161317D01*
X88848589Y-44292589D01*
X88717317Y-44452547D01*
X88619769Y-44635043D01*
X88559699Y-44833067D01*
X88539417Y-45038999D01*
X63249420Y-45038999D01*
X63293514Y-44942447D01*
X63313996Y-44799990D01*
X63293514Y-44657533D01*
X63233726Y-44526617D01*
X63139477Y-44417847D01*
X63018402Y-44340037D01*
X63018400Y-44340036D01*
X63018398Y-44340035D01*
X63018399Y-44340035D01*
X62880312Y-44299490D01*
X62880310Y-44299490D01*
X62736388Y-44299490D01*
X62736385Y-44299490D01*
X62598298Y-44340035D01*
X62477222Y-44417846D01*
X62382972Y-44526616D01*
X62382971Y-44526618D01*
X62323183Y-44657533D01*
X62302702Y-44799989D01*
X50050000Y-44799989D01*
X50050000Y-43599499D01*
X67114441Y-43599499D01*
X67134922Y-43741956D01*
X67194710Y-43872871D01*
X67194711Y-43872873D01*
X67288960Y-43981643D01*
X67410035Y-44059453D01*
X67410038Y-44059454D01*
X67410037Y-44059454D01*
X67548124Y-44099999D01*
X67548126Y-44100000D01*
X67548127Y-44100000D01*
X67692050Y-44100000D01*
X67692050Y-44099999D01*
X67815442Y-44063769D01*
X67830138Y-44059454D01*
X67830138Y-44059453D01*
X67830141Y-44059453D01*
X67951216Y-43981643D01*
X68045465Y-43872873D01*
X68105253Y-43741957D01*
X68125735Y-43599500D01*
X68105253Y-43457043D01*
X68045465Y-43326127D01*
X67951216Y-43217357D01*
X67830141Y-43139547D01*
X67830139Y-43139546D01*
X67830137Y-43139545D01*
X67830138Y-43139545D01*
X67692051Y-43099000D01*
X67692049Y-43099000D01*
X67548127Y-43099000D01*
X67548124Y-43099000D01*
X67410037Y-43139545D01*
X67288961Y-43217356D01*
X67194711Y-43326126D01*
X67194710Y-43326128D01*
X67134922Y-43457043D01*
X67114441Y-43599499D01*
X50050000Y-43599499D01*
X50050000Y-42388000D01*
X50832669Y-42388000D01*
X50850553Y-42495176D01*
X50928576Y-42722449D01*
X50928578Y-42722455D01*
X51042947Y-42933790D01*
X51190544Y-43123422D01*
X51367338Y-43286173D01*
X51367342Y-43286176D01*
X51568509Y-43417606D01*
X51788571Y-43514134D01*
X52021523Y-43573125D01*
X52201035Y-43588000D01*
X52811000Y-43588000D01*
X52811000Y-42588000D01*
X53311000Y-42588000D01*
X53311000Y-43588000D01*
X53920965Y-43588000D01*
X54100476Y-43573125D01*
X54333428Y-43514134D01*
X54553490Y-43417606D01*
X54754657Y-43286176D01*
X54754661Y-43286173D01*
X54931455Y-43123422D01*
X55079052Y-42933790D01*
X55193421Y-42722455D01*
X55193423Y-42722449D01*
X55220487Y-42643614D01*
X69878088Y-42643614D01*
X69898569Y-42786070D01*
X69951949Y-42902954D01*
X69958358Y-42916987D01*
X70052607Y-43025757D01*
X70173682Y-43103567D01*
X70173685Y-43103568D01*
X70173684Y-43103568D01*
X70311771Y-43144113D01*
X70311773Y-43144114D01*
X70311774Y-43144114D01*
X70455697Y-43144114D01*
X70455697Y-43144113D01*
X70593788Y-43103567D01*
X70714863Y-43025757D01*
X70809112Y-42916987D01*
X70868900Y-42786071D01*
X70889382Y-42643614D01*
X70868900Y-42501157D01*
X70867915Y-42499000D01*
X88539417Y-42499000D01*
X88559699Y-42704932D01*
X88559700Y-42704934D01*
X88619768Y-42902954D01*
X88717315Y-43085450D01*
X88717317Y-43085452D01*
X88848589Y-43245410D01*
X88945209Y-43324702D01*
X89008550Y-43376685D01*
X89191046Y-43474232D01*
X89389066Y-43534300D01*
X89389065Y-43534300D01*
X89407529Y-43536118D01*
X89595000Y-43554583D01*
X89800934Y-43534300D01*
X89998954Y-43474232D01*
X90181450Y-43376685D01*
X90341410Y-43245410D01*
X90472685Y-43085450D01*
X90570232Y-42902954D01*
X90630300Y-42704934D01*
X90650583Y-42499000D01*
X90630300Y-42293066D01*
X90570232Y-42095046D01*
X90472685Y-41912550D01*
X90383930Y-41804401D01*
X90341410Y-41752589D01*
X90181452Y-41621317D01*
X90181453Y-41621317D01*
X90181450Y-41621315D01*
X89998954Y-41523768D01*
X89800934Y-41463700D01*
X89800932Y-41463699D01*
X89800934Y-41463699D01*
X89613463Y-41445235D01*
X89595000Y-41443417D01*
X89594999Y-41443417D01*
X89389067Y-41463699D01*
X89191043Y-41523769D01*
X89135328Y-41553550D01*
X89008550Y-41621315D01*
X89008548Y-41621316D01*
X89008547Y-41621317D01*
X88848589Y-41752589D01*
X88717317Y-41912547D01*
X88619769Y-42095043D01*
X88559699Y-42293067D01*
X88539417Y-42499000D01*
X70867915Y-42499000D01*
X70809112Y-42370241D01*
X70714863Y-42261471D01*
X70593788Y-42183661D01*
X70593786Y-42183660D01*
X70593784Y-42183659D01*
X70593785Y-42183659D01*
X70455698Y-42143114D01*
X70455696Y-42143114D01*
X70311774Y-42143114D01*
X70311771Y-42143114D01*
X70173684Y-42183659D01*
X70052608Y-42261470D01*
X69958358Y-42370240D01*
X69958357Y-42370242D01*
X69898569Y-42501157D01*
X69878088Y-42643614D01*
X55220487Y-42643614D01*
X55271446Y-42495176D01*
X55289331Y-42388000D01*
X54236278Y-42388000D01*
X54284625Y-42304260D01*
X54314810Y-42172008D01*
X54304673Y-42036735D01*
X54255113Y-41910459D01*
X54237203Y-41888000D01*
X55289330Y-41888000D01*
X55289330Y-41887999D01*
X55271446Y-41780823D01*
X55193423Y-41553550D01*
X55193421Y-41553544D01*
X55079052Y-41342209D01*
X54931455Y-41152577D01*
X54881944Y-41106999D01*
X73849353Y-41106999D01*
X73869834Y-41249456D01*
X73912194Y-41342209D01*
X73929623Y-41380373D01*
X74023872Y-41489143D01*
X74144947Y-41566953D01*
X74144950Y-41566954D01*
X74144949Y-41566954D01*
X74283036Y-41607499D01*
X74283038Y-41607500D01*
X74283039Y-41607500D01*
X74426962Y-41607500D01*
X74426962Y-41607499D01*
X74565053Y-41566953D01*
X74686128Y-41489143D01*
X74780377Y-41380373D01*
X74840165Y-41249457D01*
X74860647Y-41107000D01*
X74840165Y-40964543D01*
X74780377Y-40833627D01*
X74686128Y-40724857D01*
X74565053Y-40647047D01*
X74565051Y-40647046D01*
X74565049Y-40647045D01*
X74565050Y-40647045D01*
X74426963Y-40606500D01*
X74426961Y-40606500D01*
X74283039Y-40606500D01*
X74283036Y-40606500D01*
X74144949Y-40647045D01*
X74023873Y-40724856D01*
X73929623Y-40833626D01*
X73929622Y-40833628D01*
X73869834Y-40964543D01*
X73849353Y-41106999D01*
X54881944Y-41106999D01*
X54754661Y-40989826D01*
X54754657Y-40989823D01*
X54553490Y-40858393D01*
X54333428Y-40761865D01*
X54100476Y-40702874D01*
X53920965Y-40688000D01*
X53311000Y-40688000D01*
X53311000Y-41688000D01*
X52811000Y-41688000D01*
X52811000Y-40688000D01*
X52201035Y-40688000D01*
X52021523Y-40702874D01*
X51788571Y-40761865D01*
X51568509Y-40858393D01*
X51367342Y-40989823D01*
X51367338Y-40989826D01*
X51190544Y-41152577D01*
X51042947Y-41342209D01*
X50928578Y-41553544D01*
X50928576Y-41553550D01*
X50850553Y-41780823D01*
X50832669Y-41887999D01*
X50832670Y-41888000D01*
X51885722Y-41888000D01*
X51837375Y-41971740D01*
X51807190Y-42103992D01*
X51817327Y-42239265D01*
X51866887Y-42365541D01*
X51884797Y-42388000D01*
X50832669Y-42388000D01*
X50050000Y-42388000D01*
X50050000Y-35100000D01*
X56050000Y-35100000D01*
X56050000Y-41100000D01*
X64050000Y-41100000D01*
X64050000Y-40218000D01*
X71182353Y-40218000D01*
X71202834Y-40360456D01*
X71203975Y-40362954D01*
X71262623Y-40491373D01*
X71356872Y-40600143D01*
X71477947Y-40677953D01*
X71477950Y-40677954D01*
X71477949Y-40677954D01*
X71616036Y-40718499D01*
X71616038Y-40718500D01*
X71616039Y-40718500D01*
X71759962Y-40718500D01*
X71759962Y-40718499D01*
X71898053Y-40677953D01*
X72019128Y-40600143D01*
X72113377Y-40491373D01*
X72173165Y-40360457D01*
X72193647Y-40218000D01*
X72173165Y-40075543D01*
X72119941Y-39958999D01*
X88539417Y-39958999D01*
X88559699Y-40164932D01*
X88559700Y-40164934D01*
X88619768Y-40362954D01*
X88717315Y-40545450D01*
X88717317Y-40545452D01*
X88848589Y-40705410D01*
X88872286Y-40724857D01*
X89008550Y-40836685D01*
X89191046Y-40934232D01*
X89389066Y-40994300D01*
X89389065Y-40994300D01*
X89409348Y-40996297D01*
X89595000Y-41014583D01*
X89800934Y-40994300D01*
X89998954Y-40934232D01*
X90181450Y-40836685D01*
X90341410Y-40705410D01*
X90472685Y-40545450D01*
X90570232Y-40362954D01*
X90630300Y-40164934D01*
X90650583Y-39959000D01*
X90630300Y-39753066D01*
X90570232Y-39555046D01*
X90472685Y-39372550D01*
X90420702Y-39309209D01*
X90341410Y-39212589D01*
X90181452Y-39081317D01*
X90181453Y-39081317D01*
X90181450Y-39081315D01*
X89998954Y-38983768D01*
X89800934Y-38923700D01*
X89800932Y-38923699D01*
X89800934Y-38923699D01*
X89613463Y-38905235D01*
X89595000Y-38903417D01*
X89594999Y-38903417D01*
X89389067Y-38923699D01*
X89191043Y-38983769D01*
X89111737Y-39026160D01*
X89008550Y-39081315D01*
X89008548Y-39081316D01*
X89008547Y-39081317D01*
X88848589Y-39212589D01*
X88717317Y-39372547D01*
X88619769Y-39555043D01*
X88559699Y-39753067D01*
X88539417Y-39958999D01*
X72119941Y-39958999D01*
X72113377Y-39944627D01*
X72019128Y-39835857D01*
X71898053Y-39758047D01*
X71898051Y-39758046D01*
X71898049Y-39758045D01*
X71898050Y-39758045D01*
X71759963Y-39717500D01*
X71759961Y-39717500D01*
X71616039Y-39717500D01*
X71616036Y-39717500D01*
X71477949Y-39758045D01*
X71356873Y-39835856D01*
X71262623Y-39944626D01*
X71262622Y-39944628D01*
X71202834Y-40075543D01*
X71182353Y-40218000D01*
X64050000Y-40218000D01*
X64050000Y-38693999D01*
X75373353Y-38693999D01*
X75393834Y-38836456D01*
X75433678Y-38923700D01*
X75453623Y-38967373D01*
X75547872Y-39076143D01*
X75668947Y-39153953D01*
X75668950Y-39153954D01*
X75668949Y-39153954D01*
X75807036Y-39194499D01*
X75807038Y-39194500D01*
X75807039Y-39194500D01*
X75950962Y-39194500D01*
X75950962Y-39194499D01*
X76089053Y-39153953D01*
X76210128Y-39076143D01*
X76304377Y-38967373D01*
X76364165Y-38836457D01*
X76384647Y-38694000D01*
X76364165Y-38551543D01*
X76304377Y-38420627D01*
X76210128Y-38311857D01*
X76089053Y-38234047D01*
X76089051Y-38234046D01*
X76089049Y-38234045D01*
X76089050Y-38234045D01*
X75950963Y-38193500D01*
X75950961Y-38193500D01*
X75807039Y-38193500D01*
X75807036Y-38193500D01*
X75668949Y-38234045D01*
X75547873Y-38311856D01*
X75453623Y-38420626D01*
X75453622Y-38420628D01*
X75393834Y-38551543D01*
X75373353Y-38693999D01*
X64050000Y-38693999D01*
X64050000Y-37297000D01*
X75246353Y-37297000D01*
X75266834Y-37439456D01*
X75304184Y-37521239D01*
X75326623Y-37570373D01*
X75420872Y-37679143D01*
X75541947Y-37756953D01*
X75541950Y-37756954D01*
X75541949Y-37756954D01*
X75680036Y-37797499D01*
X75680038Y-37797500D01*
X75680039Y-37797500D01*
X75823962Y-37797500D01*
X75823962Y-37797499D01*
X75962053Y-37756953D01*
X76083128Y-37679143D01*
X76177377Y-37570373D01*
X76237165Y-37439457D01*
X76240106Y-37419000D01*
X88539417Y-37419000D01*
X88559699Y-37624932D01*
X88576144Y-37679143D01*
X88619768Y-37822954D01*
X88717315Y-38005450D01*
X88717317Y-38005452D01*
X88848589Y-38165410D01*
X88893828Y-38202536D01*
X89008550Y-38296685D01*
X89191046Y-38394232D01*
X89389066Y-38454300D01*
X89389065Y-38454300D01*
X89409347Y-38456297D01*
X89595000Y-38474583D01*
X89800934Y-38454300D01*
X89998954Y-38394232D01*
X90181450Y-38296685D01*
X90341410Y-38165410D01*
X90472685Y-38005450D01*
X90570232Y-37822954D01*
X90630300Y-37624934D01*
X90650583Y-37419000D01*
X90630300Y-37213066D01*
X90570232Y-37015046D01*
X90472685Y-36832550D01*
X90420702Y-36769209D01*
X90341410Y-36672589D01*
X90181452Y-36541317D01*
X90181453Y-36541317D01*
X90181450Y-36541315D01*
X89998954Y-36443768D01*
X89800934Y-36383700D01*
X89800932Y-36383699D01*
X89800934Y-36383699D01*
X89595000Y-36363417D01*
X89389067Y-36383699D01*
X89191043Y-36443769D01*
X89110253Y-36486953D01*
X89008550Y-36541315D01*
X89008548Y-36541316D01*
X89008547Y-36541317D01*
X88848589Y-36672589D01*
X88746900Y-36796500D01*
X88717315Y-36832550D01*
X88678643Y-36904898D01*
X88619769Y-37015043D01*
X88559699Y-37213067D01*
X88539417Y-37419000D01*
X76240106Y-37419000D01*
X76257647Y-37297000D01*
X76237165Y-37154543D01*
X76177377Y-37023627D01*
X76083128Y-36914857D01*
X75962053Y-36837047D01*
X75962051Y-36837046D01*
X75962049Y-36837045D01*
X75962050Y-36837045D01*
X75823963Y-36796500D01*
X75823961Y-36796500D01*
X75680039Y-36796500D01*
X75680036Y-36796500D01*
X75541949Y-36837045D01*
X75420873Y-36914856D01*
X75326623Y-37023626D01*
X75326622Y-37023628D01*
X75266834Y-37154543D01*
X75246353Y-37297000D01*
X64050000Y-37297000D01*
X64050000Y-36026999D01*
X75246353Y-36026999D01*
X75266834Y-36169456D01*
X75326622Y-36300371D01*
X75326623Y-36300373D01*
X75420872Y-36409143D01*
X75541947Y-36486953D01*
X75541950Y-36486954D01*
X75541949Y-36486954D01*
X75680036Y-36527499D01*
X75680038Y-36527500D01*
X75680039Y-36527500D01*
X75823962Y-36527500D01*
X75823962Y-36527499D01*
X75962053Y-36486953D01*
X76083128Y-36409143D01*
X76177377Y-36300373D01*
X76237165Y-36169457D01*
X76257647Y-36027000D01*
X76237165Y-35884543D01*
X76177377Y-35753627D01*
X76173153Y-35748752D01*
X88544500Y-35748752D01*
X88556131Y-35807229D01*
X88556132Y-35807230D01*
X88600447Y-35873552D01*
X88666769Y-35917867D01*
X88666770Y-35917868D01*
X88725247Y-35929499D01*
X88725250Y-35929500D01*
X88725252Y-35929500D01*
X90464750Y-35929500D01*
X90464751Y-35929499D01*
X90479568Y-35926552D01*
X90523229Y-35917868D01*
X90523229Y-35917867D01*
X90523231Y-35917867D01*
X90589552Y-35873552D01*
X90633867Y-35807231D01*
X90633867Y-35807229D01*
X90633868Y-35807229D01*
X90644529Y-35753628D01*
X90645500Y-35748748D01*
X90645500Y-34009252D01*
X90645500Y-34009249D01*
X90645499Y-34009247D01*
X90633868Y-33950770D01*
X90633867Y-33950769D01*
X90589552Y-33884447D01*
X90523230Y-33840132D01*
X90523229Y-33840131D01*
X90464752Y-33828500D01*
X90464748Y-33828500D01*
X88725252Y-33828500D01*
X88725247Y-33828500D01*
X88666770Y-33840131D01*
X88666769Y-33840132D01*
X88600447Y-33884447D01*
X88556132Y-33950769D01*
X88556131Y-33950770D01*
X88544500Y-34009247D01*
X88544500Y-35748752D01*
X76173153Y-35748752D01*
X76083128Y-35644857D01*
X75962053Y-35567047D01*
X75962051Y-35567046D01*
X75962049Y-35567045D01*
X75962050Y-35567045D01*
X75823963Y-35526500D01*
X75823961Y-35526500D01*
X75680039Y-35526500D01*
X75680036Y-35526500D01*
X75541949Y-35567045D01*
X75420873Y-35644856D01*
X75326623Y-35753626D01*
X75326622Y-35753628D01*
X75266834Y-35884543D01*
X75246353Y-36026999D01*
X64050000Y-36026999D01*
X64050000Y-35100000D01*
X61050000Y-35100000D01*
X61049999Y-37100000D01*
X61050000Y-37100000D01*
X62106154Y-37100000D01*
X62173193Y-37119685D01*
X62218948Y-37172489D01*
X62228892Y-37241647D01*
X62204531Y-37299484D01*
X62157496Y-37360781D01*
X62146463Y-37375160D01*
X62085956Y-37521237D01*
X62085955Y-37521239D01*
X62065318Y-37677998D01*
X62065318Y-37678001D01*
X62085955Y-37834760D01*
X62085956Y-37834762D01*
X62146464Y-37980841D01*
X62242718Y-38106282D01*
X62368159Y-38202536D01*
X62514238Y-38263044D01*
X62592618Y-38273363D01*
X62670999Y-38283682D01*
X62671000Y-38283682D01*
X62671001Y-38283682D01*
X62723254Y-38276802D01*
X62827762Y-38263044D01*
X62864708Y-38247740D01*
X62878548Y-38242008D01*
X62948017Y-38234539D01*
X63010496Y-38265814D01*
X63046148Y-38325903D01*
X63050000Y-38356569D01*
X63050000Y-39976000D01*
X63030315Y-40043039D01*
X62977511Y-40088794D01*
X62926000Y-40100000D01*
X58303214Y-40100000D01*
X58236175Y-40080315D01*
X58190420Y-40027511D01*
X58180476Y-39958353D01*
X58209501Y-39894797D01*
X58255762Y-39861439D01*
X58264538Y-39857803D01*
X58274841Y-39853536D01*
X58400282Y-39757282D01*
X58496536Y-39631841D01*
X58557044Y-39485762D01*
X58577682Y-39329000D01*
X58557044Y-39172238D01*
X58496536Y-39026159D01*
X58400282Y-38900718D01*
X58274841Y-38804464D01*
X58128762Y-38743956D01*
X58128760Y-38743955D01*
X57972001Y-38723318D01*
X57971999Y-38723318D01*
X57815239Y-38743955D01*
X57815237Y-38743956D01*
X57669160Y-38804463D01*
X57543718Y-38900718D01*
X57447463Y-39026160D01*
X57386956Y-39172237D01*
X57386955Y-39172239D01*
X57366318Y-39328998D01*
X57366318Y-39329001D01*
X57386955Y-39485760D01*
X57386956Y-39485762D01*
X57447464Y-39631841D01*
X57543718Y-39757282D01*
X57669159Y-39853536D01*
X57669160Y-39853536D01*
X57669161Y-39853537D01*
X57688238Y-39861439D01*
X57742642Y-39905280D01*
X57764707Y-39971574D01*
X57747428Y-40039273D01*
X57696291Y-40086884D01*
X57640786Y-40100000D01*
X57174000Y-40100000D01*
X57106961Y-40080315D01*
X57061206Y-40027511D01*
X57050000Y-39976000D01*
X57050000Y-37224000D01*
X57069685Y-37156961D01*
X57122489Y-37111206D01*
X57174000Y-37100000D01*
X60050000Y-37100000D01*
X60050000Y-35100000D01*
X56050000Y-35100000D01*
X50050000Y-35100000D01*
X50050000Y-34884000D01*
X79691353Y-34884000D01*
X79711834Y-35026456D01*
X79745421Y-35100000D01*
X79771623Y-35157373D01*
X79865872Y-35266143D01*
X79986947Y-35343953D01*
X79986950Y-35343954D01*
X79986949Y-35343954D01*
X80125036Y-35384499D01*
X80125038Y-35384500D01*
X80125039Y-35384500D01*
X80268962Y-35384500D01*
X80268962Y-35384499D01*
X80407053Y-35343953D01*
X80528128Y-35266143D01*
X80622377Y-35157373D01*
X80682165Y-35026457D01*
X80702647Y-34884000D01*
X80682165Y-34741543D01*
X80622377Y-34610627D01*
X80528128Y-34501857D01*
X80407053Y-34424047D01*
X80407051Y-34424046D01*
X80407049Y-34424045D01*
X80407050Y-34424045D01*
X80268963Y-34383500D01*
X80268961Y-34383500D01*
X80125039Y-34383500D01*
X80125036Y-34383500D01*
X79986949Y-34424045D01*
X79865873Y-34501856D01*
X79771623Y-34610626D01*
X79771622Y-34610628D01*
X79711834Y-34741543D01*
X79691353Y-34884000D01*
X50050000Y-34884000D01*
X50050000Y-32491305D01*
X50051752Y-32470535D01*
X50070225Y-32361806D01*
X50071454Y-32356183D01*
X50112425Y-32203279D01*
X50157083Y-32048268D01*
X50158764Y-32043254D01*
X50216127Y-31893815D01*
X50277366Y-31745972D01*
X50279379Y-31741606D01*
X50352511Y-31598078D01*
X50359688Y-31585090D01*
X50429655Y-31458494D01*
X50431867Y-31454808D01*
X50519980Y-31319127D01*
X50534130Y-31299182D01*
X50612154Y-31189220D01*
X50614486Y-31186143D01*
X50715655Y-31061209D01*
X50717537Y-31058998D01*
X50822773Y-30941239D01*
X50825092Y-30938787D01*
X50938787Y-30825092D01*
X50941239Y-30822773D01*
X51058998Y-30717537D01*
X51061209Y-30715655D01*
X51186143Y-30614486D01*
X51189220Y-30612154D01*
X51319127Y-30519980D01*
X51329046Y-30513537D01*
X51454808Y-30431867D01*
X51458494Y-30429655D01*
X51598078Y-30352511D01*
X51610063Y-30346403D01*
X51741606Y-30279379D01*
X51745972Y-30277366D01*
X51893815Y-30216127D01*
X52043254Y-30158764D01*
X52048268Y-30157083D01*
X52203279Y-30112425D01*
X52356196Y-30071451D01*
X52361796Y-30070227D01*
X52524284Y-30042618D01*
X52676791Y-30018464D01*
X52682968Y-30017803D01*
X52866566Y-30007493D01*
X52998380Y-30000584D01*
X53001622Y-30000500D01*
X93926000Y-30000500D01*
X93993039Y-30020185D01*
G37*
%TD.AperFunction*%
%TD*%
%TA.AperFunction,Conductor*%
%TO.N,GND1*%
G36*
X97218489Y-61459685D02*
G01*
X97264244Y-61512489D01*
X97274188Y-61581647D01*
X97245163Y-61645203D01*
X97239131Y-61651681D01*
X97121891Y-61768920D01*
X97121886Y-61768926D01*
X96986400Y-61962420D01*
X96986399Y-61962422D01*
X96886570Y-62176507D01*
X96886567Y-62176513D01*
X96829364Y-62389999D01*
X96829364Y-62390000D01*
X97726314Y-62390000D01*
X97700507Y-62430156D01*
X97660000Y-62568111D01*
X97660000Y-62711889D01*
X97700507Y-62849844D01*
X97726314Y-62890000D01*
X96829364Y-62890000D01*
X96886567Y-63103486D01*
X96886570Y-63103492D01*
X96986399Y-63317578D01*
X97121894Y-63511082D01*
X97288917Y-63678105D01*
X97482421Y-63813600D01*
X97696507Y-63913429D01*
X97696516Y-63913433D01*
X97910000Y-63970634D01*
X97910000Y-63075501D01*
X98017685Y-63124680D01*
X98124237Y-63140000D01*
X98195763Y-63140000D01*
X98302315Y-63124680D01*
X98410000Y-63075501D01*
X98410000Y-63970633D01*
X98623483Y-63913433D01*
X98623492Y-63913429D01*
X98837578Y-63813600D01*
X99031082Y-63678105D01*
X99198318Y-63510869D01*
X99259641Y-63477384D01*
X99329332Y-63482368D01*
X99385266Y-63524239D01*
X99409683Y-63589704D01*
X99409999Y-63598550D01*
X99410000Y-68875500D01*
X99390315Y-68942539D01*
X99337511Y-68988294D01*
X99286000Y-68999500D01*
X94050000Y-68999500D01*
X94050000Y-61440000D01*
X97151450Y-61440000D01*
X97218489Y-61459685D01*
G37*
%TD.AperFunction*%
%TD*%
%TA.AperFunction,Conductor*%
%TO.N,GND*%
G36*
X172551619Y-30000584D02*
G01*
X172683628Y-30007503D01*
X172867027Y-30017803D01*
X172873212Y-30018465D01*
X173025647Y-30042608D01*
X173188194Y-30070226D01*
X173193811Y-30071453D01*
X173346693Y-30112418D01*
X173436674Y-30138341D01*
X173501724Y-30157082D01*
X173506759Y-30158769D01*
X173656183Y-30216127D01*
X173804007Y-30277358D01*
X173808412Y-30279388D01*
X173874180Y-30312899D01*
X173951921Y-30352511D01*
X174027428Y-30394241D01*
X174091480Y-30429641D01*
X174095215Y-30431882D01*
X174169487Y-30480115D01*
X174230872Y-30519980D01*
X174318357Y-30582053D01*
X174360764Y-30612142D01*
X174363886Y-30614510D01*
X174488748Y-30715621D01*
X174491034Y-30717567D01*
X174608721Y-30822738D01*
X174611248Y-30825128D01*
X174724870Y-30938750D01*
X174727260Y-30941277D01*
X174832431Y-31058964D01*
X174834385Y-31061260D01*
X174935480Y-31186102D01*
X174937862Y-31189243D01*
X175030019Y-31319127D01*
X175083758Y-31401875D01*
X175118106Y-31454767D01*
X175120364Y-31458531D01*
X175197488Y-31598078D01*
X175270604Y-31741575D01*
X175272643Y-31745997D01*
X175333877Y-31893829D01*
X175391221Y-32043217D01*
X175392916Y-32048273D01*
X175437579Y-32203297D01*
X175478541Y-32356171D01*
X175479778Y-32361835D01*
X175507394Y-32524369D01*
X175531530Y-32676758D01*
X175532196Y-32682985D01*
X175542509Y-32866617D01*
X175549415Y-32998377D01*
X175549500Y-33001623D01*
X175549500Y-65998376D01*
X175549415Y-66001622D01*
X175542509Y-66133382D01*
X175532196Y-66317013D01*
X175531530Y-66323240D01*
X175507394Y-66475630D01*
X175479778Y-66638163D01*
X175478541Y-66643827D01*
X175437579Y-66796702D01*
X175392916Y-66951725D01*
X175391221Y-66956781D01*
X175333877Y-67106170D01*
X175272643Y-67254001D01*
X175270604Y-67258423D01*
X175197488Y-67401921D01*
X175120364Y-67541467D01*
X175118097Y-67545246D01*
X175030019Y-67680872D01*
X174937862Y-67810755D01*
X174935480Y-67813896D01*
X174834385Y-67938738D01*
X174832431Y-67941034D01*
X174727260Y-68058721D01*
X174724870Y-68061248D01*
X174611248Y-68174870D01*
X174608721Y-68177260D01*
X174491034Y-68282431D01*
X174488738Y-68284385D01*
X174363896Y-68385480D01*
X174360755Y-68387862D01*
X174230872Y-68480019D01*
X174095246Y-68568097D01*
X174091467Y-68570364D01*
X173951921Y-68647488D01*
X173808423Y-68720604D01*
X173804001Y-68722643D01*
X173656170Y-68783877D01*
X173506781Y-68841221D01*
X173501725Y-68842916D01*
X173346702Y-68887579D01*
X173193827Y-68928541D01*
X173188163Y-68929778D01*
X173025630Y-68957394D01*
X172873240Y-68981530D01*
X172867013Y-68982196D01*
X172683382Y-68992509D01*
X172551622Y-68999415D01*
X172548376Y-68999500D01*
X100124000Y-68999500D01*
X100056961Y-68979815D01*
X100011206Y-68927011D01*
X100000000Y-68875500D01*
X100000000Y-66899999D01*
X149144353Y-66899999D01*
X149164834Y-67042456D01*
X149224622Y-67173371D01*
X149224623Y-67173373D01*
X149283756Y-67241617D01*
X149312781Y-67305172D01*
X149302837Y-67374331D01*
X149264834Y-67457543D01*
X149244353Y-67600000D01*
X149264834Y-67742456D01*
X149274245Y-67763062D01*
X149324623Y-67873373D01*
X149418872Y-67982143D01*
X149539947Y-68059953D01*
X149539950Y-68059954D01*
X149539949Y-68059954D01*
X149678036Y-68100499D01*
X149678038Y-68100500D01*
X149678039Y-68100500D01*
X149821962Y-68100500D01*
X149821962Y-68100499D01*
X149960053Y-68059953D01*
X150081128Y-67982143D01*
X150175377Y-67873373D01*
X150231720Y-67750000D01*
X167544353Y-67750000D01*
X167564834Y-67892456D01*
X167617172Y-68007057D01*
X167624623Y-68023373D01*
X167718872Y-68132143D01*
X167839947Y-68209953D01*
X167839950Y-68209954D01*
X167839949Y-68209954D01*
X167978036Y-68250499D01*
X167978038Y-68250500D01*
X167978039Y-68250500D01*
X168121962Y-68250500D01*
X168121962Y-68250499D01*
X168260053Y-68209953D01*
X168381128Y-68132143D01*
X168475377Y-68023373D01*
X168535165Y-67892457D01*
X168555647Y-67750000D01*
X168535165Y-67607543D01*
X168475377Y-67476627D01*
X168381128Y-67367857D01*
X168260053Y-67290047D01*
X168260051Y-67290046D01*
X168260049Y-67290045D01*
X168260050Y-67290045D01*
X168121963Y-67249500D01*
X168121961Y-67249500D01*
X167978039Y-67249500D01*
X167978036Y-67249500D01*
X167839949Y-67290045D01*
X167718873Y-67367856D01*
X167624623Y-67476626D01*
X167624622Y-67476628D01*
X167564834Y-67607543D01*
X167544353Y-67750000D01*
X150231720Y-67750000D01*
X150235165Y-67742457D01*
X150255647Y-67600000D01*
X150235165Y-67457543D01*
X150175377Y-67326627D01*
X150124569Y-67267991D01*
X150116243Y-67258382D01*
X150087219Y-67194826D01*
X150097163Y-67125668D01*
X150106068Y-67106170D01*
X150135165Y-67042457D01*
X150155647Y-66900000D01*
X150135165Y-66757543D01*
X150075377Y-66626627D01*
X150075375Y-66626625D01*
X150075374Y-66626622D01*
X150036017Y-66581203D01*
X150006991Y-66517648D01*
X150016934Y-66448489D01*
X150036017Y-66418797D01*
X150075374Y-66373377D01*
X150075374Y-66373375D01*
X150075377Y-66373373D01*
X150135165Y-66242457D01*
X150155647Y-66100000D01*
X150135165Y-65957543D01*
X150075377Y-65826627D01*
X149981128Y-65717857D01*
X149953342Y-65700000D01*
X152144353Y-65700000D01*
X152164834Y-65842456D01*
X152224622Y-65973371D01*
X152224623Y-65973373D01*
X152318872Y-66082143D01*
X152439947Y-66159953D01*
X152439950Y-66159954D01*
X152439949Y-66159954D01*
X152578036Y-66200499D01*
X152578038Y-66200500D01*
X152578039Y-66200500D01*
X152721962Y-66200500D01*
X152721962Y-66200499D01*
X152860053Y-66159953D01*
X152981128Y-66082143D01*
X153075377Y-65973373D01*
X153135165Y-65842457D01*
X153155647Y-65700000D01*
X153141269Y-65600000D01*
X156644353Y-65600000D01*
X156664834Y-65742456D01*
X156710504Y-65842457D01*
X156724623Y-65873373D01*
X156818872Y-65982143D01*
X156939947Y-66059953D01*
X156939950Y-66059954D01*
X156939949Y-66059954D01*
X157015520Y-66082143D01*
X157076336Y-66100000D01*
X157078036Y-66100499D01*
X157078038Y-66100500D01*
X157078039Y-66100500D01*
X157221962Y-66100500D01*
X157221962Y-66100499D01*
X157360053Y-66059953D01*
X157481128Y-65982143D01*
X157575377Y-65873373D01*
X157635165Y-65742457D01*
X157655647Y-65600000D01*
X161194353Y-65600000D01*
X161214834Y-65742456D01*
X161260504Y-65842457D01*
X161274623Y-65873373D01*
X161368872Y-65982143D01*
X161489947Y-66059953D01*
X161489950Y-66059954D01*
X161489949Y-66059954D01*
X161565520Y-66082143D01*
X161626336Y-66100000D01*
X161628036Y-66100499D01*
X161628038Y-66100500D01*
X161628039Y-66100500D01*
X161771962Y-66100500D01*
X161771962Y-66100499D01*
X161910053Y-66059953D01*
X162031128Y-65982143D01*
X162125377Y-65873373D01*
X162185165Y-65742457D01*
X162205647Y-65600000D01*
X162185165Y-65457543D01*
X162125377Y-65326627D01*
X162031128Y-65217857D01*
X161910053Y-65140047D01*
X161910051Y-65140046D01*
X161910049Y-65140045D01*
X161910050Y-65140045D01*
X161771963Y-65099500D01*
X161771961Y-65099500D01*
X161628039Y-65099500D01*
X161628036Y-65099500D01*
X161489949Y-65140045D01*
X161368873Y-65217856D01*
X161274623Y-65326626D01*
X161274622Y-65326628D01*
X161214834Y-65457543D01*
X161194353Y-65600000D01*
X157655647Y-65600000D01*
X157635165Y-65457543D01*
X157575377Y-65326627D01*
X157481128Y-65217857D01*
X157360053Y-65140047D01*
X157360051Y-65140046D01*
X157360049Y-65140045D01*
X157360050Y-65140045D01*
X157221963Y-65099500D01*
X157221961Y-65099500D01*
X157078039Y-65099500D01*
X157078036Y-65099500D01*
X156939949Y-65140045D01*
X156818873Y-65217856D01*
X156724623Y-65326626D01*
X156724622Y-65326628D01*
X156664834Y-65457543D01*
X156644353Y-65600000D01*
X153141269Y-65600000D01*
X153135165Y-65557543D01*
X153075377Y-65426627D01*
X152981128Y-65317857D01*
X152860053Y-65240047D01*
X152860051Y-65240046D01*
X152860049Y-65240045D01*
X152860050Y-65240045D01*
X152721963Y-65199500D01*
X152721961Y-65199500D01*
X152578039Y-65199500D01*
X152578036Y-65199500D01*
X152439949Y-65240045D01*
X152318873Y-65317856D01*
X152224623Y-65426626D01*
X152224622Y-65426628D01*
X152164834Y-65557543D01*
X152144353Y-65700000D01*
X149953342Y-65700000D01*
X149860053Y-65640047D01*
X149860051Y-65640046D01*
X149860049Y-65640045D01*
X149860050Y-65640045D01*
X149721963Y-65599500D01*
X149721961Y-65599500D01*
X149578039Y-65599500D01*
X149578036Y-65599500D01*
X149439949Y-65640045D01*
X149318873Y-65717856D01*
X149224623Y-65826626D01*
X149224622Y-65826628D01*
X149164834Y-65957543D01*
X149144353Y-66099999D01*
X149164834Y-66242456D01*
X149224622Y-66373371D01*
X149224625Y-66373377D01*
X149263983Y-66418799D01*
X149293007Y-66482355D01*
X149283063Y-66551513D01*
X149263983Y-66581201D01*
X149224625Y-66626622D01*
X149224622Y-66626628D01*
X149164834Y-66757543D01*
X149144353Y-66899999D01*
X100000000Y-66899999D01*
X100000000Y-66448489D01*
X100000000Y-65200000D01*
X107144353Y-65200000D01*
X107164834Y-65342456D01*
X107224622Y-65473371D01*
X107224623Y-65473373D01*
X107318872Y-65582143D01*
X107439947Y-65659953D01*
X107439950Y-65659954D01*
X107439949Y-65659954D01*
X107547107Y-65691417D01*
X107576336Y-65700000D01*
X107578036Y-65700499D01*
X107578038Y-65700500D01*
X107578039Y-65700500D01*
X107721962Y-65700500D01*
X107721962Y-65700499D01*
X107860053Y-65659953D01*
X107981128Y-65582143D01*
X108075377Y-65473373D01*
X108135165Y-65342457D01*
X108155647Y-65200000D01*
X108135165Y-65057543D01*
X108075377Y-64926627D01*
X107981128Y-64817857D01*
X107860053Y-64740047D01*
X107860051Y-64740046D01*
X107860049Y-64740045D01*
X107860050Y-64740045D01*
X107721963Y-64699500D01*
X107721961Y-64699500D01*
X107578039Y-64699500D01*
X107578036Y-64699500D01*
X107439949Y-64740045D01*
X107318873Y-64817856D01*
X107224623Y-64926626D01*
X107224622Y-64926628D01*
X107164834Y-65057543D01*
X107144353Y-65200000D01*
X100000000Y-65200000D01*
X100000000Y-64599999D01*
X115044353Y-64599999D01*
X115064834Y-64742456D01*
X115091114Y-64800000D01*
X115124623Y-64873373D01*
X115218872Y-64982143D01*
X115339947Y-65059953D01*
X115339950Y-65059954D01*
X115339949Y-65059954D01*
X115447107Y-65091417D01*
X115474633Y-65099500D01*
X115478036Y-65100499D01*
X115478038Y-65100500D01*
X115478039Y-65100500D01*
X115621962Y-65100500D01*
X115621962Y-65100499D01*
X115760053Y-65059953D01*
X115881128Y-64982143D01*
X115975377Y-64873373D01*
X116008886Y-64800000D01*
X158344353Y-64800000D01*
X158364834Y-64942456D01*
X158418494Y-65059953D01*
X158424623Y-65073373D01*
X158518872Y-65182143D01*
X158639947Y-65259953D01*
X158639950Y-65259954D01*
X158639949Y-65259954D01*
X158778036Y-65300499D01*
X158778038Y-65300500D01*
X158778039Y-65300500D01*
X158921962Y-65300500D01*
X158921962Y-65300499D01*
X159060053Y-65259953D01*
X159181128Y-65182143D01*
X159275377Y-65073373D01*
X159335165Y-64942457D01*
X159355647Y-64800000D01*
X159335165Y-64657543D01*
X159275377Y-64526627D01*
X159181128Y-64417857D01*
X159060053Y-64340047D01*
X159060051Y-64340046D01*
X159060049Y-64340045D01*
X159060050Y-64340045D01*
X158921963Y-64299500D01*
X158921961Y-64299500D01*
X158778039Y-64299500D01*
X158778036Y-64299500D01*
X158639949Y-64340045D01*
X158518873Y-64417856D01*
X158424623Y-64526626D01*
X158424622Y-64526628D01*
X158364834Y-64657543D01*
X158344353Y-64800000D01*
X116008886Y-64800000D01*
X116035165Y-64742457D01*
X116055647Y-64600000D01*
X116035165Y-64457543D01*
X115975377Y-64326627D01*
X115881128Y-64217857D01*
X115760053Y-64140047D01*
X115760051Y-64140046D01*
X115760049Y-64140045D01*
X115760050Y-64140045D01*
X115621963Y-64099500D01*
X115621961Y-64099500D01*
X115478039Y-64099500D01*
X115478036Y-64099500D01*
X115339949Y-64140045D01*
X115218873Y-64217856D01*
X115124623Y-64326626D01*
X115124622Y-64326628D01*
X115064834Y-64457543D01*
X115044353Y-64599999D01*
X100000000Y-64599999D01*
X100000000Y-63997781D01*
X100019684Y-63930746D01*
X100072488Y-63884991D01*
X100141646Y-63875047D01*
X100176404Y-63885403D01*
X100236507Y-63913430D01*
X100236516Y-63913433D01*
X100450000Y-63970634D01*
X100450000Y-63075501D01*
X100557685Y-63124680D01*
X100664237Y-63140000D01*
X100735763Y-63140000D01*
X100842315Y-63124680D01*
X100950000Y-63075501D01*
X100950000Y-63970633D01*
X101163483Y-63913433D01*
X101163492Y-63913429D01*
X101377578Y-63813600D01*
X101571082Y-63678105D01*
X101738105Y-63511082D01*
X101873600Y-63317578D01*
X101973429Y-63103492D01*
X101973432Y-63103486D01*
X101974366Y-63100000D01*
X126944353Y-63100000D01*
X126964834Y-63242456D01*
X126999142Y-63317578D01*
X127024623Y-63373373D01*
X127118872Y-63482143D01*
X127239947Y-63559953D01*
X127239950Y-63559954D01*
X127239949Y-63559954D01*
X127378036Y-63600499D01*
X127378038Y-63600500D01*
X127378039Y-63600500D01*
X127521962Y-63600500D01*
X127521962Y-63600499D01*
X127660053Y-63559953D01*
X127781128Y-63482143D01*
X127875377Y-63373373D01*
X127935165Y-63242457D01*
X127955647Y-63100000D01*
X127935165Y-62957543D01*
X127875377Y-62826627D01*
X127781128Y-62717857D01*
X127660053Y-62640047D01*
X127660051Y-62640046D01*
X127660049Y-62640045D01*
X127660050Y-62640045D01*
X127521963Y-62599500D01*
X127521961Y-62599500D01*
X127378039Y-62599500D01*
X127378036Y-62599500D01*
X127239949Y-62640045D01*
X127118873Y-62717856D01*
X127024623Y-62826626D01*
X127024622Y-62826628D01*
X126964834Y-62957543D01*
X126944353Y-63100000D01*
X101974366Y-63100000D01*
X102030636Y-62890000D01*
X101133686Y-62890000D01*
X101159493Y-62849844D01*
X101200000Y-62711889D01*
X101200000Y-62568111D01*
X101159493Y-62430156D01*
X101133686Y-62390000D01*
X102030636Y-62390000D01*
X102030635Y-62389999D01*
X101973432Y-62176513D01*
X101973429Y-62176507D01*
X101873600Y-61962422D01*
X101873599Y-61962420D01*
X101738113Y-61768926D01*
X101738108Y-61768920D01*
X101669187Y-61699999D01*
X108344353Y-61699999D01*
X108364834Y-61842456D01*
X108382959Y-61882143D01*
X108424623Y-61973373D01*
X108518872Y-62082143D01*
X108639947Y-62159953D01*
X108639950Y-62159954D01*
X108639949Y-62159954D01*
X108778036Y-62200499D01*
X108778038Y-62200500D01*
X108778039Y-62200500D01*
X108921962Y-62200500D01*
X108921962Y-62200499D01*
X109060053Y-62159953D01*
X109181128Y-62082143D01*
X109275377Y-61973373D01*
X109335165Y-61842457D01*
X109355647Y-61700000D01*
X109335165Y-61557543D01*
X109308886Y-61500000D01*
X122144353Y-61500000D01*
X122164834Y-61642456D01*
X122175024Y-61664768D01*
X122224623Y-61773373D01*
X122318872Y-61882143D01*
X122439947Y-61959953D01*
X122439950Y-61959954D01*
X122439949Y-61959954D01*
X122578036Y-62000499D01*
X122578038Y-62000500D01*
X122578039Y-62000500D01*
X122721962Y-62000500D01*
X122721962Y-62000499D01*
X122829121Y-61969035D01*
X122860050Y-61959954D01*
X122860050Y-61959953D01*
X122860053Y-61959953D01*
X122981128Y-61882143D01*
X123075377Y-61773373D01*
X123135165Y-61642457D01*
X123155647Y-61500000D01*
X123135165Y-61357543D01*
X123075377Y-61226627D01*
X123035074Y-61180114D01*
X123006050Y-61116558D01*
X123015994Y-61047399D01*
X123061749Y-60994597D01*
X123081128Y-60982143D01*
X123175377Y-60873373D01*
X123235165Y-60742457D01*
X123255647Y-60600000D01*
X123235165Y-60457543D01*
X123175377Y-60326627D01*
X123081128Y-60217857D01*
X122975540Y-60150000D01*
X135294353Y-60150000D01*
X135314834Y-60292456D01*
X135374622Y-60423371D01*
X135374623Y-60423373D01*
X135468872Y-60532143D01*
X135589947Y-60609953D01*
X135589950Y-60609954D01*
X135589949Y-60609954D01*
X135728036Y-60650499D01*
X135728038Y-60650500D01*
X135728039Y-60650500D01*
X135871962Y-60650500D01*
X135871962Y-60650499D01*
X136010053Y-60609953D01*
X136131128Y-60532143D01*
X136225377Y-60423373D01*
X136285165Y-60292457D01*
X136289832Y-60260000D01*
X169154417Y-60260000D01*
X169174699Y-60465932D01*
X169194784Y-60532143D01*
X169234768Y-60663954D01*
X169332315Y-60846450D01*
X169332317Y-60846452D01*
X169463589Y-61006410D01*
X169545783Y-61073864D01*
X169623550Y-61137685D01*
X169806046Y-61235232D01*
X170004066Y-61295300D01*
X170004065Y-61295300D01*
X170022529Y-61297118D01*
X170210000Y-61315583D01*
X170415934Y-61295300D01*
X170613954Y-61235232D01*
X170796450Y-61137685D01*
X170806116Y-61129752D01*
X171699500Y-61129752D01*
X171711131Y-61188229D01*
X171711132Y-61188230D01*
X171755447Y-61254552D01*
X171821769Y-61298867D01*
X171821770Y-61298868D01*
X171880247Y-61310499D01*
X171880250Y-61310500D01*
X171880252Y-61310500D01*
X173619750Y-61310500D01*
X173619751Y-61310499D01*
X173634568Y-61307552D01*
X173678229Y-61298868D01*
X173678229Y-61298867D01*
X173678231Y-61298867D01*
X173744552Y-61254552D01*
X173788867Y-61188231D01*
X173788867Y-61188229D01*
X173788868Y-61188229D01*
X173800499Y-61129752D01*
X173800500Y-61129750D01*
X173800500Y-59390249D01*
X173800499Y-59390247D01*
X173788868Y-59331770D01*
X173788867Y-59331769D01*
X173744552Y-59265447D01*
X173678230Y-59221132D01*
X173678229Y-59221131D01*
X173619752Y-59209500D01*
X173619748Y-59209500D01*
X171880252Y-59209500D01*
X171880247Y-59209500D01*
X171821770Y-59221131D01*
X171821769Y-59221132D01*
X171755447Y-59265447D01*
X171711132Y-59331769D01*
X171711131Y-59331770D01*
X171699500Y-59390247D01*
X171699500Y-61129752D01*
X170806116Y-61129752D01*
X170956410Y-61006410D01*
X171087685Y-60846450D01*
X171185232Y-60663954D01*
X171245300Y-60465934D01*
X171265583Y-60260000D01*
X171245300Y-60054066D01*
X171185232Y-59856046D01*
X171087685Y-59673550D01*
X170994459Y-59559953D01*
X170956410Y-59513589D01*
X170806121Y-59390252D01*
X170796450Y-59382315D01*
X170613954Y-59284768D01*
X170415934Y-59224700D01*
X170415932Y-59224699D01*
X170415934Y-59224699D01*
X170210000Y-59204417D01*
X170004067Y-59224699D01*
X169806043Y-59284769D01*
X169748549Y-59315501D01*
X169623550Y-59382315D01*
X169623548Y-59382316D01*
X169623547Y-59382317D01*
X169463589Y-59513589D01*
X169332317Y-59673547D01*
X169234769Y-59856043D01*
X169174699Y-60054067D01*
X169154417Y-60260000D01*
X136289832Y-60260000D01*
X136305647Y-60150000D01*
X136285165Y-60007543D01*
X136225377Y-59876627D01*
X136131128Y-59767857D01*
X136010053Y-59690047D01*
X136010051Y-59690046D01*
X136010049Y-59690045D01*
X136010050Y-59690045D01*
X135871963Y-59649500D01*
X135871961Y-59649500D01*
X135728039Y-59649500D01*
X135728036Y-59649500D01*
X135589949Y-59690045D01*
X135468873Y-59767856D01*
X135374623Y-59876626D01*
X135374622Y-59876628D01*
X135314834Y-60007543D01*
X135294353Y-60150000D01*
X122975540Y-60150000D01*
X122960053Y-60140047D01*
X122960051Y-60140046D01*
X122960049Y-60140045D01*
X122960050Y-60140045D01*
X122821963Y-60099500D01*
X122821961Y-60099500D01*
X122678039Y-60099500D01*
X122678036Y-60099500D01*
X122539949Y-60140045D01*
X122418873Y-60217856D01*
X122324623Y-60326626D01*
X122324622Y-60326628D01*
X122264834Y-60457543D01*
X122244353Y-60600000D01*
X122264834Y-60742456D01*
X122324622Y-60873371D01*
X122324625Y-60873377D01*
X122364924Y-60919883D01*
X122393950Y-60983438D01*
X122384007Y-61052597D01*
X122338254Y-61105400D01*
X122318874Y-61117855D01*
X122318872Y-61117856D01*
X122318872Y-61117857D01*
X122308567Y-61129750D01*
X122224623Y-61226626D01*
X122224622Y-61226628D01*
X122164834Y-61357543D01*
X122144353Y-61500000D01*
X109308886Y-61500000D01*
X109275377Y-61426627D01*
X109181128Y-61317857D01*
X109060053Y-61240047D01*
X109060051Y-61240046D01*
X109060049Y-61240045D01*
X109060050Y-61240045D01*
X108921963Y-61199500D01*
X108921961Y-61199500D01*
X108778039Y-61199500D01*
X108778036Y-61199500D01*
X108639949Y-61240045D01*
X108518873Y-61317856D01*
X108424623Y-61426626D01*
X108424622Y-61426628D01*
X108364834Y-61557543D01*
X108344353Y-61699999D01*
X101669187Y-61699999D01*
X101571082Y-61601894D01*
X101377578Y-61466399D01*
X101163492Y-61366570D01*
X101163486Y-61366567D01*
X101041349Y-61333841D01*
X100981689Y-61297476D01*
X100951160Y-61234629D01*
X100959455Y-61165253D01*
X101003940Y-61111375D01*
X101037444Y-61095407D01*
X101103954Y-61075232D01*
X101286450Y-60977685D01*
X101446410Y-60846410D01*
X101577685Y-60686450D01*
X101675232Y-60503954D01*
X101735300Y-60305934D01*
X101755583Y-60100000D01*
X101735300Y-59894066D01*
X101675232Y-59696046D01*
X101577685Y-59513550D01*
X101476498Y-59390252D01*
X101446410Y-59353589D01*
X101286452Y-59222317D01*
X101286453Y-59222317D01*
X101286450Y-59222315D01*
X101150000Y-59149380D01*
X101150000Y-58095000D01*
X111844353Y-58095000D01*
X111864834Y-58237456D01*
X111896343Y-58306450D01*
X111924623Y-58368373D01*
X112018872Y-58477143D01*
X112091852Y-58524044D01*
X112139950Y-58554955D01*
X112146957Y-58558155D01*
X112199760Y-58603911D01*
X112219443Y-58670951D01*
X112199757Y-58737990D01*
X112189157Y-58752150D01*
X112124623Y-58826627D01*
X112124622Y-58826628D01*
X112064834Y-58957543D01*
X112044353Y-59100000D01*
X112064834Y-59242456D01*
X112084158Y-59284768D01*
X112124623Y-59373373D01*
X112218872Y-59482143D01*
X112267803Y-59513589D01*
X112339948Y-59559954D01*
X112411704Y-59581023D01*
X112470482Y-59618797D01*
X112499507Y-59682353D01*
X112489563Y-59751511D01*
X112443809Y-59804315D01*
X112411704Y-59818977D01*
X112339948Y-59840045D01*
X112218873Y-59917856D01*
X112124623Y-60026626D01*
X112124622Y-60026628D01*
X112064834Y-60157543D01*
X112044353Y-60299999D01*
X112064834Y-60442456D01*
X112124622Y-60573371D01*
X112124623Y-60573373D01*
X112218872Y-60682143D01*
X112339947Y-60759953D01*
X112339950Y-60759954D01*
X112339949Y-60759954D01*
X112478036Y-60800499D01*
X112478038Y-60800500D01*
X112478039Y-60800500D01*
X112621962Y-60800500D01*
X112621962Y-60800499D01*
X112760053Y-60759953D01*
X112881128Y-60682143D01*
X112975377Y-60573373D01*
X113035165Y-60442457D01*
X113055647Y-60300000D01*
X113035165Y-60157543D01*
X112975377Y-60026627D01*
X112881128Y-59917857D01*
X112760053Y-59840047D01*
X112760051Y-59840046D01*
X112760049Y-59840045D01*
X112760050Y-59840045D01*
X112688296Y-59818977D01*
X112629518Y-59781203D01*
X112600492Y-59717648D01*
X112610435Y-59648489D01*
X112656190Y-59595685D01*
X112688296Y-59581023D01*
X112760050Y-59559954D01*
X112760050Y-59559953D01*
X112760053Y-59559953D01*
X112881128Y-59482143D01*
X112975377Y-59373373D01*
X113035165Y-59242457D01*
X113055647Y-59100000D01*
X113035165Y-58957543D01*
X112975377Y-58826627D01*
X112881128Y-58717857D01*
X112760053Y-58640047D01*
X112760047Y-58640043D01*
X112753038Y-58636842D01*
X112700237Y-58591085D01*
X112680556Y-58524044D01*
X112700244Y-58457006D01*
X112710840Y-58442852D01*
X112775377Y-58368373D01*
X112835165Y-58237457D01*
X112835679Y-58233884D01*
X120078237Y-58233884D01*
X120098718Y-58376340D01*
X120144754Y-58477143D01*
X120158507Y-58507257D01*
X120252756Y-58616027D01*
X120373831Y-58693837D01*
X120373834Y-58693838D01*
X120373833Y-58693838D01*
X120511920Y-58734383D01*
X120511922Y-58734384D01*
X120511923Y-58734384D01*
X120655846Y-58734384D01*
X120655846Y-58734383D01*
X120793937Y-58693837D01*
X120915012Y-58616027D01*
X121009261Y-58507257D01*
X121069049Y-58376341D01*
X121089531Y-58233884D01*
X121069049Y-58091427D01*
X121009261Y-57960511D01*
X120915012Y-57851741D01*
X120793937Y-57773931D01*
X120793935Y-57773930D01*
X120793933Y-57773929D01*
X120793934Y-57773929D01*
X120655847Y-57733384D01*
X120655845Y-57733384D01*
X120511923Y-57733384D01*
X120511920Y-57733384D01*
X120373833Y-57773929D01*
X120252757Y-57851740D01*
X120158507Y-57960510D01*
X120158506Y-57960512D01*
X120098718Y-58091427D01*
X120078237Y-58233884D01*
X112835679Y-58233884D01*
X112855647Y-58095000D01*
X112835165Y-57952543D01*
X112775377Y-57821627D01*
X112681128Y-57712857D01*
X112560053Y-57635047D01*
X112560051Y-57635046D01*
X112560049Y-57635045D01*
X112560050Y-57635045D01*
X112421963Y-57594500D01*
X112421961Y-57594500D01*
X112278039Y-57594500D01*
X112278036Y-57594500D01*
X112139949Y-57635045D01*
X112018873Y-57712856D01*
X112018872Y-57712856D01*
X112018872Y-57712857D01*
X112012683Y-57720000D01*
X111924623Y-57821626D01*
X111924622Y-57821628D01*
X111864834Y-57952543D01*
X111844353Y-58095000D01*
X101150000Y-58095000D01*
X101150000Y-57455981D01*
X101168954Y-57450232D01*
X101351450Y-57352685D01*
X101511410Y-57221410D01*
X101642685Y-57061450D01*
X101740232Y-56878954D01*
X101800300Y-56680934D01*
X101820583Y-56475000D01*
X101820583Y-56474999D01*
X102249417Y-56474999D01*
X102269699Y-56680932D01*
X102289064Y-56744769D01*
X102329768Y-56878954D01*
X102427315Y-57061450D01*
X102427317Y-57061452D01*
X102558589Y-57221410D01*
X102593427Y-57250000D01*
X102718550Y-57352685D01*
X102901046Y-57450232D01*
X103099066Y-57510300D01*
X103099065Y-57510300D01*
X103119348Y-57512297D01*
X103305000Y-57530583D01*
X103510934Y-57510300D01*
X103708954Y-57450232D01*
X103891450Y-57352685D01*
X103955647Y-57300000D01*
X106744353Y-57300000D01*
X106764834Y-57442456D01*
X106802760Y-57525500D01*
X106824623Y-57573373D01*
X106918872Y-57682143D01*
X107039947Y-57759953D01*
X107039950Y-57759954D01*
X107039949Y-57759954D01*
X107178036Y-57800499D01*
X107178038Y-57800500D01*
X107178039Y-57800500D01*
X107321962Y-57800500D01*
X107321962Y-57800499D01*
X107460053Y-57759953D01*
X107581128Y-57682143D01*
X107675377Y-57573373D01*
X107735165Y-57442457D01*
X107755647Y-57300000D01*
X107748458Y-57250000D01*
X136619853Y-57250000D01*
X136640334Y-57392456D01*
X136695873Y-57514067D01*
X136700123Y-57523373D01*
X136794372Y-57632143D01*
X136915447Y-57709953D01*
X136915450Y-57709954D01*
X136915449Y-57709954D01*
X137053536Y-57750499D01*
X137053538Y-57750500D01*
X137053539Y-57750500D01*
X137197462Y-57750500D01*
X137197462Y-57750499D01*
X137301335Y-57720000D01*
X169154417Y-57720000D01*
X169174699Y-57925932D01*
X169185189Y-57960512D01*
X169234768Y-58123954D01*
X169332315Y-58306450D01*
X169332317Y-58306452D01*
X169463589Y-58466410D01*
X169560209Y-58545702D01*
X169623550Y-58597685D01*
X169806046Y-58695232D01*
X170004066Y-58755300D01*
X170004065Y-58755300D01*
X170022529Y-58757118D01*
X170210000Y-58775583D01*
X170415934Y-58755300D01*
X170613954Y-58695232D01*
X170796450Y-58597685D01*
X170956410Y-58466410D01*
X171087685Y-58306450D01*
X171185232Y-58123954D01*
X171245300Y-57925934D01*
X171265583Y-57720000D01*
X171265583Y-57719999D01*
X171694417Y-57719999D01*
X171714699Y-57925932D01*
X171725189Y-57960512D01*
X171774768Y-58123954D01*
X171872315Y-58306450D01*
X171872317Y-58306452D01*
X172003589Y-58466410D01*
X172100209Y-58545702D01*
X172163550Y-58597685D01*
X172346046Y-58695232D01*
X172544066Y-58755300D01*
X172544065Y-58755300D01*
X172562529Y-58757118D01*
X172750000Y-58775583D01*
X172955934Y-58755300D01*
X173153954Y-58695232D01*
X173336450Y-58597685D01*
X173496410Y-58466410D01*
X173627685Y-58306450D01*
X173725232Y-58123954D01*
X173785300Y-57925934D01*
X173805583Y-57720000D01*
X173785300Y-57514066D01*
X173725232Y-57316046D01*
X173627685Y-57133550D01*
X173539936Y-57026627D01*
X173496410Y-56973589D01*
X173336452Y-56842317D01*
X173336453Y-56842317D01*
X173336450Y-56842315D01*
X173153954Y-56744768D01*
X172955934Y-56684700D01*
X172955932Y-56684699D01*
X172955934Y-56684699D01*
X172750000Y-56664417D01*
X172544067Y-56684699D01*
X172346043Y-56744769D01*
X172241780Y-56800500D01*
X172163550Y-56842315D01*
X172163548Y-56842316D01*
X172163547Y-56842317D01*
X172003589Y-56973589D01*
X171893658Y-57107543D01*
X171872315Y-57133550D01*
X171837460Y-57198758D01*
X171774769Y-57316043D01*
X171714699Y-57514067D01*
X171694417Y-57719999D01*
X171265583Y-57719999D01*
X171245300Y-57514066D01*
X171185232Y-57316046D01*
X171087685Y-57133550D01*
X170999936Y-57026627D01*
X170956410Y-56973589D01*
X170796452Y-56842317D01*
X170796453Y-56842317D01*
X170796450Y-56842315D01*
X170613954Y-56744768D01*
X170415934Y-56684700D01*
X170415932Y-56684699D01*
X170415934Y-56684699D01*
X170228463Y-56666235D01*
X170210000Y-56664417D01*
X170209999Y-56664417D01*
X170004067Y-56684699D01*
X169806043Y-56744769D01*
X169701780Y-56800500D01*
X169623550Y-56842315D01*
X169623548Y-56842316D01*
X169623547Y-56842317D01*
X169463589Y-56973589D01*
X169353658Y-57107543D01*
X169332315Y-57133550D01*
X169297460Y-57198758D01*
X169234769Y-57316043D01*
X169174699Y-57514067D01*
X169154417Y-57720000D01*
X137301335Y-57720000D01*
X137335553Y-57709953D01*
X137456628Y-57632143D01*
X137550877Y-57523373D01*
X137610665Y-57392457D01*
X137631147Y-57250000D01*
X137610665Y-57107543D01*
X137550877Y-56976627D01*
X137456628Y-56867857D01*
X137335553Y-56790047D01*
X137335551Y-56790046D01*
X137335549Y-56790045D01*
X137335550Y-56790045D01*
X137197463Y-56749500D01*
X137197461Y-56749500D01*
X137053539Y-56749500D01*
X137053536Y-56749500D01*
X136915449Y-56790045D01*
X136794373Y-56867856D01*
X136794372Y-56867856D01*
X136794372Y-56867857D01*
X136784755Y-56878956D01*
X136700123Y-56976626D01*
X136700122Y-56976628D01*
X136640334Y-57107543D01*
X136619853Y-57250000D01*
X107748458Y-57250000D01*
X107735165Y-57157543D01*
X107675377Y-57026627D01*
X107581128Y-56917857D01*
X107460053Y-56840047D01*
X107460051Y-56840046D01*
X107460049Y-56840045D01*
X107460050Y-56840045D01*
X107321963Y-56799500D01*
X107321961Y-56799500D01*
X107178039Y-56799500D01*
X107178036Y-56799500D01*
X107039949Y-56840045D01*
X106918873Y-56917856D01*
X106824623Y-57026626D01*
X106824622Y-57026628D01*
X106764834Y-57157543D01*
X106744353Y-57300000D01*
X103955647Y-57300000D01*
X104051410Y-57221410D01*
X104182685Y-57061450D01*
X104280232Y-56878954D01*
X104340300Y-56680934D01*
X104360583Y-56475000D01*
X104340300Y-56269066D01*
X104334516Y-56250000D01*
X117744353Y-56250000D01*
X117764834Y-56392456D01*
X117824622Y-56523371D01*
X117824623Y-56523373D01*
X117918872Y-56632143D01*
X118039947Y-56709953D01*
X118039950Y-56709954D01*
X118039949Y-56709954D01*
X118147107Y-56741417D01*
X118174633Y-56749500D01*
X118178036Y-56750499D01*
X118178038Y-56750500D01*
X118178039Y-56750500D01*
X118321962Y-56750500D01*
X118321962Y-56750499D01*
X118460053Y-56709953D01*
X118581128Y-56632143D01*
X118675377Y-56523373D01*
X118735165Y-56392457D01*
X118748458Y-56299999D01*
X163644353Y-56299999D01*
X163664834Y-56442456D01*
X163724622Y-56573371D01*
X163724623Y-56573373D01*
X163818872Y-56682143D01*
X163939947Y-56759953D01*
X163939950Y-56759954D01*
X163939949Y-56759954D01*
X164042432Y-56790045D01*
X164074633Y-56799500D01*
X164078036Y-56800499D01*
X164078038Y-56800500D01*
X164078039Y-56800500D01*
X164221962Y-56800500D01*
X164221962Y-56800499D01*
X164360053Y-56759953D01*
X164481128Y-56682143D01*
X164575377Y-56573373D01*
X164635165Y-56442457D01*
X164655647Y-56300000D01*
X164635165Y-56157543D01*
X164575377Y-56026627D01*
X164481128Y-55917857D01*
X164360053Y-55840047D01*
X164360051Y-55840046D01*
X164360049Y-55840045D01*
X164360050Y-55840045D01*
X164221963Y-55799500D01*
X164221961Y-55799500D01*
X164078039Y-55799500D01*
X164078036Y-55799500D01*
X163939949Y-55840045D01*
X163818873Y-55917856D01*
X163724623Y-56026626D01*
X163724622Y-56026628D01*
X163664834Y-56157543D01*
X163644353Y-56299999D01*
X118748458Y-56299999D01*
X118755647Y-56250000D01*
X118735165Y-56107543D01*
X118675377Y-55976627D01*
X118581128Y-55867857D01*
X118460053Y-55790047D01*
X118460051Y-55790046D01*
X118460049Y-55790045D01*
X118460050Y-55790045D01*
X118321963Y-55749500D01*
X118321961Y-55749500D01*
X118178039Y-55749500D01*
X118178036Y-55749500D01*
X118039949Y-55790045D01*
X117918873Y-55867856D01*
X117824623Y-55976626D01*
X117824622Y-55976628D01*
X117764834Y-56107543D01*
X117744353Y-56250000D01*
X104334516Y-56250000D01*
X104280232Y-56071046D01*
X104182685Y-55888550D01*
X104095360Y-55782143D01*
X104051410Y-55728589D01*
X103891452Y-55597317D01*
X103891453Y-55597317D01*
X103891450Y-55597315D01*
X103708954Y-55499768D01*
X103510934Y-55439700D01*
X103510932Y-55439699D01*
X103510934Y-55439699D01*
X103305000Y-55419417D01*
X103099067Y-55439699D01*
X102901043Y-55499769D01*
X102821183Y-55542456D01*
X102718550Y-55597315D01*
X102718548Y-55597316D01*
X102718547Y-55597317D01*
X102558589Y-55728589D01*
X102444297Y-55867857D01*
X102427315Y-55888550D01*
X102411650Y-55917857D01*
X102329769Y-56071043D01*
X102269699Y-56269067D01*
X102249417Y-56474999D01*
X101820583Y-56474999D01*
X101800300Y-56269066D01*
X101740232Y-56071046D01*
X101642685Y-55888550D01*
X101555360Y-55782143D01*
X101511410Y-55728589D01*
X101351452Y-55597317D01*
X101351453Y-55597317D01*
X101351450Y-55597315D01*
X101168954Y-55499768D01*
X101150000Y-55494018D01*
X101150000Y-55399999D01*
X116344353Y-55399999D01*
X116364834Y-55542456D01*
X116366804Y-55546769D01*
X116424623Y-55673373D01*
X116518872Y-55782143D01*
X116639947Y-55859953D01*
X116639950Y-55859954D01*
X116639949Y-55859954D01*
X116778036Y-55900499D01*
X116778038Y-55900500D01*
X116778039Y-55900500D01*
X116921962Y-55900500D01*
X116921962Y-55900499D01*
X117060053Y-55859953D01*
X117181128Y-55782143D01*
X117275377Y-55673373D01*
X117335165Y-55542457D01*
X117355647Y-55400000D01*
X117335165Y-55257543D01*
X117308886Y-55200000D01*
X149694353Y-55200000D01*
X149714834Y-55342456D01*
X149741114Y-55399999D01*
X149774623Y-55473373D01*
X149868872Y-55582143D01*
X149989947Y-55659953D01*
X149989950Y-55659954D01*
X149989949Y-55659954D01*
X150128036Y-55700499D01*
X150128038Y-55700500D01*
X150128039Y-55700500D01*
X150271962Y-55700500D01*
X150271962Y-55700499D01*
X150410053Y-55659953D01*
X150531128Y-55582143D01*
X150625377Y-55473373D01*
X150685165Y-55342457D01*
X150705647Y-55200000D01*
X150702771Y-55179999D01*
X169154417Y-55179999D01*
X169174699Y-55385932D01*
X169201223Y-55473371D01*
X169234768Y-55583954D01*
X169332315Y-55766450D01*
X169359438Y-55799500D01*
X169463589Y-55926410D01*
X169524780Y-55976627D01*
X169623550Y-56057685D01*
X169806046Y-56155232D01*
X170004066Y-56215300D01*
X170004065Y-56215300D01*
X170022529Y-56217118D01*
X170210000Y-56235583D01*
X170415934Y-56215300D01*
X170613954Y-56155232D01*
X170796450Y-56057685D01*
X170956410Y-55926410D01*
X171087685Y-55766450D01*
X171185232Y-55583954D01*
X171245300Y-55385934D01*
X171265583Y-55180000D01*
X171265583Y-55179999D01*
X171694417Y-55179999D01*
X171714699Y-55385932D01*
X171741223Y-55473371D01*
X171774768Y-55583954D01*
X171872315Y-55766450D01*
X171899438Y-55799500D01*
X172003589Y-55926410D01*
X172064780Y-55976627D01*
X172163550Y-56057685D01*
X172346046Y-56155232D01*
X172544066Y-56215300D01*
X172544065Y-56215300D01*
X172564347Y-56217297D01*
X172750000Y-56235583D01*
X172955934Y-56215300D01*
X173153954Y-56155232D01*
X173336450Y-56057685D01*
X173496410Y-55926410D01*
X173627685Y-55766450D01*
X173725232Y-55583954D01*
X173785300Y-55385934D01*
X173805583Y-55180000D01*
X173785300Y-54974066D01*
X173725232Y-54776046D01*
X173627685Y-54593550D01*
X173568514Y-54521450D01*
X173496410Y-54433589D01*
X173336452Y-54302317D01*
X173336453Y-54302317D01*
X173336450Y-54302315D01*
X173153954Y-54204768D01*
X172955934Y-54144700D01*
X172955932Y-54144699D01*
X172955934Y-54144699D01*
X172750000Y-54124417D01*
X172544067Y-54144699D01*
X172346043Y-54204769D01*
X172242803Y-54259953D01*
X172163550Y-54302315D01*
X172163548Y-54302316D01*
X172163547Y-54302317D01*
X172003589Y-54433589D01*
X171872317Y-54593547D01*
X171774769Y-54776043D01*
X171714699Y-54974067D01*
X171694417Y-55179999D01*
X171265583Y-55179999D01*
X171245300Y-54974066D01*
X171185232Y-54776046D01*
X171087685Y-54593550D01*
X171028514Y-54521450D01*
X170956410Y-54433589D01*
X170796452Y-54302317D01*
X170796453Y-54302317D01*
X170796450Y-54302315D01*
X170613954Y-54204768D01*
X170415934Y-54144700D01*
X170415932Y-54144699D01*
X170415934Y-54144699D01*
X170210000Y-54124417D01*
X170004067Y-54144699D01*
X169806043Y-54204769D01*
X169702803Y-54259953D01*
X169623550Y-54302315D01*
X169623548Y-54302316D01*
X169623547Y-54302317D01*
X169463589Y-54433589D01*
X169332317Y-54593547D01*
X169234769Y-54776043D01*
X169174699Y-54974067D01*
X169154417Y-55179999D01*
X150702771Y-55179999D01*
X150685165Y-55057543D01*
X150625377Y-54926627D01*
X150531128Y-54817857D01*
X150410053Y-54740047D01*
X150410051Y-54740046D01*
X150410049Y-54740045D01*
X150410050Y-54740045D01*
X150271963Y-54699500D01*
X150271961Y-54699500D01*
X150128039Y-54699500D01*
X150128036Y-54699500D01*
X149989949Y-54740045D01*
X149868873Y-54817856D01*
X149774623Y-54926626D01*
X149774622Y-54926628D01*
X149714834Y-55057543D01*
X149694353Y-55200000D01*
X117308886Y-55200000D01*
X117275377Y-55126627D01*
X117181128Y-55017857D01*
X117060053Y-54940047D01*
X117060051Y-54940046D01*
X117060049Y-54940045D01*
X117060050Y-54940045D01*
X116921963Y-54899500D01*
X116921961Y-54899500D01*
X116778039Y-54899500D01*
X116778036Y-54899500D01*
X116639949Y-54940045D01*
X116518873Y-55017856D01*
X116424623Y-55126626D01*
X116424622Y-55126628D01*
X116364834Y-55257543D01*
X116344353Y-55399999D01*
X101150000Y-55399999D01*
X101150000Y-54915981D01*
X101168954Y-54910232D01*
X101351450Y-54812685D01*
X101511410Y-54681410D01*
X101642685Y-54521450D01*
X101740232Y-54338954D01*
X101800300Y-54140934D01*
X101820583Y-53935000D01*
X102249417Y-53935000D01*
X102269699Y-54140932D01*
X102289064Y-54204769D01*
X102329768Y-54338954D01*
X102427315Y-54521450D01*
X102427317Y-54521452D01*
X102558589Y-54681410D01*
X102630037Y-54740045D01*
X102718550Y-54812685D01*
X102901046Y-54910232D01*
X103099066Y-54970300D01*
X103099065Y-54970300D01*
X103117529Y-54972118D01*
X103305000Y-54990583D01*
X103510934Y-54970300D01*
X103708954Y-54910232D01*
X103891450Y-54812685D01*
X104051410Y-54681410D01*
X104182685Y-54521450D01*
X104280232Y-54338954D01*
X104340300Y-54140934D01*
X104354181Y-54000000D01*
X139744353Y-54000000D01*
X139764834Y-54142456D01*
X139793292Y-54204769D01*
X139824623Y-54273373D01*
X139918872Y-54382143D01*
X140039947Y-54459953D01*
X140039950Y-54459954D01*
X140039949Y-54459954D01*
X140178036Y-54500499D01*
X140178038Y-54500500D01*
X140178039Y-54500500D01*
X140321962Y-54500500D01*
X140321962Y-54500499D01*
X140460053Y-54459953D01*
X140581128Y-54382143D01*
X140675377Y-54273373D01*
X140735165Y-54142457D01*
X140755647Y-54000000D01*
X140735165Y-53857543D01*
X140675377Y-53726627D01*
X140581128Y-53617857D01*
X140460053Y-53540047D01*
X140460051Y-53540046D01*
X140460049Y-53540045D01*
X140460050Y-53540045D01*
X140321963Y-53499500D01*
X140321961Y-53499500D01*
X140178039Y-53499500D01*
X140178036Y-53499500D01*
X140039949Y-53540045D01*
X139918873Y-53617856D01*
X139824623Y-53726626D01*
X139824622Y-53726628D01*
X139764834Y-53857543D01*
X139744353Y-54000000D01*
X104354181Y-54000000D01*
X104360583Y-53935000D01*
X104340300Y-53729066D01*
X104280232Y-53531046D01*
X104210185Y-53399999D01*
X145944353Y-53399999D01*
X145964834Y-53542456D01*
X146024622Y-53673371D01*
X146024623Y-53673373D01*
X146118872Y-53782143D01*
X146239947Y-53859953D01*
X146239950Y-53859954D01*
X146239949Y-53859954D01*
X146378036Y-53900499D01*
X146378038Y-53900500D01*
X146378039Y-53900500D01*
X146521962Y-53900500D01*
X146521962Y-53900499D01*
X146660053Y-53859953D01*
X146753343Y-53799999D01*
X163144353Y-53799999D01*
X163164834Y-53942456D01*
X163191114Y-54000000D01*
X163224623Y-54073373D01*
X163318872Y-54182143D01*
X163439947Y-54259953D01*
X163439950Y-54259954D01*
X163439949Y-54259954D01*
X163578036Y-54300499D01*
X163578038Y-54300500D01*
X163578039Y-54300500D01*
X163721962Y-54300500D01*
X163721962Y-54300499D01*
X163860053Y-54259953D01*
X163981128Y-54182143D01*
X164075377Y-54073373D01*
X164135165Y-53942457D01*
X164155647Y-53800000D01*
X164135165Y-53657543D01*
X164075377Y-53526627D01*
X163981128Y-53417857D01*
X163860053Y-53340047D01*
X163860051Y-53340046D01*
X163860049Y-53340045D01*
X163860050Y-53340045D01*
X163721963Y-53299500D01*
X163721961Y-53299500D01*
X163578039Y-53299500D01*
X163578036Y-53299500D01*
X163439949Y-53340045D01*
X163318873Y-53417856D01*
X163224623Y-53526626D01*
X163224622Y-53526628D01*
X163164834Y-53657543D01*
X163144353Y-53799999D01*
X146753343Y-53799999D01*
X146781128Y-53782143D01*
X146875377Y-53673373D01*
X146935165Y-53542457D01*
X146955647Y-53400000D01*
X146935165Y-53257543D01*
X146875377Y-53126627D01*
X146781128Y-53017857D01*
X146660053Y-52940047D01*
X146660051Y-52940046D01*
X146660049Y-52940045D01*
X146660050Y-52940045D01*
X146521963Y-52899500D01*
X146521961Y-52899500D01*
X146378039Y-52899500D01*
X146378036Y-52899500D01*
X146239949Y-52940045D01*
X146118873Y-53017856D01*
X146024623Y-53126626D01*
X146024622Y-53126628D01*
X145964834Y-53257543D01*
X145944353Y-53399999D01*
X104210185Y-53399999D01*
X104182685Y-53348550D01*
X104107998Y-53257543D01*
X104051410Y-53188589D01*
X103891452Y-53057317D01*
X103891453Y-53057317D01*
X103891450Y-53057315D01*
X103708954Y-52959768D01*
X103510934Y-52899700D01*
X103510932Y-52899699D01*
X103510934Y-52899699D01*
X103323463Y-52881235D01*
X103305000Y-52879417D01*
X103304999Y-52879417D01*
X103099067Y-52899699D01*
X102901043Y-52959769D01*
X102792372Y-53017856D01*
X102718550Y-53057315D01*
X102718548Y-53057316D01*
X102718547Y-53057317D01*
X102558589Y-53188589D01*
X102427317Y-53348547D01*
X102329769Y-53531043D01*
X102269699Y-53729067D01*
X102249417Y-53935000D01*
X101820583Y-53935000D01*
X101800300Y-53729066D01*
X101740232Y-53531046D01*
X101642685Y-53348550D01*
X101567998Y-53257543D01*
X101511410Y-53188589D01*
X101351452Y-53057317D01*
X101351453Y-53057317D01*
X101351450Y-53057315D01*
X101168954Y-52959768D01*
X101150000Y-52954018D01*
X101150000Y-52699999D01*
X153044353Y-52699999D01*
X153064834Y-52842456D01*
X153090977Y-52899700D01*
X153124623Y-52973373D01*
X153218872Y-53082143D01*
X153339947Y-53159953D01*
X153339950Y-53159954D01*
X153339949Y-53159954D01*
X153478036Y-53200499D01*
X153478038Y-53200500D01*
X153478039Y-53200500D01*
X153621962Y-53200500D01*
X153621962Y-53200499D01*
X153760053Y-53159953D01*
X153881128Y-53082143D01*
X153975377Y-52973373D01*
X154035165Y-52842457D01*
X154055647Y-52700000D01*
X154047020Y-52639999D01*
X169154417Y-52639999D01*
X169174699Y-52845932D01*
X169203248Y-52940045D01*
X169234768Y-53043954D01*
X169332315Y-53226450D01*
X169332317Y-53226452D01*
X169463589Y-53386410D01*
X169560209Y-53465702D01*
X169623550Y-53517685D01*
X169806046Y-53615232D01*
X170004066Y-53675300D01*
X170004065Y-53675300D01*
X170022529Y-53677118D01*
X170210000Y-53695583D01*
X170415934Y-53675300D01*
X170613954Y-53615232D01*
X170796450Y-53517685D01*
X170956410Y-53386410D01*
X171087685Y-53226450D01*
X171185232Y-53043954D01*
X171245300Y-52845934D01*
X171265583Y-52640000D01*
X171694417Y-52640000D01*
X171714699Y-52845932D01*
X171743248Y-52940045D01*
X171774768Y-53043954D01*
X171872315Y-53226450D01*
X171872317Y-53226452D01*
X172003589Y-53386410D01*
X172100209Y-53465702D01*
X172163550Y-53517685D01*
X172346046Y-53615232D01*
X172544066Y-53675300D01*
X172544065Y-53675300D01*
X172562529Y-53677118D01*
X172750000Y-53695583D01*
X172955934Y-53675300D01*
X173153954Y-53615232D01*
X173336450Y-53517685D01*
X173496410Y-53386410D01*
X173627685Y-53226450D01*
X173725232Y-53043954D01*
X173785300Y-52845934D01*
X173805583Y-52640000D01*
X173785300Y-52434066D01*
X173725232Y-52236046D01*
X173627685Y-52053550D01*
X173575702Y-51990209D01*
X173496410Y-51893589D01*
X173378677Y-51796969D01*
X173336450Y-51762315D01*
X173153954Y-51664768D01*
X172955934Y-51604700D01*
X172955932Y-51604699D01*
X172955934Y-51604699D01*
X172768463Y-51586235D01*
X172750000Y-51584417D01*
X172749999Y-51584417D01*
X172544067Y-51604699D01*
X172346043Y-51664769D01*
X172235898Y-51723643D01*
X172163550Y-51762315D01*
X172163548Y-51762316D01*
X172163547Y-51762317D01*
X172003589Y-51893589D01*
X171872317Y-52053547D01*
X171774769Y-52236043D01*
X171714699Y-52434067D01*
X171694417Y-52640000D01*
X171265583Y-52640000D01*
X171245300Y-52434066D01*
X171185232Y-52236046D01*
X171087685Y-52053550D01*
X171035702Y-51990209D01*
X170956410Y-51893589D01*
X170838677Y-51796969D01*
X170796450Y-51762315D01*
X170613954Y-51664768D01*
X170415934Y-51604700D01*
X170415932Y-51604699D01*
X170415934Y-51604699D01*
X170210000Y-51584417D01*
X170004067Y-51604699D01*
X169806043Y-51664769D01*
X169695898Y-51723643D01*
X169623550Y-51762315D01*
X169623548Y-51762316D01*
X169623547Y-51762317D01*
X169463589Y-51893589D01*
X169332317Y-52053547D01*
X169234769Y-52236043D01*
X169174699Y-52434067D01*
X169154417Y-52639999D01*
X154047020Y-52639999D01*
X154035165Y-52557543D01*
X153975377Y-52426627D01*
X153975375Y-52426625D01*
X153975374Y-52426622D01*
X153936017Y-52381203D01*
X153906991Y-52317648D01*
X153916934Y-52248489D01*
X153936017Y-52218797D01*
X153975374Y-52173377D01*
X153975374Y-52173375D01*
X153975377Y-52173373D01*
X154035165Y-52042457D01*
X154055647Y-51900000D01*
X154035165Y-51757543D01*
X153975377Y-51626627D01*
X153881128Y-51517857D01*
X153760053Y-51440047D01*
X153760051Y-51440046D01*
X153760049Y-51440045D01*
X153760050Y-51440045D01*
X153623666Y-51400000D01*
X163044353Y-51400000D01*
X163064834Y-51542456D01*
X163103275Y-51626628D01*
X163124623Y-51673373D01*
X163218872Y-51782143D01*
X163339947Y-51859953D01*
X163339950Y-51859954D01*
X163339949Y-51859954D01*
X163447107Y-51891417D01*
X163476336Y-51900000D01*
X163478036Y-51900499D01*
X163478038Y-51900500D01*
X163478039Y-51900500D01*
X163621962Y-51900500D01*
X163621962Y-51900499D01*
X163760053Y-51859953D01*
X163881128Y-51782143D01*
X163975377Y-51673373D01*
X164035165Y-51542457D01*
X164055647Y-51400000D01*
X164035165Y-51257543D01*
X163975377Y-51126627D01*
X163881128Y-51017857D01*
X163760053Y-50940047D01*
X163760051Y-50940046D01*
X163760049Y-50940045D01*
X163760050Y-50940045D01*
X163621963Y-50899500D01*
X163621961Y-50899500D01*
X163478039Y-50899500D01*
X163478036Y-50899500D01*
X163339949Y-50940045D01*
X163218873Y-51017856D01*
X163124623Y-51126626D01*
X163124622Y-51126628D01*
X163064834Y-51257543D01*
X163044353Y-51400000D01*
X153623666Y-51400000D01*
X153621963Y-51399500D01*
X153621961Y-51399500D01*
X153478039Y-51399500D01*
X153478036Y-51399500D01*
X153339949Y-51440045D01*
X153218873Y-51517856D01*
X153124623Y-51626626D01*
X153124622Y-51626628D01*
X153064834Y-51757543D01*
X153044353Y-51899999D01*
X153064834Y-52042456D01*
X153124622Y-52173371D01*
X153124625Y-52173377D01*
X153163983Y-52218799D01*
X153193007Y-52282355D01*
X153183063Y-52351513D01*
X153163983Y-52381201D01*
X153124625Y-52426622D01*
X153124622Y-52426628D01*
X153064834Y-52557543D01*
X153044353Y-52699999D01*
X101150000Y-52699999D01*
X101150000Y-50000000D01*
X109444353Y-50000000D01*
X109464834Y-50142456D01*
X109500248Y-50220000D01*
X109524623Y-50273373D01*
X109618872Y-50382143D01*
X109739947Y-50459953D01*
X109739950Y-50459954D01*
X109739949Y-50459954D01*
X109878036Y-50500499D01*
X109878038Y-50500500D01*
X109878039Y-50500500D01*
X110021962Y-50500500D01*
X110021962Y-50500499D01*
X110160053Y-50459953D01*
X110281128Y-50382143D01*
X110375377Y-50273373D01*
X110435165Y-50142457D01*
X110441269Y-50100000D01*
X169154417Y-50100000D01*
X169174699Y-50305932D01*
X169174700Y-50305934D01*
X169234768Y-50503954D01*
X169332315Y-50686450D01*
X169332317Y-50686452D01*
X169463589Y-50846410D01*
X169560209Y-50925702D01*
X169623550Y-50977685D01*
X169806046Y-51075232D01*
X170004066Y-51135300D01*
X170004065Y-51135300D01*
X170022529Y-51137118D01*
X170210000Y-51155583D01*
X170415934Y-51135300D01*
X170613954Y-51075232D01*
X170796450Y-50977685D01*
X170956410Y-50846410D01*
X171087685Y-50686450D01*
X171185232Y-50503954D01*
X171245300Y-50305934D01*
X171265583Y-50100000D01*
X171694417Y-50100000D01*
X171714699Y-50305932D01*
X171714700Y-50305934D01*
X171774768Y-50503954D01*
X171872315Y-50686450D01*
X171872317Y-50686452D01*
X172003589Y-50846410D01*
X172100209Y-50925702D01*
X172163550Y-50977685D01*
X172346046Y-51075232D01*
X172544066Y-51135300D01*
X172544065Y-51135300D01*
X172564347Y-51137297D01*
X172750000Y-51155583D01*
X172955934Y-51135300D01*
X173153954Y-51075232D01*
X173336450Y-50977685D01*
X173496410Y-50846410D01*
X173627685Y-50686450D01*
X173725232Y-50503954D01*
X173785300Y-50305934D01*
X173805583Y-50100000D01*
X173785300Y-49894066D01*
X173725232Y-49696046D01*
X173627685Y-49513550D01*
X173575702Y-49450209D01*
X173496410Y-49353589D01*
X173336452Y-49222317D01*
X173336453Y-49222317D01*
X173336450Y-49222315D01*
X173153954Y-49124768D01*
X172955934Y-49064700D01*
X172955932Y-49064699D01*
X172955934Y-49064699D01*
X172750000Y-49044417D01*
X172544067Y-49064699D01*
X172346043Y-49124769D01*
X172235898Y-49183643D01*
X172163550Y-49222315D01*
X172163548Y-49222316D01*
X172163547Y-49222317D01*
X172003589Y-49353589D01*
X171883845Y-49499500D01*
X171872315Y-49513550D01*
X171856864Y-49542457D01*
X171774769Y-49696043D01*
X171714699Y-49894067D01*
X171694417Y-50100000D01*
X171265583Y-50100000D01*
X171245300Y-49894066D01*
X171185232Y-49696046D01*
X171087685Y-49513550D01*
X171035702Y-49450209D01*
X170956410Y-49353589D01*
X170796452Y-49222317D01*
X170796453Y-49222317D01*
X170796450Y-49222315D01*
X170613954Y-49124768D01*
X170415934Y-49064700D01*
X170415932Y-49064699D01*
X170415934Y-49064699D01*
X170210000Y-49044417D01*
X170004067Y-49064699D01*
X169806043Y-49124769D01*
X169695898Y-49183643D01*
X169623550Y-49222315D01*
X169623548Y-49222316D01*
X169623547Y-49222317D01*
X169463589Y-49353589D01*
X169343845Y-49499500D01*
X169332315Y-49513550D01*
X169316864Y-49542457D01*
X169234769Y-49696043D01*
X169174699Y-49894067D01*
X169154417Y-50100000D01*
X110441269Y-50100000D01*
X110455647Y-50000000D01*
X110435165Y-49857543D01*
X110375377Y-49726627D01*
X110281128Y-49617857D01*
X110160053Y-49540047D01*
X110160051Y-49540046D01*
X110160049Y-49540045D01*
X110160050Y-49540045D01*
X110021963Y-49499500D01*
X110021961Y-49499500D01*
X109878039Y-49499500D01*
X109878036Y-49499500D01*
X109739949Y-49540045D01*
X109618873Y-49617856D01*
X109524623Y-49726626D01*
X109524622Y-49726628D01*
X109464834Y-49857543D01*
X109444353Y-50000000D01*
X101150000Y-50000000D01*
X101150000Y-49400000D01*
X142494353Y-49400000D01*
X142514834Y-49542456D01*
X142549269Y-49617856D01*
X142574623Y-49673373D01*
X142668872Y-49782143D01*
X142789947Y-49859953D01*
X142789950Y-49859954D01*
X142789949Y-49859954D01*
X142928036Y-49900499D01*
X142928038Y-49900500D01*
X142928039Y-49900500D01*
X143071962Y-49900500D01*
X143071962Y-49900499D01*
X143210053Y-49859953D01*
X143331128Y-49782143D01*
X143425377Y-49673373D01*
X143485165Y-49542457D01*
X143505647Y-49400000D01*
X143485165Y-49257543D01*
X143425377Y-49126627D01*
X143331128Y-49017857D01*
X143210053Y-48940047D01*
X143210051Y-48940046D01*
X143210049Y-48940045D01*
X143210050Y-48940045D01*
X143071963Y-48899500D01*
X143071961Y-48899500D01*
X142928039Y-48899500D01*
X142928036Y-48899500D01*
X142789949Y-48940045D01*
X142668873Y-49017856D01*
X142574623Y-49126626D01*
X142574622Y-49126628D01*
X142514834Y-49257543D01*
X142494353Y-49400000D01*
X101150000Y-49400000D01*
X101150000Y-48700000D01*
X163744353Y-48700000D01*
X163764834Y-48842456D01*
X163790886Y-48899500D01*
X163824623Y-48973373D01*
X163918872Y-49082143D01*
X164039947Y-49159953D01*
X164039950Y-49159954D01*
X164039949Y-49159954D01*
X164178036Y-49200499D01*
X164178038Y-49200500D01*
X164178039Y-49200500D01*
X164321962Y-49200500D01*
X164321962Y-49200499D01*
X164460053Y-49159953D01*
X164581128Y-49082143D01*
X164675377Y-48973373D01*
X164735165Y-48842457D01*
X164755647Y-48700000D01*
X164735165Y-48557543D01*
X164675377Y-48426627D01*
X164581128Y-48317857D01*
X164460053Y-48240047D01*
X164460051Y-48240046D01*
X164460049Y-48240045D01*
X164460050Y-48240045D01*
X164321963Y-48199500D01*
X164321961Y-48199500D01*
X164178039Y-48199500D01*
X164178036Y-48199500D01*
X164039949Y-48240045D01*
X163918873Y-48317856D01*
X163824623Y-48426626D01*
X163824622Y-48426628D01*
X163764834Y-48557543D01*
X163744353Y-48700000D01*
X101150000Y-48700000D01*
X101150000Y-47560000D01*
X169154417Y-47560000D01*
X169174699Y-47765932D01*
X169174700Y-47765934D01*
X169234768Y-47963954D01*
X169332315Y-48146450D01*
X169332317Y-48146452D01*
X169463589Y-48306410D01*
X169560209Y-48385702D01*
X169623550Y-48437685D01*
X169806046Y-48535232D01*
X170004066Y-48595300D01*
X170004065Y-48595300D01*
X170022529Y-48597118D01*
X170210000Y-48615583D01*
X170415934Y-48595300D01*
X170613954Y-48535232D01*
X170796450Y-48437685D01*
X170956410Y-48306410D01*
X171087685Y-48146450D01*
X171185232Y-47963954D01*
X171245300Y-47765934D01*
X171265583Y-47560000D01*
X171265583Y-47559999D01*
X171694417Y-47559999D01*
X171714699Y-47765932D01*
X171714700Y-47765934D01*
X171774768Y-47963954D01*
X171872315Y-48146450D01*
X171872317Y-48146452D01*
X172003589Y-48306410D01*
X172100209Y-48385702D01*
X172163550Y-48437685D01*
X172346046Y-48535232D01*
X172544066Y-48595300D01*
X172544065Y-48595300D01*
X172562529Y-48597118D01*
X172750000Y-48615583D01*
X172955934Y-48595300D01*
X173153954Y-48535232D01*
X173336450Y-48437685D01*
X173496410Y-48306410D01*
X173627685Y-48146450D01*
X173725232Y-47963954D01*
X173785300Y-47765934D01*
X173805583Y-47560000D01*
X173785300Y-47354066D01*
X173725232Y-47156046D01*
X173627685Y-46973550D01*
X173534459Y-46859953D01*
X173496410Y-46813589D01*
X173363809Y-46704768D01*
X173336450Y-46682315D01*
X173153954Y-46584768D01*
X172955934Y-46524700D01*
X172955932Y-46524699D01*
X172955934Y-46524699D01*
X172768463Y-46506235D01*
X172750000Y-46504417D01*
X172749999Y-46504417D01*
X172544067Y-46524699D01*
X172346043Y-46584769D01*
X172235898Y-46643643D01*
X172163550Y-46682315D01*
X172163548Y-46682316D01*
X172163547Y-46682317D01*
X172003589Y-46813589D01*
X171872317Y-46973547D01*
X171774769Y-47156043D01*
X171714699Y-47354067D01*
X171694417Y-47559999D01*
X171265583Y-47559999D01*
X171245300Y-47354066D01*
X171185232Y-47156046D01*
X171087685Y-46973550D01*
X170994459Y-46859953D01*
X170956410Y-46813589D01*
X170823809Y-46704768D01*
X170796450Y-46682315D01*
X170613954Y-46584768D01*
X170415934Y-46524700D01*
X170415932Y-46524699D01*
X170415934Y-46524699D01*
X170210000Y-46504417D01*
X170004067Y-46524699D01*
X169806043Y-46584769D01*
X169695898Y-46643643D01*
X169623550Y-46682315D01*
X169623548Y-46682316D01*
X169623547Y-46682317D01*
X169463589Y-46813589D01*
X169332317Y-46973547D01*
X169234769Y-47156043D01*
X169174699Y-47354067D01*
X169154417Y-47560000D01*
X101150000Y-47560000D01*
X101150000Y-46199999D01*
X112244353Y-46199999D01*
X112264834Y-46342456D01*
X112324622Y-46473371D01*
X112324623Y-46473373D01*
X112418872Y-46582143D01*
X112539947Y-46659953D01*
X112539950Y-46659954D01*
X112539949Y-46659954D01*
X112678036Y-46700499D01*
X112678038Y-46700500D01*
X112678039Y-46700500D01*
X112821962Y-46700500D01*
X112821962Y-46700499D01*
X112960053Y-46659953D01*
X113081128Y-46582143D01*
X113175377Y-46473373D01*
X113208886Y-46400000D01*
X117344353Y-46400000D01*
X117364834Y-46542456D01*
X117368508Y-46550500D01*
X117424623Y-46673373D01*
X117518872Y-46782143D01*
X117639947Y-46859953D01*
X117639950Y-46859954D01*
X117639949Y-46859954D01*
X117778036Y-46900499D01*
X117778038Y-46900500D01*
X117778039Y-46900500D01*
X117921962Y-46900500D01*
X117921962Y-46900499D01*
X118060053Y-46859953D01*
X118181128Y-46782143D01*
X118275377Y-46673373D01*
X118335165Y-46542457D01*
X118355647Y-46400000D01*
X118335165Y-46257543D01*
X118275377Y-46126627D01*
X118208980Y-46050000D01*
X142144353Y-46050000D01*
X142164834Y-46192456D01*
X142194559Y-46257543D01*
X142224623Y-46323373D01*
X142318872Y-46432143D01*
X142439947Y-46509953D01*
X142439950Y-46509954D01*
X142439949Y-46509954D01*
X142578036Y-46550499D01*
X142578038Y-46550500D01*
X142578039Y-46550500D01*
X142721962Y-46550500D01*
X142721962Y-46550499D01*
X142860053Y-46509953D01*
X142981128Y-46432143D01*
X143008980Y-46400000D01*
X163644353Y-46400000D01*
X163664834Y-46542456D01*
X163668508Y-46550500D01*
X163724623Y-46673373D01*
X163818872Y-46782143D01*
X163939947Y-46859953D01*
X163939950Y-46859954D01*
X163939949Y-46859954D01*
X164078036Y-46900499D01*
X164078038Y-46900500D01*
X164078039Y-46900500D01*
X164221962Y-46900500D01*
X164221962Y-46900499D01*
X164360053Y-46859953D01*
X164481128Y-46782143D01*
X164575377Y-46673373D01*
X164635165Y-46542457D01*
X164655647Y-46400000D01*
X164635165Y-46257543D01*
X164575377Y-46126627D01*
X164481128Y-46017857D01*
X164360053Y-45940047D01*
X164360051Y-45940046D01*
X164360049Y-45940045D01*
X164360050Y-45940045D01*
X164221963Y-45899500D01*
X164221961Y-45899500D01*
X164078039Y-45899500D01*
X164078036Y-45899500D01*
X163939949Y-45940045D01*
X163818873Y-46017856D01*
X163724623Y-46126626D01*
X163724622Y-46126628D01*
X163664834Y-46257543D01*
X163644353Y-46400000D01*
X143008980Y-46400000D01*
X143075377Y-46323373D01*
X143135165Y-46192457D01*
X143155647Y-46050000D01*
X143135165Y-45907543D01*
X143075377Y-45776627D01*
X142981128Y-45667857D01*
X142860053Y-45590047D01*
X142860051Y-45590046D01*
X142860049Y-45590045D01*
X142860050Y-45590045D01*
X142721963Y-45549500D01*
X142721961Y-45549500D01*
X142578039Y-45549500D01*
X142578036Y-45549500D01*
X142439949Y-45590045D01*
X142318873Y-45667856D01*
X142224623Y-45776626D01*
X142224622Y-45776628D01*
X142164834Y-45907543D01*
X142144353Y-46050000D01*
X118208980Y-46050000D01*
X118181128Y-46017857D01*
X118060053Y-45940047D01*
X118060051Y-45940046D01*
X118060049Y-45940045D01*
X118060050Y-45940045D01*
X117921963Y-45899500D01*
X117921961Y-45899500D01*
X117778039Y-45899500D01*
X117778036Y-45899500D01*
X117639949Y-45940045D01*
X117518873Y-46017856D01*
X117424623Y-46126626D01*
X117424622Y-46126628D01*
X117364834Y-46257543D01*
X117344353Y-46400000D01*
X113208886Y-46400000D01*
X113235165Y-46342457D01*
X113255647Y-46200000D01*
X113235165Y-46057543D01*
X113175377Y-45926627D01*
X113081128Y-45817857D01*
X112960053Y-45740047D01*
X112960051Y-45740046D01*
X112960049Y-45740045D01*
X112960050Y-45740045D01*
X112821963Y-45699500D01*
X112821961Y-45699500D01*
X112678039Y-45699500D01*
X112678036Y-45699500D01*
X112539949Y-45740045D01*
X112418873Y-45817856D01*
X112324623Y-45926626D01*
X112324622Y-45926628D01*
X112264834Y-46057543D01*
X112244353Y-46199999D01*
X101150000Y-46199999D01*
X101150000Y-45499999D01*
X110644353Y-45499999D01*
X110664834Y-45642456D01*
X110709402Y-45740045D01*
X110724623Y-45773373D01*
X110818872Y-45882143D01*
X110939947Y-45959953D01*
X110939950Y-45959954D01*
X110939949Y-45959954D01*
X111078036Y-46000499D01*
X111078038Y-46000500D01*
X111078039Y-46000500D01*
X111221962Y-46000500D01*
X111221962Y-46000499D01*
X111360053Y-45959953D01*
X111481128Y-45882143D01*
X111575377Y-45773373D01*
X111635165Y-45642457D01*
X111655647Y-45500000D01*
X111635165Y-45357543D01*
X111575377Y-45226627D01*
X111481128Y-45117857D01*
X111360053Y-45040047D01*
X111360051Y-45040046D01*
X111360049Y-45040045D01*
X111360050Y-45040045D01*
X111291781Y-45020000D01*
X169154417Y-45020000D01*
X169174699Y-45225932D01*
X169204733Y-45324943D01*
X169234768Y-45423954D01*
X169332315Y-45606450D01*
X169332317Y-45606452D01*
X169463589Y-45766410D01*
X169560209Y-45845702D01*
X169623550Y-45897685D01*
X169806046Y-45995232D01*
X170004066Y-46055300D01*
X170004065Y-46055300D01*
X170022529Y-46057118D01*
X170210000Y-46075583D01*
X170415934Y-46055300D01*
X170613954Y-45995232D01*
X170796450Y-45897685D01*
X170956410Y-45766410D01*
X171087685Y-45606450D01*
X171185232Y-45423954D01*
X171245300Y-45225934D01*
X171265583Y-45020000D01*
X171694417Y-45020000D01*
X171714699Y-45225932D01*
X171744733Y-45324943D01*
X171774768Y-45423954D01*
X171872315Y-45606450D01*
X171872317Y-45606452D01*
X172003589Y-45766410D01*
X172100209Y-45845702D01*
X172163550Y-45897685D01*
X172346046Y-45995232D01*
X172544066Y-46055300D01*
X172544065Y-46055300D01*
X172564347Y-46057297D01*
X172750000Y-46075583D01*
X172955934Y-46055300D01*
X173153954Y-45995232D01*
X173336450Y-45897685D01*
X173496410Y-45766410D01*
X173627685Y-45606450D01*
X173725232Y-45423954D01*
X173785300Y-45225934D01*
X173805583Y-45020000D01*
X173785300Y-44814066D01*
X173725232Y-44616046D01*
X173627685Y-44433550D01*
X173575702Y-44370209D01*
X173496410Y-44273589D01*
X173336452Y-44142317D01*
X173336453Y-44142317D01*
X173336450Y-44142315D01*
X173153954Y-44044768D01*
X172955934Y-43984700D01*
X172955932Y-43984699D01*
X172955934Y-43984699D01*
X172750000Y-43964417D01*
X172544067Y-43984699D01*
X172346043Y-44044769D01*
X172235898Y-44103643D01*
X172163550Y-44142315D01*
X172163548Y-44142316D01*
X172163547Y-44142317D01*
X172003589Y-44273589D01*
X171872317Y-44433547D01*
X171774769Y-44616043D01*
X171714699Y-44814067D01*
X171694417Y-45020000D01*
X171265583Y-45020000D01*
X171245300Y-44814066D01*
X171185232Y-44616046D01*
X171087685Y-44433550D01*
X171035702Y-44370209D01*
X170956410Y-44273589D01*
X170796452Y-44142317D01*
X170796453Y-44142317D01*
X170796450Y-44142315D01*
X170613954Y-44044768D01*
X170415934Y-43984700D01*
X170415932Y-43984699D01*
X170415934Y-43984699D01*
X170210000Y-43964417D01*
X170004067Y-43984699D01*
X169806043Y-44044769D01*
X169695898Y-44103643D01*
X169623550Y-44142315D01*
X169623548Y-44142316D01*
X169623547Y-44142317D01*
X169463589Y-44273589D01*
X169332317Y-44433547D01*
X169234769Y-44616043D01*
X169174699Y-44814067D01*
X169154417Y-45020000D01*
X111291781Y-45020000D01*
X111221963Y-44999500D01*
X111221961Y-44999500D01*
X111078039Y-44999500D01*
X111078036Y-44999500D01*
X110939949Y-45040045D01*
X110818873Y-45117856D01*
X110724623Y-45226626D01*
X110724622Y-45226628D01*
X110664834Y-45357543D01*
X110644353Y-45499999D01*
X101150000Y-45499999D01*
X101150000Y-43800000D01*
X163344353Y-43800000D01*
X163364834Y-43942456D01*
X163384126Y-43984699D01*
X163424623Y-44073373D01*
X163518872Y-44182143D01*
X163639947Y-44259953D01*
X163639950Y-44259954D01*
X163639949Y-44259954D01*
X163778036Y-44300499D01*
X163778038Y-44300500D01*
X163778039Y-44300500D01*
X163921962Y-44300500D01*
X163921962Y-44300499D01*
X164060053Y-44259953D01*
X164181128Y-44182143D01*
X164275377Y-44073373D01*
X164335165Y-43942457D01*
X164355647Y-43800000D01*
X164335165Y-43657543D01*
X164275377Y-43526627D01*
X164181128Y-43417857D01*
X164060053Y-43340047D01*
X164060051Y-43340046D01*
X164060049Y-43340045D01*
X164060050Y-43340045D01*
X163921963Y-43299500D01*
X163921961Y-43299500D01*
X163778039Y-43299500D01*
X163778036Y-43299500D01*
X163639949Y-43340045D01*
X163518873Y-43417856D01*
X163424623Y-43526626D01*
X163424622Y-43526628D01*
X163364834Y-43657543D01*
X163344353Y-43800000D01*
X101150000Y-43800000D01*
X101150000Y-42850000D01*
X116394353Y-42850000D01*
X116414834Y-42992456D01*
X116474622Y-43123371D01*
X116474623Y-43123373D01*
X116568872Y-43232143D01*
X116689947Y-43309953D01*
X116689950Y-43309954D01*
X116689949Y-43309954D01*
X116828036Y-43350499D01*
X116828038Y-43350500D01*
X116828039Y-43350500D01*
X116971962Y-43350500D01*
X116971962Y-43350499D01*
X117110053Y-43309953D01*
X117231128Y-43232143D01*
X117325377Y-43123373D01*
X117385165Y-42992457D01*
X117405647Y-42850000D01*
X117385165Y-42707543D01*
X117325377Y-42576627D01*
X117241649Y-42479999D01*
X169154417Y-42479999D01*
X169174699Y-42685932D01*
X169174700Y-42685934D01*
X169234768Y-42883954D01*
X169332315Y-43066450D01*
X169332317Y-43066452D01*
X169463589Y-43226410D01*
X169552651Y-43299500D01*
X169623550Y-43357685D01*
X169806046Y-43455232D01*
X170004066Y-43515300D01*
X170004065Y-43515300D01*
X170022529Y-43517118D01*
X170210000Y-43535583D01*
X170415934Y-43515300D01*
X170613954Y-43455232D01*
X170796450Y-43357685D01*
X170956410Y-43226410D01*
X171087685Y-43066450D01*
X171185232Y-42883954D01*
X171245300Y-42685934D01*
X171265583Y-42480000D01*
X171265583Y-42479999D01*
X171694417Y-42479999D01*
X171714699Y-42685932D01*
X171714700Y-42685934D01*
X171774768Y-42883954D01*
X171872315Y-43066450D01*
X171872317Y-43066452D01*
X172003589Y-43226410D01*
X172092651Y-43299500D01*
X172163550Y-43357685D01*
X172346046Y-43455232D01*
X172544066Y-43515300D01*
X172544065Y-43515300D01*
X172562529Y-43517118D01*
X172750000Y-43535583D01*
X172955934Y-43515300D01*
X173153954Y-43455232D01*
X173336450Y-43357685D01*
X173496410Y-43226410D01*
X173627685Y-43066450D01*
X173725232Y-42883954D01*
X173785300Y-42685934D01*
X173805583Y-42480000D01*
X173785300Y-42274066D01*
X173725232Y-42076046D01*
X173627685Y-41893550D01*
X173575702Y-41830209D01*
X173496410Y-41733589D01*
X173336452Y-41602317D01*
X173336453Y-41602317D01*
X173336450Y-41602315D01*
X173153954Y-41504768D01*
X172955934Y-41444700D01*
X172955932Y-41444699D01*
X172955934Y-41444699D01*
X172768463Y-41426235D01*
X172750000Y-41424417D01*
X172749999Y-41424417D01*
X172544067Y-41444699D01*
X172346043Y-41504769D01*
X172260490Y-41550499D01*
X172163550Y-41602315D01*
X172163548Y-41602316D01*
X172163547Y-41602317D01*
X172003589Y-41733589D01*
X171872317Y-41893547D01*
X171774769Y-42076043D01*
X171714699Y-42274067D01*
X171694417Y-42479999D01*
X171265583Y-42479999D01*
X171245300Y-42274066D01*
X171185232Y-42076046D01*
X171087685Y-41893550D01*
X171035702Y-41830209D01*
X170956410Y-41733589D01*
X170796452Y-41602317D01*
X170796453Y-41602317D01*
X170796450Y-41602315D01*
X170613954Y-41504768D01*
X170415934Y-41444700D01*
X170415932Y-41444699D01*
X170415934Y-41444699D01*
X170210000Y-41424417D01*
X170004067Y-41444699D01*
X169806043Y-41504769D01*
X169720490Y-41550499D01*
X169623550Y-41602315D01*
X169623548Y-41602316D01*
X169623547Y-41602317D01*
X169463589Y-41733589D01*
X169332317Y-41893547D01*
X169234769Y-42076043D01*
X169174699Y-42274067D01*
X169154417Y-42479999D01*
X117241649Y-42479999D01*
X117231128Y-42467857D01*
X117110053Y-42390047D01*
X117110051Y-42390046D01*
X117110049Y-42390045D01*
X117110050Y-42390045D01*
X116971963Y-42349500D01*
X116971961Y-42349500D01*
X116828039Y-42349500D01*
X116828036Y-42349500D01*
X116689949Y-42390045D01*
X116568873Y-42467856D01*
X116474623Y-42576626D01*
X116474622Y-42576628D01*
X116414834Y-42707543D01*
X116394353Y-42850000D01*
X101150000Y-42850000D01*
X101150000Y-41049999D01*
X109344353Y-41049999D01*
X109364834Y-41192456D01*
X109382959Y-41232143D01*
X109424623Y-41323373D01*
X109518872Y-41432143D01*
X109639947Y-41509953D01*
X109639950Y-41509954D01*
X109639949Y-41509954D01*
X109778036Y-41550499D01*
X109778038Y-41550500D01*
X109778039Y-41550500D01*
X109921962Y-41550500D01*
X109921962Y-41550499D01*
X110060053Y-41509953D01*
X110181128Y-41432143D01*
X110275377Y-41323373D01*
X110335165Y-41192457D01*
X110355647Y-41050000D01*
X110335165Y-40907543D01*
X110308886Y-40850000D01*
X136994353Y-40850000D01*
X137014834Y-40992456D01*
X137034370Y-41035232D01*
X137074623Y-41123373D01*
X137168872Y-41232143D01*
X137289947Y-41309953D01*
X137289950Y-41309954D01*
X137289949Y-41309954D01*
X137428036Y-41350499D01*
X137428038Y-41350500D01*
X137428039Y-41350500D01*
X137571962Y-41350500D01*
X137571962Y-41350499D01*
X137710053Y-41309953D01*
X137831128Y-41232143D01*
X137858980Y-41200000D01*
X164544353Y-41200000D01*
X164564834Y-41342456D01*
X164611528Y-41444699D01*
X164624623Y-41473373D01*
X164718872Y-41582143D01*
X164839947Y-41659953D01*
X164839950Y-41659954D01*
X164839949Y-41659954D01*
X164978036Y-41700499D01*
X164978038Y-41700500D01*
X164978039Y-41700500D01*
X165121962Y-41700500D01*
X165121962Y-41700499D01*
X165260053Y-41659953D01*
X165381128Y-41582143D01*
X165475377Y-41473373D01*
X165535165Y-41342457D01*
X165555647Y-41200000D01*
X165535165Y-41057543D01*
X165475377Y-40926627D01*
X165381128Y-40817857D01*
X165260053Y-40740047D01*
X165260051Y-40740046D01*
X165260049Y-40740045D01*
X165260050Y-40740045D01*
X165121963Y-40699500D01*
X165121961Y-40699500D01*
X164978039Y-40699500D01*
X164978036Y-40699500D01*
X164839949Y-40740045D01*
X164718873Y-40817856D01*
X164624623Y-40926626D01*
X164624622Y-40926628D01*
X164564834Y-41057543D01*
X164544353Y-41200000D01*
X137858980Y-41200000D01*
X137925377Y-41123373D01*
X137985165Y-40992457D01*
X138005647Y-40850000D01*
X137985165Y-40707543D01*
X137925377Y-40576627D01*
X137831128Y-40467857D01*
X137710053Y-40390047D01*
X137710051Y-40390046D01*
X137710049Y-40390045D01*
X137710050Y-40390045D01*
X137571963Y-40349500D01*
X137571961Y-40349500D01*
X137428039Y-40349500D01*
X137428036Y-40349500D01*
X137289949Y-40390045D01*
X137168873Y-40467856D01*
X137074623Y-40576626D01*
X137074622Y-40576628D01*
X137014834Y-40707543D01*
X136994353Y-40850000D01*
X110308886Y-40850000D01*
X110275377Y-40776627D01*
X110181128Y-40667857D01*
X110060053Y-40590047D01*
X110060051Y-40590046D01*
X110060049Y-40590045D01*
X110060050Y-40590045D01*
X109921963Y-40549500D01*
X109921961Y-40549500D01*
X109778039Y-40549500D01*
X109778036Y-40549500D01*
X109639949Y-40590045D01*
X109518873Y-40667856D01*
X109424623Y-40776626D01*
X109424622Y-40776628D01*
X109364834Y-40907543D01*
X109344353Y-41049999D01*
X101150000Y-41049999D01*
X101150000Y-39939999D01*
X169154417Y-39939999D01*
X169174699Y-40145932D01*
X169174700Y-40145934D01*
X169234768Y-40343954D01*
X169332315Y-40526450D01*
X169332317Y-40526452D01*
X169463589Y-40686410D01*
X169528945Y-40740045D01*
X169623550Y-40817685D01*
X169806046Y-40915232D01*
X170004066Y-40975300D01*
X170004065Y-40975300D01*
X170022529Y-40977118D01*
X170210000Y-40995583D01*
X170415934Y-40975300D01*
X170613954Y-40915232D01*
X170796450Y-40817685D01*
X170956410Y-40686410D01*
X171087685Y-40526450D01*
X171185232Y-40343954D01*
X171245300Y-40145934D01*
X171265583Y-39940000D01*
X171694417Y-39940000D01*
X171714699Y-40145932D01*
X171714700Y-40145934D01*
X171774768Y-40343954D01*
X171872315Y-40526450D01*
X171872317Y-40526452D01*
X172003589Y-40686410D01*
X172068945Y-40740045D01*
X172163550Y-40817685D01*
X172346046Y-40915232D01*
X172544066Y-40975300D01*
X172544065Y-40975300D01*
X172564347Y-40977297D01*
X172750000Y-40995583D01*
X172955934Y-40975300D01*
X173153954Y-40915232D01*
X173336450Y-40817685D01*
X173496410Y-40686410D01*
X173627685Y-40526450D01*
X173725232Y-40343954D01*
X173785300Y-40145934D01*
X173805583Y-39940000D01*
X173785300Y-39734066D01*
X173725232Y-39536046D01*
X173627685Y-39353550D01*
X173509839Y-39209953D01*
X173496410Y-39193589D01*
X173336452Y-39062317D01*
X173336453Y-39062317D01*
X173336450Y-39062315D01*
X173153954Y-38964768D01*
X172955934Y-38904700D01*
X172955932Y-38904699D01*
X172955934Y-38904699D01*
X172750000Y-38884417D01*
X172544067Y-38904699D01*
X172346043Y-38964769D01*
X172236408Y-39023371D01*
X172163550Y-39062315D01*
X172163548Y-39062316D01*
X172163547Y-39062317D01*
X172003589Y-39193589D01*
X171872317Y-39353547D01*
X171774769Y-39536043D01*
X171714699Y-39734067D01*
X171694417Y-39940000D01*
X171265583Y-39940000D01*
X171245300Y-39734066D01*
X171185232Y-39536046D01*
X171087685Y-39353550D01*
X170969839Y-39209953D01*
X170956410Y-39193589D01*
X170796452Y-39062317D01*
X170796453Y-39062317D01*
X170796450Y-39062315D01*
X170613954Y-38964768D01*
X170415934Y-38904700D01*
X170415932Y-38904699D01*
X170415934Y-38904699D01*
X170228463Y-38886235D01*
X170210000Y-38884417D01*
X170209999Y-38884417D01*
X170004067Y-38904699D01*
X169806043Y-38964769D01*
X169696408Y-39023371D01*
X169623550Y-39062315D01*
X169623548Y-39062316D01*
X169623547Y-39062317D01*
X169463589Y-39193589D01*
X169332317Y-39353547D01*
X169234769Y-39536043D01*
X169174699Y-39734067D01*
X169154417Y-39939999D01*
X101150000Y-39939999D01*
X101150000Y-38749999D01*
X165494353Y-38749999D01*
X165514834Y-38892456D01*
X165547859Y-38964769D01*
X165574623Y-39023373D01*
X165668872Y-39132143D01*
X165789947Y-39209953D01*
X165789950Y-39209954D01*
X165789949Y-39209954D01*
X165928036Y-39250499D01*
X165928038Y-39250500D01*
X165928039Y-39250500D01*
X166071962Y-39250500D01*
X166071962Y-39250499D01*
X166210053Y-39209953D01*
X166331128Y-39132143D01*
X166425377Y-39023373D01*
X166485165Y-38892457D01*
X166505647Y-38750000D01*
X166485165Y-38607543D01*
X166425377Y-38476627D01*
X166331128Y-38367857D01*
X166210053Y-38290047D01*
X166210051Y-38290046D01*
X166210049Y-38290045D01*
X166210050Y-38290045D01*
X166071963Y-38249500D01*
X166071961Y-38249500D01*
X165928039Y-38249500D01*
X165928036Y-38249500D01*
X165789949Y-38290045D01*
X165668873Y-38367856D01*
X165574623Y-38476626D01*
X165574622Y-38476628D01*
X165514834Y-38607543D01*
X165494353Y-38749999D01*
X101150000Y-38749999D01*
X101150000Y-37800000D01*
X114594353Y-37800000D01*
X114594922Y-37803956D01*
X114614834Y-37942456D01*
X114674622Y-38073371D01*
X114674623Y-38073373D01*
X114768872Y-38182143D01*
X114889947Y-38259953D01*
X114889950Y-38259954D01*
X114889949Y-38259954D01*
X115028036Y-38300499D01*
X115028038Y-38300500D01*
X115028039Y-38300500D01*
X115171962Y-38300500D01*
X115171962Y-38300499D01*
X115310053Y-38259953D01*
X115403343Y-38199999D01*
X134644353Y-38199999D01*
X134664834Y-38342456D01*
X134679802Y-38375230D01*
X134724623Y-38473373D01*
X134818872Y-38582143D01*
X134939947Y-38659953D01*
X134939950Y-38659954D01*
X134939949Y-38659954D01*
X135078036Y-38700499D01*
X135078038Y-38700500D01*
X135078039Y-38700500D01*
X135221962Y-38700500D01*
X135221962Y-38700499D01*
X135360053Y-38659953D01*
X135481128Y-38582143D01*
X135575377Y-38473373D01*
X135635165Y-38342457D01*
X135655647Y-38200000D01*
X135635165Y-38057543D01*
X135575377Y-37926627D01*
X135481128Y-37817857D01*
X135360053Y-37740047D01*
X135360051Y-37740046D01*
X135360049Y-37740045D01*
X135360050Y-37740045D01*
X135221963Y-37699500D01*
X135221961Y-37699500D01*
X135078039Y-37699500D01*
X135078036Y-37699500D01*
X134939949Y-37740045D01*
X134818873Y-37817856D01*
X134724623Y-37926626D01*
X134724622Y-37926628D01*
X134664834Y-38057543D01*
X134644353Y-38199999D01*
X115403343Y-38199999D01*
X115431128Y-38182143D01*
X115525377Y-38073373D01*
X115585165Y-37942457D01*
X115605647Y-37800000D01*
X115585165Y-37657543D01*
X115525377Y-37526627D01*
X115431128Y-37417857D01*
X115403342Y-37400000D01*
X169154417Y-37400000D01*
X169174699Y-37605932D01*
X169174700Y-37605934D01*
X169234768Y-37803954D01*
X169332315Y-37986450D01*
X169332317Y-37986452D01*
X169463589Y-38146410D01*
X169528890Y-38200000D01*
X169623550Y-38277685D01*
X169806046Y-38375232D01*
X170004066Y-38435300D01*
X170004065Y-38435300D01*
X170024347Y-38437297D01*
X170210000Y-38455583D01*
X170415934Y-38435300D01*
X170613954Y-38375232D01*
X170796450Y-38277685D01*
X170956410Y-38146410D01*
X171087685Y-37986450D01*
X171185232Y-37803954D01*
X171245300Y-37605934D01*
X171265583Y-37400000D01*
X171265583Y-37399999D01*
X171694417Y-37399999D01*
X171714699Y-37605932D01*
X171714700Y-37605934D01*
X171774768Y-37803954D01*
X171872315Y-37986450D01*
X171872317Y-37986452D01*
X172003589Y-38146410D01*
X172068890Y-38200000D01*
X172163550Y-38277685D01*
X172346046Y-38375232D01*
X172544066Y-38435300D01*
X172544065Y-38435300D01*
X172562529Y-38437118D01*
X172750000Y-38455583D01*
X172955934Y-38435300D01*
X173153954Y-38375232D01*
X173336450Y-38277685D01*
X173496410Y-38146410D01*
X173627685Y-37986450D01*
X173725232Y-37803954D01*
X173785300Y-37605934D01*
X173805583Y-37400000D01*
X173785300Y-37194066D01*
X173725232Y-36996046D01*
X173627685Y-36813550D01*
X173575702Y-36750209D01*
X173496410Y-36653589D01*
X173336452Y-36522317D01*
X173336453Y-36522317D01*
X173336450Y-36522315D01*
X173153954Y-36424768D01*
X172955934Y-36364700D01*
X172955932Y-36364699D01*
X172955934Y-36364699D01*
X172750000Y-36344417D01*
X172544067Y-36364699D01*
X172346043Y-36424769D01*
X172238706Y-36482143D01*
X172163550Y-36522315D01*
X172163548Y-36522316D01*
X172163547Y-36522317D01*
X172003589Y-36653589D01*
X171872317Y-36813547D01*
X171774769Y-36996043D01*
X171714699Y-37194067D01*
X171694417Y-37399999D01*
X171265583Y-37399999D01*
X171245300Y-37194066D01*
X171185232Y-36996046D01*
X171087685Y-36813550D01*
X171035702Y-36750209D01*
X170956410Y-36653589D01*
X170796452Y-36522317D01*
X170796453Y-36522317D01*
X170796450Y-36522315D01*
X170613954Y-36424768D01*
X170415934Y-36364700D01*
X170415932Y-36364699D01*
X170415934Y-36364699D01*
X170210000Y-36344417D01*
X170004067Y-36364699D01*
X169806043Y-36424769D01*
X169698706Y-36482143D01*
X169623550Y-36522315D01*
X169623548Y-36522316D01*
X169623547Y-36522317D01*
X169463589Y-36653589D01*
X169332317Y-36813547D01*
X169234769Y-36996043D01*
X169174699Y-37194067D01*
X169154417Y-37400000D01*
X115403342Y-37400000D01*
X115310053Y-37340047D01*
X115310051Y-37340046D01*
X115310049Y-37340045D01*
X115310050Y-37340045D01*
X115171963Y-37299500D01*
X115171961Y-37299500D01*
X115028039Y-37299500D01*
X115028036Y-37299500D01*
X114889949Y-37340045D01*
X114768873Y-37417856D01*
X114674623Y-37526626D01*
X114674622Y-37526628D01*
X114614834Y-37657543D01*
X114594353Y-37799999D01*
X114594353Y-37800000D01*
X101150000Y-37800000D01*
X101150000Y-36100000D01*
X166644353Y-36100000D01*
X166664834Y-36242456D01*
X166711399Y-36344417D01*
X166724623Y-36373373D01*
X166818872Y-36482143D01*
X166939947Y-36559953D01*
X166939950Y-36559954D01*
X166939949Y-36559954D01*
X167078036Y-36600499D01*
X167078038Y-36600500D01*
X167078039Y-36600500D01*
X167221962Y-36600500D01*
X167221962Y-36600499D01*
X167360053Y-36559953D01*
X167481128Y-36482143D01*
X167575377Y-36373373D01*
X167635165Y-36242457D01*
X167655647Y-36100000D01*
X167635165Y-35957543D01*
X167575377Y-35826627D01*
X167481128Y-35717857D01*
X167360053Y-35640047D01*
X167360051Y-35640046D01*
X167360049Y-35640045D01*
X167360050Y-35640045D01*
X167221963Y-35599500D01*
X167221961Y-35599500D01*
X167078039Y-35599500D01*
X167078036Y-35599500D01*
X166939949Y-35640045D01*
X166818873Y-35717856D01*
X166724623Y-35826626D01*
X166724622Y-35826628D01*
X166664834Y-35957543D01*
X166644353Y-36100000D01*
X101150000Y-36100000D01*
X101150000Y-35300000D01*
X123544353Y-35300000D01*
X123564834Y-35442456D01*
X123624622Y-35573371D01*
X123624623Y-35573373D01*
X123718872Y-35682143D01*
X123839947Y-35759953D01*
X123839950Y-35759954D01*
X123839949Y-35759954D01*
X123978036Y-35800499D01*
X123978038Y-35800500D01*
X123978039Y-35800500D01*
X124121962Y-35800500D01*
X124121962Y-35800499D01*
X124260053Y-35759953D01*
X124381128Y-35682143D01*
X124475377Y-35573373D01*
X124535165Y-35442457D01*
X124555647Y-35300000D01*
X124535165Y-35157543D01*
X124475377Y-35026627D01*
X124381128Y-34917857D01*
X124260053Y-34840047D01*
X124260051Y-34840046D01*
X124260049Y-34840045D01*
X124260050Y-34840045D01*
X124121963Y-34799500D01*
X124121961Y-34799500D01*
X123978039Y-34799500D01*
X123978036Y-34799500D01*
X123839949Y-34840045D01*
X123718873Y-34917856D01*
X123624623Y-35026626D01*
X123624622Y-35026628D01*
X123564834Y-35157543D01*
X123544353Y-35300000D01*
X101150000Y-35300000D01*
X101150000Y-32200000D01*
X139544353Y-32200000D01*
X139564834Y-32342456D01*
X139578953Y-32373371D01*
X139624623Y-32473373D01*
X139718872Y-32582143D01*
X139839947Y-32659953D01*
X139839950Y-32659954D01*
X139839949Y-32659954D01*
X139978036Y-32700499D01*
X139978038Y-32700500D01*
X139978039Y-32700500D01*
X140121962Y-32700500D01*
X140121962Y-32700499D01*
X140260053Y-32659953D01*
X140381128Y-32582143D01*
X140475377Y-32473373D01*
X140535165Y-32342457D01*
X140555647Y-32200000D01*
X145994353Y-32200000D01*
X146014834Y-32342456D01*
X146028953Y-32373371D01*
X146074623Y-32473373D01*
X146168872Y-32582143D01*
X146289947Y-32659953D01*
X146289950Y-32659954D01*
X146289949Y-32659954D01*
X146428036Y-32700499D01*
X146428038Y-32700500D01*
X146428039Y-32700500D01*
X146571962Y-32700500D01*
X146571962Y-32700499D01*
X146710053Y-32659953D01*
X146831128Y-32582143D01*
X146925377Y-32473373D01*
X146985165Y-32342457D01*
X147005647Y-32200000D01*
X146991269Y-32100000D01*
X152344353Y-32100000D01*
X152364834Y-32242456D01*
X152410504Y-32342457D01*
X152424623Y-32373373D01*
X152518872Y-32482143D01*
X152639947Y-32559953D01*
X152639950Y-32559954D01*
X152639949Y-32559954D01*
X152778036Y-32600499D01*
X152778038Y-32600500D01*
X152778039Y-32600500D01*
X152921962Y-32600500D01*
X152921962Y-32600499D01*
X153060053Y-32559953D01*
X153181128Y-32482143D01*
X153275377Y-32373373D01*
X153335165Y-32242457D01*
X153355647Y-32100000D01*
X153335165Y-31957543D01*
X153275377Y-31826627D01*
X153181128Y-31717857D01*
X153060053Y-31640047D01*
X153060051Y-31640046D01*
X153060049Y-31640045D01*
X153060050Y-31640045D01*
X152921963Y-31599500D01*
X152921961Y-31599500D01*
X152778039Y-31599500D01*
X152778036Y-31599500D01*
X152639949Y-31640045D01*
X152518873Y-31717856D01*
X152424623Y-31826626D01*
X152424622Y-31826628D01*
X152364834Y-31957543D01*
X152344353Y-32100000D01*
X146991269Y-32100000D01*
X146985165Y-32057543D01*
X146925377Y-31926627D01*
X146831128Y-31817857D01*
X146710053Y-31740047D01*
X146710051Y-31740046D01*
X146710049Y-31740045D01*
X146710050Y-31740045D01*
X146571963Y-31699500D01*
X146571961Y-31699500D01*
X146428039Y-31699500D01*
X146428036Y-31699500D01*
X146289949Y-31740045D01*
X146168873Y-31817856D01*
X146074623Y-31926626D01*
X146074622Y-31926628D01*
X146014834Y-32057543D01*
X145994353Y-32200000D01*
X140555647Y-32200000D01*
X140535165Y-32057543D01*
X140475377Y-31926627D01*
X140381128Y-31817857D01*
X140260053Y-31740047D01*
X140260051Y-31740046D01*
X140260049Y-31740045D01*
X140260050Y-31740045D01*
X140121963Y-31699500D01*
X140121961Y-31699500D01*
X139978039Y-31699500D01*
X139978036Y-31699500D01*
X139839949Y-31740045D01*
X139718873Y-31817856D01*
X139624623Y-31926626D01*
X139624622Y-31926628D01*
X139564834Y-32057543D01*
X139544353Y-32200000D01*
X101150000Y-32200000D01*
X101150000Y-30000500D01*
X172548378Y-30000500D01*
X172551619Y-30000584D01*
G37*
%TD.AperFunction*%
%TD*%
%TA.AperFunction,Conductor*%
%TO.N,GND*%
G36*
X101150000Y-52954018D02*
G01*
X101029864Y-52917576D01*
X100970934Y-52899700D01*
X100970932Y-52899699D01*
X100970934Y-52899699D01*
X100765000Y-52879417D01*
X100559067Y-52899699D01*
X100361043Y-52959769D01*
X100250898Y-53018643D01*
X100178550Y-53057315D01*
X100178548Y-53057316D01*
X100178547Y-53057317D01*
X100018589Y-53188589D01*
X99887317Y-53348547D01*
X99789769Y-53531043D01*
X99729699Y-53729067D01*
X99709417Y-53935000D01*
X99729699Y-54140932D01*
X99729700Y-54140934D01*
X99789768Y-54338954D01*
X99887315Y-54521450D01*
X99887317Y-54521452D01*
X100018589Y-54681410D01*
X100115209Y-54760702D01*
X100178550Y-54812685D01*
X100361046Y-54910232D01*
X100559066Y-54970300D01*
X100559065Y-54970300D01*
X100579348Y-54972297D01*
X100765000Y-54990583D01*
X100970934Y-54970300D01*
X101150000Y-54915981D01*
X101150000Y-55494018D01*
X101029864Y-55457576D01*
X100970934Y-55439700D01*
X100970932Y-55439699D01*
X100970934Y-55439699D01*
X100783463Y-55421235D01*
X100765000Y-55419417D01*
X100764999Y-55419417D01*
X100559067Y-55439699D01*
X100361043Y-55499769D01*
X100273114Y-55546769D01*
X100178550Y-55597315D01*
X100178548Y-55597316D01*
X100178547Y-55597317D01*
X100018589Y-55728589D01*
X99887317Y-55888547D01*
X99789769Y-56071043D01*
X99729699Y-56269067D01*
X99709417Y-56475000D01*
X99729699Y-56680932D01*
X99729700Y-56680934D01*
X99789768Y-56878954D01*
X99887315Y-57061450D01*
X99887317Y-57061452D01*
X100018589Y-57221410D01*
X100115209Y-57300702D01*
X100178550Y-57352685D01*
X100361046Y-57450232D01*
X100559066Y-57510300D01*
X100559065Y-57510300D01*
X100577529Y-57512118D01*
X100765000Y-57530583D01*
X100970934Y-57510300D01*
X101150000Y-57455981D01*
X101150000Y-59149379D01*
X101103958Y-59124769D01*
X101004944Y-59094733D01*
X100905934Y-59064700D01*
X100905932Y-59064699D01*
X100905934Y-59064699D01*
X100700000Y-59044417D01*
X100494067Y-59064699D01*
X100296043Y-59124769D01*
X100250002Y-59149379D01*
X100113550Y-59222315D01*
X100113548Y-59222316D01*
X100113547Y-59222317D01*
X99953589Y-59353589D01*
X99822317Y-59513547D01*
X99724769Y-59696043D01*
X99664699Y-59894067D01*
X99644417Y-60099999D01*
X99660555Y-60263845D01*
X99647536Y-60332492D01*
X99599472Y-60383202D01*
X99537152Y-60400000D01*
X99334500Y-60400000D01*
X99267461Y-60380315D01*
X99221706Y-60327511D01*
X99210500Y-60276000D01*
X99210500Y-59230249D01*
X99210499Y-59230247D01*
X99198868Y-59171770D01*
X99198867Y-59171769D01*
X99154552Y-59105447D01*
X99088230Y-59061132D01*
X99088229Y-59061131D01*
X99029752Y-59049500D01*
X99029748Y-59049500D01*
X97290252Y-59049500D01*
X97290247Y-59049500D01*
X97231770Y-59061131D01*
X97231769Y-59061132D01*
X97165447Y-59105447D01*
X97121132Y-59171769D01*
X97121131Y-59171770D01*
X97109500Y-59230247D01*
X97109500Y-60276000D01*
X97089815Y-60343039D01*
X97037011Y-60388794D01*
X96985500Y-60400000D01*
X95224000Y-60400000D01*
X95156961Y-60380315D01*
X95111206Y-60327511D01*
X95100000Y-60276000D01*
X95100000Y-57344752D01*
X97174500Y-57344752D01*
X97186131Y-57403229D01*
X97186132Y-57403230D01*
X97230447Y-57469552D01*
X97296769Y-57513867D01*
X97296770Y-57513868D01*
X97355247Y-57525499D01*
X97355250Y-57525500D01*
X97355252Y-57525500D01*
X99094750Y-57525500D01*
X99094751Y-57525499D01*
X99109568Y-57522552D01*
X99153229Y-57513868D01*
X99153229Y-57513867D01*
X99153231Y-57513867D01*
X99219552Y-57469552D01*
X99263867Y-57403231D01*
X99263867Y-57403229D01*
X99263868Y-57403229D01*
X99275499Y-57344752D01*
X99275500Y-57344750D01*
X99275500Y-55605249D01*
X99275499Y-55605247D01*
X99263868Y-55546770D01*
X99263867Y-55546769D01*
X99219552Y-55480447D01*
X99153230Y-55436132D01*
X99153229Y-55436131D01*
X99094752Y-55424500D01*
X99094748Y-55424500D01*
X97355252Y-55424500D01*
X97355247Y-55424500D01*
X97296770Y-55436131D01*
X97296769Y-55436132D01*
X97230447Y-55480447D01*
X97186132Y-55546769D01*
X97186131Y-55546770D01*
X97174500Y-55605247D01*
X97174500Y-57344752D01*
X95100000Y-57344752D01*
X95100000Y-53934999D01*
X97169417Y-53934999D01*
X97189699Y-54140932D01*
X97189700Y-54140934D01*
X97249768Y-54338954D01*
X97347315Y-54521450D01*
X97347317Y-54521452D01*
X97478589Y-54681410D01*
X97575209Y-54760702D01*
X97638550Y-54812685D01*
X97821046Y-54910232D01*
X98019066Y-54970300D01*
X98019065Y-54970300D01*
X98037529Y-54972118D01*
X98225000Y-54990583D01*
X98430934Y-54970300D01*
X98628954Y-54910232D01*
X98811450Y-54812685D01*
X98971410Y-54681410D01*
X99102685Y-54521450D01*
X99200232Y-54338954D01*
X99260300Y-54140934D01*
X99280583Y-53935000D01*
X99260300Y-53729066D01*
X99200232Y-53531046D01*
X99102685Y-53348550D01*
X99050702Y-53285209D01*
X98971410Y-53188589D01*
X98811452Y-53057317D01*
X98811453Y-53057317D01*
X98811450Y-53057315D01*
X98628954Y-52959768D01*
X98430934Y-52899700D01*
X98430932Y-52899699D01*
X98430934Y-52899699D01*
X98243463Y-52881235D01*
X98225000Y-52879417D01*
X98224999Y-52879417D01*
X98019067Y-52899699D01*
X97821043Y-52959769D01*
X97710898Y-53018643D01*
X97638550Y-53057315D01*
X97638548Y-53057316D01*
X97638547Y-53057317D01*
X97478589Y-53188589D01*
X97347317Y-53348547D01*
X97249769Y-53531043D01*
X97189699Y-53729067D01*
X97169417Y-53934999D01*
X95100000Y-53934999D01*
X95100000Y-50219999D01*
X97219417Y-50219999D01*
X97239699Y-50425932D01*
X97239700Y-50425934D01*
X97299768Y-50623954D01*
X97397315Y-50806450D01*
X97397317Y-50806452D01*
X97528589Y-50966410D01*
X97625209Y-51045702D01*
X97688550Y-51097685D01*
X97871046Y-51195232D01*
X98069066Y-51255300D01*
X98069065Y-51255300D01*
X98087529Y-51257118D01*
X98275000Y-51275583D01*
X98480934Y-51255300D01*
X98678954Y-51195232D01*
X98861450Y-51097685D01*
X99021410Y-50966410D01*
X99152685Y-50806450D01*
X99250232Y-50623954D01*
X99310300Y-50425934D01*
X99330583Y-50220000D01*
X99310300Y-50014066D01*
X99250232Y-49816046D01*
X99152685Y-49633550D01*
X99100702Y-49570209D01*
X99021410Y-49473589D01*
X98861452Y-49342317D01*
X98861453Y-49342317D01*
X98861450Y-49342315D01*
X98678954Y-49244768D01*
X98480934Y-49184700D01*
X98480932Y-49184699D01*
X98480934Y-49184699D01*
X98293463Y-49166235D01*
X98275000Y-49164417D01*
X98274999Y-49164417D01*
X98069067Y-49184699D01*
X97871043Y-49244769D01*
X97760898Y-49303643D01*
X97688550Y-49342315D01*
X97688548Y-49342316D01*
X97688547Y-49342317D01*
X97528589Y-49473589D01*
X97397317Y-49633547D01*
X97299769Y-49816043D01*
X97239699Y-50014067D01*
X97219417Y-50219999D01*
X95100000Y-50219999D01*
X95100000Y-47680000D01*
X97219417Y-47680000D01*
X97239699Y-47885932D01*
X97239700Y-47885934D01*
X97299768Y-48083954D01*
X97397315Y-48266450D01*
X97397317Y-48266452D01*
X97528589Y-48426410D01*
X97625209Y-48505702D01*
X97688550Y-48557685D01*
X97871046Y-48655232D01*
X98069066Y-48715300D01*
X98069065Y-48715300D01*
X98089347Y-48717297D01*
X98275000Y-48735583D01*
X98480934Y-48715300D01*
X98678954Y-48655232D01*
X98861450Y-48557685D01*
X99021410Y-48426410D01*
X99152685Y-48266450D01*
X99250232Y-48083954D01*
X99310300Y-47885934D01*
X99330583Y-47680000D01*
X99310300Y-47474066D01*
X99250232Y-47276046D01*
X99152685Y-47093550D01*
X99100702Y-47030209D01*
X99021410Y-46933589D01*
X98861452Y-46802317D01*
X98861453Y-46802317D01*
X98861450Y-46802315D01*
X98678954Y-46704768D01*
X98480934Y-46644700D01*
X98480932Y-46644699D01*
X98480934Y-46644699D01*
X98275000Y-46624417D01*
X98069067Y-46644699D01*
X97871043Y-46704769D01*
X97760898Y-46763643D01*
X97688550Y-46802315D01*
X97688548Y-46802316D01*
X97688547Y-46802317D01*
X97528589Y-46933589D01*
X97397317Y-47093547D01*
X97299769Y-47276043D01*
X97239699Y-47474067D01*
X97219417Y-47680000D01*
X95100000Y-47680000D01*
X95100000Y-45139999D01*
X97219417Y-45139999D01*
X97239699Y-45345932D01*
X97239700Y-45345934D01*
X97299768Y-45543954D01*
X97397315Y-45726450D01*
X97397317Y-45726452D01*
X97528589Y-45886410D01*
X97625209Y-45965702D01*
X97688550Y-46017685D01*
X97871046Y-46115232D01*
X98069066Y-46175300D01*
X98069065Y-46175300D01*
X98087529Y-46177118D01*
X98275000Y-46195583D01*
X98480934Y-46175300D01*
X98678954Y-46115232D01*
X98861450Y-46017685D01*
X99021410Y-45886410D01*
X99152685Y-45726450D01*
X99250232Y-45543954D01*
X99310300Y-45345934D01*
X99330583Y-45140000D01*
X99310300Y-44934066D01*
X99250232Y-44736046D01*
X99152685Y-44553550D01*
X99100702Y-44490209D01*
X99021410Y-44393589D01*
X98861452Y-44262317D01*
X98861453Y-44262317D01*
X98861450Y-44262315D01*
X98678954Y-44164768D01*
X98480934Y-44104700D01*
X98480932Y-44104699D01*
X98480934Y-44104699D01*
X98275000Y-44084417D01*
X98069067Y-44104699D01*
X97871043Y-44164769D01*
X97760898Y-44223643D01*
X97688550Y-44262315D01*
X97688548Y-44262316D01*
X97688547Y-44262317D01*
X97528589Y-44393589D01*
X97397317Y-44553547D01*
X97299769Y-44736043D01*
X97239699Y-44934067D01*
X97219417Y-45139999D01*
X95100000Y-45139999D01*
X95100000Y-42600000D01*
X97219417Y-42600000D01*
X97239699Y-42805932D01*
X97239700Y-42805934D01*
X97299768Y-43003954D01*
X97397315Y-43186450D01*
X97397317Y-43186452D01*
X97528589Y-43346410D01*
X97625209Y-43425702D01*
X97688550Y-43477685D01*
X97871046Y-43575232D01*
X98069066Y-43635300D01*
X98069065Y-43635300D01*
X98087529Y-43637118D01*
X98275000Y-43655583D01*
X98480934Y-43635300D01*
X98678954Y-43575232D01*
X98861450Y-43477685D01*
X99021410Y-43346410D01*
X99152685Y-43186450D01*
X99250232Y-43003954D01*
X99310300Y-42805934D01*
X99330583Y-42600000D01*
X99310300Y-42394066D01*
X99250232Y-42196046D01*
X99152685Y-42013550D01*
X99100702Y-41950209D01*
X99021410Y-41853589D01*
X98861452Y-41722317D01*
X98861453Y-41722317D01*
X98861450Y-41722315D01*
X98678954Y-41624768D01*
X98480934Y-41564700D01*
X98480932Y-41564699D01*
X98480934Y-41564699D01*
X98275000Y-41544417D01*
X98069067Y-41564699D01*
X97871043Y-41624769D01*
X97760898Y-41683643D01*
X97688550Y-41722315D01*
X97688548Y-41722316D01*
X97688547Y-41722317D01*
X97528589Y-41853589D01*
X97397317Y-42013547D01*
X97299769Y-42196043D01*
X97239699Y-42394067D01*
X97219417Y-42600000D01*
X95100000Y-42600000D01*
X95100000Y-40060000D01*
X97219417Y-40060000D01*
X97239699Y-40265932D01*
X97239700Y-40265934D01*
X97299768Y-40463954D01*
X97397315Y-40646450D01*
X97397317Y-40646452D01*
X97528589Y-40806410D01*
X97625209Y-40885702D01*
X97688550Y-40937685D01*
X97871046Y-41035232D01*
X98069066Y-41095300D01*
X98069065Y-41095300D01*
X98087529Y-41097118D01*
X98275000Y-41115583D01*
X98480934Y-41095300D01*
X98678954Y-41035232D01*
X98861450Y-40937685D01*
X99021410Y-40806410D01*
X99152685Y-40646450D01*
X99250232Y-40463954D01*
X99310300Y-40265934D01*
X99330583Y-40060000D01*
X99310300Y-39854066D01*
X99250232Y-39656046D01*
X99152685Y-39473550D01*
X99100702Y-39410209D01*
X99021410Y-39313589D01*
X98861452Y-39182317D01*
X98861453Y-39182317D01*
X98861450Y-39182315D01*
X98678954Y-39084768D01*
X98480934Y-39024700D01*
X98480932Y-39024699D01*
X98480934Y-39024699D01*
X98275000Y-39004417D01*
X98069067Y-39024699D01*
X97871043Y-39084769D01*
X97760898Y-39143643D01*
X97688550Y-39182315D01*
X97688548Y-39182316D01*
X97688547Y-39182317D01*
X97528589Y-39313589D01*
X97397317Y-39473547D01*
X97299769Y-39656043D01*
X97239699Y-39854067D01*
X97219417Y-40060000D01*
X95100000Y-40060000D01*
X95100000Y-37519999D01*
X97219417Y-37519999D01*
X97239699Y-37725932D01*
X97239700Y-37725934D01*
X97299768Y-37923954D01*
X97397315Y-38106450D01*
X97397317Y-38106452D01*
X97528589Y-38266410D01*
X97625209Y-38345702D01*
X97688550Y-38397685D01*
X97871046Y-38495232D01*
X98069066Y-38555300D01*
X98069065Y-38555300D01*
X98087529Y-38557118D01*
X98275000Y-38575583D01*
X98480934Y-38555300D01*
X98678954Y-38495232D01*
X98861450Y-38397685D01*
X99021410Y-38266410D01*
X99152685Y-38106450D01*
X99250232Y-37923954D01*
X99310300Y-37725934D01*
X99330583Y-37520000D01*
X99310300Y-37314066D01*
X99250232Y-37116046D01*
X99152685Y-36933550D01*
X99100702Y-36870209D01*
X99021410Y-36773589D01*
X98861452Y-36642317D01*
X98861453Y-36642317D01*
X98861450Y-36642315D01*
X98678954Y-36544768D01*
X98480934Y-36484700D01*
X98480932Y-36484699D01*
X98480934Y-36484699D01*
X98275000Y-36464417D01*
X98069067Y-36484699D01*
X97871043Y-36544769D01*
X97760898Y-36603643D01*
X97688550Y-36642315D01*
X97688548Y-36642316D01*
X97688547Y-36642317D01*
X97528589Y-36773589D01*
X97397317Y-36933547D01*
X97299769Y-37116043D01*
X97239699Y-37314067D01*
X97219417Y-37519999D01*
X95100000Y-37519999D01*
X95100000Y-35849752D01*
X97224500Y-35849752D01*
X97236131Y-35908229D01*
X97236132Y-35908230D01*
X97280447Y-35974552D01*
X97346769Y-36018867D01*
X97346770Y-36018868D01*
X97405247Y-36030499D01*
X97405250Y-36030500D01*
X97405252Y-36030500D01*
X99144750Y-36030500D01*
X99144751Y-36030499D01*
X99159568Y-36027552D01*
X99203229Y-36018868D01*
X99203229Y-36018867D01*
X99203231Y-36018867D01*
X99269552Y-35974552D01*
X99313867Y-35908231D01*
X99313867Y-35908229D01*
X99313868Y-35908229D01*
X99325499Y-35849752D01*
X99325500Y-35849750D01*
X99325500Y-34110249D01*
X99325499Y-34110247D01*
X99313868Y-34051770D01*
X99313867Y-34051769D01*
X99269552Y-33985447D01*
X99203230Y-33941132D01*
X99203229Y-33941131D01*
X99144752Y-33929500D01*
X99144748Y-33929500D01*
X97405252Y-33929500D01*
X97405247Y-33929500D01*
X97346770Y-33941131D01*
X97346769Y-33941132D01*
X97280447Y-33985447D01*
X97236132Y-34051769D01*
X97236131Y-34051770D01*
X97224500Y-34110247D01*
X97224500Y-35849752D01*
X95100000Y-35849752D01*
X95100000Y-30124500D01*
X95119685Y-30057461D01*
X95172489Y-30011706D01*
X95224000Y-30000500D01*
X101150000Y-30000500D01*
X101150000Y-52954018D01*
G37*
%TD.AperFunction*%
%TD*%
M02*
