%TF.GenerationSoftware,KiCad,Pcbnew,7.0.6-7.0.6~ubuntu20.04.1*%
%TF.CreationDate,2023-10-29T13:00:39+01:00*%
%TF.ProjectId,amurNutzlast,616d7572-4e75-4747-9a6c-6173742e6b69,rev?*%
%TF.SameCoordinates,Original*%
%TF.FileFunction,Paste,Top*%
%TF.FilePolarity,Positive*%
%FSLAX46Y46*%
G04 Gerber Fmt 4.6, Leading zero omitted, Abs format (unit mm)*
G04 Created by KiCad (PCBNEW 7.0.6-7.0.6~ubuntu20.04.1) date 2023-10-29 13:00:39*
%MOMM*%
%LPD*%
G01*
G04 APERTURE LIST*
G04 Aperture macros list*
%AMRoundRect*
0 Rectangle with rounded corners*
0 $1 Rounding radius*
0 $2 $3 $4 $5 $6 $7 $8 $9 X,Y pos of 4 corners*
0 Add a 4 corners polygon primitive as box body*
4,1,4,$2,$3,$4,$5,$6,$7,$8,$9,$2,$3,0*
0 Add four circle primitives for the rounded corners*
1,1,$1+$1,$2,$3*
1,1,$1+$1,$4,$5*
1,1,$1+$1,$6,$7*
1,1,$1+$1,$8,$9*
0 Add four rect primitives between the rounded corners*
20,1,$1+$1,$2,$3,$4,$5,0*
20,1,$1+$1,$4,$5,$6,$7,0*
20,1,$1+$1,$6,$7,$8,$9,0*
20,1,$1+$1,$8,$9,$2,$3,0*%
%AMRotRect*
0 Rectangle, with rotation*
0 The origin of the aperture is its center*
0 $1 length*
0 $2 width*
0 $3 Rotation angle, in degrees counterclockwise*
0 Add horizontal line*
21,1,$1,$2,0,0,$3*%
G04 Aperture macros list end*
%ADD10R,2.000000X1.500000*%
%ADD11R,2.000000X3.800000*%
%ADD12RoundRect,0.225000X-0.225000X-0.250000X0.225000X-0.250000X0.225000X0.250000X-0.225000X0.250000X0*%
%ADD13RoundRect,0.200000X-0.275000X0.200000X-0.275000X-0.200000X0.275000X-0.200000X0.275000X0.200000X0*%
%ADD14RoundRect,0.075000X-0.700000X-0.075000X0.700000X-0.075000X0.700000X0.075000X-0.700000X0.075000X0*%
%ADD15RoundRect,0.075000X-0.075000X-0.700000X0.075000X-0.700000X0.075000X0.700000X-0.075000X0.700000X0*%
%ADD16RoundRect,0.218750X0.218750X0.256250X-0.218750X0.256250X-0.218750X-0.256250X0.218750X-0.256250X0*%
%ADD17RoundRect,0.150000X-0.650000X-0.150000X0.650000X-0.150000X0.650000X0.150000X-0.650000X0.150000X0*%
%ADD18RoundRect,0.075000X-0.521491X0.415425X0.415425X-0.521491X0.521491X-0.415425X-0.415425X0.521491X0*%
%ADD19RoundRect,0.075000X-0.521491X-0.415425X-0.415425X-0.521491X0.521491X0.415425X0.415425X0.521491X0*%
%ADD20RoundRect,0.200000X-0.200000X-0.275000X0.200000X-0.275000X0.200000X0.275000X-0.200000X0.275000X0*%
%ADD21R,1.400000X1.200000*%
%ADD22RoundRect,0.249999X-0.530001X0.855001X-0.530001X-0.855001X0.530001X-0.855001X0.530001X0.855001X0*%
%ADD23RoundRect,0.100000X-0.100000X0.637500X-0.100000X-0.637500X0.100000X-0.637500X0.100000X0.637500X0*%
%ADD24RoundRect,0.200000X0.275000X-0.200000X0.275000X0.200000X-0.275000X0.200000X-0.275000X-0.200000X0*%
%ADD25RoundRect,0.200000X0.200000X0.275000X-0.200000X0.275000X-0.200000X-0.275000X0.200000X-0.275000X0*%
%ADD26RotRect,1.800000X2.000000X315.000000*%
%ADD27RoundRect,0.225000X0.225000X0.250000X-0.225000X0.250000X-0.225000X-0.250000X0.225000X-0.250000X0*%
%ADD28RoundRect,0.225000X-0.250000X0.225000X-0.250000X-0.225000X0.250000X-0.225000X0.250000X0.225000X0*%
%ADD29R,2.500000X1.100000*%
%ADD30RoundRect,0.150000X-0.825000X-0.150000X0.825000X-0.150000X0.825000X0.150000X-0.825000X0.150000X0*%
G04 APERTURE END LIST*
D10*
%TO.C,U7*%
X84286000Y-54936000D03*
X84286000Y-57236000D03*
D11*
X90586000Y-57236000D03*
D10*
X84286000Y-59536000D03*
%TD*%
D12*
%TO.C,C20*%
X150575000Y-56800000D03*
X152125000Y-56800000D03*
%TD*%
D13*
%TO.C,R13*%
X159350000Y-59975000D03*
X159350000Y-61625000D03*
%TD*%
D14*
%TO.C,U4*%
X61695000Y-43326000D03*
X61695000Y-43826000D03*
X61695000Y-44326000D03*
X61695000Y-44826000D03*
X61695000Y-45326000D03*
X61695000Y-45826000D03*
X61695000Y-46326000D03*
X61695000Y-46826000D03*
X61695000Y-47326000D03*
X61695000Y-47826000D03*
X61695000Y-48326000D03*
X61695000Y-48826000D03*
X61695000Y-49326000D03*
X61695000Y-49826000D03*
X61695000Y-50326000D03*
X61695000Y-50826000D03*
D15*
X63620000Y-52751000D03*
X64120000Y-52751000D03*
X64620000Y-52751000D03*
X65120000Y-52751000D03*
X65620000Y-52751000D03*
X66120000Y-52751000D03*
X66620000Y-52751000D03*
X67120000Y-52751000D03*
X67620000Y-52751000D03*
X68120000Y-52751000D03*
X68620000Y-52751000D03*
X69120000Y-52751000D03*
X69620000Y-52751000D03*
X70120000Y-52751000D03*
X70620000Y-52751000D03*
X71120000Y-52751000D03*
D14*
X73045000Y-50826000D03*
X73045000Y-50326000D03*
X73045000Y-49826000D03*
X73045000Y-49326000D03*
X73045000Y-48826000D03*
X73045000Y-48326000D03*
X73045000Y-47826000D03*
X73045000Y-47326000D03*
X73045000Y-46826000D03*
X73045000Y-46326000D03*
X73045000Y-45826000D03*
X73045000Y-45326000D03*
X73045000Y-44826000D03*
X73045000Y-44326000D03*
X73045000Y-43826000D03*
X73045000Y-43326000D03*
D15*
X71120000Y-41401000D03*
X70620000Y-41401000D03*
X70120000Y-41401000D03*
X69620000Y-41401000D03*
X69120000Y-41401000D03*
X68620000Y-41401000D03*
X68120000Y-41401000D03*
X67620000Y-41401000D03*
X67120000Y-41401000D03*
X66620000Y-41401000D03*
X66120000Y-41401000D03*
X65620000Y-41401000D03*
X65120000Y-41401000D03*
X64620000Y-41401000D03*
X64120000Y-41401000D03*
X63620000Y-41401000D03*
%TD*%
D16*
%TO.C,D2*%
X138637500Y-32200000D03*
X137062500Y-32200000D03*
%TD*%
D13*
%TO.C,R11*%
X150550000Y-58275000D03*
X150550000Y-59925000D03*
%TD*%
D16*
%TO.C,D3*%
X145037500Y-32200000D03*
X143462500Y-32200000D03*
%TD*%
D17*
%TO.C,U6*%
X106550000Y-58095000D03*
X106550000Y-59365000D03*
X106550000Y-60635000D03*
X106550000Y-61905000D03*
X113750000Y-61905000D03*
X113750000Y-60635000D03*
X113750000Y-59365000D03*
X113750000Y-58095000D03*
%TD*%
D18*
%TO.C,U1*%
X126897658Y-35073290D03*
X126544105Y-35426843D03*
X126190551Y-35780396D03*
X125836998Y-36133950D03*
X125483445Y-36487503D03*
X125129891Y-36841057D03*
X124776338Y-37194610D03*
X124422785Y-37548163D03*
X124069231Y-37901717D03*
X123715678Y-38255270D03*
X123362124Y-38608824D03*
X123008571Y-38962377D03*
X122655018Y-39315930D03*
X122301464Y-39669484D03*
X121947911Y-40023037D03*
X121594357Y-40376590D03*
X121240804Y-40730144D03*
X120887251Y-41083697D03*
X120533697Y-41437251D03*
X120180144Y-41790804D03*
X119826590Y-42144357D03*
X119473037Y-42497911D03*
X119119484Y-42851464D03*
X118765930Y-43205018D03*
X118412377Y-43558571D03*
X118058824Y-43912124D03*
X117705270Y-44265678D03*
X117351717Y-44619231D03*
X116998163Y-44972785D03*
X116644610Y-45326338D03*
X116291057Y-45679891D03*
X115937503Y-46033445D03*
X115583950Y-46386998D03*
X115230396Y-46740551D03*
X114876843Y-47094105D03*
X114523290Y-47447658D03*
D19*
X114523290Y-50152342D03*
X114876843Y-50505895D03*
X115230396Y-50859449D03*
X115583950Y-51213002D03*
X115937503Y-51566555D03*
X116291057Y-51920109D03*
X116644610Y-52273662D03*
X116998163Y-52627215D03*
X117351717Y-52980769D03*
X117705270Y-53334322D03*
X118058824Y-53687876D03*
X118412377Y-54041429D03*
X118765930Y-54394982D03*
X119119484Y-54748536D03*
X119473037Y-55102089D03*
X119826590Y-55455643D03*
X120180144Y-55809196D03*
X120533697Y-56162749D03*
X120887251Y-56516303D03*
X121240804Y-56869856D03*
X121594357Y-57223410D03*
X121947911Y-57576963D03*
X122301464Y-57930516D03*
X122655018Y-58284070D03*
X123008571Y-58637623D03*
X123362124Y-58991176D03*
X123715678Y-59344730D03*
X124069231Y-59698283D03*
X124422785Y-60051837D03*
X124776338Y-60405390D03*
X125129891Y-60758943D03*
X125483445Y-61112497D03*
X125836998Y-61466050D03*
X126190551Y-61819604D03*
X126544105Y-62173157D03*
X126897658Y-62526710D03*
D18*
X129602342Y-62526710D03*
X129955895Y-62173157D03*
X130309449Y-61819604D03*
X130663002Y-61466050D03*
X131016555Y-61112497D03*
X131370109Y-60758943D03*
X131723662Y-60405390D03*
X132077215Y-60051837D03*
X132430769Y-59698283D03*
X132784322Y-59344730D03*
X133137876Y-58991176D03*
X133491429Y-58637623D03*
X133844982Y-58284070D03*
X134198536Y-57930516D03*
X134552089Y-57576963D03*
X134905643Y-57223410D03*
X135259196Y-56869856D03*
X135612749Y-56516303D03*
X135966303Y-56162749D03*
X136319856Y-55809196D03*
X136673410Y-55455643D03*
X137026963Y-55102089D03*
X137380516Y-54748536D03*
X137734070Y-54394982D03*
X138087623Y-54041429D03*
X138441176Y-53687876D03*
X138794730Y-53334322D03*
X139148283Y-52980769D03*
X139501837Y-52627215D03*
X139855390Y-52273662D03*
X140208943Y-51920109D03*
X140562497Y-51566555D03*
X140916050Y-51213002D03*
X141269604Y-50859449D03*
X141623157Y-50505895D03*
X141976710Y-50152342D03*
D19*
X141976710Y-47447658D03*
X141623157Y-47094105D03*
X141269604Y-46740551D03*
X140916050Y-46386998D03*
X140562497Y-46033445D03*
X140208943Y-45679891D03*
X139855390Y-45326338D03*
X139501837Y-44972785D03*
X139148283Y-44619231D03*
X138794730Y-44265678D03*
X138441176Y-43912124D03*
X138087623Y-43558571D03*
X137734070Y-43205018D03*
X137380516Y-42851464D03*
X137026963Y-42497911D03*
X136673410Y-42144357D03*
X136319856Y-41790804D03*
X135966303Y-41437251D03*
X135612749Y-41083697D03*
X135259196Y-40730144D03*
X134905643Y-40376590D03*
X134552089Y-40023037D03*
X134198536Y-39669484D03*
X133844982Y-39315930D03*
X133491429Y-38962377D03*
X133137876Y-38608824D03*
X132784322Y-38255270D03*
X132430769Y-37901717D03*
X132077215Y-37548163D03*
X131723662Y-37194610D03*
X131370109Y-36841057D03*
X131016555Y-36487503D03*
X130663002Y-36133950D03*
X130309449Y-35780396D03*
X129955895Y-35426843D03*
X129602342Y-35073290D03*
%TD*%
D16*
%TO.C,D6*%
X63712500Y-61173000D03*
X62137500Y-61173000D03*
%TD*%
D20*
%TO.C,R14*%
X154625000Y-53800000D03*
X156275000Y-53800000D03*
%TD*%
D21*
%TO.C,Y1*%
X61400000Y-37650000D03*
X59200000Y-37650000D03*
X59200000Y-39350000D03*
X61400000Y-39350000D03*
%TD*%
D16*
%TO.C,D4*%
X151287500Y-32100000D03*
X149712500Y-32100000D03*
%TD*%
D22*
%TO.C,U2*%
X155880000Y-61450000D03*
X153950000Y-61450000D03*
D23*
X157840000Y-58587500D03*
X157190000Y-58587500D03*
X156540000Y-58587500D03*
X155890000Y-58587500D03*
X155240000Y-58587500D03*
X154590000Y-58587500D03*
X153940000Y-58587500D03*
X153290000Y-58587500D03*
X152640000Y-58587500D03*
X151990000Y-58587500D03*
X151990000Y-64312500D03*
X152640000Y-64312500D03*
X153290000Y-64312500D03*
X153940000Y-64312500D03*
X154590000Y-64312500D03*
X155240000Y-64312500D03*
X155890000Y-64312500D03*
X156540000Y-64312500D03*
X157190000Y-64312500D03*
X157840000Y-64312500D03*
%TD*%
D24*
%TO.C,R10*%
X149050000Y-56825000D03*
X149050000Y-55175000D03*
%TD*%
D25*
%TO.C,R9*%
X156275000Y-52300000D03*
X154625000Y-52300000D03*
%TD*%
D26*
%TO.C,X1*%
X111169025Y-39888873D03*
X114761127Y-43480975D03*
X117730975Y-40511127D03*
X114138873Y-36919025D03*
%TD*%
D27*
%TO.C,C22*%
X156225000Y-55300000D03*
X154675000Y-55300000D03*
%TD*%
D28*
%TO.C,C21*%
X148950000Y-58325000D03*
X148950000Y-59875000D03*
%TD*%
D20*
%TO.C,R12*%
X157625000Y-55300000D03*
X159275000Y-55300000D03*
%TD*%
D12*
%TO.C,C19*%
X156175000Y-56800000D03*
X157725000Y-56800000D03*
%TD*%
D29*
%TO.C,J6*%
X55811000Y-51338000D03*
X55811000Y-48838000D03*
X55811000Y-46838000D03*
X55811000Y-44338000D03*
%TD*%
D30*
%TO.C,U5*%
X74293000Y-36027000D03*
X74293000Y-37297000D03*
X74293000Y-38567000D03*
X74293000Y-39837000D03*
X79243000Y-39837000D03*
X79243000Y-38567000D03*
X79243000Y-37297000D03*
X79243000Y-36027000D03*
%TD*%
M02*
