%TF.GenerationSoftware,KiCad,Pcbnew,7.0.6-7.0.6~ubuntu20.04.1*%
%TF.CreationDate,2023-10-29T13:00:39+01:00*%
%TF.ProjectId,amurNutzlast,616d7572-4e75-4747-9a6c-6173742e6b69,rev?*%
%TF.SameCoordinates,Original*%
%TF.FileFunction,Copper,L3,Inr*%
%TF.FilePolarity,Positive*%
%FSLAX46Y46*%
G04 Gerber Fmt 4.6, Leading zero omitted, Abs format (unit mm)*
G04 Created by KiCad (PCBNEW 7.0.6-7.0.6~ubuntu20.04.1) date 2023-10-29 13:00:39*
%MOMM*%
%LPD*%
G01*
G04 APERTURE LIST*
%TA.AperFunction,ComponentPad*%
%ADD10R,1.700000X1.700000*%
%TD*%
%TA.AperFunction,ComponentPad*%
%ADD11O,1.700000X1.700000*%
%TD*%
%TA.AperFunction,ComponentPad*%
%ADD12O,3.500000X1.900000*%
%TD*%
%TA.AperFunction,ViaPad*%
%ADD13C,0.600000*%
%TD*%
%TA.AperFunction,ViaPad*%
%ADD14C,0.800000*%
%TD*%
%TA.AperFunction,Conductor*%
%ADD15C,0.250000*%
%TD*%
G04 APERTURE END LIST*
D10*
%TO.N,/fpga/FTDI_DCD*%
%TO.C,J7*%
X98275000Y-34980000D03*
D11*
%TO.N,/fpga/FTDI_DSR*%
X98275000Y-37520000D03*
%TO.N,/fpga/FTDI_DTR*%
X98275000Y-40060000D03*
%TO.N,/fpga/FTDI_CTS*%
X98275000Y-42600000D03*
%TO.N,/fpga/FTDI_RTS*%
X98275000Y-45140000D03*
%TO.N,/fpga/FTDI_TX*%
X98275000Y-47680000D03*
%TO.N,/fpga/FTDI_RX*%
X98275000Y-50220000D03*
%TD*%
D10*
%TO.N,/ftdi/DCD*%
%TO.C,J5*%
X89595000Y-34879000D03*
D11*
%TO.N,/ftdi/DSR*%
X89595000Y-37419000D03*
%TO.N,/ftdi/DTR*%
X89595000Y-39959000D03*
%TO.N,/ftdi/CTS*%
X89595000Y-42499000D03*
%TO.N,/ftdi/RTS*%
X89595000Y-45039000D03*
%TO.N,/ftdi/TX*%
X89595000Y-47579000D03*
%TO.N,/ftdi/RX*%
X89595000Y-50119000D03*
%TD*%
D10*
%TO.N,/MISO*%
%TO.C,J1*%
X98225000Y-56475000D03*
D11*
%TO.N,/ICE_CDONE*%
X98225000Y-53935000D03*
%TO.N,/SS*%
X100765000Y-56475000D03*
%TO.N,/ICE_CREST*%
X100765000Y-53935000D03*
%TO.N,/MOSI*%
X103305000Y-56475000D03*
%TO.N,/SCL*%
X103305000Y-53935000D03*
%TD*%
D10*
%TO.N,GND1*%
%TO.C,J4*%
X76768000Y-50759000D03*
D11*
%TO.N,+3.3VP*%
X79308000Y-50759000D03*
%TO.N,/ftdi/ICE_CREST*%
X76768000Y-53299000D03*
%TO.N,/ftdi/ICE_CLK*%
X79308000Y-53299000D03*
%TO.N,/ftdi/ICE_CDONE*%
X76768000Y-55839000D03*
%TO.N,/ftdi/ICE_MOSI*%
X79308000Y-55839000D03*
%TO.N,/ftdi/ICE_SS*%
X76768000Y-58379000D03*
%TO.N,/ftdi/ICE_MISO*%
X79308000Y-58379000D03*
%TD*%
D10*
%TO.N,/fpga/PIO1*%
%TO.C,J8*%
X172750000Y-60260000D03*
D11*
%TO.N,/fpga/PIO2*%
X170210000Y-60260000D03*
%TO.N,/fpga/PIO3*%
X172750000Y-57720000D03*
%TO.N,/fpga/PIO4*%
X170210000Y-57720000D03*
%TO.N,/fpga/PIO5*%
X172750000Y-55180000D03*
%TO.N,/fpga/PIO6*%
X170210000Y-55180000D03*
%TO.N,/fpga/PIO7*%
X172750000Y-52640000D03*
%TO.N,/fpga/PIO8*%
X170210000Y-52640000D03*
%TO.N,/fpga/PIO9*%
X172750000Y-50100000D03*
%TO.N,/fpga/PIO10*%
X170210000Y-50100000D03*
%TO.N,/fpga/PIO11*%
X172750000Y-47560000D03*
%TO.N,/fpga/PIO12*%
X170210000Y-47560000D03*
%TO.N,/fpga/PIO13*%
X172750000Y-45020000D03*
%TO.N,/fpga/PIO14*%
X170210000Y-45020000D03*
%TO.N,/fpga/PIO15*%
X172750000Y-42480000D03*
%TO.N,/fpga/PIO16*%
X170210000Y-42480000D03*
%TO.N,/fpga/PIO17*%
X172750000Y-39940000D03*
%TO.N,/fpga/PIO18*%
X170210000Y-39940000D03*
%TO.N,/fpga/PIO19*%
X172750000Y-37400000D03*
%TO.N,/fpga/PIO20*%
X170210000Y-37400000D03*
%TD*%
D12*
%TO.N,GND1*%
%TO.C,J6*%
X53061000Y-53538000D03*
X53061000Y-42138000D03*
%TD*%
D10*
%TO.N,VBUS*%
%TO.C,J2*%
X98160000Y-60100000D03*
D11*
%TO.N,+5V*%
X100700000Y-60100000D03*
%TO.N,GND1*%
X98160000Y-62640000D03*
%TO.N,GND*%
X100700000Y-62640000D03*
%TD*%
D13*
%TO.N,+1V2*%
X150200000Y-55200000D03*
X161700000Y-65600000D03*
%TO.N,GND1*%
X60236500Y-48513500D03*
%TO.N,+3.3V*%
X168050000Y-67750000D03*
%TO.N,GND*%
X174000000Y-65800000D03*
X121150000Y-58950000D03*
X126700000Y-60550000D03*
X135150000Y-59050000D03*
X130250000Y-37300000D03*
X126307436Y-37227301D03*
X121200000Y-38750000D03*
X121750000Y-38200000D03*
X121400000Y-37100000D03*
%TO.N,+3.3V*%
X115100000Y-37800000D03*
%TO.N,GND*%
X115800000Y-42600000D03*
X109050000Y-40750000D03*
X113150000Y-41800000D03*
X108450000Y-58650000D03*
X148750000Y-65150000D03*
X137000000Y-30850000D03*
X142250000Y-33150000D03*
X148600000Y-33550000D03*
X145300000Y-45200000D03*
X137200000Y-40100000D03*
X135402825Y-38958475D03*
X154750000Y-56200000D03*
X154950000Y-65500000D03*
X154850000Y-57400000D03*
X160350000Y-61600000D03*
X147850000Y-59900000D03*
X146350000Y-48300000D03*
%TO.N,+3.3V*%
X146450000Y-53400000D03*
%TO.N,GND*%
X142750000Y-53100000D03*
X138050000Y-61100000D03*
X125450000Y-65300000D03*
X117150000Y-56200000D03*
X117350000Y-61400000D03*
X114150000Y-52900000D03*
X106550000Y-63400000D03*
%TO.N,+3.3V*%
X135800000Y-60150000D03*
X153550000Y-52700000D03*
X112350000Y-58095000D03*
X135150000Y-38200000D03*
X117850000Y-46400000D03*
X116850000Y-55400000D03*
X140250000Y-54000000D03*
X137500000Y-40850000D03*
X127450000Y-63100000D03*
X120583884Y-58233884D03*
X109850000Y-41050000D03*
X124050000Y-35300000D03*
X153550000Y-51900000D03*
%TO.N,Net-(U1E-VCCPLL)*%
X112750000Y-46200000D03*
%TO.N,GNDD*%
X111150000Y-45500000D03*
%TO.N,+1V2*%
X109950000Y-50000000D03*
X118250000Y-56250000D03*
X142650000Y-46050000D03*
X116900000Y-42850000D03*
X137125500Y-57250000D03*
%TO.N,Net-(D1-K)*%
X143000000Y-49400000D03*
%TO.N,Net-(D6-A)*%
X62175000Y-59725000D03*
%TO.N,+3.3VP*%
X67620088Y-43599500D03*
X88452000Y-56601000D03*
X70383735Y-42643614D03*
X88452000Y-57617000D03*
X71812279Y-46314714D03*
X70700000Y-50552500D03*
X65084000Y-51394000D03*
X87182000Y-57236000D03*
X62798000Y-47330000D03*
X62808349Y-44799990D03*
X80197000Y-34884000D03*
X92008000Y-57236000D03*
%TO.N,+1V8*%
X71688000Y-40218000D03*
D14*
%TO.N,Net-(U4-OSCI)*%
X62671000Y-37678000D03*
%TO.N,Net-(U4-OSCO)*%
X57972000Y-39329000D03*
D13*
%TO.N,VBUS*%
X55686000Y-52791000D03*
X83753000Y-60919000D03*
X56702000Y-52791000D03*
X84515000Y-60919000D03*
%TO.N,Net-(D2-K)*%
X140050000Y-32200000D03*
%TO.N,Net-(D3-K)*%
X146500000Y-32200000D03*
%TO.N,Net-(D4-K)*%
X152850000Y-32100000D03*
%TO.N,/ICE_CREST*%
X122650000Y-61500000D03*
%TO.N,/ICE_CDONE*%
X122750000Y-60600000D03*
%TO.N,/SCL*%
X115550000Y-64600000D03*
X112550000Y-60300000D03*
%TO.N,/SS*%
X107650000Y-65200000D03*
X107250000Y-57300000D03*
%TO.N,/fpga/PIO3*%
X164150000Y-56300000D03*
%TO.N,/fpga/PIO5*%
X163650000Y-53800000D03*
%TO.N,/fpga/PIO7*%
X163550000Y-51400000D03*
%TO.N,/fpga/PIO9*%
X164250000Y-48700000D03*
%TO.N,/fpga/PIO11*%
X164150000Y-46400000D03*
%TO.N,/fpga/PIO13*%
X163850000Y-43800000D03*
%TO.N,/fpga/PIO15*%
X165050000Y-41200000D03*
%TO.N,/fpga/PIO17*%
X166000000Y-38750000D03*
%TO.N,/fpga/PIO19*%
X167150000Y-36100000D03*
%TO.N,Net-(U2-PWRGD1)*%
X157150000Y-65600000D03*
%TO.N,Net-(U2-PWRGD2)*%
X152650000Y-65700000D03*
%TO.N,Net-(U6-IO2)*%
X108850000Y-61700000D03*
%TO.N,Net-(U6-IO3)*%
X112550000Y-59100000D03*
%TO.N,Net-(U5-DO)*%
X74355000Y-41107000D03*
%TO.N,Net-(U4-EEDATA)*%
X75879000Y-38694000D03*
%TO.N,Net-(U4-EECLK)*%
X75752000Y-37297000D03*
%TO.N,/ftdi/CS_FTDI*%
X75752000Y-36027000D03*
%TO.N,Net-(U4-REF)*%
X62846002Y-45895123D03*
%TO.N,Net-(U4-~{RESET})*%
X62942936Y-50078325D03*
%TO.N,GND1*%
X67800000Y-51175000D03*
X69375000Y-43750000D03*
X81175000Y-39575000D03*
X57875000Y-52125000D03*
X61725000Y-42300000D03*
X60200000Y-50325000D03*
X67650000Y-49175000D03*
X60175000Y-45150000D03*
X60175000Y-49350000D03*
X69550000Y-47000000D03*
X66300000Y-46075000D03*
X70150000Y-39900000D03*
X81400000Y-34850000D03*
X76450000Y-34700000D03*
X69700000Y-50500000D03*
X55811000Y-43425000D03*
X67625000Y-45775000D03*
X66325000Y-47575000D03*
X60425000Y-56575000D03*
X92775000Y-54400000D03*
X64250000Y-51475000D03*
X70525000Y-37921500D03*
X57475000Y-44350000D03*
X85950000Y-56025000D03*
X57850000Y-52775000D03*
X58075000Y-37675000D03*
X66300000Y-42975000D03*
X74550000Y-43850000D03*
X62750000Y-39400000D03*
X63050000Y-59800000D03*
X71700000Y-49775000D03*
X85785502Y-59840000D03*
X69325000Y-42775000D03*
X66275000Y-45033500D03*
%TO.N,+5V*%
X149650000Y-66900000D03*
X149650000Y-66100000D03*
X158850000Y-64800000D03*
X149750000Y-67600000D03*
%TD*%
D15*
%TO.N,+3.3V*%
X168050000Y-65077000D02*
X158586500Y-55613500D01*
X168050000Y-67750000D02*
X168050000Y-65077000D01*
X158586500Y-55613500D02*
X156463500Y-55613500D01*
X156463500Y-55613500D02*
X153550000Y-52700000D01*
%TD*%
%TA.AperFunction,Conductor*%
%TO.N,+3.3V*%
G36*
X134365677Y-32019685D02*
G01*
X134386319Y-32036319D01*
X153913681Y-51563681D01*
X153947166Y-51625004D01*
X153950000Y-51651362D01*
X153950000Y-63676000D01*
X153930315Y-63743039D01*
X153877511Y-63788794D01*
X153826000Y-63800000D01*
X107174000Y-63800000D01*
X107106961Y-63780315D01*
X107061206Y-63727511D01*
X107050000Y-63676000D01*
X107050000Y-63448145D01*
X107051262Y-63430498D01*
X107055647Y-63400000D01*
X107051262Y-63369500D01*
X107050000Y-63351854D01*
X107050000Y-61699999D01*
X108344353Y-61699999D01*
X108364834Y-61842456D01*
X108418494Y-61959953D01*
X108424623Y-61973373D01*
X108518872Y-62082143D01*
X108639947Y-62159953D01*
X108639950Y-62159954D01*
X108639949Y-62159954D01*
X108778036Y-62200499D01*
X108778038Y-62200500D01*
X108778039Y-62200500D01*
X108921962Y-62200500D01*
X108921962Y-62200499D01*
X109060053Y-62159953D01*
X109181128Y-62082143D01*
X109275377Y-61973373D01*
X109335165Y-61842457D01*
X109355647Y-61700000D01*
X109335165Y-61557543D01*
X109275377Y-61426627D01*
X109252305Y-61400000D01*
X116844353Y-61400000D01*
X116864834Y-61542456D01*
X116910504Y-61642457D01*
X116924623Y-61673373D01*
X117018872Y-61782143D01*
X117139947Y-61859953D01*
X117139950Y-61859954D01*
X117139949Y-61859954D01*
X117278036Y-61900499D01*
X117278038Y-61900500D01*
X117278039Y-61900500D01*
X117421962Y-61900500D01*
X117421962Y-61900499D01*
X117560053Y-61859953D01*
X117681128Y-61782143D01*
X117775377Y-61673373D01*
X117835165Y-61542457D01*
X117841269Y-61500000D01*
X122144353Y-61500000D01*
X122164834Y-61642456D01*
X122178953Y-61673371D01*
X122224623Y-61773373D01*
X122318872Y-61882143D01*
X122439947Y-61959953D01*
X122439950Y-61959954D01*
X122439949Y-61959954D01*
X122578036Y-62000499D01*
X122578038Y-62000500D01*
X122578039Y-62000500D01*
X122721962Y-62000500D01*
X122721962Y-62000499D01*
X122860053Y-61959953D01*
X122981128Y-61882143D01*
X123075377Y-61773373D01*
X123135165Y-61642457D01*
X123155647Y-61500000D01*
X123135165Y-61357543D01*
X123075377Y-61226627D01*
X123035074Y-61180114D01*
X123006050Y-61116558D01*
X123008431Y-61100000D01*
X137544353Y-61100000D01*
X137546734Y-61116558D01*
X137564834Y-61242456D01*
X137624622Y-61373371D01*
X137624623Y-61373373D01*
X137718872Y-61482143D01*
X137839947Y-61559953D01*
X137839950Y-61559954D01*
X137839949Y-61559954D01*
X137978036Y-61600499D01*
X137978038Y-61600500D01*
X137978039Y-61600500D01*
X138121962Y-61600500D01*
X138121962Y-61600499D01*
X138260053Y-61559953D01*
X138381128Y-61482143D01*
X138475377Y-61373373D01*
X138535165Y-61242457D01*
X138555647Y-61100000D01*
X138535165Y-60957543D01*
X138475377Y-60826627D01*
X138381128Y-60717857D01*
X138260053Y-60640047D01*
X138260051Y-60640046D01*
X138260049Y-60640045D01*
X138260050Y-60640045D01*
X138121963Y-60599500D01*
X138121961Y-60599500D01*
X137978039Y-60599500D01*
X137978036Y-60599500D01*
X137839949Y-60640045D01*
X137718873Y-60717856D01*
X137624623Y-60826626D01*
X137624622Y-60826628D01*
X137564834Y-60957543D01*
X137544353Y-61099999D01*
X137544353Y-61100000D01*
X123008431Y-61100000D01*
X123015994Y-61047399D01*
X123061749Y-60994597D01*
X123081128Y-60982143D01*
X123175377Y-60873373D01*
X123235165Y-60742457D01*
X123255647Y-60600000D01*
X123248458Y-60549999D01*
X126194353Y-60549999D01*
X126214834Y-60692456D01*
X126245660Y-60759954D01*
X126274623Y-60823373D01*
X126368872Y-60932143D01*
X126489947Y-61009953D01*
X126489950Y-61009954D01*
X126489949Y-61009954D01*
X126628036Y-61050499D01*
X126628038Y-61050500D01*
X126628039Y-61050500D01*
X126771962Y-61050500D01*
X126771962Y-61050499D01*
X126910053Y-61009953D01*
X127031128Y-60932143D01*
X127125377Y-60823373D01*
X127185165Y-60692457D01*
X127205647Y-60550000D01*
X127185165Y-60407543D01*
X127125377Y-60276627D01*
X127031128Y-60167857D01*
X126910053Y-60090047D01*
X126910051Y-60090046D01*
X126910049Y-60090045D01*
X126910050Y-60090045D01*
X126771963Y-60049500D01*
X126771961Y-60049500D01*
X126628039Y-60049500D01*
X126628036Y-60049500D01*
X126489949Y-60090045D01*
X126368873Y-60167856D01*
X126274623Y-60276626D01*
X126274622Y-60276628D01*
X126214834Y-60407543D01*
X126194353Y-60549999D01*
X123248458Y-60549999D01*
X123235165Y-60457543D01*
X123175377Y-60326627D01*
X123081128Y-60217857D01*
X122960053Y-60140047D01*
X122960051Y-60140046D01*
X122960049Y-60140045D01*
X122960050Y-60140045D01*
X122821963Y-60099500D01*
X122821961Y-60099500D01*
X122678039Y-60099500D01*
X122678036Y-60099500D01*
X122539949Y-60140045D01*
X122418873Y-60217856D01*
X122324623Y-60326626D01*
X122324622Y-60326628D01*
X122264834Y-60457543D01*
X122244353Y-60600000D01*
X122264834Y-60742456D01*
X122324622Y-60873371D01*
X122324625Y-60873377D01*
X122364924Y-60919883D01*
X122393950Y-60983438D01*
X122384007Y-61052597D01*
X122338254Y-61105400D01*
X122318874Y-61117855D01*
X122224623Y-61226626D01*
X122224622Y-61226628D01*
X122164834Y-61357543D01*
X122144353Y-61500000D01*
X117841269Y-61500000D01*
X117855647Y-61400000D01*
X117835165Y-61257543D01*
X117775377Y-61126627D01*
X117681128Y-61017857D01*
X117560053Y-60940047D01*
X117560051Y-60940046D01*
X117560049Y-60940045D01*
X117560050Y-60940045D01*
X117421963Y-60899500D01*
X117421961Y-60899500D01*
X117278039Y-60899500D01*
X117278036Y-60899500D01*
X117139949Y-60940045D01*
X117018873Y-61017856D01*
X116924623Y-61126626D01*
X116924622Y-61126628D01*
X116864834Y-61257543D01*
X116844353Y-61400000D01*
X109252305Y-61400000D01*
X109181128Y-61317857D01*
X109060053Y-61240047D01*
X109060051Y-61240046D01*
X109060049Y-61240045D01*
X109060050Y-61240045D01*
X108921963Y-61199500D01*
X108921961Y-61199500D01*
X108778039Y-61199500D01*
X108778036Y-61199500D01*
X108639949Y-61240045D01*
X108518873Y-61317856D01*
X108424623Y-61426626D01*
X108424622Y-61426628D01*
X108364834Y-61557543D01*
X108344353Y-61699999D01*
X107050000Y-61699999D01*
X107050000Y-60299999D01*
X112044353Y-60299999D01*
X112064834Y-60442456D01*
X112113948Y-60549999D01*
X112124623Y-60573373D01*
X112218872Y-60682143D01*
X112339947Y-60759953D01*
X112339950Y-60759954D01*
X112339949Y-60759954D01*
X112478036Y-60800499D01*
X112478038Y-60800500D01*
X112478039Y-60800500D01*
X112621962Y-60800500D01*
X112621962Y-60800499D01*
X112760053Y-60759953D01*
X112881128Y-60682143D01*
X112975377Y-60573373D01*
X113035165Y-60442457D01*
X113055647Y-60300000D01*
X113035165Y-60157543D01*
X112975377Y-60026627D01*
X112881128Y-59917857D01*
X112853340Y-59899999D01*
X147344353Y-59899999D01*
X147364834Y-60042456D01*
X147422103Y-60167856D01*
X147424623Y-60173373D01*
X147518872Y-60282143D01*
X147639947Y-60359953D01*
X147639950Y-60359954D01*
X147639949Y-60359954D01*
X147778036Y-60400499D01*
X147778038Y-60400500D01*
X147778039Y-60400500D01*
X147921962Y-60400500D01*
X147921962Y-60400499D01*
X148060053Y-60359953D01*
X148181128Y-60282143D01*
X148275377Y-60173373D01*
X148335165Y-60042457D01*
X148355647Y-59900000D01*
X148335165Y-59757543D01*
X148275377Y-59626627D01*
X148181128Y-59517857D01*
X148060053Y-59440047D01*
X148060051Y-59440046D01*
X148060049Y-59440045D01*
X148060050Y-59440045D01*
X147921963Y-59399500D01*
X147921961Y-59399500D01*
X147778039Y-59399500D01*
X147778036Y-59399500D01*
X147639949Y-59440045D01*
X147518873Y-59517856D01*
X147424623Y-59626626D01*
X147424622Y-59626628D01*
X147364834Y-59757543D01*
X147344353Y-59899999D01*
X112853340Y-59899999D01*
X112760053Y-59840047D01*
X112760051Y-59840046D01*
X112760049Y-59840045D01*
X112760050Y-59840045D01*
X112688296Y-59818977D01*
X112629518Y-59781203D01*
X112600492Y-59717648D01*
X112610435Y-59648489D01*
X112656190Y-59595685D01*
X112688296Y-59581023D01*
X112760050Y-59559954D01*
X112760050Y-59559953D01*
X112760053Y-59559953D01*
X112881128Y-59482143D01*
X112975377Y-59373373D01*
X113035165Y-59242457D01*
X113055647Y-59100000D01*
X113035165Y-58957543D01*
X113031720Y-58950000D01*
X120644353Y-58950000D01*
X120664834Y-59092456D01*
X120710504Y-59192457D01*
X120724623Y-59223373D01*
X120818872Y-59332143D01*
X120939947Y-59409953D01*
X120939950Y-59409954D01*
X120939949Y-59409954D01*
X121078036Y-59450499D01*
X121078038Y-59450500D01*
X121078039Y-59450500D01*
X121221962Y-59450500D01*
X121221962Y-59450499D01*
X121360053Y-59409953D01*
X121481128Y-59332143D01*
X121575377Y-59223373D01*
X121635165Y-59092457D01*
X121641269Y-59049999D01*
X134644353Y-59049999D01*
X134664834Y-59192456D01*
X134678953Y-59223371D01*
X134724623Y-59323373D01*
X134818872Y-59432143D01*
X134939947Y-59509953D01*
X134939950Y-59509954D01*
X134939949Y-59509954D01*
X135078036Y-59550499D01*
X135078038Y-59550500D01*
X135078039Y-59550500D01*
X135221962Y-59550500D01*
X135221962Y-59550499D01*
X135360053Y-59509953D01*
X135481128Y-59432143D01*
X135575377Y-59323373D01*
X135635165Y-59192457D01*
X135655647Y-59050000D01*
X135635165Y-58907543D01*
X135575377Y-58776627D01*
X135481128Y-58667857D01*
X135360053Y-58590047D01*
X135360051Y-58590046D01*
X135360049Y-58590045D01*
X135360050Y-58590045D01*
X135221963Y-58549500D01*
X135221961Y-58549500D01*
X135078039Y-58549500D01*
X135078036Y-58549500D01*
X134939949Y-58590045D01*
X134818873Y-58667856D01*
X134724623Y-58776626D01*
X134724622Y-58776628D01*
X134664834Y-58907543D01*
X134644353Y-59049999D01*
X121641269Y-59049999D01*
X121655647Y-58950000D01*
X121635165Y-58807543D01*
X121575377Y-58676627D01*
X121481128Y-58567857D01*
X121360053Y-58490047D01*
X121360051Y-58490046D01*
X121360049Y-58490045D01*
X121360050Y-58490045D01*
X121221963Y-58449500D01*
X121221961Y-58449500D01*
X121078039Y-58449500D01*
X121078036Y-58449500D01*
X120939949Y-58490045D01*
X120818873Y-58567856D01*
X120724623Y-58676626D01*
X120724622Y-58676628D01*
X120664834Y-58807543D01*
X120644353Y-58950000D01*
X113031720Y-58950000D01*
X112975377Y-58826627D01*
X112881128Y-58717857D01*
X112760053Y-58640047D01*
X112760051Y-58640046D01*
X112760049Y-58640045D01*
X112760050Y-58640045D01*
X112621963Y-58599500D01*
X112621961Y-58599500D01*
X112478039Y-58599500D01*
X112478036Y-58599500D01*
X112339949Y-58640045D01*
X112218873Y-58717856D01*
X112124623Y-58826626D01*
X112124622Y-58826628D01*
X112064834Y-58957543D01*
X112044353Y-59100000D01*
X112064834Y-59242456D01*
X112124622Y-59373371D01*
X112124623Y-59373373D01*
X112218872Y-59482143D01*
X112262147Y-59509954D01*
X112339948Y-59559954D01*
X112411704Y-59581023D01*
X112470482Y-59618797D01*
X112499507Y-59682353D01*
X112489563Y-59751511D01*
X112443809Y-59804315D01*
X112411704Y-59818977D01*
X112339948Y-59840045D01*
X112218873Y-59917856D01*
X112124623Y-60026626D01*
X112124622Y-60026628D01*
X112064834Y-60157543D01*
X112044353Y-60299999D01*
X107050000Y-60299999D01*
X107050000Y-58649999D01*
X107944353Y-58649999D01*
X107964834Y-58792456D01*
X108024622Y-58923371D01*
X108024623Y-58923373D01*
X108118872Y-59032143D01*
X108239947Y-59109953D01*
X108239950Y-59109954D01*
X108239949Y-59109954D01*
X108378036Y-59150499D01*
X108378038Y-59150500D01*
X108378039Y-59150500D01*
X108521962Y-59150500D01*
X108521962Y-59150499D01*
X108660053Y-59109953D01*
X108781128Y-59032143D01*
X108875377Y-58923373D01*
X108935165Y-58792457D01*
X108955647Y-58650000D01*
X108935165Y-58507543D01*
X108875377Y-58376627D01*
X108781128Y-58267857D01*
X108660053Y-58190047D01*
X108660051Y-58190046D01*
X108660049Y-58190045D01*
X108660050Y-58190045D01*
X108521963Y-58149500D01*
X108521961Y-58149500D01*
X108378039Y-58149500D01*
X108378036Y-58149500D01*
X108239949Y-58190045D01*
X108118873Y-58267856D01*
X108024623Y-58376626D01*
X108024622Y-58376628D01*
X107964834Y-58507543D01*
X107944353Y-58649999D01*
X107050000Y-58649999D01*
X107050000Y-57924500D01*
X107069685Y-57857461D01*
X107122489Y-57811706D01*
X107174000Y-57800500D01*
X107321962Y-57800500D01*
X107321962Y-57800499D01*
X107460053Y-57759953D01*
X107581128Y-57682143D01*
X107675377Y-57573373D01*
X107735165Y-57442457D01*
X107755647Y-57300000D01*
X107748458Y-57250000D01*
X136619853Y-57250000D01*
X136640334Y-57392456D01*
X136663169Y-57442456D01*
X136700123Y-57523373D01*
X136794372Y-57632143D01*
X136915447Y-57709953D01*
X136915450Y-57709954D01*
X136915449Y-57709954D01*
X137053536Y-57750499D01*
X137053538Y-57750500D01*
X137053539Y-57750500D01*
X137197462Y-57750500D01*
X137197462Y-57750499D01*
X137335553Y-57709953D01*
X137456628Y-57632143D01*
X137550877Y-57523373D01*
X137610665Y-57392457D01*
X137631147Y-57250000D01*
X137610665Y-57107543D01*
X137550877Y-56976627D01*
X137456628Y-56867857D01*
X137335553Y-56790047D01*
X137335551Y-56790046D01*
X137335549Y-56790045D01*
X137335550Y-56790045D01*
X137197463Y-56749500D01*
X137197461Y-56749500D01*
X137053539Y-56749500D01*
X137053536Y-56749500D01*
X136915449Y-56790045D01*
X136794373Y-56867856D01*
X136700123Y-56976626D01*
X136700122Y-56976628D01*
X136640334Y-57107543D01*
X136619853Y-57250000D01*
X107748458Y-57250000D01*
X107735165Y-57157543D01*
X107675377Y-57026627D01*
X107581128Y-56917857D01*
X107460053Y-56840047D01*
X107460051Y-56840046D01*
X107460049Y-56840045D01*
X107460050Y-56840045D01*
X107321963Y-56799500D01*
X107321961Y-56799500D01*
X107178039Y-56799500D01*
X107174000Y-56799500D01*
X107106961Y-56779815D01*
X107061206Y-56727011D01*
X107050000Y-56675500D01*
X107050000Y-56200000D01*
X116644353Y-56200000D01*
X116664834Y-56342456D01*
X116700093Y-56419661D01*
X116724623Y-56473373D01*
X116818872Y-56582143D01*
X116939947Y-56659953D01*
X116939950Y-56659954D01*
X116939949Y-56659954D01*
X117078036Y-56700499D01*
X117078038Y-56700500D01*
X117078039Y-56700500D01*
X117221962Y-56700500D01*
X117221962Y-56700499D01*
X117360053Y-56659953D01*
X117481128Y-56582143D01*
X117575377Y-56473373D01*
X117575784Y-56472479D01*
X117576427Y-56471738D01*
X117580171Y-56465913D01*
X117581008Y-56466450D01*
X117621533Y-56419674D01*
X117688571Y-56399983D01*
X117755612Y-56419661D01*
X117801372Y-56472461D01*
X117801376Y-56472470D01*
X117801789Y-56473374D01*
X117824623Y-56523373D01*
X117918872Y-56632143D01*
X118039947Y-56709953D01*
X118039950Y-56709954D01*
X118039949Y-56709954D01*
X118147107Y-56741417D01*
X118174633Y-56749500D01*
X118178036Y-56750499D01*
X118178038Y-56750500D01*
X118178039Y-56750500D01*
X118321962Y-56750500D01*
X118321962Y-56750499D01*
X118460053Y-56709953D01*
X118581128Y-56632143D01*
X118675377Y-56523373D01*
X118735165Y-56392457D01*
X118755647Y-56250000D01*
X118735165Y-56107543D01*
X118675377Y-55976627D01*
X118581128Y-55867857D01*
X118460053Y-55790047D01*
X118460051Y-55790046D01*
X118460049Y-55790045D01*
X118460050Y-55790045D01*
X118321963Y-55749500D01*
X118321961Y-55749500D01*
X118178039Y-55749500D01*
X118178036Y-55749500D01*
X118039949Y-55790045D01*
X117918873Y-55867856D01*
X117824623Y-55976626D01*
X117824620Y-55976631D01*
X117824209Y-55977532D01*
X117823561Y-55978279D01*
X117819829Y-55984087D01*
X117818993Y-55983550D01*
X117778452Y-56030334D01*
X117711412Y-56050016D01*
X117644373Y-56030329D01*
X117598623Y-55977528D01*
X117575377Y-55926628D01*
X117575376Y-55926626D01*
X117481128Y-55817857D01*
X117360053Y-55740047D01*
X117360051Y-55740046D01*
X117360049Y-55740045D01*
X117360050Y-55740045D01*
X117221963Y-55699500D01*
X117221961Y-55699500D01*
X117078039Y-55699500D01*
X117078036Y-55699500D01*
X116939949Y-55740045D01*
X116818873Y-55817856D01*
X116724623Y-55926626D01*
X116724622Y-55926628D01*
X116664834Y-56057543D01*
X116644353Y-56200000D01*
X107050000Y-56200000D01*
X107050000Y-55200000D01*
X149694353Y-55200000D01*
X149714834Y-55342456D01*
X149774622Y-55473371D01*
X149774623Y-55473373D01*
X149868872Y-55582143D01*
X149989947Y-55659953D01*
X149989950Y-55659954D01*
X149989949Y-55659954D01*
X150097107Y-55691417D01*
X150124633Y-55699500D01*
X150128036Y-55700499D01*
X150128038Y-55700500D01*
X150128039Y-55700500D01*
X150271962Y-55700500D01*
X150271962Y-55700499D01*
X150410053Y-55659953D01*
X150531128Y-55582143D01*
X150625377Y-55473373D01*
X150685165Y-55342457D01*
X150705647Y-55200000D01*
X150685165Y-55057543D01*
X150625377Y-54926627D01*
X150531128Y-54817857D01*
X150410053Y-54740047D01*
X150410051Y-54740046D01*
X150410049Y-54740045D01*
X150410050Y-54740045D01*
X150271963Y-54699500D01*
X150271961Y-54699500D01*
X150128039Y-54699500D01*
X150128036Y-54699500D01*
X149989949Y-54740045D01*
X149868873Y-54817856D01*
X149774623Y-54926626D01*
X149774622Y-54926628D01*
X149714834Y-55057543D01*
X149694353Y-55200000D01*
X107050000Y-55200000D01*
X107050000Y-52899999D01*
X113644353Y-52899999D01*
X113664834Y-53042456D01*
X113691114Y-53099999D01*
X113724623Y-53173373D01*
X113818872Y-53282143D01*
X113939947Y-53359953D01*
X113939950Y-53359954D01*
X113939949Y-53359954D01*
X114078036Y-53400499D01*
X114078038Y-53400500D01*
X114078039Y-53400500D01*
X114221962Y-53400500D01*
X114221962Y-53400499D01*
X114360053Y-53359953D01*
X114481128Y-53282143D01*
X114575377Y-53173373D01*
X114608886Y-53100000D01*
X142244353Y-53100000D01*
X142264834Y-53242456D01*
X142282959Y-53282143D01*
X142324623Y-53373373D01*
X142418872Y-53482143D01*
X142539947Y-53559953D01*
X142539950Y-53559954D01*
X142539949Y-53559954D01*
X142678036Y-53600499D01*
X142678038Y-53600500D01*
X142678039Y-53600500D01*
X142821962Y-53600500D01*
X142821962Y-53600499D01*
X142960053Y-53559953D01*
X143081128Y-53482143D01*
X143175377Y-53373373D01*
X143235165Y-53242457D01*
X143255647Y-53100000D01*
X143235165Y-52957543D01*
X143175377Y-52826627D01*
X143081128Y-52717857D01*
X142960053Y-52640047D01*
X142960051Y-52640046D01*
X142960049Y-52640045D01*
X142960050Y-52640045D01*
X142821963Y-52599500D01*
X142821961Y-52599500D01*
X142678039Y-52599500D01*
X142678036Y-52599500D01*
X142539949Y-52640045D01*
X142418873Y-52717856D01*
X142324623Y-52826626D01*
X142324622Y-52826628D01*
X142264834Y-52957543D01*
X142244353Y-53100000D01*
X114608886Y-53100000D01*
X114635165Y-53042457D01*
X114655647Y-52900000D01*
X114635165Y-52757543D01*
X114575377Y-52626627D01*
X114481128Y-52517857D01*
X114360053Y-52440047D01*
X114360051Y-52440046D01*
X114360049Y-52440045D01*
X114360050Y-52440045D01*
X114221963Y-52399500D01*
X114221961Y-52399500D01*
X114078039Y-52399500D01*
X114078036Y-52399500D01*
X113939949Y-52440045D01*
X113818873Y-52517856D01*
X113724623Y-52626626D01*
X113724622Y-52626628D01*
X113664834Y-52757543D01*
X113644353Y-52899999D01*
X107050000Y-52899999D01*
X107050000Y-50000000D01*
X109444353Y-50000000D01*
X109464834Y-50142456D01*
X109524622Y-50273371D01*
X109524623Y-50273373D01*
X109618872Y-50382143D01*
X109739947Y-50459953D01*
X109739950Y-50459954D01*
X109739949Y-50459954D01*
X109878036Y-50500499D01*
X109878038Y-50500500D01*
X109878039Y-50500500D01*
X110021962Y-50500500D01*
X110021962Y-50500499D01*
X110160053Y-50459953D01*
X110281128Y-50382143D01*
X110375377Y-50273373D01*
X110435165Y-50142457D01*
X110455647Y-50000000D01*
X110435165Y-49857543D01*
X110375377Y-49726627D01*
X110281128Y-49617857D01*
X110160053Y-49540047D01*
X110160051Y-49540046D01*
X110160049Y-49540045D01*
X110160050Y-49540045D01*
X110021963Y-49499500D01*
X110021961Y-49499500D01*
X109878039Y-49499500D01*
X109878036Y-49499500D01*
X109739949Y-49540045D01*
X109618873Y-49617856D01*
X109524623Y-49726626D01*
X109524622Y-49726628D01*
X109464834Y-49857543D01*
X109444353Y-50000000D01*
X107050000Y-50000000D01*
X107050000Y-49400000D01*
X142494353Y-49400000D01*
X142514834Y-49542456D01*
X142549269Y-49617856D01*
X142574623Y-49673373D01*
X142668872Y-49782143D01*
X142789947Y-49859953D01*
X142789950Y-49859954D01*
X142789949Y-49859954D01*
X142928036Y-49900499D01*
X142928038Y-49900500D01*
X142928039Y-49900500D01*
X143071962Y-49900500D01*
X143071962Y-49900499D01*
X143210053Y-49859953D01*
X143331128Y-49782143D01*
X143425377Y-49673373D01*
X143485165Y-49542457D01*
X143505647Y-49400000D01*
X143485165Y-49257543D01*
X143425377Y-49126627D01*
X143331128Y-49017857D01*
X143210053Y-48940047D01*
X143210051Y-48940046D01*
X143210049Y-48940045D01*
X143210050Y-48940045D01*
X143071963Y-48899500D01*
X143071961Y-48899500D01*
X142928039Y-48899500D01*
X142928036Y-48899500D01*
X142789949Y-48940045D01*
X142668873Y-49017856D01*
X142574623Y-49126626D01*
X142574622Y-49126628D01*
X142514834Y-49257543D01*
X142494353Y-49400000D01*
X107050000Y-49400000D01*
X107050000Y-48299999D01*
X145844353Y-48299999D01*
X145864834Y-48442456D01*
X145924622Y-48573371D01*
X145924623Y-48573373D01*
X146018872Y-48682143D01*
X146139947Y-48759953D01*
X146139950Y-48759954D01*
X146139949Y-48759954D01*
X146278036Y-48800499D01*
X146278038Y-48800500D01*
X146278039Y-48800500D01*
X146421962Y-48800500D01*
X146421962Y-48800499D01*
X146560053Y-48759953D01*
X146681128Y-48682143D01*
X146775377Y-48573373D01*
X146835165Y-48442457D01*
X146855647Y-48300000D01*
X146835165Y-48157543D01*
X146775377Y-48026627D01*
X146681128Y-47917857D01*
X146560053Y-47840047D01*
X146560051Y-47840046D01*
X146560049Y-47840045D01*
X146560050Y-47840045D01*
X146421963Y-47799500D01*
X146421961Y-47799500D01*
X146278039Y-47799500D01*
X146278036Y-47799500D01*
X146139949Y-47840045D01*
X146018873Y-47917856D01*
X145924623Y-48026626D01*
X145924622Y-48026628D01*
X145864834Y-48157543D01*
X145844353Y-48299999D01*
X107050000Y-48299999D01*
X107050000Y-46199999D01*
X112244353Y-46199999D01*
X112264834Y-46342456D01*
X112324622Y-46473371D01*
X112324623Y-46473373D01*
X112418872Y-46582143D01*
X112539947Y-46659953D01*
X112539950Y-46659954D01*
X112539949Y-46659954D01*
X112678036Y-46700499D01*
X112678038Y-46700500D01*
X112678039Y-46700500D01*
X112821962Y-46700500D01*
X112821962Y-46700499D01*
X112960053Y-46659953D01*
X113081128Y-46582143D01*
X113175377Y-46473373D01*
X113235165Y-46342457D01*
X113255647Y-46200000D01*
X113235165Y-46057543D01*
X113231720Y-46050000D01*
X142144353Y-46050000D01*
X142164834Y-46192456D01*
X142224622Y-46323371D01*
X142224623Y-46323373D01*
X142318872Y-46432143D01*
X142439947Y-46509953D01*
X142439950Y-46509954D01*
X142439949Y-46509954D01*
X142578036Y-46550499D01*
X142578038Y-46550500D01*
X142578039Y-46550500D01*
X142721962Y-46550500D01*
X142721962Y-46550499D01*
X142860053Y-46509953D01*
X142981128Y-46432143D01*
X143075377Y-46323373D01*
X143135165Y-46192457D01*
X143155647Y-46050000D01*
X143135165Y-45907543D01*
X143075377Y-45776627D01*
X142981128Y-45667857D01*
X142860053Y-45590047D01*
X142860051Y-45590046D01*
X142860049Y-45590045D01*
X142860050Y-45590045D01*
X142721963Y-45549500D01*
X142721961Y-45549500D01*
X142578039Y-45549500D01*
X142578036Y-45549500D01*
X142439949Y-45590045D01*
X142318873Y-45667856D01*
X142224623Y-45776626D01*
X142224622Y-45776628D01*
X142164834Y-45907543D01*
X142144353Y-46050000D01*
X113231720Y-46050000D01*
X113175377Y-45926627D01*
X113081128Y-45817857D01*
X112960053Y-45740047D01*
X112960051Y-45740046D01*
X112960049Y-45740045D01*
X112960050Y-45740045D01*
X112821963Y-45699500D01*
X112821961Y-45699500D01*
X112678039Y-45699500D01*
X112678036Y-45699500D01*
X112539949Y-45740045D01*
X112418873Y-45817856D01*
X112324623Y-45926626D01*
X112324622Y-45926628D01*
X112264834Y-46057543D01*
X112244353Y-46199999D01*
X107050000Y-46199999D01*
X107050000Y-45499999D01*
X110644353Y-45499999D01*
X110664834Y-45642456D01*
X110709402Y-45740045D01*
X110724623Y-45773373D01*
X110818872Y-45882143D01*
X110939947Y-45959953D01*
X110939950Y-45959954D01*
X110939949Y-45959954D01*
X111078036Y-46000499D01*
X111078038Y-46000500D01*
X111078039Y-46000500D01*
X111221962Y-46000500D01*
X111221962Y-46000499D01*
X111360053Y-45959953D01*
X111481128Y-45882143D01*
X111575377Y-45773373D01*
X111635165Y-45642457D01*
X111655647Y-45500000D01*
X111635165Y-45357543D01*
X111575377Y-45226627D01*
X111552305Y-45200000D01*
X144794353Y-45200000D01*
X144814834Y-45342456D01*
X144874622Y-45473371D01*
X144874623Y-45473373D01*
X144968872Y-45582143D01*
X145089947Y-45659953D01*
X145089950Y-45659954D01*
X145089949Y-45659954D01*
X145197107Y-45691417D01*
X145224633Y-45699500D01*
X145228036Y-45700499D01*
X145228038Y-45700500D01*
X145228039Y-45700500D01*
X145371962Y-45700500D01*
X145371962Y-45700499D01*
X145510053Y-45659953D01*
X145631128Y-45582143D01*
X145725377Y-45473373D01*
X145785165Y-45342457D01*
X145805647Y-45200000D01*
X145785165Y-45057543D01*
X145725377Y-44926627D01*
X145631128Y-44817857D01*
X145510053Y-44740047D01*
X145510051Y-44740046D01*
X145510049Y-44740045D01*
X145510050Y-44740045D01*
X145371963Y-44699500D01*
X145371961Y-44699500D01*
X145228039Y-44699500D01*
X145228036Y-44699500D01*
X145089949Y-44740045D01*
X144968873Y-44817856D01*
X144874623Y-44926626D01*
X144874622Y-44926628D01*
X144814834Y-45057543D01*
X144794353Y-45200000D01*
X111552305Y-45200000D01*
X111481128Y-45117857D01*
X111360053Y-45040047D01*
X111360051Y-45040046D01*
X111360049Y-45040045D01*
X111360050Y-45040045D01*
X111221963Y-44999500D01*
X111221961Y-44999500D01*
X111078039Y-44999500D01*
X111078036Y-44999500D01*
X110939949Y-45040045D01*
X110818873Y-45117856D01*
X110724623Y-45226626D01*
X110724622Y-45226628D01*
X110664834Y-45357543D01*
X110644353Y-45499999D01*
X107050000Y-45499999D01*
X107050000Y-42599999D01*
X115294353Y-42599999D01*
X115314834Y-42742456D01*
X115363949Y-42850000D01*
X115374623Y-42873373D01*
X115468872Y-42982143D01*
X115589947Y-43059953D01*
X115589950Y-43059954D01*
X115589949Y-43059954D01*
X115728036Y-43100499D01*
X115728038Y-43100500D01*
X115728039Y-43100500D01*
X115871962Y-43100500D01*
X115871962Y-43100499D01*
X116010053Y-43059953D01*
X116131128Y-42982143D01*
X116195380Y-42907991D01*
X116254154Y-42870219D01*
X116324023Y-42870218D01*
X116382802Y-42907992D01*
X116411827Y-42971546D01*
X116414833Y-42992451D01*
X116414834Y-42992455D01*
X116414835Y-42992457D01*
X116474623Y-43123373D01*
X116568872Y-43232143D01*
X116689947Y-43309953D01*
X116689950Y-43309954D01*
X116689949Y-43309954D01*
X116828036Y-43350499D01*
X116828038Y-43350500D01*
X116828039Y-43350500D01*
X116971962Y-43350500D01*
X116971962Y-43350499D01*
X117110053Y-43309953D01*
X117231128Y-43232143D01*
X117325377Y-43123373D01*
X117385165Y-42992457D01*
X117405647Y-42850000D01*
X117385165Y-42707543D01*
X117325377Y-42576627D01*
X117231128Y-42467857D01*
X117110053Y-42390047D01*
X117110051Y-42390046D01*
X117110049Y-42390045D01*
X117110050Y-42390045D01*
X116971963Y-42349500D01*
X116971961Y-42349500D01*
X116828039Y-42349500D01*
X116828036Y-42349500D01*
X116689949Y-42390045D01*
X116568873Y-42467856D01*
X116504622Y-42542006D01*
X116445844Y-42579780D01*
X116375974Y-42579780D01*
X116317196Y-42542006D01*
X116288171Y-42478450D01*
X116285165Y-42457543D01*
X116254339Y-42390045D01*
X116225377Y-42326627D01*
X116131128Y-42217857D01*
X116010053Y-42140047D01*
X116010051Y-42140046D01*
X116010049Y-42140045D01*
X116010050Y-42140045D01*
X115871963Y-42099500D01*
X115871961Y-42099500D01*
X115728039Y-42099500D01*
X115728036Y-42099500D01*
X115589949Y-42140045D01*
X115468873Y-42217856D01*
X115374623Y-42326626D01*
X115374622Y-42326628D01*
X115314834Y-42457543D01*
X115294353Y-42599999D01*
X107050000Y-42599999D01*
X107050000Y-41799999D01*
X112644353Y-41799999D01*
X112664834Y-41942456D01*
X112724622Y-42073371D01*
X112724623Y-42073373D01*
X112818872Y-42182143D01*
X112939947Y-42259953D01*
X112939950Y-42259954D01*
X112939949Y-42259954D01*
X113078036Y-42300499D01*
X113078038Y-42300500D01*
X113078039Y-42300500D01*
X113221962Y-42300500D01*
X113221962Y-42300499D01*
X113360053Y-42259953D01*
X113481128Y-42182143D01*
X113575377Y-42073373D01*
X113635165Y-41942457D01*
X113655647Y-41800000D01*
X113635165Y-41657543D01*
X113575377Y-41526627D01*
X113481128Y-41417857D01*
X113360053Y-41340047D01*
X113360051Y-41340046D01*
X113360049Y-41340045D01*
X113360050Y-41340045D01*
X113221963Y-41299500D01*
X113221961Y-41299500D01*
X113078039Y-41299500D01*
X113078036Y-41299500D01*
X112939949Y-41340045D01*
X112818873Y-41417856D01*
X112724623Y-41526626D01*
X112724622Y-41526628D01*
X112664834Y-41657543D01*
X112644353Y-41799999D01*
X107050000Y-41799999D01*
X107050000Y-40749999D01*
X108544353Y-40749999D01*
X108564834Y-40892456D01*
X108624622Y-41023371D01*
X108624623Y-41023373D01*
X108718872Y-41132143D01*
X108839947Y-41209953D01*
X108839950Y-41209954D01*
X108839949Y-41209954D01*
X108978036Y-41250499D01*
X108978038Y-41250500D01*
X108978039Y-41250500D01*
X109121962Y-41250500D01*
X109121962Y-41250499D01*
X109260053Y-41209953D01*
X109381128Y-41132143D01*
X109475377Y-41023373D01*
X109535165Y-40892457D01*
X109555647Y-40750000D01*
X109535165Y-40607543D01*
X109475377Y-40476627D01*
X109381128Y-40367857D01*
X109260053Y-40290047D01*
X109260051Y-40290046D01*
X109260049Y-40290045D01*
X109260050Y-40290045D01*
X109121963Y-40249500D01*
X109121961Y-40249500D01*
X108978039Y-40249500D01*
X108978036Y-40249500D01*
X108839949Y-40290045D01*
X108718873Y-40367856D01*
X108624623Y-40476626D01*
X108624622Y-40476628D01*
X108564834Y-40607543D01*
X108544353Y-40749999D01*
X107050000Y-40749999D01*
X107050000Y-40651361D01*
X107069685Y-40584322D01*
X107086314Y-40563685D01*
X107549999Y-40100000D01*
X136694353Y-40100000D01*
X136714834Y-40242456D01*
X136772103Y-40367856D01*
X136774623Y-40373373D01*
X136868872Y-40482143D01*
X136989947Y-40559953D01*
X136989950Y-40559954D01*
X136989949Y-40559954D01*
X137128036Y-40600499D01*
X137128038Y-40600500D01*
X137128039Y-40600500D01*
X137271962Y-40600500D01*
X137271962Y-40600499D01*
X137410053Y-40559953D01*
X137531128Y-40482143D01*
X137625377Y-40373373D01*
X137685165Y-40242457D01*
X137705647Y-40100000D01*
X137685165Y-39957543D01*
X137625377Y-39826627D01*
X137531128Y-39717857D01*
X137410053Y-39640047D01*
X137410051Y-39640046D01*
X137410049Y-39640045D01*
X137410050Y-39640045D01*
X137271963Y-39599500D01*
X137271961Y-39599500D01*
X137128039Y-39599500D01*
X137128036Y-39599500D01*
X136989949Y-39640045D01*
X136868873Y-39717856D01*
X136774623Y-39826626D01*
X136774622Y-39826628D01*
X136714834Y-39957543D01*
X136694353Y-40100000D01*
X107549999Y-40100000D01*
X108900000Y-38749999D01*
X120694353Y-38749999D01*
X120714834Y-38892456D01*
X120774622Y-39023371D01*
X120774623Y-39023373D01*
X120868872Y-39132143D01*
X120989947Y-39209953D01*
X120989950Y-39209954D01*
X120989949Y-39209954D01*
X121128036Y-39250499D01*
X121128038Y-39250500D01*
X121128039Y-39250500D01*
X121271962Y-39250500D01*
X121271962Y-39250499D01*
X121410053Y-39209953D01*
X121531128Y-39132143D01*
X121625377Y-39023373D01*
X121655015Y-38958475D01*
X134897178Y-38958475D01*
X134917659Y-39100931D01*
X134967449Y-39209953D01*
X134977448Y-39231848D01*
X135071697Y-39340618D01*
X135192772Y-39418428D01*
X135192775Y-39418429D01*
X135192774Y-39418429D01*
X135330861Y-39458974D01*
X135330863Y-39458975D01*
X135330864Y-39458975D01*
X135474787Y-39458975D01*
X135474787Y-39458974D01*
X135612878Y-39418428D01*
X135733953Y-39340618D01*
X135828202Y-39231848D01*
X135887990Y-39100932D01*
X135908472Y-38958475D01*
X135887990Y-38816018D01*
X135828202Y-38685102D01*
X135733953Y-38576332D01*
X135612878Y-38498522D01*
X135612876Y-38498521D01*
X135612874Y-38498520D01*
X135612875Y-38498520D01*
X135474788Y-38457975D01*
X135474786Y-38457975D01*
X135330864Y-38457975D01*
X135330861Y-38457975D01*
X135192774Y-38498520D01*
X135071698Y-38576331D01*
X134977448Y-38685101D01*
X134977447Y-38685103D01*
X134917659Y-38816018D01*
X134897178Y-38958475D01*
X121655015Y-38958475D01*
X121685165Y-38892457D01*
X121697472Y-38806853D01*
X121726498Y-38743297D01*
X121785276Y-38705523D01*
X121820211Y-38700500D01*
X121821962Y-38700500D01*
X121821962Y-38700499D01*
X121960053Y-38659953D01*
X122081128Y-38582143D01*
X122175377Y-38473373D01*
X122235165Y-38342457D01*
X122255647Y-38200000D01*
X122235165Y-38057543D01*
X122175377Y-37926627D01*
X122081128Y-37817857D01*
X121960053Y-37740047D01*
X121960051Y-37740046D01*
X121960049Y-37740045D01*
X121960050Y-37740045D01*
X121821963Y-37699500D01*
X121821961Y-37699500D01*
X121812741Y-37699500D01*
X121745702Y-37679815D01*
X121699947Y-37627011D01*
X121690003Y-37557853D01*
X121719028Y-37494297D01*
X121730766Y-37482559D01*
X121731124Y-37482145D01*
X121731128Y-37482143D01*
X121825377Y-37373373D01*
X121885165Y-37242457D01*
X121887344Y-37227300D01*
X125801789Y-37227300D01*
X125822270Y-37369757D01*
X125855471Y-37442456D01*
X125882059Y-37500674D01*
X125976308Y-37609444D01*
X126097383Y-37687254D01*
X126097386Y-37687255D01*
X126097385Y-37687255D01*
X126235472Y-37727800D01*
X126235474Y-37727801D01*
X126235475Y-37727801D01*
X126379398Y-37727801D01*
X126379398Y-37727800D01*
X126517489Y-37687254D01*
X126638564Y-37609444D01*
X126732813Y-37500674D01*
X126792601Y-37369758D01*
X126802631Y-37300000D01*
X129744353Y-37300000D01*
X129764834Y-37442456D01*
X129791421Y-37500672D01*
X129824623Y-37573373D01*
X129918872Y-37682143D01*
X130039947Y-37759953D01*
X130039950Y-37759954D01*
X130039949Y-37759954D01*
X130178036Y-37800499D01*
X130178038Y-37800500D01*
X130178039Y-37800500D01*
X130321962Y-37800500D01*
X130321962Y-37800499D01*
X130460053Y-37759953D01*
X130581128Y-37682143D01*
X130675377Y-37573373D01*
X130735165Y-37442457D01*
X130755647Y-37300000D01*
X130735165Y-37157543D01*
X130675377Y-37026627D01*
X130581128Y-36917857D01*
X130460053Y-36840047D01*
X130460051Y-36840046D01*
X130460049Y-36840045D01*
X130460050Y-36840045D01*
X130321963Y-36799500D01*
X130321961Y-36799500D01*
X130178039Y-36799500D01*
X130178036Y-36799500D01*
X130039949Y-36840045D01*
X129918873Y-36917856D01*
X129824623Y-37026626D01*
X129824622Y-37026628D01*
X129764834Y-37157543D01*
X129744353Y-37300000D01*
X126802631Y-37300000D01*
X126813083Y-37227301D01*
X126792601Y-37084844D01*
X126732813Y-36953928D01*
X126638564Y-36845158D01*
X126517489Y-36767348D01*
X126517487Y-36767347D01*
X126517485Y-36767346D01*
X126517486Y-36767346D01*
X126379399Y-36726801D01*
X126379397Y-36726801D01*
X126235475Y-36726801D01*
X126235472Y-36726801D01*
X126097385Y-36767346D01*
X125976309Y-36845157D01*
X125882059Y-36953927D01*
X125882058Y-36953929D01*
X125822270Y-37084844D01*
X125801789Y-37227300D01*
X121887344Y-37227300D01*
X121905647Y-37100000D01*
X121885165Y-36957543D01*
X121825377Y-36826627D01*
X121731128Y-36717857D01*
X121610053Y-36640047D01*
X121610051Y-36640046D01*
X121610049Y-36640045D01*
X121610050Y-36640045D01*
X121471963Y-36599500D01*
X121471961Y-36599500D01*
X121328039Y-36599500D01*
X121328036Y-36599500D01*
X121189949Y-36640045D01*
X121068873Y-36717856D01*
X120974623Y-36826626D01*
X120974622Y-36826628D01*
X120914834Y-36957543D01*
X120894353Y-37100000D01*
X120914834Y-37242456D01*
X120941114Y-37300000D01*
X120974623Y-37373373D01*
X121068872Y-37482143D01*
X121189947Y-37559953D01*
X121189950Y-37559954D01*
X121189949Y-37559954D01*
X121328036Y-37600499D01*
X121328038Y-37600500D01*
X121337259Y-37600500D01*
X121404298Y-37620185D01*
X121450053Y-37672989D01*
X121459997Y-37742147D01*
X121430972Y-37805703D01*
X121419233Y-37817440D01*
X121324623Y-37926626D01*
X121324622Y-37926628D01*
X121264834Y-38057543D01*
X121252527Y-38143147D01*
X121223502Y-38206703D01*
X121164724Y-38244477D01*
X121129789Y-38249500D01*
X121128036Y-38249500D01*
X120989949Y-38290045D01*
X120868873Y-38367856D01*
X120774623Y-38476626D01*
X120774622Y-38476628D01*
X120714834Y-38607543D01*
X120694353Y-38749999D01*
X108900000Y-38749999D01*
X115613681Y-32036318D01*
X115675004Y-32002834D01*
X115701362Y-32000000D01*
X134298638Y-32000000D01*
X134365677Y-32019685D01*
G37*
%TD.AperFunction*%
%TD*%
%TA.AperFunction,Conductor*%
%TO.N,+3.3VP*%
G36*
X65819353Y-47574999D02*
G01*
X65839834Y-47717456D01*
X65899622Y-47848371D01*
X65899623Y-47848373D01*
X65993872Y-47957143D01*
X66114947Y-48034953D01*
X66114950Y-48034954D01*
X66114949Y-48034954D01*
X66253036Y-48075499D01*
X66253038Y-48075500D01*
X66253039Y-48075500D01*
X66396962Y-48075500D01*
X66396962Y-48075499D01*
X66535053Y-48034953D01*
X66656128Y-47957143D01*
X66750377Y-47848373D01*
X66810165Y-47717457D01*
X66830647Y-47575000D01*
X66819864Y-47500000D01*
X69476336Y-47500000D01*
X69478036Y-47500499D01*
X69478038Y-47500500D01*
X69478039Y-47500500D01*
X69621962Y-47500500D01*
X69621962Y-47500499D01*
X69623664Y-47500000D01*
X72550000Y-47500000D01*
X81750000Y-47500000D01*
X81750000Y-49500000D01*
X81750000Y-51876000D01*
X81730315Y-51943039D01*
X81677511Y-51988794D01*
X81626000Y-52000000D01*
X80275550Y-52000000D01*
X80208511Y-51980315D01*
X80162756Y-51927511D01*
X80152812Y-51858353D01*
X80181837Y-51794797D01*
X80187869Y-51788319D01*
X80346105Y-51630082D01*
X80481600Y-51436578D01*
X80581429Y-51222492D01*
X80581432Y-51222486D01*
X80638636Y-51009000D01*
X79741686Y-51009000D01*
X79767493Y-50968844D01*
X79808000Y-50830889D01*
X79808000Y-50687111D01*
X79767493Y-50549156D01*
X79741686Y-50509000D01*
X80638636Y-50509000D01*
X80638635Y-50508999D01*
X80581432Y-50295513D01*
X80581429Y-50295507D01*
X80481600Y-50081422D01*
X80481599Y-50081420D01*
X80346113Y-49887926D01*
X80346108Y-49887920D01*
X80179082Y-49720894D01*
X79985578Y-49585399D01*
X79771492Y-49485570D01*
X79771486Y-49485567D01*
X79558000Y-49428364D01*
X79558000Y-50323498D01*
X79450315Y-50274320D01*
X79343763Y-50259000D01*
X79272237Y-50259000D01*
X79165685Y-50274320D01*
X79058000Y-50323498D01*
X79058000Y-49428364D01*
X79057999Y-49428364D01*
X78844513Y-49485567D01*
X78844507Y-49485570D01*
X78630422Y-49585399D01*
X78630420Y-49585400D01*
X78436926Y-49720886D01*
X78436920Y-49720891D01*
X78269884Y-49887927D01*
X78268981Y-49889004D01*
X78268464Y-49889347D01*
X78266062Y-49891750D01*
X78265578Y-49891266D01*
X78210806Y-49927701D01*
X78140945Y-49928802D01*
X78081579Y-49891959D01*
X78051556Y-49828869D01*
X78050000Y-49809289D01*
X78050000Y-49500000D01*
X72180596Y-49500000D01*
X72113557Y-49480315D01*
X72086885Y-49457204D01*
X72031128Y-49392857D01*
X71910053Y-49315047D01*
X71910051Y-49315046D01*
X71910049Y-49315045D01*
X71910050Y-49315045D01*
X71771963Y-49274500D01*
X71771961Y-49274500D01*
X71628039Y-49274500D01*
X71628036Y-49274500D01*
X71489949Y-49315045D01*
X71368873Y-49392856D01*
X71274623Y-49501626D01*
X71274622Y-49501628D01*
X71214834Y-49632543D01*
X71194353Y-49774999D01*
X71214834Y-49917456D01*
X71274622Y-50048371D01*
X71274623Y-50048373D01*
X71368872Y-50157143D01*
X71489947Y-50234953D01*
X71489950Y-50234954D01*
X71489949Y-50234954D01*
X71597107Y-50266417D01*
X71624020Y-50274320D01*
X71628036Y-50275499D01*
X71628038Y-50275500D01*
X71628039Y-50275500D01*
X71771961Y-50275500D01*
X71891066Y-50240528D01*
X71960935Y-50240528D01*
X72019713Y-50278302D01*
X72048738Y-50341858D01*
X72050000Y-50359505D01*
X72050000Y-51876000D01*
X72030315Y-51943039D01*
X71977511Y-51988794D01*
X71926000Y-52000000D01*
X64728863Y-52000000D01*
X64661824Y-51980315D01*
X64616069Y-51927511D01*
X64606125Y-51858353D01*
X64635149Y-51794798D01*
X64675377Y-51748373D01*
X64735165Y-51617457D01*
X64755647Y-51475000D01*
X64735165Y-51332543D01*
X64675377Y-51201627D01*
X64652304Y-51174999D01*
X67294353Y-51174999D01*
X67314834Y-51317456D01*
X67369236Y-51436578D01*
X67374623Y-51448373D01*
X67468872Y-51557143D01*
X67589947Y-51634953D01*
X67589950Y-51634954D01*
X67589949Y-51634954D01*
X67728036Y-51675499D01*
X67728038Y-51675500D01*
X67728039Y-51675500D01*
X67871962Y-51675500D01*
X67871962Y-51675499D01*
X68010053Y-51634953D01*
X68131128Y-51557143D01*
X68225377Y-51448373D01*
X68285165Y-51317457D01*
X68305647Y-51175000D01*
X68285165Y-51032543D01*
X68225377Y-50901627D01*
X68131128Y-50792857D01*
X68010053Y-50715047D01*
X68010051Y-50715046D01*
X68010049Y-50715045D01*
X68010050Y-50715045D01*
X67871963Y-50674500D01*
X67871961Y-50674500D01*
X67728039Y-50674500D01*
X67728036Y-50674500D01*
X67589949Y-50715045D01*
X67468873Y-50792856D01*
X67374623Y-50901626D01*
X67374622Y-50901628D01*
X67314834Y-51032543D01*
X67294353Y-51174999D01*
X64652304Y-51174999D01*
X64581128Y-51092857D01*
X64460053Y-51015047D01*
X64460051Y-51015046D01*
X64460049Y-51015045D01*
X64460050Y-51015045D01*
X64321963Y-50974500D01*
X64321961Y-50974500D01*
X64178039Y-50974500D01*
X64178036Y-50974500D01*
X64039949Y-51015045D01*
X63918873Y-51092856D01*
X63824623Y-51201626D01*
X63824622Y-51201628D01*
X63764834Y-51332543D01*
X63744353Y-51474999D01*
X63764834Y-51617456D01*
X63796700Y-51687231D01*
X63824623Y-51748373D01*
X63864850Y-51794798D01*
X63893875Y-51858353D01*
X63883931Y-51927511D01*
X63838177Y-51980315D01*
X63771137Y-52000000D01*
X62674000Y-52000000D01*
X62606961Y-51980315D01*
X62561206Y-51927511D01*
X62550000Y-51876000D01*
X62550000Y-50647705D01*
X62569685Y-50580666D01*
X62622489Y-50534911D01*
X62691647Y-50524967D01*
X62725519Y-50534914D01*
X62732879Y-50538275D01*
X62732883Y-50538278D01*
X62732887Y-50538279D01*
X62732889Y-50538280D01*
X62870972Y-50578824D01*
X62870974Y-50578825D01*
X62870975Y-50578825D01*
X63014898Y-50578825D01*
X63014898Y-50578824D01*
X63122057Y-50547360D01*
X63152986Y-50538279D01*
X63152986Y-50538278D01*
X63152989Y-50538278D01*
X63212552Y-50499999D01*
X69194353Y-50499999D01*
X69214834Y-50642456D01*
X69235228Y-50687111D01*
X69274623Y-50773373D01*
X69368872Y-50882143D01*
X69489947Y-50959953D01*
X69489950Y-50959954D01*
X69489949Y-50959954D01*
X69628036Y-51000499D01*
X69628038Y-51000500D01*
X69628039Y-51000500D01*
X69771962Y-51000500D01*
X69771962Y-51000499D01*
X69910053Y-50959953D01*
X70031128Y-50882143D01*
X70125377Y-50773373D01*
X70185165Y-50642457D01*
X70205647Y-50500000D01*
X70185165Y-50357543D01*
X70125377Y-50226627D01*
X70031128Y-50117857D01*
X69910053Y-50040047D01*
X69910051Y-50040046D01*
X69910049Y-50040045D01*
X69910050Y-50040045D01*
X69771963Y-49999500D01*
X69771961Y-49999500D01*
X69628039Y-49999500D01*
X69628036Y-49999500D01*
X69489949Y-50040045D01*
X69368873Y-50117856D01*
X69274623Y-50226626D01*
X69274622Y-50226628D01*
X69214834Y-50357543D01*
X69194353Y-50499999D01*
X63212552Y-50499999D01*
X63274064Y-50460468D01*
X63368313Y-50351698D01*
X63428101Y-50220782D01*
X63448583Y-50078325D01*
X63428101Y-49935868D01*
X63368313Y-49804952D01*
X63274064Y-49696182D01*
X63152989Y-49618372D01*
X63152987Y-49618371D01*
X63152985Y-49618370D01*
X63152986Y-49618370D01*
X63014899Y-49577825D01*
X63014897Y-49577825D01*
X62870975Y-49577825D01*
X62870972Y-49577825D01*
X62732888Y-49618369D01*
X62725513Y-49621738D01*
X62656355Y-49631682D01*
X62592798Y-49602658D01*
X62555023Y-49543880D01*
X62550000Y-49508944D01*
X62550000Y-49174999D01*
X67144353Y-49174999D01*
X67164834Y-49317456D01*
X67199269Y-49392856D01*
X67224623Y-49448373D01*
X67318872Y-49557143D01*
X67439947Y-49634953D01*
X67439950Y-49634954D01*
X67439949Y-49634954D01*
X67578036Y-49675499D01*
X67578038Y-49675500D01*
X67578039Y-49675500D01*
X67721962Y-49675500D01*
X67721962Y-49675499D01*
X67860053Y-49634953D01*
X67981128Y-49557143D01*
X68075377Y-49448373D01*
X68135165Y-49317457D01*
X68155647Y-49175000D01*
X68135165Y-49032543D01*
X68075377Y-48901627D01*
X67981128Y-48792857D01*
X67860053Y-48715047D01*
X67860051Y-48715046D01*
X67860049Y-48715045D01*
X67860050Y-48715045D01*
X67721963Y-48674500D01*
X67721961Y-48674500D01*
X67578039Y-48674500D01*
X67578036Y-48674500D01*
X67439949Y-48715045D01*
X67318873Y-48792856D01*
X67224623Y-48901626D01*
X67224622Y-48901628D01*
X67164834Y-49032543D01*
X67144353Y-49174999D01*
X62550000Y-49174999D01*
X62550000Y-47500000D01*
X65830136Y-47500000D01*
X65819353Y-47574999D01*
G37*
%TD.AperFunction*%
%TD*%
%TA.AperFunction,Conductor*%
%TO.N,+3.3VP*%
G36*
X87493039Y-47519685D02*
G01*
X87538794Y-47572489D01*
X87550000Y-47624000D01*
X87550000Y-56000000D01*
X89426000Y-56000000D01*
X89493039Y-56019685D01*
X89538794Y-56072489D01*
X89550000Y-56124000D01*
X89550000Y-57876000D01*
X89530315Y-57943039D01*
X89477511Y-57988794D01*
X89426000Y-58000000D01*
X86674000Y-58000000D01*
X86606961Y-57980315D01*
X86561206Y-57927511D01*
X86550000Y-57876000D01*
X86550000Y-49500000D01*
X81750000Y-49500000D01*
X81750000Y-47500000D01*
X87426000Y-47500000D01*
X87493039Y-47519685D01*
G37*
%TD.AperFunction*%
%TA.AperFunction,Conductor*%
G36*
X80493039Y-34019685D02*
G01*
X80538794Y-34072489D01*
X80550000Y-34124000D01*
X80550000Y-42876000D01*
X80530315Y-42943039D01*
X80477511Y-42988794D01*
X80426000Y-43000000D01*
X72550000Y-43000000D01*
X72550000Y-47500000D01*
X69623661Y-47500000D01*
X69760053Y-47459953D01*
X69881128Y-47382143D01*
X69975377Y-47273373D01*
X70035165Y-47142457D01*
X70055647Y-47000000D01*
X70035165Y-46857543D01*
X69975377Y-46726627D01*
X69881128Y-46617857D01*
X69760053Y-46540047D01*
X69760051Y-46540046D01*
X69760049Y-46540045D01*
X69760050Y-46540045D01*
X69621963Y-46499500D01*
X69621961Y-46499500D01*
X69478039Y-46499500D01*
X69478036Y-46499500D01*
X69339949Y-46540045D01*
X69218873Y-46617856D01*
X69124623Y-46726626D01*
X69124622Y-46726628D01*
X69064834Y-46857543D01*
X69044353Y-47000000D01*
X69064834Y-47142456D01*
X69087852Y-47192857D01*
X69124623Y-47273373D01*
X69218872Y-47382143D01*
X69339947Y-47459953D01*
X69339950Y-47459954D01*
X69339949Y-47459954D01*
X69447107Y-47491417D01*
X69476336Y-47500000D01*
X66819864Y-47500000D01*
X66810165Y-47432543D01*
X66750377Y-47301627D01*
X66656128Y-47192857D01*
X66535053Y-47115047D01*
X66535051Y-47115046D01*
X66535049Y-47115045D01*
X66535050Y-47115045D01*
X66396963Y-47074500D01*
X66396961Y-47074500D01*
X66253039Y-47074500D01*
X66253036Y-47074500D01*
X66114949Y-47115045D01*
X65993873Y-47192856D01*
X65899623Y-47301626D01*
X65899622Y-47301628D01*
X65839834Y-47432543D01*
X65830136Y-47500000D01*
X62550000Y-47500000D01*
X62550000Y-46495479D01*
X62569683Y-46428444D01*
X62622487Y-46382689D01*
X62691646Y-46372745D01*
X62708934Y-46376506D01*
X62774040Y-46395623D01*
X62774041Y-46395623D01*
X62917964Y-46395623D01*
X62917964Y-46395622D01*
X63056055Y-46355076D01*
X63177130Y-46277266D01*
X63271379Y-46168496D01*
X63331167Y-46037580D01*
X63351649Y-45895123D01*
X63331167Y-45752666D01*
X63271379Y-45621750D01*
X63177130Y-45512980D01*
X63056055Y-45435170D01*
X63056053Y-45435169D01*
X63056051Y-45435168D01*
X63056052Y-45435168D01*
X62917965Y-45394623D01*
X62917963Y-45394623D01*
X62774041Y-45394623D01*
X62708932Y-45413740D01*
X62639063Y-45413739D01*
X62580285Y-45375964D01*
X62551261Y-45312408D01*
X62550000Y-45294775D01*
X62550000Y-45033499D01*
X65769353Y-45033499D01*
X65789834Y-45175956D01*
X65844098Y-45294775D01*
X65849623Y-45306873D01*
X65943872Y-45415643D01*
X65986369Y-45442954D01*
X66009730Y-45457967D01*
X66055485Y-45510771D01*
X66065429Y-45579930D01*
X66036404Y-45643485D01*
X66009731Y-45666598D01*
X65968874Y-45692855D01*
X65874623Y-45801626D01*
X65874622Y-45801628D01*
X65814834Y-45932543D01*
X65794353Y-46074999D01*
X65814834Y-46217456D01*
X65842149Y-46277266D01*
X65874623Y-46348373D01*
X65968872Y-46457143D01*
X66089947Y-46534953D01*
X66089950Y-46534954D01*
X66089949Y-46534954D01*
X66228036Y-46575499D01*
X66228038Y-46575500D01*
X66228039Y-46575500D01*
X66371962Y-46575500D01*
X66371962Y-46575499D01*
X66510053Y-46534953D01*
X66631128Y-46457143D01*
X66725377Y-46348373D01*
X66785165Y-46217457D01*
X66805647Y-46075000D01*
X66785165Y-45932543D01*
X66725377Y-45801627D01*
X66702304Y-45774999D01*
X67119353Y-45774999D01*
X67139834Y-45917456D01*
X67184031Y-46014232D01*
X67199623Y-46048373D01*
X67293872Y-46157143D01*
X67414947Y-46234953D01*
X67414950Y-46234954D01*
X67414949Y-46234954D01*
X67553036Y-46275499D01*
X67553038Y-46275500D01*
X67553039Y-46275500D01*
X67696962Y-46275500D01*
X67696962Y-46275499D01*
X67835053Y-46234953D01*
X67956128Y-46157143D01*
X68050377Y-46048373D01*
X68110165Y-45917457D01*
X68130647Y-45775000D01*
X68110165Y-45632543D01*
X68050377Y-45501627D01*
X67956128Y-45392857D01*
X67835053Y-45315047D01*
X67835051Y-45315046D01*
X67835049Y-45315045D01*
X67835050Y-45315045D01*
X67696963Y-45274500D01*
X67696961Y-45274500D01*
X67553039Y-45274500D01*
X67553036Y-45274500D01*
X67414949Y-45315045D01*
X67293873Y-45392856D01*
X67199623Y-45501626D01*
X67199622Y-45501628D01*
X67139834Y-45632543D01*
X67119353Y-45774999D01*
X66702304Y-45774999D01*
X66631128Y-45692857D01*
X66631125Y-45692855D01*
X66631126Y-45692855D01*
X66565268Y-45650531D01*
X66519514Y-45597727D01*
X66509570Y-45528569D01*
X66538595Y-45465013D01*
X66565265Y-45441903D01*
X66606128Y-45415643D01*
X66700377Y-45306873D01*
X66760165Y-45175957D01*
X66780647Y-45033500D01*
X66760165Y-44891043D01*
X66700377Y-44760127D01*
X66606128Y-44651357D01*
X66485053Y-44573547D01*
X66485051Y-44573546D01*
X66485049Y-44573545D01*
X66485050Y-44573545D01*
X66346963Y-44533000D01*
X66346961Y-44533000D01*
X66203039Y-44533000D01*
X66203036Y-44533000D01*
X66064949Y-44573545D01*
X65943873Y-44651356D01*
X65849623Y-44760126D01*
X65849622Y-44760128D01*
X65789834Y-44891043D01*
X65769353Y-45033499D01*
X62550000Y-45033499D01*
X62550000Y-42974999D01*
X65794353Y-42974999D01*
X65814834Y-43117456D01*
X65832959Y-43157143D01*
X65874623Y-43248373D01*
X65968872Y-43357143D01*
X66089947Y-43434953D01*
X66089950Y-43434954D01*
X66089949Y-43434954D01*
X66228036Y-43475499D01*
X66228038Y-43475500D01*
X66228039Y-43475500D01*
X66371962Y-43475500D01*
X66371962Y-43475499D01*
X66510053Y-43434953D01*
X66631128Y-43357143D01*
X66725377Y-43248373D01*
X66785165Y-43117457D01*
X66805647Y-42975000D01*
X66785165Y-42832543D01*
X66758885Y-42774999D01*
X68819353Y-42774999D01*
X68839834Y-42917456D01*
X68899622Y-43048371D01*
X68899623Y-43048373D01*
X68993872Y-43157143D01*
X69022879Y-43175785D01*
X69068632Y-43228586D01*
X69078577Y-43297744D01*
X69049553Y-43361300D01*
X69049552Y-43361301D01*
X68949625Y-43476622D01*
X68949622Y-43476628D01*
X68889834Y-43607543D01*
X68869353Y-43750000D01*
X68889834Y-43892456D01*
X68949622Y-44023371D01*
X68949623Y-44023373D01*
X69043872Y-44132143D01*
X69164947Y-44209953D01*
X69164950Y-44209954D01*
X69164949Y-44209954D01*
X69303036Y-44250499D01*
X69303038Y-44250500D01*
X69303039Y-44250500D01*
X69446962Y-44250500D01*
X69446962Y-44250499D01*
X69585053Y-44209953D01*
X69706128Y-44132143D01*
X69800377Y-44023373D01*
X69860165Y-43892457D01*
X69880647Y-43750000D01*
X69860165Y-43607543D01*
X69800377Y-43476627D01*
X69706128Y-43367857D01*
X69706125Y-43367855D01*
X69706126Y-43367855D01*
X69677121Y-43349215D01*
X69631367Y-43296411D01*
X69621423Y-43227253D01*
X69650448Y-43163697D01*
X69656125Y-43157144D01*
X69656128Y-43157143D01*
X69750377Y-43048373D01*
X69810165Y-42917457D01*
X69830647Y-42775000D01*
X69810165Y-42632543D01*
X69750377Y-42501627D01*
X69656128Y-42392857D01*
X69535053Y-42315047D01*
X69535051Y-42315046D01*
X69535049Y-42315045D01*
X69535050Y-42315045D01*
X69396963Y-42274500D01*
X69396961Y-42274500D01*
X69253039Y-42274500D01*
X69253036Y-42274500D01*
X69114949Y-42315045D01*
X68993873Y-42392856D01*
X68899623Y-42501626D01*
X68899622Y-42501628D01*
X68839834Y-42632543D01*
X68819353Y-42774999D01*
X66758885Y-42774999D01*
X66725377Y-42701627D01*
X66631128Y-42592857D01*
X66510053Y-42515047D01*
X66510051Y-42515046D01*
X66510049Y-42515045D01*
X66510050Y-42515045D01*
X66371963Y-42474500D01*
X66371961Y-42474500D01*
X66228039Y-42474500D01*
X66228036Y-42474500D01*
X66089949Y-42515045D01*
X65968873Y-42592856D01*
X65874623Y-42701626D01*
X65874622Y-42701628D01*
X65814834Y-42832543D01*
X65794353Y-42974999D01*
X62550000Y-42974999D01*
X62550000Y-42123999D01*
X62569685Y-42056961D01*
X62622489Y-42011206D01*
X62674000Y-42000000D01*
X79550000Y-42000000D01*
X79550000Y-34124000D01*
X79569685Y-34056961D01*
X79622489Y-34011206D01*
X79674000Y-34000000D01*
X80426000Y-34000000D01*
X80493039Y-34019685D01*
G37*
%TD.AperFunction*%
%TD*%
%TA.AperFunction,Conductor*%
%TO.N,VBUS*%
G36*
X57021904Y-52429685D02*
G01*
X57067659Y-52482489D01*
X57077603Y-52551647D01*
X57071906Y-52574956D01*
X57064632Y-52595740D01*
X57064630Y-52595750D01*
X57044435Y-52774996D01*
X57044435Y-52775003D01*
X57064630Y-52954249D01*
X57064631Y-52954254D01*
X57124211Y-53124523D01*
X57220184Y-53277262D01*
X57300681Y-53357759D01*
X57334166Y-53419082D01*
X57336999Y-53445440D01*
X57337000Y-60411000D01*
X61726430Y-60411000D01*
X61792402Y-60430007D01*
X61825470Y-60450785D01*
X61825475Y-60450787D01*
X61825478Y-60450789D01*
X61825481Y-60450790D01*
X61995737Y-60510366D01*
X61995743Y-60510367D01*
X61995745Y-60510368D01*
X61995746Y-60510368D01*
X61995750Y-60510369D01*
X62174996Y-60530565D01*
X62175000Y-60530565D01*
X62175004Y-60530565D01*
X62354249Y-60510369D01*
X62354251Y-60510368D01*
X62354255Y-60510368D01*
X62354258Y-60510366D01*
X62354262Y-60510366D01*
X62470146Y-60469816D01*
X62504508Y-60457791D01*
X62574286Y-60454229D01*
X62611436Y-60469840D01*
X62700475Y-60525788D01*
X62870745Y-60585368D01*
X62870750Y-60585369D01*
X63049996Y-60605565D01*
X63050000Y-60605565D01*
X63050004Y-60605565D01*
X63229249Y-60585369D01*
X63229252Y-60585368D01*
X63229255Y-60585368D01*
X63399522Y-60525789D01*
X63551960Y-60430005D01*
X63617931Y-60411000D01*
X85173062Y-60411000D01*
X85240101Y-60430685D01*
X85260743Y-60447319D01*
X85277000Y-60463576D01*
X85277000Y-62824000D01*
X55429000Y-62824000D01*
X55361961Y-62804315D01*
X55316206Y-62751511D01*
X55305000Y-62700000D01*
X55305000Y-53707420D01*
X55306691Y-53687011D01*
X55311500Y-53658191D01*
X55311500Y-53417807D01*
X55306691Y-53388988D01*
X55305000Y-53368579D01*
X55305000Y-52534000D01*
X55324685Y-52466961D01*
X55377489Y-52421206D01*
X55429000Y-52410000D01*
X56954865Y-52410000D01*
X57021904Y-52429685D01*
G37*
%TD.AperFunction*%
%TD*%
%TA.AperFunction,Conductor*%
%TO.N,VBUS*%
G36*
X98945677Y-57849685D02*
G01*
X98966319Y-57866319D01*
X98973681Y-57873681D01*
X99007166Y-57935004D01*
X99010000Y-57961362D01*
X99010000Y-58626000D01*
X98990315Y-58693039D01*
X98937511Y-58738794D01*
X98886000Y-58750000D01*
X98410000Y-58750000D01*
X98410000Y-59664498D01*
X98302315Y-59615320D01*
X98195763Y-59600000D01*
X98124237Y-59600000D01*
X98017685Y-59615320D01*
X97910000Y-59664498D01*
X97910000Y-58750000D01*
X97262155Y-58750000D01*
X97202627Y-58756401D01*
X97202620Y-58756403D01*
X97067913Y-58806645D01*
X97067906Y-58806649D01*
X96952812Y-58892809D01*
X96952809Y-58892812D01*
X96866649Y-59007906D01*
X96866645Y-59007913D01*
X96816403Y-59142620D01*
X96816401Y-59142627D01*
X96810000Y-59202155D01*
X96810000Y-59850000D01*
X97726314Y-59850000D01*
X97700507Y-59890156D01*
X97660000Y-60028111D01*
X97660000Y-60171889D01*
X97700507Y-60309844D01*
X97726314Y-60350000D01*
X96810000Y-60350000D01*
X96810000Y-60997844D01*
X96816401Y-61057372D01*
X96816403Y-61057379D01*
X96866645Y-61192086D01*
X96866649Y-61192093D01*
X96903777Y-61241689D01*
X96928195Y-61307153D01*
X96913344Y-61375426D01*
X96863939Y-61424832D01*
X96804511Y-61440000D01*
X86540000Y-61440000D01*
X86540000Y-62700000D01*
X86520315Y-62767039D01*
X86467511Y-62812794D01*
X86416000Y-62824000D01*
X85277000Y-62824000D01*
X85277000Y-60411000D01*
X95750000Y-60411000D01*
X95749999Y-57953999D01*
X95769685Y-57886961D01*
X95822489Y-57841206D01*
X95874000Y-57830000D01*
X98878638Y-57830000D01*
X98945677Y-57849685D01*
G37*
%TD.AperFunction*%
%TD*%
%TA.AperFunction,Conductor*%
%TO.N,+5V*%
G36*
X104893039Y-57869685D02*
G01*
X104938794Y-57922489D01*
X104950000Y-57974000D01*
X104950000Y-65800000D01*
X125365693Y-65800000D01*
X125372684Y-65800500D01*
X125378039Y-65800500D01*
X125527316Y-65800500D01*
X125534307Y-65800000D01*
X150026000Y-65800000D01*
X150093039Y-65819685D01*
X150138794Y-65872489D01*
X150150000Y-65924000D01*
X150150000Y-67776000D01*
X150130315Y-67843039D01*
X150077511Y-67888794D01*
X150026000Y-67900000D01*
X102674000Y-67900000D01*
X102606961Y-67880315D01*
X102561206Y-67827511D01*
X102550000Y-67776000D01*
X102550000Y-61300000D01*
X101708550Y-61300000D01*
X101641511Y-61280315D01*
X101595756Y-61227511D01*
X101585812Y-61158353D01*
X101614837Y-61094797D01*
X101620869Y-61088319D01*
X101738105Y-60971082D01*
X101873600Y-60777578D01*
X101973429Y-60563492D01*
X101973432Y-60563486D01*
X102030636Y-60350000D01*
X101133686Y-60350000D01*
X101159493Y-60309844D01*
X101200000Y-60171889D01*
X101200000Y-60028111D01*
X101159493Y-59890156D01*
X101133686Y-59850000D01*
X102030636Y-59850000D01*
X102030635Y-59849999D01*
X101973432Y-59636513D01*
X101973429Y-59636507D01*
X101873600Y-59422422D01*
X101873599Y-59422420D01*
X101738113Y-59228926D01*
X101738108Y-59228920D01*
X101571082Y-59061894D01*
X101377578Y-58926399D01*
X101163492Y-58826570D01*
X101163486Y-58826567D01*
X100950000Y-58769364D01*
X100950000Y-59664498D01*
X100842315Y-59615320D01*
X100735763Y-59600000D01*
X100664237Y-59600000D01*
X100557685Y-59615320D01*
X100450000Y-59664498D01*
X100450000Y-58769364D01*
X100449999Y-58769364D01*
X100236513Y-58826567D01*
X100236507Y-58826570D01*
X100022422Y-58926399D01*
X100022420Y-58926400D01*
X99945123Y-58980524D01*
X99878916Y-59002852D01*
X99811149Y-58985840D01*
X99763337Y-58934892D01*
X99750000Y-58878949D01*
X99750000Y-57974000D01*
X99769685Y-57906961D01*
X99822489Y-57861206D01*
X99874000Y-57850000D01*
X104826000Y-57850000D01*
X104893039Y-57869685D01*
G37*
%TD.AperFunction*%
%TD*%
M02*
