%TF.GenerationSoftware,KiCad,Pcbnew,7.0.6-7.0.6~ubuntu20.04.1*%
%TF.CreationDate,2023-10-29T13:00:39+01:00*%
%TF.ProjectId,amurNutzlast,616d7572-4e75-4747-9a6c-6173742e6b69,rev?*%
%TF.SameCoordinates,Original*%
%TF.FileFunction,Copper,L1,Top*%
%TF.FilePolarity,Positive*%
%FSLAX46Y46*%
G04 Gerber Fmt 4.6, Leading zero omitted, Abs format (unit mm)*
G04 Created by KiCad (PCBNEW 7.0.6-7.0.6~ubuntu20.04.1) date 2023-10-29 13:00:39*
%MOMM*%
%LPD*%
G01*
G04 APERTURE LIST*
G04 Aperture macros list*
%AMRoundRect*
0 Rectangle with rounded corners*
0 $1 Rounding radius*
0 $2 $3 $4 $5 $6 $7 $8 $9 X,Y pos of 4 corners*
0 Add a 4 corners polygon primitive as box body*
4,1,4,$2,$3,$4,$5,$6,$7,$8,$9,$2,$3,0*
0 Add four circle primitives for the rounded corners*
1,1,$1+$1,$2,$3*
1,1,$1+$1,$4,$5*
1,1,$1+$1,$6,$7*
1,1,$1+$1,$8,$9*
0 Add four rect primitives between the rounded corners*
20,1,$1+$1,$2,$3,$4,$5,0*
20,1,$1+$1,$4,$5,$6,$7,0*
20,1,$1+$1,$6,$7,$8,$9,0*
20,1,$1+$1,$8,$9,$2,$3,0*%
%AMRotRect*
0 Rectangle, with rotation*
0 The origin of the aperture is its center*
0 $1 length*
0 $2 width*
0 $3 Rotation angle, in degrees counterclockwise*
0 Add horizontal line*
21,1,$1,$2,0,0,$3*%
G04 Aperture macros list end*
%TA.AperFunction,ComponentPad*%
%ADD10R,1.700000X1.700000*%
%TD*%
%TA.AperFunction,ComponentPad*%
%ADD11O,1.700000X1.700000*%
%TD*%
%TA.AperFunction,SMDPad,CuDef*%
%ADD12R,2.000000X1.500000*%
%TD*%
%TA.AperFunction,SMDPad,CuDef*%
%ADD13R,2.000000X3.800000*%
%TD*%
%TA.AperFunction,SMDPad,CuDef*%
%ADD14RoundRect,0.225000X-0.225000X-0.250000X0.225000X-0.250000X0.225000X0.250000X-0.225000X0.250000X0*%
%TD*%
%TA.AperFunction,SMDPad,CuDef*%
%ADD15RoundRect,0.200000X-0.275000X0.200000X-0.275000X-0.200000X0.275000X-0.200000X0.275000X0.200000X0*%
%TD*%
%TA.AperFunction,SMDPad,CuDef*%
%ADD16RoundRect,0.075000X-0.700000X-0.075000X0.700000X-0.075000X0.700000X0.075000X-0.700000X0.075000X0*%
%TD*%
%TA.AperFunction,SMDPad,CuDef*%
%ADD17RoundRect,0.075000X-0.075000X-0.700000X0.075000X-0.700000X0.075000X0.700000X-0.075000X0.700000X0*%
%TD*%
%TA.AperFunction,SMDPad,CuDef*%
%ADD18RoundRect,0.218750X0.218750X0.256250X-0.218750X0.256250X-0.218750X-0.256250X0.218750X-0.256250X0*%
%TD*%
%TA.AperFunction,SMDPad,CuDef*%
%ADD19C,2.500000*%
%TD*%
%TA.AperFunction,SMDPad,CuDef*%
%ADD20RoundRect,0.150000X-0.650000X-0.150000X0.650000X-0.150000X0.650000X0.150000X-0.650000X0.150000X0*%
%TD*%
%TA.AperFunction,SMDPad,CuDef*%
%ADD21RoundRect,0.075000X-0.521491X0.415425X0.415425X-0.521491X0.521491X-0.415425X-0.415425X0.521491X0*%
%TD*%
%TA.AperFunction,SMDPad,CuDef*%
%ADD22RoundRect,0.075000X-0.521491X-0.415425X-0.415425X-0.521491X0.521491X0.415425X0.415425X0.521491X0*%
%TD*%
%TA.AperFunction,SMDPad,CuDef*%
%ADD23RoundRect,0.200000X-0.200000X-0.275000X0.200000X-0.275000X0.200000X0.275000X-0.200000X0.275000X0*%
%TD*%
%TA.AperFunction,SMDPad,CuDef*%
%ADD24R,1.400000X1.200000*%
%TD*%
%TA.AperFunction,SMDPad,CuDef*%
%ADD25RoundRect,0.100000X-0.100000X0.637500X-0.100000X-0.637500X0.100000X-0.637500X0.100000X0.637500X0*%
%TD*%
%TA.AperFunction,SMDPad,CuDef*%
%ADD26R,3.860000X2.740000*%
%TD*%
%TA.AperFunction,SMDPad,CuDef*%
%ADD27RoundRect,0.200000X0.275000X-0.200000X0.275000X0.200000X-0.275000X0.200000X-0.275000X-0.200000X0*%
%TD*%
%TA.AperFunction,SMDPad,CuDef*%
%ADD28RoundRect,0.200000X0.200000X0.275000X-0.200000X0.275000X-0.200000X-0.275000X0.200000X-0.275000X0*%
%TD*%
%TA.AperFunction,SMDPad,CuDef*%
%ADD29RotRect,1.800000X2.000000X315.000000*%
%TD*%
%TA.AperFunction,SMDPad,CuDef*%
%ADD30RoundRect,0.225000X0.225000X0.250000X-0.225000X0.250000X-0.225000X-0.250000X0.225000X-0.250000X0*%
%TD*%
%TA.AperFunction,SMDPad,CuDef*%
%ADD31RoundRect,0.225000X-0.250000X0.225000X-0.250000X-0.225000X0.250000X-0.225000X0.250000X0.225000X0*%
%TD*%
%TA.AperFunction,SMDPad,CuDef*%
%ADD32R,2.500000X1.100000*%
%TD*%
%TA.AperFunction,ComponentPad*%
%ADD33O,3.500000X1.900000*%
%TD*%
%TA.AperFunction,SMDPad,CuDef*%
%ADD34RoundRect,0.150000X-0.825000X-0.150000X0.825000X-0.150000X0.825000X0.150000X-0.825000X0.150000X0*%
%TD*%
%TA.AperFunction,ViaPad*%
%ADD35C,0.600000*%
%TD*%
%TA.AperFunction,ViaPad*%
%ADD36C,0.800000*%
%TD*%
%TA.AperFunction,Conductor*%
%ADD37C,0.250000*%
%TD*%
%TA.AperFunction,Conductor*%
%ADD38C,1.000000*%
%TD*%
%TA.AperFunction,Conductor*%
%ADD39C,1.100000*%
%TD*%
%TA.AperFunction,Conductor*%
%ADD40C,0.200000*%
%TD*%
G04 APERTURE END LIST*
D10*
%TO.P,J7,1,Pin_1*%
%TO.N,/fpga/FTDI_DCD*%
X98275000Y-34980000D03*
D11*
%TO.P,J7,2,Pin_2*%
%TO.N,/fpga/FTDI_DSR*%
X98275000Y-37520000D03*
%TO.P,J7,3,Pin_3*%
%TO.N,/fpga/FTDI_DTR*%
X98275000Y-40060000D03*
%TO.P,J7,4,Pin_4*%
%TO.N,/fpga/FTDI_CTS*%
X98275000Y-42600000D03*
%TO.P,J7,5,Pin_5*%
%TO.N,/fpga/FTDI_RTS*%
X98275000Y-45140000D03*
%TO.P,J7,6,Pin_6*%
%TO.N,/fpga/FTDI_TX*%
X98275000Y-47680000D03*
%TO.P,J7,7,Pin_7*%
%TO.N,/fpga/FTDI_RX*%
X98275000Y-50220000D03*
%TD*%
D12*
%TO.P,U7,1,GND*%
%TO.N,GND1*%
X84286000Y-54936000D03*
%TO.P,U7,2,VO*%
%TO.N,+3.3VP*%
X84286000Y-57236000D03*
D13*
X90586000Y-57236000D03*
D12*
%TO.P,U7,3,VI*%
%TO.N,VBUS*%
X84286000Y-59536000D03*
%TD*%
D14*
%TO.P,C20,1*%
%TO.N,/power_management/out_1.2v*%
X150575000Y-56800000D03*
%TO.P,C20,2*%
%TO.N,Net-(U2-BYP2)*%
X152125000Y-56800000D03*
%TD*%
D15*
%TO.P,R13,1*%
%TO.N,Net-(U2-ADJ1)*%
X159350000Y-59975000D03*
%TO.P,R13,2*%
%TO.N,GND*%
X159350000Y-61625000D03*
%TD*%
D16*
%TO.P,U4,1,GND*%
%TO.N,GND1*%
X61695000Y-43326000D03*
%TO.P,U4,2,OSCI*%
%TO.N,Net-(U4-OSCI)*%
X61695000Y-43826000D03*
%TO.P,U4,3,OSCO*%
%TO.N,Net-(U4-OSCO)*%
X61695000Y-44326000D03*
%TO.P,U4,4,VPHY*%
%TO.N,+3.3VP*%
X61695000Y-44826000D03*
%TO.P,U4,5,GND*%
%TO.N,GND1*%
X61695000Y-45326000D03*
%TO.P,U4,6,REF*%
%TO.N,Net-(U4-REF)*%
X61695000Y-45826000D03*
%TO.P,U4,7,DM*%
%TO.N,/usb/-*%
X61695000Y-46326000D03*
%TO.P,U4,8,DP*%
%TO.N,/usb/+*%
X61695000Y-46826000D03*
%TO.P,U4,9,VPLL*%
%TO.N,+3.3VP*%
X61695000Y-47326000D03*
%TO.P,U4,10,AGND*%
%TO.N,GND1*%
X61695000Y-47826000D03*
%TO.P,U4,11,GND*%
X61695000Y-48326000D03*
%TO.P,U4,12,VCORE*%
%TO.N,+1V8*%
X61695000Y-48826000D03*
%TO.P,U4,13,TEST*%
%TO.N,GND1*%
X61695000Y-49326000D03*
%TO.P,U4,14,~{RESET}*%
%TO.N,Net-(U4-~{RESET})*%
X61695000Y-49826000D03*
%TO.P,U4,15,GND*%
%TO.N,GND1*%
X61695000Y-50326000D03*
%TO.P,U4,16,ADBUS0*%
%TO.N,/ftdi/ICE_CLK*%
X61695000Y-50826000D03*
D17*
%TO.P,U4,17,ADBUS1*%
%TO.N,/ftdi/ICE_MOSI*%
X63620000Y-52751000D03*
%TO.P,U4,18,ADBUS2*%
%TO.N,/ftdi/ICE_MISO*%
X64120000Y-52751000D03*
%TO.P,U4,19,ADBUS3*%
%TO.N,unconnected-(U4-ADBUS3-Pad19)*%
X64620000Y-52751000D03*
%TO.P,U4,20,VCCIO*%
%TO.N,+3.3VP*%
X65120000Y-52751000D03*
%TO.P,U4,21,ADBUS4*%
%TO.N,/ftdi/ICE_SS*%
X65620000Y-52751000D03*
%TO.P,U4,22,ADBUS5*%
%TO.N,unconnected-(U4-ADBUS5-Pad22)*%
X66120000Y-52751000D03*
%TO.P,U4,23,ADBUS6*%
%TO.N,/ftdi/ICE_CDONE*%
X66620000Y-52751000D03*
%TO.P,U4,24,ADBUS7*%
%TO.N,/ftdi/ICE_CREST*%
X67120000Y-52751000D03*
%TO.P,U4,25,GND*%
%TO.N,GND1*%
X67620000Y-52751000D03*
%TO.P,U4,26,ACBUS0*%
%TO.N,unconnected-(U4-ACBUS0-Pad26)*%
X68120000Y-52751000D03*
%TO.P,U4,27,ACBUS1*%
%TO.N,unconnected-(U4-ACBUS1-Pad27)*%
X68620000Y-52751000D03*
%TO.P,U4,28,ACBUS2*%
%TO.N,unconnected-(U4-ACBUS2-Pad28)*%
X69120000Y-52751000D03*
%TO.P,U4,29,ACBUS3*%
%TO.N,unconnected-(U4-ACBUS3-Pad29)*%
X69620000Y-52751000D03*
%TO.P,U4,30,ACBUS4*%
%TO.N,unconnected-(U4-ACBUS4-Pad30)*%
X70120000Y-52751000D03*
%TO.P,U4,31,VCCIO*%
%TO.N,+3.3VP*%
X70620000Y-52751000D03*
%TO.P,U4,32,ACBUS5*%
%TO.N,unconnected-(U4-ACBUS5-Pad32)*%
X71120000Y-52751000D03*
D16*
%TO.P,U4,33,ACBUS6*%
%TO.N,unconnected-(U4-ACBUS6-Pad33)*%
X73045000Y-50826000D03*
%TO.P,U4,34,ACBUS7*%
%TO.N,unconnected-(U4-ACBUS7-Pad34)*%
X73045000Y-50326000D03*
%TO.P,U4,35,GND*%
%TO.N,GND1*%
X73045000Y-49826000D03*
%TO.P,U4,36,~{SUSPEND}*%
%TO.N,unconnected-(U4-~{SUSPEND}-Pad36)*%
X73045000Y-49326000D03*
%TO.P,U4,37,VCORE*%
%TO.N,+1V8*%
X73045000Y-48826000D03*
%TO.P,U4,38,BDBUS0*%
%TO.N,/ftdi/RX*%
X73045000Y-48326000D03*
%TO.P,U4,39,BDBUS1*%
%TO.N,/ftdi/TX*%
X73045000Y-47826000D03*
%TO.P,U4,40,BDBUS2*%
%TO.N,/ftdi/RTS*%
X73045000Y-47326000D03*
%TO.P,U4,41,BDBUS3*%
%TO.N,/ftdi/CTS*%
X73045000Y-46826000D03*
%TO.P,U4,42,VCCIO*%
%TO.N,+3.3VP*%
X73045000Y-46326000D03*
%TO.P,U4,43,BDBUS4*%
%TO.N,/ftdi/DTR*%
X73045000Y-45826000D03*
%TO.P,U4,44,BDBUS5*%
%TO.N,/ftdi/DSR*%
X73045000Y-45326000D03*
%TO.P,U4,45,BDBUS6*%
%TO.N,/ftdi/DCD*%
X73045000Y-44826000D03*
%TO.P,U4,46,BDBUS7*%
%TO.N,unconnected-(U4-BDBUS7-Pad46)*%
X73045000Y-44326000D03*
%TO.P,U4,47,GND*%
%TO.N,GND1*%
X73045000Y-43826000D03*
%TO.P,U4,48,BCBUS0*%
%TO.N,unconnected-(U4-BCBUS0-Pad48)*%
X73045000Y-43326000D03*
D17*
%TO.P,U4,49,VREGOUT*%
%TO.N,+1V8*%
X71120000Y-41401000D03*
%TO.P,U4,50,VREGIN*%
%TO.N,+3.3VP*%
X70620000Y-41401000D03*
%TO.P,U4,51,GND*%
%TO.N,GND1*%
X70120000Y-41401000D03*
%TO.P,U4,52,BCBUS1*%
%TO.N,unconnected-(U4-BCBUS1-Pad52)*%
X69620000Y-41401000D03*
%TO.P,U4,53,BCBUS2*%
%TO.N,unconnected-(U4-BCBUS2-Pad53)*%
X69120000Y-41401000D03*
%TO.P,U4,54,BCBUS3*%
%TO.N,unconnected-(U4-BCBUS3-Pad54)*%
X68620000Y-41401000D03*
%TO.P,U4,55,BCBUS4*%
%TO.N,unconnected-(U4-BCBUS4-Pad55)*%
X68120000Y-41401000D03*
%TO.P,U4,56,VCCIO*%
%TO.N,+3.3VP*%
X67620000Y-41401000D03*
%TO.P,U4,57,BCBUS5*%
%TO.N,unconnected-(U4-BCBUS5-Pad57)*%
X67120000Y-41401000D03*
%TO.P,U4,58,BCBUS6*%
%TO.N,unconnected-(U4-BCBUS6-Pad58)*%
X66620000Y-41401000D03*
%TO.P,U4,59,BCBUS7*%
%TO.N,unconnected-(U4-BCBUS7-Pad59)*%
X66120000Y-41401000D03*
%TO.P,U4,60,~{PWREN}*%
%TO.N,unconnected-(U4-~{PWREN}-Pad60)*%
X65620000Y-41401000D03*
%TO.P,U4,61,EEDATA*%
%TO.N,Net-(U4-EEDATA)*%
X65120000Y-41401000D03*
%TO.P,U4,62,EECLK*%
%TO.N,Net-(U4-EECLK)*%
X64620000Y-41401000D03*
%TO.P,U4,63,EECS*%
%TO.N,/ftdi/CS_FTDI*%
X64120000Y-41401000D03*
%TO.P,U4,64,VCORE*%
%TO.N,+1V8*%
X63620000Y-41401000D03*
%TD*%
D18*
%TO.P,D2,1,K*%
%TO.N,Net-(D2-K)*%
X138637500Y-32200000D03*
%TO.P,D2,2,A*%
%TO.N,Net-(D2-A)*%
X137062500Y-32200000D03*
%TD*%
D19*
%TO.P,TP3,1,1*%
%TO.N,GND*%
X171950000Y-65800000D03*
%TD*%
D15*
%TO.P,R11,1*%
%TO.N,/power_management/out_1.2v*%
X150550000Y-58275000D03*
%TO.P,R11,2*%
%TO.N,GND*%
X150550000Y-59925000D03*
%TD*%
D19*
%TO.P,TP1,1,1*%
%TO.N,+3.3V*%
X168050000Y-65700000D03*
%TD*%
D18*
%TO.P,D3,1,K*%
%TO.N,Net-(D3-K)*%
X145037500Y-32200000D03*
%TO.P,D3,2,A*%
%TO.N,Net-(D3-A)*%
X143462500Y-32200000D03*
%TD*%
D20*
%TO.P,U6,1,~{CS}*%
%TO.N,/SS*%
X106550000Y-58095000D03*
%TO.P,U6,2,DO(IO1)*%
%TO.N,/MISO*%
X106550000Y-59365000D03*
%TO.P,U6,3,IO2*%
%TO.N,Net-(U6-IO2)*%
X106550000Y-60635000D03*
%TO.P,U6,4,GND*%
%TO.N,GND*%
X106550000Y-61905000D03*
%TO.P,U6,5,DI(IO0)*%
%TO.N,/MOSI*%
X113750000Y-61905000D03*
%TO.P,U6,6,CLK*%
%TO.N,/SCL*%
X113750000Y-60635000D03*
%TO.P,U6,7,IO3*%
%TO.N,Net-(U6-IO3)*%
X113750000Y-59365000D03*
%TO.P,U6,8,VCC*%
%TO.N,+3.3V*%
X113750000Y-58095000D03*
%TD*%
D21*
%TO.P,U1,1,IOL_1A*%
%TO.N,/fpga/FTDI_DCD*%
X126897658Y-35073290D03*
%TO.P,U1,2,IOL_1B*%
%TO.N,/fpga/FTDI_DSR*%
X126544105Y-35426843D03*
%TO.P,U1,3,IOL_2A*%
%TO.N,/fpga/FTDI_DTR*%
X126190551Y-35780396D03*
%TO.P,U1,4,IOL_2B*%
%TO.N,/fpga/FTDI_CTS*%
X125836998Y-36133950D03*
%TO.P,U1,5,GND*%
%TO.N,GND*%
X125483445Y-36487503D03*
%TO.P,U1,6,VCCIO_3*%
%TO.N,+3.3V*%
X125129891Y-36841057D03*
%TO.P,U1,7,IOL_3A*%
%TO.N,/fpga/FTDI_RTS*%
X124776338Y-37194610D03*
%TO.P,U1,8,IOL_3B*%
%TO.N,/fpga/FTDI_TX*%
X124422785Y-37548163D03*
%TO.P,U1,9,IOL_4A*%
%TO.N,/fpga/FTDI_RX*%
X124069231Y-37901717D03*
%TO.P,U1,10,IOL_4B*%
%TO.N,unconnected-(U1D-IOL_4B-Pad10)*%
X123715678Y-38255270D03*
%TO.P,U1,11,IOL_5A*%
%TO.N,unconnected-(U1D-IOL_5A-Pad11)*%
X123362124Y-38608824D03*
%TO.P,U1,12,IOL_5B*%
%TO.N,unconnected-(U1D-IOL_5B-Pad12)*%
X123008571Y-38962377D03*
%TO.P,U1,13,GND*%
%TO.N,GND*%
X122655018Y-39315930D03*
%TO.P,U1,14,GND*%
X122301464Y-39669484D03*
%TO.P,U1,15,NC*%
%TO.N,unconnected-(U1A-NC-Pad15)*%
X121947911Y-40023037D03*
%TO.P,U1,16,NC*%
%TO.N,unconnected-(U1A-NC-Pad16)*%
X121594357Y-40376590D03*
%TO.P,U1,17,NC*%
%TO.N,unconnected-(U1A-NC-Pad17)*%
X121240804Y-40730144D03*
%TO.P,U1,18,NC*%
%TO.N,unconnected-(U1A-NC-Pad18)*%
X120887251Y-41083697D03*
%TO.P,U1,19,IOL_6A*%
%TO.N,unconnected-(U1D-IOL_6A-Pad19)*%
X120533697Y-41437251D03*
%TO.P,U1,20,IOL_6B_GBIN7*%
%TO.N,unconnected-(U1D-IOL_6B_GBIN7-Pad20)*%
X120180144Y-41790804D03*
%TO.P,U1,21,IOL_7A_GBIN6*%
%TO.N,/ICE_CLK*%
X119826590Y-42144357D03*
%TO.P,U1,22,IOL_7B*%
%TO.N,unconnected-(U1D-IOL_7B-Pad22)*%
X119473037Y-42497911D03*
%TO.P,U1,23,IOL_8A*%
%TO.N,unconnected-(U1D-IOL_8A-Pad23)*%
X119119484Y-42851464D03*
%TO.P,U1,24,IOL_8B*%
%TO.N,unconnected-(U1D-IOL_8B-Pad24)*%
X118765930Y-43205018D03*
%TO.P,U1,25,IOL_9A*%
%TO.N,unconnected-(U1D-IOL_9A-Pad25)*%
X118412377Y-43558571D03*
%TO.P,U1,26,IOL_9B*%
%TO.N,unconnected-(U1D-IOL_9B-Pad26)*%
X118058824Y-43912124D03*
%TO.P,U1,27,VCC*%
%TO.N,+1V2*%
X117705270Y-44265678D03*
%TO.P,U1,28,IOL_10A*%
%TO.N,unconnected-(U1D-IOL_10A-Pad28)*%
X117351717Y-44619231D03*
%TO.P,U1,29,IOL_10B*%
%TO.N,unconnected-(U1D-IOL_10B-Pad29)*%
X116998163Y-44972785D03*
%TO.P,U1,30,VCCIO_3*%
%TO.N,+3.3V*%
X116644610Y-45326338D03*
%TO.P,U1,31,IOL_11A*%
%TO.N,unconnected-(U1D-IOL_11A-Pad31)*%
X116291057Y-45679891D03*
%TO.P,U1,32,IOL_11B*%
%TO.N,unconnected-(U1D-IOL_11B-Pad32)*%
X115937503Y-46033445D03*
%TO.P,U1,33,IOL_12A*%
%TO.N,unconnected-(U1D-IOL_12A-Pad33)*%
X115583950Y-46386998D03*
%TO.P,U1,34,IOL_12B*%
%TO.N,unconnected-(U1D-IOL_12B-Pad34)*%
X115230396Y-46740551D03*
%TO.P,U1,35,GNDPLL*%
%TO.N,GNDD*%
X114876843Y-47094105D03*
%TO.P,U1,36,VCCPLL*%
%TO.N,Net-(U1E-VCCPLL)*%
X114523290Y-47447658D03*
D22*
%TO.P,U1,37,IOB_24*%
%TO.N,unconnected-(U1C-IOB_24-Pad37)*%
X114523290Y-50152342D03*
%TO.P,U1,38,IOB_25*%
%TO.N,unconnected-(U1C-IOB_25-Pad38)*%
X114876843Y-50505895D03*
%TO.P,U1,39,IOB_26*%
%TO.N,unconnected-(U1C-IOB_26-Pad39)*%
X115230396Y-50859449D03*
%TO.P,U1,40,NC*%
%TO.N,unconnected-(U1B-NC-Pad40)*%
X115583950Y-51213002D03*
%TO.P,U1,41,IOB_27*%
%TO.N,unconnected-(U1C-IOB_27-Pad41)*%
X115937503Y-51566555D03*
%TO.P,U1,42,IOB_28*%
%TO.N,unconnected-(U1C-IOB_28-Pad42)*%
X116291057Y-51920109D03*
%TO.P,U1,43,IOB_29*%
%TO.N,unconnected-(U1C-IOB_29-Pad43)*%
X116644610Y-52273662D03*
%TO.P,U1,44,IOB_30*%
%TO.N,unconnected-(U1C-IOB_30-Pad44)*%
X116998163Y-52627215D03*
%TO.P,U1,45,IOB_31*%
%TO.N,unconnected-(U1C-IOB_31-Pad45)*%
X117351717Y-52980769D03*
%TO.P,U1,46,VCCIO_2*%
%TO.N,+3.3V*%
X117705270Y-53334322D03*
%TO.P,U1,47,IOB_32*%
%TO.N,unconnected-(U1C-IOB_32-Pad47)*%
X118058824Y-53687876D03*
%TO.P,U1,48,IOB_33*%
%TO.N,unconnected-(U1C-IOB_33-Pad48)*%
X118412377Y-54041429D03*
%TO.P,U1,49,IOB_35_GBIN5*%
%TO.N,unconnected-(U1C-IOB_35_GBIN5-Pad49)*%
X118765930Y-54394982D03*
%TO.P,U1,50,IOB_36_GBIN4*%
%TO.N,unconnected-(U1C-IOB_36_GBIN4-Pad50)*%
X119119484Y-54748536D03*
%TO.P,U1,51,VCC*%
%TO.N,+1V2*%
X119473037Y-55102089D03*
%TO.P,U1,52,IOB_34*%
%TO.N,unconnected-(U1C-IOB_34-Pad52)*%
X119826590Y-55455643D03*
%TO.P,U1,53,NC*%
%TO.N,unconnected-(U1B-NC-Pad53)*%
X120180144Y-55809196D03*
%TO.P,U1,54,NC*%
%TO.N,unconnected-(U1B-NC-Pad54)*%
X120533697Y-56162749D03*
%TO.P,U1,55,NC*%
%TO.N,unconnected-(U1B-NC-Pad55)*%
X120887251Y-56516303D03*
%TO.P,U1,56,IOB_37*%
%TO.N,unconnected-(U1C-IOB_37-Pad56)*%
X121240804Y-56869856D03*
%TO.P,U1,57,VCCIO_2*%
%TO.N,+3.3V*%
X121594357Y-57223410D03*
%TO.P,U1,58,IOB_38*%
%TO.N,unconnected-(U1C-IOB_38-Pad58)*%
X121947911Y-57576963D03*
%TO.P,U1,59,GND*%
%TO.N,GND*%
X122301464Y-57930516D03*
%TO.P,U1,60,IOB_39*%
%TO.N,unconnected-(U1C-IOB_39-Pad60)*%
X122655018Y-58284070D03*
%TO.P,U1,61,IOB_40*%
%TO.N,unconnected-(U1C-IOB_40-Pad61)*%
X123008571Y-58637623D03*
%TO.P,U1,62,IOB_41*%
%TO.N,unconnected-(U1C-IOB_41-Pad62)*%
X123362124Y-58991176D03*
%TO.P,U1,63,IOB_42_CBSEL0*%
%TO.N,unconnected-(U1C-IOB_42_CBSEL0-Pad63)*%
X123715678Y-59344730D03*
%TO.P,U1,64,IOB_43_CBSEL1*%
%TO.N,unconnected-(U1C-IOB_43_CBSEL1-Pad64)*%
X124069231Y-59698283D03*
%TO.P,U1,65,CDONE*%
%TO.N,/ICE_CDONE*%
X124422785Y-60051837D03*
%TO.P,U1,66,~{CRESET_B}*%
%TO.N,/ICE_CREST*%
X124776338Y-60405390D03*
%TO.P,U1,67,IOB_44_SDO*%
%TO.N,/MOSI*%
X125129891Y-60758943D03*
%TO.P,U1,68,IOB_45_SDI*%
%TO.N,/MISO*%
X125483445Y-61112497D03*
%TO.P,U1,69,GND*%
%TO.N,GND*%
X125836998Y-61466050D03*
%TO.P,U1,70,IOB_46_SCK*%
%TO.N,/SCL*%
X126190551Y-61819604D03*
%TO.P,U1,71,IOB_47_SS*%
%TO.N,/SS*%
X126544105Y-62173157D03*
%TO.P,U1,72,VCC_SPI*%
%TO.N,+3.3V*%
X126897658Y-62526710D03*
D21*
%TO.P,U1,73,IOR_48*%
%TO.N,unconnected-(U1B-IOR_48-Pad73)*%
X129602342Y-62526710D03*
%TO.P,U1,74,IOR_49*%
%TO.N,unconnected-(U1B-IOR_49-Pad74)*%
X129955895Y-62173157D03*
%TO.P,U1,75,IOR_50*%
%TO.N,unconnected-(U1B-IOR_50-Pad75)*%
X130309449Y-61819604D03*
%TO.P,U1,76,IOR_51*%
%TO.N,unconnected-(U1B-IOR_51-Pad76)*%
X130663002Y-61466050D03*
%TO.P,U1,77,NC*%
%TO.N,unconnected-(U1A-NC-Pad77)*%
X131016555Y-61112497D03*
%TO.P,U1,78,IOR_52*%
%TO.N,unconnected-(U1B-IOR_52-Pad78)*%
X131370109Y-60758943D03*
%TO.P,U1,79,IOR_53*%
%TO.N,unconnected-(U1B-IOR_53-Pad79)*%
X131723662Y-60405390D03*
%TO.P,U1,80,IOR_54*%
%TO.N,unconnected-(U1B-IOR_54-Pad80)*%
X132077215Y-60051837D03*
%TO.P,U1,81,IOR_55*%
%TO.N,unconnected-(U1B-IOR_55-Pad81)*%
X132430769Y-59698283D03*
%TO.P,U1,82,NC*%
%TO.N,unconnected-(U1B-NC-Pad82)*%
X132784322Y-59344730D03*
%TO.P,U1,83,NC*%
%TO.N,unconnected-(U1C-NC-Pad83)*%
X133137876Y-58991176D03*
%TO.P,U1,84,NC*%
%TO.N,unconnected-(U1C-NC-Pad84)*%
X133491429Y-58637623D03*
%TO.P,U1,85,NC*%
%TO.N,unconnected-(U1C-NC-Pad85)*%
X133844982Y-58284070D03*
%TO.P,U1,86,GND*%
%TO.N,GND*%
X134198536Y-57930516D03*
%TO.P,U1,87,IOR_56*%
%TO.N,unconnected-(U1B-IOR_56-Pad87)*%
X134552089Y-57576963D03*
%TO.P,U1,88,IOR_57*%
%TO.N,unconnected-(U1B-IOR_57-Pad88)*%
X134905643Y-57223410D03*
%TO.P,U1,89,VCCIO_1*%
%TO.N,+3.3V*%
X135259196Y-56869856D03*
%TO.P,U1,90,IOR_58*%
%TO.N,unconnected-(U1B-IOR_58-Pad90)*%
X135612749Y-56516303D03*
%TO.P,U1,91,IOR_59*%
%TO.N,unconnected-(U1B-IOR_59-Pad91)*%
X135966303Y-56162749D03*
%TO.P,U1,92,VCC*%
%TO.N,+1V2*%
X136319856Y-55809196D03*
%TO.P,U1,93,IOR_60_GBIN3*%
%TO.N,unconnected-(U1B-IOR_60_GBIN3-Pad93)*%
X136673410Y-55455643D03*
%TO.P,U1,94,IOR_61_GBIN2*%
%TO.N,unconnected-(U1B-IOR_61_GBIN2-Pad94)*%
X137026963Y-55102089D03*
%TO.P,U1,95,IOR_62*%
%TO.N,unconnected-(U1B-IOR_62-Pad95)*%
X137380516Y-54748536D03*
%TO.P,U1,96,IOR_63*%
%TO.N,unconnected-(U1B-IOR_63-Pad96)*%
X137734070Y-54394982D03*
%TO.P,U1,97,IOR_64*%
%TO.N,unconnected-(U1B-IOR_64-Pad97)*%
X138087623Y-54041429D03*
%TO.P,U1,98,IOR_65*%
%TO.N,unconnected-(U1B-IOR_65-Pad98)*%
X138441176Y-53687876D03*
%TO.P,U1,99,IOR_66*%
%TO.N,unconnected-(U1B-IOR_66-Pad99)*%
X138794730Y-53334322D03*
%TO.P,U1,100,VCCIO_1*%
%TO.N,+3.3V*%
X139148283Y-52980769D03*
%TO.P,U1,101,IOR_67*%
%TO.N,unconnected-(U1B-IOR_67-Pad101)*%
X139501837Y-52627215D03*
%TO.P,U1,102,IOR_68*%
%TO.N,unconnected-(U1B-IOR_68-Pad102)*%
X139855390Y-52273662D03*
%TO.P,U1,103,GND*%
%TO.N,GND*%
X140208943Y-51920109D03*
%TO.P,U1,104,IOR_69*%
%TO.N,unconnected-(U1B-IOR_69-Pad104)*%
X140562497Y-51566555D03*
%TO.P,U1,105,IOR_70*%
%TO.N,unconnected-(U1B-IOR_70-Pad105)*%
X140916050Y-51213002D03*
%TO.P,U1,106,IOR_71*%
%TO.N,unconnected-(U1B-IOR_71-Pad106)*%
X141269604Y-50859449D03*
%TO.P,U1,107,IOR_72*%
%TO.N,unconnected-(U1B-IOR_72-Pad107)*%
X141623157Y-50505895D03*
%TO.P,U1,108,VPP_2V5*%
%TO.N,Net-(D1-K)*%
X141976710Y-50152342D03*
D22*
%TO.P,U1,109,VPP_FAST*%
%TO.N,unconnected-(U1E-VPP_FAST-Pad109)*%
X141976710Y-47447658D03*
%TO.P,U1,110,NC*%
%TO.N,unconnected-(U1C-NC-Pad110)*%
X141623157Y-47094105D03*
%TO.P,U1,111,VCC*%
%TO.N,+1V2*%
X141269604Y-46740551D03*
%TO.P,U1,112,IOT_73*%
%TO.N,/fpga/PIO1*%
X140916050Y-46386998D03*
%TO.P,U1,113,IOT_74*%
%TO.N,/fpga/PIO2*%
X140562497Y-46033445D03*
%TO.P,U1,114,IOT_75*%
%TO.N,/fpga/PIO3*%
X140208943Y-45679891D03*
%TO.P,U1,115,IOT_76*%
%TO.N,/fpga/PIO4*%
X139855390Y-45326338D03*
%TO.P,U1,116,IOT_77*%
%TO.N,/fpga/PIO5*%
X139501837Y-44972785D03*
%TO.P,U1,117,IOT_78*%
%TO.N,/fpga/PIO6*%
X139148283Y-44619231D03*
%TO.P,U1,118,IOT_79*%
%TO.N,/fpga/PIO7*%
X138794730Y-44265678D03*
%TO.P,U1,119,IOT_80*%
%TO.N,/fpga/PIO8*%
X138441176Y-43912124D03*
%TO.P,U1,120,IOT_81*%
%TO.N,/fpga/PIO9*%
X138087623Y-43558571D03*
%TO.P,U1,121,IOT_82*%
%TO.N,/fpga/PIO10*%
X137734070Y-43205018D03*
%TO.P,U1,122,IOT_83*%
%TO.N,/fpga/PIO11*%
X137380516Y-42851464D03*
%TO.P,U1,123,VCCIO_0*%
%TO.N,+3.3V*%
X137026963Y-42497911D03*
%TO.P,U1,124,NC*%
%TO.N,unconnected-(U1C-NC-Pad124)*%
X136673410Y-42144357D03*
%TO.P,U1,125,NC*%
%TO.N,unconnected-(U1D-NC-Pad125)*%
X136319856Y-41790804D03*
%TO.P,U1,126,NC*%
%TO.N,unconnected-(U1D-NC-Pad126)*%
X135966303Y-41437251D03*
%TO.P,U1,127,NC*%
%TO.N,unconnected-(U1D-NC-Pad127)*%
X135612749Y-41083697D03*
%TO.P,U1,128,IOT_84_GBIN1*%
%TO.N,/fpga/PIO12*%
X135259196Y-40730144D03*
%TO.P,U1,129,IOT_85_GBIN0*%
%TO.N,/fpga/PIO13*%
X134905643Y-40376590D03*
%TO.P,U1,130,NC*%
%TO.N,unconnected-(U1D-NC-Pad130)*%
X134552089Y-40023037D03*
%TO.P,U1,131,NC*%
%TO.N,unconnected-(U1D-NC-Pad131)*%
X134198536Y-39669484D03*
%TO.P,U1,132,GND*%
%TO.N,GND*%
X133844982Y-39315930D03*
%TO.P,U1,133,VCCIO_0*%
%TO.N,+3.3V*%
X133491429Y-38962377D03*
%TO.P,U1,134,IOT_87*%
%TO.N,/fpga/PIO14*%
X133137876Y-38608824D03*
%TO.P,U1,135,IOT_88*%
%TO.N,/fpga/PIO15*%
X132784322Y-38255270D03*
%TO.P,U1,136,IOT_89*%
%TO.N,/fpga/PIO16*%
X132430769Y-37901717D03*
%TO.P,U1,137,IOT_90*%
%TO.N,/fpga/PIO17*%
X132077215Y-37548163D03*
%TO.P,U1,138,IOT_91*%
%TO.N,/fpga/PIO18*%
X131723662Y-37194610D03*
%TO.P,U1,139,IOT_92*%
%TO.N,/fpga/PIO19*%
X131370109Y-36841057D03*
%TO.P,U1,140,GND*%
%TO.N,GND*%
X131016555Y-36487503D03*
%TO.P,U1,141,IOT_93*%
%TO.N,/fpga/PIO20*%
X130663002Y-36133950D03*
%TO.P,U1,142,IOT_94*%
%TO.N,Net-(D4-A)*%
X130309449Y-35780396D03*
%TO.P,U1,143,IOT_95*%
%TO.N,Net-(D3-A)*%
X129955895Y-35426843D03*
%TO.P,U1,144,IOT_96*%
%TO.N,Net-(D2-A)*%
X129602342Y-35073290D03*
%TD*%
D18*
%TO.P,D6,1,K*%
%TO.N,GND1*%
X63712500Y-61173000D03*
%TO.P,D6,2,A*%
%TO.N,Net-(D6-A)*%
X62137500Y-61173000D03*
%TD*%
D10*
%TO.P,J5,1,Pin_1*%
%TO.N,/ftdi/DCD*%
X89595000Y-34879000D03*
D11*
%TO.P,J5,2,Pin_2*%
%TO.N,/ftdi/DSR*%
X89595000Y-37419000D03*
%TO.P,J5,3,Pin_3*%
%TO.N,/ftdi/DTR*%
X89595000Y-39959000D03*
%TO.P,J5,4,Pin_4*%
%TO.N,/ftdi/CTS*%
X89595000Y-42499000D03*
%TO.P,J5,5,Pin_5*%
%TO.N,/ftdi/RTS*%
X89595000Y-45039000D03*
%TO.P,J5,6,Pin_6*%
%TO.N,/ftdi/TX*%
X89595000Y-47579000D03*
%TO.P,J5,7,Pin_7*%
%TO.N,/ftdi/RX*%
X89595000Y-50119000D03*
%TD*%
D10*
%TO.P,J1,1,Pin_1*%
%TO.N,/MISO*%
X98225000Y-56475000D03*
D11*
%TO.P,J1,2,Pin_2*%
%TO.N,/ICE_CDONE*%
X98225000Y-53935000D03*
%TO.P,J1,3,Pin_3*%
%TO.N,/SS*%
X100765000Y-56475000D03*
%TO.P,J1,4,Pin_4*%
%TO.N,/ICE_CREST*%
X100765000Y-53935000D03*
%TO.P,J1,5,Pin_5*%
%TO.N,/MOSI*%
X103305000Y-56475000D03*
%TO.P,J1,6,Pin_6*%
%TO.N,/SCL*%
X103305000Y-53935000D03*
%TD*%
D23*
%TO.P,R14,1*%
%TO.N,GND*%
X154625000Y-53800000D03*
%TO.P,R14,2*%
%TO.N,/power_management/out_3.3v*%
X156275000Y-53800000D03*
%TD*%
D24*
%TO.P,Y1,1,1*%
%TO.N,Net-(U4-OSCI)*%
X61400000Y-37650000D03*
%TO.P,Y1,2,2*%
%TO.N,GND1*%
X59200000Y-37650000D03*
%TO.P,Y1,3,3*%
%TO.N,Net-(U4-OSCO)*%
X59200000Y-39350000D03*
%TO.P,Y1,4,4*%
%TO.N,GND1*%
X61400000Y-39350000D03*
%TD*%
D18*
%TO.P,D4,1,K*%
%TO.N,Net-(D4-K)*%
X151287500Y-32100000D03*
%TO.P,D4,2,A*%
%TO.N,Net-(D4-A)*%
X149712500Y-32100000D03*
%TD*%
D25*
%TO.P,U2,1,ADJ1*%
%TO.N,Net-(U2-ADJ1)*%
X157840000Y-58587500D03*
%TO.P,U2,2,BYP1*%
%TO.N,Net-(U2-BYP1)*%
X157190000Y-58587500D03*
%TO.P,U2,3,OUT1*%
%TO.N,/power_management/out_3.3v*%
X156540000Y-58587500D03*
%TO.P,U2,4,OUT1*%
X155890000Y-58587500D03*
%TO.P,U2,5,GND*%
%TO.N,GND*%
X155240000Y-58587500D03*
%TO.P,U2,6,GND*%
X154590000Y-58587500D03*
%TO.P,U2,7,OUT2*%
%TO.N,/power_management/out_1.2v*%
X153940000Y-58587500D03*
%TO.P,U2,8,OUT2*%
X153290000Y-58587500D03*
%TO.P,U2,9,BYP2*%
%TO.N,Net-(U2-BYP2)*%
X152640000Y-58587500D03*
%TO.P,U2,10,ADJ2*%
%TO.N,/power_management/out_1.2v*%
X151990000Y-58587500D03*
%TO.P,U2,11,~SHDN2*%
%TO.N,+5V*%
X151990000Y-64312500D03*
%TO.P,U2,12,PWRGD2*%
%TO.N,Net-(U2-PWRGD2)*%
X152640000Y-64312500D03*
%TO.P,U2,13,IN2*%
%TO.N,+5V*%
X153290000Y-64312500D03*
%TO.P,U2,14,IN2*%
X153940000Y-64312500D03*
%TO.P,U2,15,GND*%
%TO.N,GND*%
X154590000Y-64312500D03*
%TO.P,U2,16,GND*%
X155240000Y-64312500D03*
%TO.P,U2,17,IN1*%
%TO.N,+5V*%
X155890000Y-64312500D03*
%TO.P,U2,18,IN1*%
X156540000Y-64312500D03*
%TO.P,U2,19,PWRGD1*%
%TO.N,Net-(U2-PWRGD1)*%
X157190000Y-64312500D03*
%TO.P,U2,20,~SHDN1*%
%TO.N,+5V*%
X157840000Y-64312500D03*
D26*
%TO.P,U2,21,EXPOSED_PIN*%
%TO.N,GND*%
X154915000Y-61450000D03*
%TD*%
D27*
%TO.P,R10,1*%
%TO.N,/power_management/out_1.2v*%
X149050000Y-56825000D03*
%TO.P,R10,2*%
%TO.N,+1V2*%
X149050000Y-55175000D03*
%TD*%
D28*
%TO.P,R9,1*%
%TO.N,/power_management/out_3.3v*%
X156275000Y-52300000D03*
%TO.P,R9,2*%
%TO.N,+3.3V*%
X154625000Y-52300000D03*
%TD*%
D29*
%TO.P,X1,1,~{ST}*%
%TO.N,+3.3V*%
X111169025Y-39888873D03*
%TO.P,X1,2,GND*%
%TO.N,GND*%
X114761127Y-43480975D03*
%TO.P,X1,3,OUT*%
%TO.N,/ICE_CLK*%
X117730975Y-40511127D03*
%TO.P,X1,4,VCC*%
%TO.N,+3.3V*%
X114138873Y-36919025D03*
%TD*%
D30*
%TO.P,C22,1*%
%TO.N,/power_management/out_3.3v*%
X156225000Y-55300000D03*
%TO.P,C22,2*%
%TO.N,GND*%
X154675000Y-55300000D03*
%TD*%
D10*
%TO.P,J4,1,Pin_1*%
%TO.N,GND1*%
X76768000Y-50759000D03*
D11*
%TO.P,J4,2,Pin_2*%
%TO.N,+3.3VP*%
X79308000Y-50759000D03*
%TO.P,J4,3,Pin_3*%
%TO.N,/ftdi/ICE_CREST*%
X76768000Y-53299000D03*
%TO.P,J4,4,Pin_4*%
%TO.N,/ftdi/ICE_CLK*%
X79308000Y-53299000D03*
%TO.P,J4,5,Pin_5*%
%TO.N,/ftdi/ICE_CDONE*%
X76768000Y-55839000D03*
%TO.P,J4,6,Pin_6*%
%TO.N,/ftdi/ICE_MOSI*%
X79308000Y-55839000D03*
%TO.P,J4,7,Pin_7*%
%TO.N,/ftdi/ICE_SS*%
X76768000Y-58379000D03*
%TO.P,J4,8,Pin_8*%
%TO.N,/ftdi/ICE_MISO*%
X79308000Y-58379000D03*
%TD*%
D31*
%TO.P,C21,1*%
%TO.N,/power_management/out_1.2v*%
X148950000Y-58325000D03*
%TO.P,C21,2*%
%TO.N,GND*%
X148950000Y-59875000D03*
%TD*%
D10*
%TO.P,J8,1,Pin_1*%
%TO.N,/fpga/PIO1*%
X172750000Y-60260000D03*
D11*
%TO.P,J8,2,Pin_2*%
%TO.N,/fpga/PIO2*%
X170210000Y-60260000D03*
%TO.P,J8,3,Pin_3*%
%TO.N,/fpga/PIO3*%
X172750000Y-57720000D03*
%TO.P,J8,4,Pin_4*%
%TO.N,/fpga/PIO4*%
X170210000Y-57720000D03*
%TO.P,J8,5,Pin_5*%
%TO.N,/fpga/PIO5*%
X172750000Y-55180000D03*
%TO.P,J8,6,Pin_6*%
%TO.N,/fpga/PIO6*%
X170210000Y-55180000D03*
%TO.P,J8,7,Pin_7*%
%TO.N,/fpga/PIO7*%
X172750000Y-52640000D03*
%TO.P,J8,8,Pin_8*%
%TO.N,/fpga/PIO8*%
X170210000Y-52640000D03*
%TO.P,J8,9,Pin_9*%
%TO.N,/fpga/PIO9*%
X172750000Y-50100000D03*
%TO.P,J8,10,Pin_10*%
%TO.N,/fpga/PIO10*%
X170210000Y-50100000D03*
%TO.P,J8,11,Pin_11*%
%TO.N,/fpga/PIO11*%
X172750000Y-47560000D03*
%TO.P,J8,12,Pin_12*%
%TO.N,/fpga/PIO12*%
X170210000Y-47560000D03*
%TO.P,J8,13,Pin_13*%
%TO.N,/fpga/PIO13*%
X172750000Y-45020000D03*
%TO.P,J8,14,Pin_14*%
%TO.N,/fpga/PIO14*%
X170210000Y-45020000D03*
%TO.P,J8,15,Pin_15*%
%TO.N,/fpga/PIO15*%
X172750000Y-42480000D03*
%TO.P,J8,16,Pin_16*%
%TO.N,/fpga/PIO16*%
X170210000Y-42480000D03*
%TO.P,J8,17,Pin_17*%
%TO.N,/fpga/PIO17*%
X172750000Y-39940000D03*
%TO.P,J8,18,Pin_18*%
%TO.N,/fpga/PIO18*%
X170210000Y-39940000D03*
%TO.P,J8,19,Pin_19*%
%TO.N,/fpga/PIO19*%
X172750000Y-37400000D03*
%TO.P,J8,20,Pin_20*%
%TO.N,/fpga/PIO20*%
X170210000Y-37400000D03*
%TD*%
D23*
%TO.P,R12,1*%
%TO.N,/power_management/out_3.3v*%
X157625000Y-55300000D03*
%TO.P,R12,2*%
%TO.N,Net-(U2-ADJ1)*%
X159275000Y-55300000D03*
%TD*%
D14*
%TO.P,C19,1*%
%TO.N,/power_management/out_3.3v*%
X156175000Y-56800000D03*
%TO.P,C19,2*%
%TO.N,Net-(U2-BYP1)*%
X157725000Y-56800000D03*
%TD*%
D19*
%TO.P,TP2,1,1*%
%TO.N,+1V2*%
X163950000Y-65600000D03*
%TD*%
D32*
%TO.P,J6,1,VBUS*%
%TO.N,VBUS*%
X55811000Y-51338000D03*
%TO.P,J6,2,D-*%
%TO.N,/usb/-*%
X55811000Y-48838000D03*
%TO.P,J6,3,D+*%
%TO.N,/usb/+*%
X55811000Y-46838000D03*
%TO.P,J6,4,GND*%
%TO.N,GND1*%
X55811000Y-44338000D03*
D33*
%TO.P,J6,5,Shield*%
X53061000Y-53538000D03*
X53061000Y-42138000D03*
%TD*%
D10*
%TO.P,J2,1,Pin_1*%
%TO.N,VBUS*%
X98160000Y-60100000D03*
D11*
%TO.P,J2,2,Pin_2*%
%TO.N,+5V*%
X100700000Y-60100000D03*
%TO.P,J2,3,Pin_3*%
%TO.N,GND1*%
X98160000Y-62640000D03*
%TO.P,J2,4,Pin_4*%
%TO.N,GND*%
X100700000Y-62640000D03*
%TD*%
D34*
%TO.P,U5,1,CS*%
%TO.N,/ftdi/CS_FTDI*%
X74293000Y-36027000D03*
%TO.P,U5,2,SCLK*%
%TO.N,Net-(U4-EECLK)*%
X74293000Y-37297000D03*
%TO.P,U5,3,DI*%
%TO.N,Net-(U4-EEDATA)*%
X74293000Y-38567000D03*
%TO.P,U5,4,DO*%
%TO.N,Net-(U5-DO)*%
X74293000Y-39837000D03*
%TO.P,U5,5,GND*%
%TO.N,GND1*%
X79243000Y-39837000D03*
%TO.P,U5,6,NC*%
%TO.N,unconnected-(U5-NC-Pad6)*%
X79243000Y-38567000D03*
%TO.P,U5,7,NC*%
%TO.N,unconnected-(U5-NC-Pad7)*%
X79243000Y-37297000D03*
%TO.P,U5,8,VCC*%
%TO.N,+3.3VP*%
X79243000Y-36027000D03*
%TD*%
D35*
%TO.N,+1V2*%
X150200000Y-55200000D03*
X161700000Y-65600000D03*
%TO.N,GND1*%
X60236500Y-48513500D03*
%TO.N,+3.3V*%
X168050000Y-67750000D03*
%TO.N,GND*%
X174000000Y-65800000D03*
X121150000Y-58950000D03*
X126700000Y-60550000D03*
X135150000Y-59050000D03*
X130250000Y-37300000D03*
X126307436Y-37227301D03*
X121200000Y-38750000D03*
X121750000Y-38200000D03*
X121400000Y-37100000D03*
%TO.N,+3.3V*%
X115100000Y-37800000D03*
%TO.N,GND*%
X115800000Y-42600000D03*
X109050000Y-40750000D03*
X113150000Y-41800000D03*
X108450000Y-58650000D03*
X148750000Y-65150000D03*
X137000000Y-30850000D03*
X142250000Y-33150000D03*
X148600000Y-33550000D03*
X145300000Y-45200000D03*
X137200000Y-40100000D03*
X135402825Y-38958475D03*
X154750000Y-56200000D03*
X154950000Y-65500000D03*
X154850000Y-57400000D03*
X160350000Y-61600000D03*
X147850000Y-59900000D03*
X146350000Y-48300000D03*
%TO.N,+3.3V*%
X146450000Y-53400000D03*
%TO.N,GND*%
X142750000Y-53100000D03*
X138050000Y-61100000D03*
X125450000Y-65300000D03*
X117150000Y-56200000D03*
X117350000Y-61400000D03*
X114150000Y-52900000D03*
X106550000Y-63400000D03*
%TO.N,+3.3V*%
X135800000Y-60150000D03*
X153550000Y-52700000D03*
X112350000Y-58095000D03*
X135150000Y-38200000D03*
X117850000Y-46400000D03*
X116850000Y-55400000D03*
X140250000Y-54000000D03*
X137500000Y-40850000D03*
X127450000Y-63100000D03*
X120583884Y-58233884D03*
X109850000Y-41050000D03*
X124050000Y-35300000D03*
X153550000Y-51900000D03*
%TO.N,Net-(U1E-VCCPLL)*%
X112750000Y-46200000D03*
%TO.N,GNDD*%
X111150000Y-45500000D03*
%TO.N,+1V2*%
X109950000Y-50000000D03*
X118250000Y-56250000D03*
X142650000Y-46050000D03*
X116900000Y-42850000D03*
X137125500Y-57250000D03*
%TO.N,Net-(D1-K)*%
X143000000Y-49400000D03*
%TO.N,Net-(D6-A)*%
X62175000Y-59725000D03*
%TO.N,+3.3VP*%
X67620088Y-43599500D03*
X88452000Y-56601000D03*
X70383735Y-42643614D03*
X88452000Y-57617000D03*
X71812279Y-46314714D03*
X70700000Y-50552500D03*
X65084000Y-51394000D03*
X87182000Y-57236000D03*
X62798000Y-47330000D03*
X62808349Y-44799990D03*
X80197000Y-34884000D03*
X92008000Y-57236000D03*
%TO.N,+1V8*%
X71688000Y-40218000D03*
D36*
%TO.N,Net-(U4-OSCI)*%
X62671000Y-37678000D03*
%TO.N,Net-(U4-OSCO)*%
X57972000Y-39329000D03*
D35*
%TO.N,VBUS*%
X55686000Y-52791000D03*
X83753000Y-60919000D03*
X56702000Y-52791000D03*
X84515000Y-60919000D03*
%TO.N,Net-(D2-K)*%
X140050000Y-32200000D03*
%TO.N,Net-(D3-K)*%
X146500000Y-32200000D03*
%TO.N,Net-(D4-K)*%
X152850000Y-32100000D03*
%TO.N,/ICE_CREST*%
X122650000Y-61500000D03*
%TO.N,/ICE_CDONE*%
X122750000Y-60600000D03*
%TO.N,/SCL*%
X115550000Y-64600000D03*
X112550000Y-60300000D03*
%TO.N,/SS*%
X107650000Y-65200000D03*
X107250000Y-57300000D03*
%TO.N,/fpga/PIO3*%
X164150000Y-56300000D03*
%TO.N,/fpga/PIO5*%
X163650000Y-53800000D03*
%TO.N,/fpga/PIO7*%
X163550000Y-51400000D03*
%TO.N,/fpga/PIO9*%
X164250000Y-48700000D03*
%TO.N,/fpga/PIO11*%
X164150000Y-46400000D03*
%TO.N,/fpga/PIO13*%
X163850000Y-43800000D03*
%TO.N,/fpga/PIO15*%
X165050000Y-41200000D03*
%TO.N,/fpga/PIO17*%
X166000000Y-38750000D03*
%TO.N,/fpga/PIO19*%
X167150000Y-36100000D03*
%TO.N,Net-(U2-PWRGD1)*%
X157150000Y-65600000D03*
%TO.N,Net-(U2-PWRGD2)*%
X152650000Y-65700000D03*
%TO.N,Net-(U6-IO2)*%
X108850000Y-61700000D03*
%TO.N,Net-(U6-IO3)*%
X112550000Y-59100000D03*
%TO.N,Net-(U5-DO)*%
X74355000Y-41107000D03*
%TO.N,Net-(U4-EEDATA)*%
X75879000Y-38694000D03*
%TO.N,Net-(U4-EECLK)*%
X75752000Y-37297000D03*
%TO.N,/ftdi/CS_FTDI*%
X75752000Y-36027000D03*
%TO.N,Net-(U4-REF)*%
X62846002Y-45895123D03*
%TO.N,Net-(U4-~{RESET})*%
X62942936Y-50078325D03*
%TO.N,GND1*%
X67800000Y-51175000D03*
X69375000Y-43750000D03*
X81175000Y-39575000D03*
X57875000Y-52125000D03*
X61725000Y-42300000D03*
X60200000Y-50325000D03*
X67650000Y-49175000D03*
X60175000Y-45150000D03*
X60175000Y-49350000D03*
X69550000Y-47000000D03*
X66300000Y-46075000D03*
X70150000Y-39900000D03*
X81400000Y-34850000D03*
X76450000Y-34700000D03*
X69700000Y-50500000D03*
X55811000Y-43425000D03*
X67625000Y-45775000D03*
X66325000Y-47575000D03*
X60425000Y-56575000D03*
X92775000Y-54400000D03*
X64250000Y-51475000D03*
X70525000Y-37921500D03*
X57475000Y-44350000D03*
X85950000Y-56025000D03*
X57850000Y-52775000D03*
X58075000Y-37675000D03*
X66300000Y-42975000D03*
X74550000Y-43850000D03*
X62750000Y-39400000D03*
X63050000Y-59800000D03*
X71700000Y-49775000D03*
X85785502Y-59840000D03*
X69325000Y-42775000D03*
X66275000Y-45033500D03*
%TO.N,+5V*%
X149650000Y-66900000D03*
X149650000Y-66100000D03*
X158850000Y-64800000D03*
X149750000Y-67600000D03*
%TD*%
D37*
%TO.N,+1V2*%
X150200000Y-55200000D02*
X149075000Y-55200000D01*
X149075000Y-55200000D02*
X149050000Y-55175000D01*
X163950000Y-65600000D02*
X161700000Y-65600000D01*
%TO.N,GND1*%
X60424000Y-48326000D02*
X60236500Y-48513500D01*
X61695000Y-48326000D02*
X60424000Y-48326000D01*
X61695000Y-48326000D02*
X61695000Y-47826000D01*
%TO.N,+1V2*%
X137125500Y-56614840D02*
X137125500Y-57250000D01*
X136319856Y-55809196D02*
X137125500Y-56614840D01*
%TO.N,+3.3V*%
X168050000Y-65700000D02*
X168050000Y-67750000D01*
%TO.N,GND*%
X171950000Y-65800000D02*
X174000000Y-65800000D01*
%TO.N,/MISO*%
X106550000Y-59365000D02*
X102865000Y-59365000D01*
X102865000Y-59365000D02*
X101800000Y-58300000D01*
X101800000Y-58300000D02*
X100050000Y-58300000D01*
X100050000Y-58300000D02*
X98225000Y-56475000D01*
%TO.N,+3.3VP*%
X70700000Y-50552500D02*
X70620000Y-50632500D01*
X70620000Y-50632500D02*
X70620000Y-52751000D01*
X67620088Y-43599500D02*
X67620000Y-43599412D01*
X67620000Y-43599412D02*
X67620000Y-41401000D01*
%TO.N,GND*%
X121281980Y-58950000D02*
X121150000Y-58950000D01*
X122301464Y-57930516D02*
X121281980Y-58950000D01*
X126700000Y-60603048D02*
X126700000Y-60550000D01*
X125836998Y-61466050D02*
X126700000Y-60603048D01*
X135150000Y-58881980D02*
X135150000Y-59050000D01*
X134198536Y-57930516D02*
X135150000Y-58881980D01*
X140208943Y-51920109D02*
X141388834Y-53100000D01*
X141388834Y-53100000D02*
X142750000Y-53100000D01*
X133844982Y-39315930D02*
X134412919Y-38747993D01*
X134412919Y-38747993D02*
X134779647Y-38747993D01*
X134779647Y-38747993D02*
X134990129Y-38958475D01*
X134990129Y-38958475D02*
X135402825Y-38958475D01*
X130250000Y-37254058D02*
X130250000Y-37300000D01*
X131016555Y-36487503D02*
X130250000Y-37254058D01*
X126223243Y-37227301D02*
X126307436Y-37227301D01*
X125483445Y-36487503D02*
X126223243Y-37227301D01*
X121381980Y-38750000D02*
X121200000Y-38750000D01*
X122301464Y-39669484D02*
X121381980Y-38750000D01*
X121750000Y-38410912D02*
X121750000Y-38200000D01*
X122655018Y-39315930D02*
X121750000Y-38410912D01*
%TO.N,+3.3V*%
X114219025Y-36919025D02*
X115100000Y-37800000D01*
X114138873Y-36919025D02*
X114219025Y-36919025D01*
%TO.N,GND*%
X114761127Y-43480975D02*
X114919025Y-43480975D01*
X114919025Y-43480975D02*
X115800000Y-42600000D01*
X154675000Y-56125000D02*
X154750000Y-56200000D01*
X154675000Y-55300000D02*
X154675000Y-56125000D01*
X154625000Y-53800000D02*
X154625000Y-55250000D01*
X154625000Y-55250000D02*
X154675000Y-55300000D01*
X154915000Y-65465000D02*
X154950000Y-65500000D01*
X154915000Y-61450000D02*
X154915000Y-65465000D01*
X154915000Y-57465000D02*
X154850000Y-57400000D01*
X154915000Y-59700000D02*
X154915000Y-57465000D01*
X154915000Y-58912500D02*
X154915000Y-59700000D01*
X154915000Y-59700000D02*
X154915000Y-61450000D01*
X154590000Y-58587500D02*
X154915000Y-58912500D01*
X155240000Y-58587500D02*
X154915000Y-58912500D01*
X154590000Y-58587500D02*
X155240000Y-58587500D01*
X154590000Y-64312500D02*
X154915000Y-63987500D01*
X154915000Y-63987500D02*
X154915000Y-61450000D01*
X155240000Y-64312500D02*
X154915000Y-63987500D01*
X154590000Y-64312500D02*
X155240000Y-64312500D01*
X160325000Y-61625000D02*
X160350000Y-61600000D01*
X159350000Y-61625000D02*
X160325000Y-61625000D01*
X147875000Y-59875000D02*
X147850000Y-59900000D01*
X148950000Y-59875000D02*
X147875000Y-59875000D01*
X150550000Y-59925000D02*
X149000000Y-59925000D01*
X149000000Y-59925000D02*
X148950000Y-59875000D01*
X106550000Y-61905000D02*
X106550000Y-63400000D01*
%TO.N,/ICE_CDONE*%
X122750000Y-60600000D02*
X119950000Y-60600000D01*
X100760000Y-51400000D02*
X98225000Y-53935000D01*
X119950000Y-60600000D02*
X110750000Y-51400000D01*
X110750000Y-51400000D02*
X100760000Y-51400000D01*
%TO.N,/ICE_CREST*%
X100765000Y-53935000D02*
X102400000Y-52300000D01*
X102400000Y-52300000D02*
X110250000Y-52300000D01*
X110250000Y-52300000D02*
X119450000Y-61500000D01*
X119450000Y-61500000D02*
X122650000Y-61500000D01*
%TO.N,/SCL*%
X112550000Y-60300000D02*
X106185000Y-53935000D01*
X106185000Y-53935000D02*
X103305000Y-53935000D01*
%TO.N,/MOSI*%
X113750000Y-61905000D02*
X112855000Y-61905000D01*
X112855000Y-61905000D02*
X107450000Y-56500000D01*
X107450000Y-56500000D02*
X106550000Y-56500000D01*
X106550000Y-56500000D02*
X106525000Y-56475000D01*
X106525000Y-56475000D02*
X103305000Y-56475000D01*
%TO.N,/SS*%
X106550000Y-58095000D02*
X106495000Y-58150000D01*
X106495000Y-58150000D02*
X102440000Y-58150000D01*
X102440000Y-58150000D02*
X100765000Y-56475000D01*
%TO.N,+3.3V*%
X154625000Y-52300000D02*
X154625000Y-52425000D01*
X135827134Y-57437794D02*
X135259196Y-56869856D01*
X154350000Y-51900000D02*
X153550000Y-51900000D01*
X133491429Y-38962377D02*
X134253806Y-38200000D01*
X154625000Y-52425000D02*
X154350000Y-52700000D01*
X112350000Y-58095000D02*
X113750000Y-58095000D01*
X134253806Y-38200000D02*
X135150000Y-38200000D01*
X154625000Y-52300000D02*
X154625000Y-52175000D01*
X139148283Y-52980769D02*
X140167514Y-54000000D01*
X116850000Y-54189592D02*
X116850000Y-55400000D01*
X110007898Y-41050000D02*
X111169025Y-39888873D01*
X137594901Y-41929973D02*
X137594901Y-40944901D01*
X140167514Y-54000000D02*
X140250000Y-54000000D01*
X135827134Y-60122866D02*
X135827134Y-57437794D01*
X154350000Y-52700000D02*
X153550000Y-52700000D01*
X127450000Y-63100000D02*
X126897658Y-62547658D01*
X121594357Y-57223410D02*
X120583884Y-58233884D01*
X137594901Y-40944901D02*
X137500000Y-40850000D01*
X116644610Y-45326338D02*
X117718272Y-46400000D01*
X117718272Y-46400000D02*
X117850000Y-46400000D01*
X154625000Y-52175000D02*
X154350000Y-51900000D01*
X137026963Y-42497911D02*
X137594901Y-41929973D01*
X124050000Y-35761166D02*
X124050000Y-35300000D01*
X109850000Y-41050000D02*
X110007898Y-41050000D01*
X126897658Y-62547658D02*
X126897658Y-62526710D01*
X117705270Y-53334322D02*
X116850000Y-54189592D01*
X114138873Y-36919025D02*
X111169025Y-39888873D01*
X135800000Y-60150000D02*
X135827134Y-60122866D01*
X125129891Y-36841057D02*
X124050000Y-35761166D01*
%TO.N,Net-(U1E-VCCPLL)*%
X113300000Y-46200000D02*
X112750000Y-46200000D01*
X114523290Y-47447658D02*
X114523290Y-47423290D01*
X114523290Y-47423290D02*
X113300000Y-46200000D01*
%TO.N,GNDD*%
X113282738Y-45500000D02*
X111150000Y-45500000D01*
X114876843Y-47094105D02*
X113282738Y-45500000D01*
%TO.N,+1V2*%
X130630330Y-50119670D02*
X126110660Y-45600000D01*
X136887794Y-56377134D02*
X136319856Y-55809196D01*
X126110660Y-45600000D02*
X119039592Y-45600000D01*
X118325126Y-56250000D02*
X118250000Y-56250000D01*
X117705270Y-44265678D02*
X116900000Y-43460408D01*
X129310660Y-48800000D02*
X130630330Y-50119670D01*
X121875126Y-52700000D02*
X119473037Y-55102089D01*
X136319856Y-55809196D02*
X133580330Y-53069670D01*
X143272866Y-56377134D02*
X136887794Y-56377134D01*
X133580330Y-53069670D02*
X130630330Y-50119670D01*
X133210660Y-52700000D02*
X121875126Y-52700000D01*
X116900000Y-43460408D02*
X116900000Y-42850000D01*
X119473037Y-55102089D02*
X118325126Y-56250000D01*
X144475000Y-55175000D02*
X143272866Y-56377134D01*
X136319856Y-55809196D02*
X135751919Y-55241259D01*
X109950000Y-50000000D02*
X111750000Y-50000000D01*
X135751919Y-55241259D02*
X135751919Y-52258236D01*
X133580330Y-53069670D02*
X133210660Y-52700000D01*
X119039592Y-45600000D02*
X117705270Y-44265678D01*
X149050000Y-55175000D02*
X144475000Y-55175000D01*
X141269604Y-46740551D02*
X141960155Y-46050000D01*
X141960155Y-46050000D02*
X142650000Y-46050000D01*
X135751919Y-52258236D02*
X141269604Y-46740551D01*
X112950000Y-48800000D02*
X129310660Y-48800000D01*
X111750000Y-50000000D02*
X112950000Y-48800000D01*
%TO.N,Net-(D1-K)*%
X143000000Y-49400000D02*
X142729052Y-49400000D01*
X142729052Y-49400000D02*
X141976710Y-50152342D01*
%TO.N,/power_management/out_3.3v*%
X156540000Y-58587500D02*
X155890000Y-58587500D01*
X155925000Y-52350000D02*
X155975000Y-52300000D01*
%TO.N,Net-(U2-BYP1)*%
X157190000Y-58587500D02*
X157190000Y-57335000D01*
X157190000Y-57335000D02*
X157725000Y-56800000D01*
%TO.N,/power_management/out_1.2v*%
X152200000Y-59650000D02*
X153100000Y-59650000D01*
X153290000Y-59460000D02*
X153290000Y-58587500D01*
X153100000Y-59650000D02*
X153290000Y-59460000D01*
X151990000Y-59440000D02*
X152200000Y-59650000D01*
X153290000Y-58587500D02*
X153940000Y-58587500D01*
X151990000Y-58587500D02*
X151990000Y-59440000D01*
%TO.N,Net-(U2-BYP2)*%
X152640000Y-57315000D02*
X152125000Y-56800000D01*
X152640000Y-58587500D02*
X152640000Y-57315000D01*
%TO.N,Net-(D6-A)*%
X62175000Y-61135500D02*
X62137500Y-61173000D01*
X62175000Y-59725000D02*
X62175000Y-61135500D01*
%TO.N,+3.3VP*%
X84286000Y-57236000D02*
X84769000Y-57236000D01*
X65120000Y-51430000D02*
X65084000Y-51394000D01*
X62782339Y-44826000D02*
X62808349Y-44799990D01*
X65120000Y-52751000D02*
X65120000Y-51430000D01*
X61695000Y-47326000D02*
X62794000Y-47326000D01*
X89976000Y-57236000D02*
X90586000Y-57236000D01*
X90586000Y-57236000D02*
X92008000Y-57236000D01*
X89595000Y-57617000D02*
X89976000Y-57236000D01*
X84286000Y-57236000D02*
X84540000Y-57490000D01*
X89951000Y-56601000D02*
X90586000Y-57236000D01*
X70620000Y-42407349D02*
X70620000Y-41401000D01*
X79243000Y-35838000D02*
X80197000Y-34884000D01*
X62794000Y-47326000D02*
X62798000Y-47330000D01*
D38*
X88452000Y-56601000D02*
X89951000Y-56601000D01*
X84286000Y-57236000D02*
X87182000Y-57236000D01*
D37*
X61695000Y-44826000D02*
X62782339Y-44826000D01*
X73045000Y-46326000D02*
X71823565Y-46326000D01*
X70383735Y-42643614D02*
X70620000Y-42407349D01*
X79243000Y-36027000D02*
X79243000Y-35838000D01*
X71823565Y-46326000D02*
X71812279Y-46314714D01*
D38*
X88452000Y-57617000D02*
X89595000Y-57617000D01*
D37*
%TO.N,+1V8*%
X71120000Y-48413000D02*
X71533000Y-48826000D01*
X71120000Y-44028000D02*
X70739000Y-44409000D01*
X65787315Y-44409000D02*
X63620000Y-42241685D01*
X71120000Y-44028000D02*
X69499000Y-45649000D01*
X71120000Y-41401000D02*
X71120000Y-40786000D01*
X63620000Y-42241685D02*
X63620000Y-41401000D01*
X71120000Y-41401000D02*
X71120000Y-44028000D01*
X71120000Y-44028000D02*
X71120000Y-48413000D01*
X66322000Y-48826000D02*
X61695000Y-48826000D01*
X70739000Y-44409000D02*
X65787315Y-44409000D01*
X71533000Y-48826000D02*
X73045000Y-48826000D01*
X71120000Y-40786000D02*
X71688000Y-40218000D01*
X69499000Y-45649000D02*
X66322000Y-48826000D01*
%TO.N,Net-(U4-OSCI)*%
X61300000Y-37650000D02*
X60375000Y-38575000D01*
X61400000Y-37650000D02*
X61300000Y-37650000D01*
X61400000Y-37650000D02*
X62643000Y-37650000D01*
X60375000Y-38575000D02*
X60375000Y-43438604D01*
X60762396Y-43826000D02*
X61695000Y-43826000D01*
X60375000Y-43438604D02*
X60762396Y-43826000D01*
X62643000Y-37650000D02*
X62671000Y-37678000D01*
%TO.N,Net-(U4-OSCO)*%
X60626000Y-44326000D02*
X61695000Y-44326000D01*
X59200000Y-39350000D02*
X57993000Y-39350000D01*
X57993000Y-39350000D02*
X57972000Y-39329000D01*
X59200000Y-39350000D02*
X59200000Y-42900000D01*
X59200000Y-42900000D02*
X60626000Y-44326000D01*
%TO.N,VBUS*%
X56702000Y-51648000D02*
X56392000Y-51338000D01*
D38*
X83753000Y-60069000D02*
X83753000Y-60919000D01*
X84515000Y-59765000D02*
X84286000Y-59536000D01*
D37*
X56702000Y-52537000D02*
X56702000Y-52791000D01*
X84286000Y-59536000D02*
X83753000Y-60069000D01*
X56392000Y-51338000D02*
X55811000Y-51338000D01*
D39*
X56702000Y-52791000D02*
X56702000Y-51648000D01*
D37*
X55811000Y-51338000D02*
X55811000Y-51646000D01*
D38*
X84515000Y-60919000D02*
X84515000Y-59765000D01*
D37*
X55686000Y-51463000D02*
X55811000Y-51338000D01*
X55811000Y-52666000D02*
X55686000Y-52791000D01*
D39*
X55686000Y-52791000D02*
X55686000Y-51463000D01*
D37*
%TO.N,Net-(D2-K)*%
X140050000Y-32200000D02*
X138637500Y-32200000D01*
%TO.N,Net-(D2-A)*%
X129602342Y-35073290D02*
X132475632Y-32200000D01*
X132475632Y-32200000D02*
X137062500Y-32200000D01*
%TO.N,Net-(D3-K)*%
X146500000Y-32200000D02*
X145037500Y-32200000D01*
%TO.N,Net-(D3-A)*%
X141550000Y-32200000D02*
X143462500Y-32200000D01*
X140400000Y-33350000D02*
X141550000Y-32200000D01*
X143412500Y-32150000D02*
X143462500Y-32200000D01*
X129955895Y-35426843D02*
X132032738Y-33350000D01*
X132032738Y-33350000D02*
X140400000Y-33350000D01*
%TO.N,Net-(D4-K)*%
X152850000Y-32100000D02*
X151287500Y-32100000D01*
%TO.N,Net-(D4-A)*%
X130309449Y-35780396D02*
X132289845Y-33800000D01*
X146450000Y-33800000D02*
X148150000Y-32100000D01*
X148150000Y-32100000D02*
X149712500Y-32100000D01*
X132289845Y-33800000D02*
X146450000Y-33800000D01*
%TO.N,/ICE_CREST*%
X122650000Y-61500000D02*
X123681728Y-61500000D01*
X123681728Y-61500000D02*
X124776338Y-60405390D01*
%TO.N,/ICE_CDONE*%
X124422785Y-60051837D02*
X123854848Y-60619774D01*
X123854848Y-60619774D02*
X122769774Y-60619774D01*
X122769774Y-60619774D02*
X122750000Y-60600000D01*
%TO.N,/MISO*%
X113950000Y-63900000D02*
X109415000Y-59365000D01*
X122695942Y-63900000D02*
X113950000Y-63900000D01*
X125483445Y-61112497D02*
X122695942Y-63900000D01*
X109415000Y-59365000D02*
X106550000Y-59365000D01*
%TO.N,/MOSI*%
X125129891Y-60758943D02*
X122788834Y-63100000D01*
X114945000Y-63100000D02*
X113750000Y-61905000D01*
X122788834Y-63100000D02*
X114945000Y-63100000D01*
%TO.N,/SCL*%
X115550000Y-64600000D02*
X115650000Y-64700000D01*
X115650000Y-64700000D02*
X123310155Y-64700000D01*
X113750000Y-60635000D02*
X112885000Y-60635000D01*
X123310155Y-64700000D02*
X126190551Y-61819604D01*
X112885000Y-60635000D02*
X112550000Y-60300000D01*
%TO.N,/SS*%
X107775000Y-65325000D02*
X107650000Y-65200000D01*
X106550000Y-57600000D02*
X106850000Y-57300000D01*
X126544105Y-62173157D02*
X123392262Y-65325000D01*
X106850000Y-57300000D02*
X107250000Y-57300000D01*
X123392262Y-65325000D02*
X107775000Y-65325000D01*
X106550000Y-58095000D02*
X106550000Y-57600000D01*
%TO.N,/ftdi/CTS*%
X83368000Y-46826000D02*
X87695000Y-42499000D01*
X73045000Y-46826000D02*
X83368000Y-46826000D01*
X87695000Y-42499000D02*
X89595000Y-42499000D01*
%TO.N,/ftdi/DTR*%
X87314000Y-39959000D02*
X89595000Y-39959000D01*
X81447000Y-45826000D02*
X87314000Y-39959000D01*
X73045000Y-45826000D02*
X81447000Y-45826000D01*
%TO.N,/ftdi/DSR*%
X73045000Y-45326000D02*
X79153000Y-45326000D01*
X87060000Y-37419000D02*
X89595000Y-37419000D01*
X79153000Y-45326000D02*
X87060000Y-37419000D01*
%TO.N,/ftdi/DCD*%
X87187000Y-34879000D02*
X89595000Y-34879000D01*
X73045000Y-44826000D02*
X77240000Y-44826000D01*
X77240000Y-44826000D02*
X87187000Y-34879000D01*
%TO.N,/ftdi/RX*%
X82986000Y-50119000D02*
X89595000Y-50119000D01*
X81193000Y-48326000D02*
X82986000Y-50119000D01*
X73045000Y-48326000D02*
X81193000Y-48326000D01*
X73065000Y-48346000D02*
X73045000Y-48326000D01*
%TO.N,/ftdi/TX*%
X89595000Y-47579000D02*
X89348000Y-47826000D01*
X89348000Y-47826000D02*
X73045000Y-47826000D01*
%TO.N,/ftdi/RTS*%
X87822000Y-45039000D02*
X89595000Y-45039000D01*
X73045000Y-47326000D02*
X85535000Y-47326000D01*
X85535000Y-47326000D02*
X87822000Y-45039000D01*
%TO.N,/ftdi/ICE_SS*%
X65620000Y-54470000D02*
X69529000Y-58379000D01*
X65620000Y-52751000D02*
X65620000Y-54470000D01*
X69529000Y-58379000D02*
X76768000Y-58379000D01*
%TO.N,/ftdi/ICE_CLK*%
X82102000Y-55458000D02*
X79943000Y-53299000D01*
X69021000Y-62824000D02*
X80832000Y-62824000D01*
X80832000Y-62824000D02*
X82102000Y-61554000D01*
X61695000Y-55498000D02*
X69021000Y-62824000D01*
X61695000Y-50826000D02*
X61695000Y-55498000D01*
X82102000Y-61554000D02*
X82102000Y-55458000D01*
X79943000Y-53299000D02*
X79308000Y-53299000D01*
%TO.N,/ftdi/ICE_MOSI*%
X79943000Y-61808000D02*
X81213000Y-60538000D01*
X81213000Y-60538000D02*
X81213000Y-56855000D01*
X63620000Y-55391000D02*
X70037000Y-61808000D01*
X70037000Y-61808000D02*
X79943000Y-61808000D01*
X81213000Y-56855000D02*
X80197000Y-55839000D01*
X63620000Y-52751000D02*
X63620000Y-55391000D01*
X80197000Y-55839000D02*
X79308000Y-55839000D01*
%TO.N,/ftdi/ICE_MISO*%
X64120000Y-52751000D02*
X64120000Y-54238604D01*
X79308000Y-59522000D02*
X79308000Y-58379000D01*
X78292000Y-60538000D02*
X79308000Y-59522000D01*
X64120000Y-54238604D02*
X70419396Y-60538000D01*
X70419396Y-60538000D02*
X78292000Y-60538000D01*
%TO.N,/ftdi/ICE_CDONE*%
X66620000Y-52751000D02*
X66620000Y-54327000D01*
X66620000Y-54327000D02*
X68132000Y-55839000D01*
X68132000Y-55839000D02*
X76768000Y-55839000D01*
%TO.N,/ftdi/ICE_CREST*%
X67120000Y-52751000D02*
X67120000Y-53591685D01*
X68097315Y-54569000D02*
X75498000Y-54569000D01*
X75498000Y-54569000D02*
X76768000Y-53299000D01*
X67120000Y-53591685D02*
X68097315Y-54569000D01*
%TO.N,/fpga/FTDI_RTS*%
X109465000Y-33950000D02*
X98275000Y-45140000D01*
X124776338Y-37194610D02*
X121531728Y-33950000D01*
X121531728Y-33950000D02*
X109465000Y-33950000D01*
%TO.N,/fpga/FTDI_TX*%
X111555000Y-34400000D02*
X98275000Y-47680000D01*
X124422785Y-37548163D02*
X121274622Y-34400000D01*
X121274622Y-34400000D02*
X111555000Y-34400000D01*
%TO.N,/fpga/FTDI_RX*%
X124069231Y-37901717D02*
X121017514Y-34850000D01*
X121017514Y-34850000D02*
X113650000Y-34850000D01*
X109800000Y-38700000D02*
X109795000Y-38700000D01*
X109795000Y-38700000D02*
X98275000Y-50220000D01*
X113650000Y-34850000D02*
X109800000Y-38700000D01*
%TO.N,/fpga/FTDI_DCD*%
X101350000Y-31800000D02*
X98275000Y-34875000D01*
X98275000Y-34875000D02*
X98275000Y-34980000D01*
X123624368Y-31800000D02*
X101350000Y-31800000D01*
X126897658Y-35073290D02*
X123624368Y-31800000D01*
X99005000Y-34250000D02*
X98275000Y-34980000D01*
%TO.N,/fpga/FTDI_DSR*%
X103345000Y-32450000D02*
X98275000Y-37520000D01*
X126544105Y-35426843D02*
X123567262Y-32450000D01*
X123567262Y-32450000D02*
X103345000Y-32450000D01*
%TO.N,/fpga/FTDI_DTR*%
X105335000Y-33000000D02*
X98275000Y-40060000D01*
X123410155Y-33000000D02*
X105335000Y-33000000D01*
X126190551Y-35780396D02*
X123410155Y-33000000D01*
%TO.N,/fpga/FTDI_CTS*%
X123153048Y-33450000D02*
X107425000Y-33450000D01*
X125836998Y-36133950D02*
X123153048Y-33450000D01*
X107425000Y-33450000D02*
X98275000Y-42600000D01*
%TO.N,/fpga/PIO1*%
X149750000Y-44200000D02*
X167350000Y-61800000D01*
X171210000Y-61800000D02*
X172750000Y-60260000D01*
X143103048Y-44200000D02*
X149750000Y-44200000D01*
X140916050Y-46386998D02*
X143103048Y-44200000D01*
X167350000Y-61800000D02*
X171210000Y-61800000D01*
%TO.N,/fpga/PIO2*%
X142995942Y-43600000D02*
X150050000Y-43600000D01*
X140562497Y-46033445D02*
X142995942Y-43600000D01*
X166710000Y-60260000D02*
X170210000Y-60260000D01*
X150050000Y-43600000D02*
X166710000Y-60260000D01*
%TO.N,/fpga/PIO3*%
X145950000Y-43000000D02*
X150850000Y-43000000D01*
X150850000Y-43000000D02*
X164150000Y-56300000D01*
X142888834Y-43000000D02*
X145950000Y-43000000D01*
X140208943Y-45679891D02*
X142888834Y-43000000D01*
%TO.N,/fpga/PIO4*%
X166686116Y-57720000D02*
X170210000Y-57720000D01*
X151466116Y-42500000D02*
X166686116Y-57720000D01*
X139855390Y-45326338D02*
X142681728Y-42500000D01*
X142681728Y-42500000D02*
X151466116Y-42500000D01*
%TO.N,/fpga/PIO5*%
X163650000Y-53600000D02*
X152050000Y-42000000D01*
X142474622Y-42000000D02*
X139501837Y-44972785D01*
X163650000Y-53800000D02*
X163650000Y-53600000D01*
X152050000Y-42000000D02*
X142474622Y-42000000D01*
%TO.N,/fpga/PIO6*%
X142267514Y-41500000D02*
X152450000Y-41500000D01*
X152450000Y-41500000D02*
X166130000Y-55180000D01*
X166130000Y-55180000D02*
X170210000Y-55180000D01*
X139148283Y-44619231D02*
X142267514Y-41500000D01*
%TO.N,/fpga/PIO7*%
X142060408Y-41000000D02*
X138794730Y-44265678D01*
X153150000Y-41000000D02*
X142060408Y-41000000D01*
X163550000Y-51400000D02*
X153150000Y-41000000D01*
%TO.N,/fpga/PIO8*%
X138441176Y-43912124D02*
X141803300Y-40550000D01*
X141803300Y-40550000D02*
X153800000Y-40550000D01*
X165890000Y-52640000D02*
X170210000Y-52640000D01*
X153800000Y-40550000D02*
X165890000Y-52640000D01*
%TO.N,/fpga/PIO9*%
X155650000Y-40100000D02*
X164250000Y-48700000D01*
X148650000Y-40100000D02*
X155650000Y-40100000D01*
X141546194Y-40100000D02*
X148650000Y-40100000D01*
X138087623Y-43558571D02*
X141546194Y-40100000D01*
%TO.N,/fpga/PIO10*%
X141439088Y-39500000D02*
X156350000Y-39500000D01*
X166950000Y-50100000D02*
X170210000Y-50100000D01*
X156350000Y-39500000D02*
X166950000Y-50100000D01*
X137734070Y-43205018D02*
X141439088Y-39500000D01*
%TO.N,/fpga/PIO11*%
X141231980Y-39000000D02*
X137380516Y-42851464D01*
X164150000Y-46400000D02*
X156750000Y-39000000D01*
X156750000Y-39000000D02*
X141231980Y-39000000D01*
%TO.N,/fpga/PIO12*%
X135259196Y-40730144D02*
X137489340Y-38500000D01*
X166410000Y-47560000D02*
X170210000Y-47560000D01*
X137489340Y-38500000D02*
X157350000Y-38500000D01*
X157350000Y-38500000D02*
X166410000Y-47560000D01*
%TO.N,/fpga/PIO13*%
X134905643Y-40376590D02*
X137382233Y-37900000D01*
X139250000Y-37900000D02*
X157950000Y-37900000D01*
X137382233Y-37900000D02*
X139250000Y-37900000D01*
X157950000Y-37900000D02*
X163850000Y-43800000D01*
%TO.N,/fpga/PIO14*%
X133137876Y-38608824D02*
X134446700Y-37300000D01*
X167070000Y-45020000D02*
X170210000Y-45020000D01*
X134446700Y-37300000D02*
X159350000Y-37300000D01*
X159350000Y-37300000D02*
X167070000Y-45020000D01*
%TO.N,/fpga/PIO15*%
X134289592Y-36750000D02*
X159750000Y-36750000D01*
X159750000Y-36750000D02*
X160600000Y-36750000D01*
X160600000Y-36750000D02*
X165050000Y-41200000D01*
X132784322Y-38255270D02*
X134289592Y-36750000D01*
%TO.N,/fpga/PIO16*%
X162350000Y-36300000D02*
X168530000Y-42480000D01*
X132430769Y-37901717D02*
X134032486Y-36300000D01*
X134032486Y-36300000D02*
X162350000Y-36300000D01*
X168530000Y-42480000D02*
X170210000Y-42480000D01*
%TO.N,/fpga/PIO17*%
X163100000Y-35850000D02*
X133775378Y-35850000D01*
X133775378Y-35850000D02*
X132077215Y-37548163D01*
X166000000Y-38750000D02*
X163100000Y-35850000D01*
%TO.N,/fpga/PIO18*%
X133518272Y-35400000D02*
X164550000Y-35400000D01*
X131723662Y-37194610D02*
X133518272Y-35400000D01*
X169090000Y-39940000D02*
X170210000Y-39940000D01*
X164550000Y-35400000D02*
X169090000Y-39940000D01*
%TO.N,/fpga/PIO19*%
X165900000Y-34850000D02*
X167150000Y-36100000D01*
X131370109Y-36805701D02*
X133325810Y-34850000D01*
X131370109Y-36841057D02*
X131370109Y-36805701D01*
X133325810Y-34850000D02*
X133350000Y-34850000D01*
X133350000Y-34850000D02*
X165900000Y-34850000D01*
%TO.N,/fpga/PIO20*%
X130663002Y-36133950D02*
X131230940Y-35566012D01*
X131230940Y-35566012D02*
X131283988Y-35566012D01*
X132450000Y-34400000D02*
X167210000Y-34400000D01*
X131283988Y-35566012D02*
X132450000Y-34400000D01*
X167210000Y-34400000D02*
X170210000Y-37400000D01*
%TO.N,Net-(U2-PWRGD1)*%
X157190000Y-65560000D02*
X157150000Y-65600000D01*
X157190000Y-64312500D02*
X157190000Y-65560000D01*
%TO.N,Net-(U2-PWRGD2)*%
X152640000Y-64312500D02*
X152640000Y-65690000D01*
X152640000Y-65690000D02*
X152650000Y-65700000D01*
%TO.N,Net-(U2-ADJ1)*%
X159275000Y-55300000D02*
X159275000Y-58075000D01*
X158762500Y-58587500D02*
X157840000Y-58587500D01*
X159350000Y-59000000D02*
X158950000Y-58600000D01*
X159350000Y-59975000D02*
X159350000Y-59000000D01*
X159275000Y-58075000D02*
X158762500Y-58587500D01*
X158950000Y-58600000D02*
X157852500Y-58600000D01*
X157852500Y-58600000D02*
X157840000Y-58587500D01*
%TO.N,Net-(U6-IO2)*%
X107785000Y-60635000D02*
X108850000Y-61700000D01*
X106550000Y-60635000D02*
X107785000Y-60635000D01*
%TO.N,Net-(U6-IO3)*%
X113750000Y-59365000D02*
X112815000Y-59365000D01*
X112815000Y-59365000D02*
X112550000Y-59100000D01*
%TO.N,Net-(U5-DO)*%
X74293000Y-41045000D02*
X74355000Y-41107000D01*
X74293000Y-39837000D02*
X74293000Y-41045000D01*
%TO.N,Net-(U4-EEDATA)*%
X75879000Y-38694000D02*
X74420000Y-38694000D01*
X66862000Y-38567000D02*
X65120000Y-40309000D01*
X74293000Y-38567000D02*
X66862000Y-38567000D01*
X65120000Y-40309000D02*
X65120000Y-41401000D01*
X74420000Y-38694000D02*
X74293000Y-38567000D01*
%TO.N,Net-(U4-EECLK)*%
X64620000Y-41401000D02*
X64620000Y-39285000D01*
X75752000Y-37297000D02*
X74293000Y-37297000D01*
X64620000Y-39285000D02*
X66608000Y-37297000D01*
X66608000Y-37297000D02*
X74293000Y-37297000D01*
%TO.N,/ftdi/CS_FTDI*%
X75752000Y-36027000D02*
X74293000Y-36027000D01*
X64120000Y-37880000D02*
X64120000Y-41401000D01*
X74293000Y-36027000D02*
X65973000Y-36027000D01*
X65973000Y-36027000D02*
X64120000Y-37880000D01*
%TO.N,Net-(U4-REF)*%
X61695000Y-45826000D02*
X62776879Y-45826000D01*
X62776879Y-45826000D02*
X62846002Y-45895123D01*
%TO.N,Net-(U4-~{RESET})*%
X62690611Y-49826000D02*
X62942936Y-50078325D01*
X61695000Y-49826000D02*
X62690611Y-49826000D01*
%TO.N,/ICE_CLK*%
X118193360Y-40511127D02*
X117730975Y-40511127D01*
X119826590Y-42144357D02*
X118193360Y-40511127D01*
%TO.N,GND1*%
X71751000Y-49826000D02*
X71700000Y-49775000D01*
X74526000Y-43826000D02*
X74550000Y-43850000D01*
X61695000Y-43326000D02*
X61695000Y-42330000D01*
X60201000Y-50326000D02*
X60200000Y-50325000D01*
X58100000Y-37650000D02*
X58075000Y-37675000D01*
X61695000Y-49326000D02*
X60199000Y-49326000D01*
X70120000Y-41401000D02*
X70120000Y-39930000D01*
X73045000Y-43826000D02*
X74526000Y-43826000D01*
X55811000Y-43425000D02*
X55811000Y-44338000D01*
X67620000Y-51355000D02*
X67800000Y-51175000D01*
X62700000Y-39350000D02*
X62750000Y-39400000D01*
X59200000Y-37650000D02*
X58100000Y-37650000D01*
X73045000Y-49826000D02*
X71751000Y-49826000D01*
X84286000Y-54936000D02*
X84861000Y-54936000D01*
X80913000Y-39837000D02*
X81175000Y-39575000D01*
X63712500Y-61173000D02*
X63712500Y-60462500D01*
X84861000Y-54936000D02*
X85950000Y-56025000D01*
X79243000Y-39837000D02*
X80913000Y-39837000D01*
X61695000Y-45326000D02*
X60351000Y-45326000D01*
X60199000Y-49326000D02*
X60175000Y-49350000D01*
X61400000Y-39350000D02*
X62700000Y-39350000D01*
X60351000Y-45326000D02*
X60175000Y-45150000D01*
X67620000Y-52751000D02*
X67620000Y-51355000D01*
X61695000Y-50326000D02*
X60201000Y-50326000D01*
X55811000Y-44338000D02*
X57463000Y-44338000D01*
X61695000Y-42330000D02*
X61725000Y-42300000D01*
X63712500Y-60462500D02*
X63050000Y-59800000D01*
X70120000Y-39930000D02*
X70150000Y-39900000D01*
X57463000Y-44338000D02*
X57475000Y-44350000D01*
%TO.N,+5V*%
X158450000Y-64300000D02*
X157852500Y-64300000D01*
X158850000Y-64700000D02*
X158450000Y-64300000D01*
X158850000Y-64800000D02*
X158850000Y-64700000D01*
X157852500Y-64300000D02*
X157840000Y-64312500D01*
D40*
%TO.N,/usb/-*%
X55111000Y-48838000D02*
X55811000Y-48838000D01*
X54162000Y-47889000D02*
X55111000Y-48838000D01*
X60889670Y-46326000D02*
X60369670Y-45806000D01*
X54162000Y-46087000D02*
X54162000Y-47889000D01*
X54443000Y-45806000D02*
X54162000Y-46087000D01*
X61695000Y-46326000D02*
X60889670Y-46326000D01*
X60369670Y-45806000D02*
X54443000Y-45806000D01*
%TO.N,/usb/+*%
X60724745Y-46838000D02*
X60885000Y-46838000D01*
X60510000Y-46623254D02*
X60510000Y-46623255D01*
X58110000Y-46838000D02*
X58110000Y-47524132D01*
X58710000Y-47524132D02*
X58710000Y-46838000D01*
X59910000Y-46838000D02*
X59910000Y-46623254D01*
X55811000Y-46838000D02*
X57210000Y-46838000D01*
X57789540Y-46258460D02*
X57820230Y-46258460D01*
X61683000Y-46838000D02*
X61695000Y-46826000D01*
X59310000Y-46546838D02*
X59310000Y-46838000D01*
X59310000Y-46838000D02*
X59310000Y-47524132D01*
D37*
X61681000Y-46840000D02*
X61695000Y-46826000D01*
D40*
X60885000Y-46838000D02*
X61683000Y-46838000D01*
X59002636Y-46255677D02*
X59018839Y-46255677D01*
X59001161Y-46255677D02*
X59002636Y-46255677D01*
X59910000Y-47524132D02*
X59910000Y-46838000D01*
X60124745Y-46408509D02*
X60295255Y-46408509D01*
X58110000Y-46548230D02*
X58110000Y-46838000D01*
X58710000Y-46838000D02*
X58710000Y-46546838D01*
X57789540Y-46258470D02*
G75*
G03*
X57499770Y-46548230I-40J-289730D01*
G01*
X58109968Y-47524132D02*
G75*
G03*
X58410000Y-47824132I300032J32D01*
G01*
X59001161Y-46255600D02*
G75*
G03*
X58710000Y-46546838I39J-291200D01*
G01*
X59610000Y-47824100D02*
G75*
G03*
X59910000Y-47524132I0J300000D01*
G01*
X57210000Y-46837970D02*
G75*
G03*
X57499770Y-46548230I0J289770D01*
G01*
X58109940Y-46548230D02*
G75*
G03*
X57820230Y-46258460I-289740J30D01*
G01*
X59309923Y-46546838D02*
G75*
G03*
X59018839Y-46255677I-291123J38D01*
G01*
X60510000Y-46623255D02*
G75*
G03*
X60724745Y-46838000I214700J-45D01*
G01*
X58410000Y-47824100D02*
G75*
G03*
X58710000Y-47524132I0J300000D01*
G01*
X59309968Y-47524132D02*
G75*
G03*
X59610000Y-47824132I300032J32D01*
G01*
X60510091Y-46623254D02*
G75*
G03*
X60295255Y-46408509I-214791J-46D01*
G01*
X60124745Y-46408600D02*
G75*
G03*
X59910000Y-46623254I-45J-214700D01*
G01*
%TD*%
%TA.AperFunction,Conductor*%
%TO.N,+5V*%
G36*
X151233538Y-63519685D02*
G01*
X151279293Y-63572489D01*
X151290234Y-63632105D01*
X151290000Y-63635677D01*
X151290000Y-64112500D01*
X152066000Y-64112500D01*
X152133039Y-64132185D01*
X152178794Y-64184989D01*
X152190000Y-64236500D01*
X152190000Y-65475465D01*
X152178794Y-65526976D01*
X152171929Y-65542010D01*
X152164835Y-65557543D01*
X152164834Y-65557543D01*
X152144353Y-65700000D01*
X152164834Y-65842456D01*
X152204123Y-65928485D01*
X152224623Y-65973373D01*
X152224627Y-65973378D01*
X152229418Y-65980833D01*
X152226547Y-65982677D01*
X152248736Y-66031251D01*
X152250000Y-66048909D01*
X152250000Y-66200000D01*
X149350000Y-66200000D01*
X149350000Y-64512500D01*
X151290001Y-64512500D01*
X151290001Y-64989324D01*
X151305442Y-65106628D01*
X151305444Y-65106633D01*
X151365899Y-65252585D01*
X151462075Y-65377924D01*
X151587414Y-65474100D01*
X151733366Y-65534555D01*
X151733372Y-65534557D01*
X151789998Y-65542011D01*
X151790000Y-65542010D01*
X151790000Y-64512500D01*
X151290001Y-64512500D01*
X149350000Y-64512500D01*
X149350000Y-63624000D01*
X149369685Y-63556961D01*
X149422489Y-63511206D01*
X149474000Y-63500000D01*
X151166499Y-63500000D01*
X151233538Y-63519685D01*
G37*
%TD.AperFunction*%
%TD*%
%TA.AperFunction,Conductor*%
%TO.N,/power_management/out_1.2v*%
G36*
X154093039Y-57919685D02*
G01*
X154138794Y-57972489D01*
X154150000Y-58024000D01*
X154150000Y-59076000D01*
X154130315Y-59143039D01*
X154077511Y-59188794D01*
X154026000Y-59200000D01*
X153274000Y-59200000D01*
X153206961Y-59180315D01*
X153161206Y-59127511D01*
X153150000Y-59076000D01*
X153150000Y-58024000D01*
X153169685Y-57956961D01*
X153222489Y-57911206D01*
X153274000Y-57900000D01*
X154026000Y-57900000D01*
X154093039Y-57919685D01*
G37*
%TD.AperFunction*%
%TD*%
%TA.AperFunction,Conductor*%
%TO.N,/power_management/out_3.3v*%
G36*
X156705351Y-51619685D02*
G01*
X156725993Y-51636319D01*
X156813681Y-51724007D01*
X156847166Y-51785330D01*
X156850000Y-51811688D01*
X156850000Y-54500000D01*
X158126000Y-54500000D01*
X158193039Y-54519685D01*
X158238794Y-54572489D01*
X158250000Y-54624000D01*
X158250000Y-55876000D01*
X158230315Y-55943039D01*
X158177511Y-55988794D01*
X158126000Y-56000000D01*
X156750000Y-56000000D01*
X156750000Y-59176000D01*
X156730315Y-59243039D01*
X156677511Y-59288794D01*
X156626000Y-59300000D01*
X155774000Y-59300000D01*
X155706961Y-59280315D01*
X155661206Y-59227511D01*
X155650000Y-59176000D01*
X155650000Y-51724000D01*
X155669685Y-51656961D01*
X155722489Y-51611206D01*
X155774000Y-51600000D01*
X156638312Y-51600000D01*
X156705351Y-51619685D01*
G37*
%TD.AperFunction*%
%TD*%
%TA.AperFunction,Conductor*%
%TO.N,+5V*%
G36*
X154083039Y-64132185D02*
G01*
X154128794Y-64184989D01*
X154140000Y-64236500D01*
X154140000Y-65564565D01*
X154145183Y-65572737D01*
X154150000Y-65606961D01*
X154150000Y-67500000D01*
X155650000Y-67500000D01*
X155650000Y-65633273D01*
X155669685Y-65566234D01*
X155690000Y-65542648D01*
X155690000Y-64512500D01*
X156090000Y-64512500D01*
X156090000Y-65542010D01*
X156090001Y-65542011D01*
X156146622Y-65534558D01*
X156146631Y-65534555D01*
X156167547Y-65525892D01*
X156237017Y-65518423D01*
X156262453Y-65525892D01*
X156283368Y-65534555D01*
X156283377Y-65534558D01*
X156339998Y-65542011D01*
X156340000Y-65542010D01*
X156340000Y-64512500D01*
X156090000Y-64512500D01*
X155690000Y-64512500D01*
X155690000Y-64236500D01*
X155709685Y-64169461D01*
X155762489Y-64123706D01*
X155814000Y-64112500D01*
X156665500Y-64112500D01*
X156732539Y-64132185D01*
X156750000Y-64152336D01*
X156750000Y-64502498D01*
X156740000Y-64512499D01*
X156740000Y-65266291D01*
X156725087Y-65317090D01*
X156728307Y-65318561D01*
X156664834Y-65457543D01*
X156644353Y-65600000D01*
X156664834Y-65742456D01*
X156678954Y-65773373D01*
X156724623Y-65873373D01*
X156724627Y-65873378D01*
X156729418Y-65880833D01*
X156726547Y-65882677D01*
X156748736Y-65931251D01*
X156750000Y-65948909D01*
X156750000Y-67500000D01*
X157550000Y-67500000D01*
X157650000Y-67400000D01*
X157650000Y-65648144D01*
X157651262Y-65630498D01*
X157655647Y-65600000D01*
X157650000Y-65560723D01*
X157650000Y-64134960D01*
X157662988Y-64123706D01*
X157714499Y-64112500D01*
X157916000Y-64112500D01*
X157983039Y-64132185D01*
X158028794Y-64184989D01*
X158040000Y-64236500D01*
X158040000Y-65564565D01*
X158045183Y-65572737D01*
X158050000Y-65606962D01*
X158050000Y-67976000D01*
X158030315Y-68043039D01*
X157977511Y-68088794D01*
X157926000Y-68100000D01*
X149474000Y-68100000D01*
X149406961Y-68080315D01*
X149361206Y-68027511D01*
X149350000Y-67976000D01*
X149350000Y-66200000D01*
X152250000Y-66200000D01*
X152250000Y-67500000D01*
X153050000Y-67500000D01*
X153050000Y-66048909D01*
X153069685Y-65981870D01*
X153071313Y-65979694D01*
X153075368Y-65973382D01*
X153075377Y-65973373D01*
X153135165Y-65842457D01*
X153155647Y-65700000D01*
X153135165Y-65557543D01*
X153101204Y-65483181D01*
X153090000Y-65431671D01*
X153090000Y-64512500D01*
X153490000Y-64512500D01*
X153490000Y-65542010D01*
X153490001Y-65542011D01*
X153546622Y-65534558D01*
X153546631Y-65534555D01*
X153567547Y-65525892D01*
X153637017Y-65518423D01*
X153662453Y-65525892D01*
X153683368Y-65534555D01*
X153683377Y-65534558D01*
X153739998Y-65542011D01*
X153740000Y-65542010D01*
X153740000Y-64512500D01*
X153490000Y-64512500D01*
X153090000Y-64512500D01*
X153076818Y-64499318D01*
X153050000Y-64450204D01*
X153050000Y-64204143D01*
X153060184Y-64169461D01*
X153112988Y-64123706D01*
X153164499Y-64112500D01*
X154016000Y-64112500D01*
X154083039Y-64132185D01*
G37*
%TD.AperFunction*%
%TD*%
%TA.AperFunction,Conductor*%
%TO.N,/power_management/out_1.2v*%
G36*
X151193039Y-56319685D02*
G01*
X151238794Y-56372489D01*
X151250000Y-56424000D01*
X151250000Y-57600000D01*
X152126000Y-57600000D01*
X152193039Y-57619685D01*
X152238794Y-57672489D01*
X152250000Y-57724000D01*
X152250000Y-57836673D01*
X152242873Y-57870467D01*
X152244864Y-57871009D01*
X152242415Y-57880009D01*
X152239500Y-57905131D01*
X152239500Y-57905137D01*
X152239501Y-59176000D01*
X152219816Y-59243039D01*
X152167013Y-59288794D01*
X152115501Y-59300000D01*
X151774000Y-59300000D01*
X151706961Y-59280315D01*
X151661206Y-59227511D01*
X151650000Y-59176000D01*
X151650000Y-58900000D01*
X148374000Y-58900000D01*
X148306961Y-58880315D01*
X148261206Y-58827511D01*
X148250000Y-58776000D01*
X148250000Y-56451361D01*
X148269685Y-56384322D01*
X148286311Y-56363688D01*
X148313684Y-56336315D01*
X148375006Y-56302833D01*
X148401362Y-56300000D01*
X151126000Y-56300000D01*
X151193039Y-56319685D01*
G37*
%TD.AperFunction*%
%TD*%
M02*
